<svg width="150" height="51" viewBox="0 0 150 51" fill="none" xmlns="http://www.w3.org/2000/svg">
<path d="M145.326 10.8904C145.263 10.6217 145.208 10.2266 145.161 9.70508C145.129 9.51544 145.105 9.38111 145.089 9.30209C145.074 9.12825 145.058 8.97812 145.042 8.85169C144.489 8.97812 143.912 9.20727 143.311 9.53914C142.585 9.95004 142.047 10.3925 141.7 10.8666C141.51 11.1195 141.407 11.3408 141.391 11.5304C141.455 11.5462 141.526 11.5699 141.605 11.6015C141.968 11.6963 142.687 11.7833 143.762 11.8623C143.952 11.8623 144.086 11.8702 144.165 11.886C144.876 11.9334 145.453 11.9887 145.895 12.0519C146.591 12.1625 147.183 12.3206 147.673 12.526C148.432 12.8579 149.017 13.3241 149.428 13.9246C149.838 14.5252 150.028 15.2442 149.996 16.0818C149.981 16.7456 149.728 17.3461 149.238 17.8835C148.906 18.2311 148.479 18.5472 147.958 18.8317C147.152 19.2742 146.148 19.6139 144.947 19.851C143.857 20.0723 142.853 20.1592 141.937 20.1118C141.415 20.096 140.965 20.0327 140.585 19.9221C140.301 19.8431 140.056 19.7325 139.851 19.5902C139.503 19.369 139.242 19.0845 139.068 18.7368C138.863 18.326 138.831 17.9072 138.973 17.4805C139.116 17.038 139.4 16.714 139.827 16.5085C140.143 16.3505 140.467 16.2952 140.799 16.3426C141.131 16.39 141.423 16.5243 141.676 16.7456C141.786 16.7614 141.913 16.7693 142.055 16.7693C142.719 16.8009 143.47 16.7298 144.307 16.5559C145.176 16.3821 145.864 16.1609 146.37 15.8922C146.464 15.8448 146.543 15.7974 146.607 15.75C146.607 15.7342 146.599 15.7263 146.583 15.7263C146.535 15.6788 146.464 15.6393 146.37 15.6077C145.959 15.4339 145.145 15.2996 143.928 15.2047C143.849 15.2047 143.722 15.1968 143.549 15.181C142.932 15.1494 142.466 15.1099 142.15 15.0625C141.597 15.0151 141.123 14.9361 140.728 14.8255C140.159 14.6674 139.685 14.4462 139.305 14.1617C138.752 13.7508 138.381 13.2293 138.191 12.5971C137.843 11.317 138.12 10.0765 139.021 8.87539C139.637 8.022 140.514 7.27133 141.652 6.62338C142.664 6.05445 143.643 5.68306 144.592 5.50922C145.161 5.4144 145.658 5.4065 146.085 5.48552C146.417 5.53293 146.709 5.62775 146.962 5.76998C147.341 5.99123 147.626 6.2836 147.816 6.64708C147.989 6.97896 148.132 7.37405 148.242 7.83235C148.305 8.11682 148.361 8.4645 148.408 8.87539C148.424 8.97021 148.448 9.12035 148.479 9.3258C148.527 9.72089 148.566 9.99745 148.598 10.1555C148.693 10.6138 148.614 11.0405 148.361 11.4356C148.124 11.8149 147.776 12.0598 147.318 12.1704C146.875 12.2653 146.456 12.1942 146.061 11.9571C145.682 11.7042 145.437 11.3487 145.326 10.8904Z" fill="white"/>
<path d="M130.684 10.7473C130.495 13.3707 130.55 16.0099 130.85 18.665C130.898 19.1233 130.779 19.5262 130.495 19.8739C130.21 20.2374 129.839 20.4429 129.381 20.4903C128.922 20.5535 128.511 20.4429 128.148 20.1584C127.784 19.8739 127.579 19.5025 127.532 19.0442C127.31 17.1162 127.216 15.1091 127.247 13.0231C127.279 10.9212 127.429 9.01685 127.698 7.31006C127.777 6.85175 128.006 6.48827 128.385 6.21961C128.764 5.95095 129.175 5.85612 129.618 5.93514C130.187 6.02996 130.598 6.33023 130.85 6.83595C130.914 6.80434 130.977 6.78063 131.04 6.76483C132.146 6.40135 133.363 6.22751 134.691 6.24331C135.686 6.24331 136.508 6.59099 137.156 7.28635C137.63 7.80787 137.954 8.47952 138.128 9.30131C138.239 9.90185 138.254 10.534 138.175 11.1977C138.112 11.8457 137.97 12.3988 137.749 12.8571C137.543 13.2838 137.219 13.5762 136.777 13.7342C136.35 13.8765 135.923 13.8528 135.497 13.6631C135.086 13.4577 134.801 13.1416 134.643 12.7149C134.501 12.2724 134.533 11.8378 134.738 11.4111L134.762 11.3637C134.778 11.3321 134.785 11.2847 134.785 11.2214C134.817 11.1108 134.841 10.9844 134.857 10.8422C134.904 10.5103 134.896 10.21 134.833 9.94136C134.817 9.83073 134.785 9.73591 134.738 9.65689C134.738 9.62529 134.73 9.60158 134.714 9.58578C134.699 9.58578 134.683 9.58578 134.667 9.58578C133.766 9.56997 132.952 9.6727 132.225 9.89395C131.514 10.0994 131 10.3839 130.684 10.7473Z" fill="white"/>
<path d="M119.652 7.73966C119.51 8.57725 119.431 9.48596 119.415 10.4658C119.4 11.6511 119.479 12.702 119.652 13.6186C119.842 14.6142 120.126 15.357 120.506 15.8469C120.806 16.2262 121.185 16.4158 121.644 16.4158C121.786 16.4158 121.952 16.4 122.141 16.3684C122.505 16.321 122.908 16.2341 123.35 16.1077C123.335 15.8706 123.319 15.5387 123.303 15.112C123.256 14.2428 123.224 13.5396 123.208 13.0023C123.161 11.5483 123.161 10.3473 123.208 9.39904C123.287 8.07154 123.469 7.0364 123.753 6.29363C123.927 5.86693 124.22 5.55876 124.631 5.36912C125.057 5.17948 125.484 5.17157 125.911 5.34541C126.353 5.51925 126.661 5.81952 126.835 6.24622C127.025 6.65711 127.033 7.07591 126.859 7.50261C126.701 7.9135 126.598 8.60886 126.551 9.58869C126.503 10.4421 126.503 11.5404 126.551 12.8837C126.566 13.4053 126.598 14.0927 126.645 14.9461C126.725 16.7003 126.764 17.8461 126.764 18.3834C126.764 18.8417 126.598 19.2289 126.266 19.545C125.95 19.8768 125.563 20.0428 125.105 20.0428C124.583 20.0428 124.156 19.8452 123.825 19.4501C123.382 19.5608 122.963 19.6398 122.568 19.6872C122.236 19.7346 121.928 19.7583 121.644 19.7583C120.095 19.7583 118.838 19.1341 117.874 17.8856C117.163 16.9848 116.666 15.7758 116.381 14.2587C116.16 13.105 116.057 11.817 116.073 10.3947C116.089 9.25681 116.176 8.19006 116.334 7.19444C116.413 6.73613 116.634 6.37265 116.997 6.10399C117.377 5.83533 117.795 5.7405 118.254 5.81952C118.712 5.89854 119.076 6.12769 119.344 6.50698C119.613 6.87046 119.716 7.28136 119.652 7.73966Z" fill="white"/>
<path d="M110.514 9.49192C109.976 9.58674 109.479 9.8475 109.02 10.2742C108.23 10.9854 107.708 11.9257 107.456 13.0951C107.219 14.233 107.321 15.197 107.764 15.9872C108.206 16.7932 109.004 17.2594 110.158 17.3858C111.043 17.4806 111.738 17.2436 112.244 16.6747C112.766 16.0583 113.074 15.2049 113.169 14.1145C113.248 12.9924 113.074 11.9968 112.647 11.1276C112.284 10.4006 111.833 9.98183 111.296 9.87121C110.996 9.80799 110.735 9.68156 110.514 9.49192ZM113.406 7.14508C114.338 7.69821 115.081 8.5358 115.634 9.65786C116.329 11.0644 116.614 12.6289 116.487 14.3515C116.361 16.2006 115.784 17.7098 114.757 18.8793C113.477 20.3174 111.817 20.9258 109.779 20.7046C108.657 20.5782 107.669 20.2463 106.816 19.709C105.978 19.1874 105.314 18.4921 104.824 17.6229C103.987 16.1057 103.773 14.3594 104.184 12.384C104.595 10.5034 105.464 8.9704 106.792 7.78513C108.356 6.37861 110.142 5.84129 112.149 6.17316C112.734 6.26798 113.153 6.59196 113.406 7.14508Z" fill="white"/>
<path d="M92.2564 1.69291C94.3108 1.91416 96.9896 1.92996 100.293 1.74032C100.624 1.72451 101.122 1.6613 101.786 1.55067C101.897 1.53487 101.976 1.52697 102.023 1.52697C102.529 1.44795 102.948 1.39264 103.279 1.36103C103.801 1.31362 104.291 1.30572 104.749 1.33732C105.207 1.38473 105.587 1.58228 105.887 1.92996C106.187 2.27764 106.322 2.68063 106.29 3.13894C106.258 3.59724 106.061 3.97653 105.697 4.2768C105.35 4.57706 104.947 4.7114 104.488 4.67979C104.03 4.63238 103.382 4.67979 102.545 4.82202C102.497 4.82202 102.418 4.82992 102.307 4.84573C101.723 4.95635 101.28 5.01957 100.98 5.03537C101.17 6.23644 101.304 7.58765 101.383 9.089C101.509 11.4911 101.486 14.1145 101.312 16.9592C101.28 17.4807 101.241 17.9706 101.193 18.4289C101.178 18.587 101.17 18.7292 101.17 18.8556C101.154 18.8872 101.146 18.9188 101.146 18.9505V18.9979C101.098 19.4562 100.893 19.8276 100.53 20.112C100.182 20.4123 99.7789 20.5387 99.3206 20.4913C98.8623 20.4439 98.483 20.2384 98.1827 19.875C97.8983 19.5273 97.7797 19.1243 97.8271 18.666V18.6423C97.8271 18.6107 97.8271 18.5791 97.8271 18.5475C97.843 18.4368 97.8588 18.3104 97.8746 18.1682C97.9062 17.7257 97.9378 17.2516 97.9694 16.7458C98.1274 14.0276 98.1511 11.5386 98.0405 9.27864C97.9615 7.71408 97.8192 6.35497 97.6138 5.20131C95.4645 5.24872 93.5681 5.1855 91.9245 5.01166C91.4662 4.96425 91.0869 4.76671 90.7866 4.41903C90.5022 4.05555 90.3836 3.64465 90.4311 3.18635C90.4785 2.72804 90.676 2.35666 91.0237 2.07219C91.3872 1.77192 91.7981 1.64549 92.2564 1.69291Z" fill="white"/>
<path d="M77.0893 12.5024C77.2631 12.5024 77.4607 12.4945 77.6819 12.4787C77.8716 12.4471 78.156 12.4075 78.5353 12.3601C79.1991 12.2653 79.689 12.21 80.0051 12.1942C80.6846 12.1468 81.2536 11.9176 81.7119 11.5067C81.8541 11.3803 81.9489 11.2539 81.9963 11.1275C82.0279 10.9536 81.9884 10.7403 81.8778 10.4874C81.704 10.0923 81.538 9.82365 81.38 9.68142C81.301 9.61821 81.214 9.5787 81.1192 9.56289C80.6925 9.49968 79.8549 9.72093 78.6065 10.2266C78.401 10.3057 78.1798 10.5032 77.9427 10.8193C77.7056 11.1195 77.4923 11.4909 77.3027 11.9334C77.2236 12.1231 77.1525 12.3127 77.0893 12.5024ZM77.0656 15.8448C77.2552 16.3031 77.5555 16.6271 77.9664 16.8168C78.3615 16.9906 78.8672 17.0617 79.4836 17.0301C80.3053 16.9827 81.2536 16.7535 82.3282 16.3426C82.7707 16.1846 83.1974 16.2004 83.6083 16.3901C84.035 16.5797 84.3274 16.8958 84.4854 17.3383C84.6592 17.765 84.6434 18.1917 84.438 18.6184C84.2483 19.0293 83.9402 19.3137 83.5135 19.4718C80.6688 20.5464 78.3536 20.6728 76.5678 19.851C75.7302 19.456 75.0506 18.887 74.5291 18.1443C74.0234 17.4015 73.6994 16.5402 73.5572 15.5604C73.3043 13.9484 73.5256 12.3127 74.2209 10.6533C74.9795 8.83593 76.0226 7.65856 77.3501 7.12123C78.2035 6.77355 78.9146 6.5365 79.4836 6.41007C80.2737 6.20463 80.9849 6.14931 81.617 6.24413C82.3914 6.37056 83.071 6.70244 83.6557 7.23976C84.1614 7.69807 84.5881 8.33021 84.9358 9.1362C85.3309 10.0844 85.4336 10.9852 85.244 11.8386C85.0701 12.6762 84.6276 13.4032 83.9165 14.0195C83.4266 14.4462 82.8497 14.7939 82.186 15.0626C81.538 15.3312 80.8822 15.4813 80.2184 15.513C79.9972 15.5288 79.5942 15.5841 79.0094 15.6789C78.5986 15.7263 78.2667 15.7658 78.0138 15.7974C77.6819 15.829 77.3659 15.8448 77.0656 15.8448Z" fill="white"/>
<path d="M65.0487 6.95559C65.0487 6.97139 65.0487 6.9951 65.0487 7.0267C65.0487 7.04251 65.0487 7.05831 65.0487 7.07411C65.0645 7.16894 65.0724 7.27166 65.0724 7.38228C65.0724 7.4455 65.0803 7.50871 65.0961 7.57193C65.507 7.30327 65.91 7.06621 66.3051 6.86077C67.2059 6.40246 68.0435 6.1496 68.8179 6.10219C70.0506 6.02317 71.0067 6.44987 71.6863 7.38228C72.2078 8.12505 72.5871 9.03376 72.8241 10.1084C72.998 10.8828 73.1007 11.7994 73.1323 12.8582C73.1481 13.3798 73.1481 14.1146 73.1323 15.0628C73.1007 16.1217 73.1007 16.8407 73.1323 17.22C73.1481 17.4729 73.1797 17.6783 73.2271 17.8364C73.2429 17.8838 73.2508 17.9154 73.2508 17.9312C73.5195 18.3105 73.6143 18.7214 73.5353 19.1639C73.4721 19.6064 73.2587 19.9699 72.8952 20.2543C72.5159 20.523 72.0971 20.6257 71.6388 20.5625C71.1963 20.4993 70.8329 20.278 70.5484 19.8987C70.2955 19.5669 70.1059 19.156 69.9795 18.6661C69.9004 18.3184 69.8372 17.9154 69.7898 17.4571C69.7582 16.9672 69.7582 16.1454 69.7898 14.9917C69.8056 14.0909 69.8056 13.4114 69.7898 12.9531C69.7582 11.3253 69.5054 10.1558 69.0312 9.44466H69.0075C68.7073 9.46046 68.3043 9.59479 67.7986 9.84765C67.3087 10.1005 66.8187 10.4245 66.3288 10.8196C66.1234 10.9776 65.9416 11.1277 65.7836 11.27C65.7204 11.3332 65.6651 11.3964 65.6177 11.4596C65.5861 11.4912 65.5624 11.5149 65.5465 11.5307C65.4833 11.6256 65.4122 11.7125 65.3332 11.7915C65.3332 11.9811 65.3411 12.1629 65.3569 12.3367C65.3727 12.6686 65.3885 12.9847 65.4043 13.2849C65.5782 16.5247 65.6651 18.5475 65.6651 19.3535C65.6651 19.8118 65.4991 20.2069 65.1673 20.5388C64.8512 20.8707 64.4561 21.0366 63.982 21.0366C63.5237 21.0366 63.1286 20.8707 62.7967 20.5388C62.4806 20.2069 62.3226 19.8118 62.3226 19.3535C62.3226 18.5949 62.2357 16.6353 62.0619 13.4746C62.046 13.1585 62.0302 12.8424 62.0144 12.5264C61.9512 11.3411 61.8801 10.0926 61.8011 8.7809C61.7853 8.37001 61.7695 7.97492 61.7537 7.59563C61.7379 7.4692 61.73 7.35858 61.73 7.26376C61.73 7.23215 61.73 7.20054 61.73 7.16894L61.7063 7.14523C61.6905 6.68693 61.8327 6.28393 62.133 5.93625C62.4332 5.58857 62.8125 5.40683 63.2708 5.39103C63.7449 5.35942 64.1479 5.50165 64.4798 5.81773C64.8275 6.11799 65.0171 6.49728 65.0487 6.95559Z" fill="white"/>
<path d="M60.7506 1.05352C61.1299 1.29057 61.367 1.62245 61.4618 2.04914C61.5724 2.49164 61.6198 2.89464 61.604 3.25812C61.5882 3.79544 61.4223 4.25375 61.1062 4.63303C60.6795 5.13875 60.1422 5.3679 59.4942 5.32049C59.0675 5.30469 58.6724 5.16246 58.309 4.89379C57.661 4.40388 57.3212 3.77174 57.2896 2.99736C57.2422 2.01754 57.661 1.24316 58.546 0.674228C58.9095 0.452977 59.2967 0.381861 59.7076 0.460879C60.1343 0.524093 60.482 0.721639 60.7506 1.05352ZM60.9166 8.47331C60.9166 8.48912 60.9166 8.50492 60.9166 8.52072C60.9166 8.55233 60.9087 8.59184 60.8928 8.63925C60.877 8.78148 60.8612 8.93162 60.8454 9.08965C60.7822 9.61117 60.7269 10.1406 60.6795 10.6779C60.5689 11.9738 60.4978 13.167 60.4661 14.2574C60.4187 15.9168 60.482 17.189 60.6558 18.074C60.7348 18.5165 60.64 18.9274 60.3713 19.3067C60.1185 19.7018 59.7629 19.9388 59.3046 20.0179C58.8621 20.0969 58.4433 20.002 58.0482 19.7334C57.6689 19.4805 57.4398 19.1328 57.3607 18.6903C57.1553 17.5683 57.0763 16.059 57.1237 14.1626C57.1553 13.0089 57.2343 11.7526 57.3607 10.3935C57.4081 9.82452 57.4635 9.26349 57.5267 8.71037C57.5425 8.53653 57.5583 8.37849 57.5741 8.23626C57.5899 8.18885 57.5978 8.14144 57.5978 8.09402C57.5978 8.07822 57.5978 8.06242 57.5978 8.04661C57.661 7.58831 57.8744 7.22483 58.2378 6.95616C58.6013 6.6717 59.0122 6.56108 59.4705 6.62429C59.9288 6.6717 60.3002 6.87715 60.5847 7.24063C60.8691 7.60411 60.9798 8.01501 60.9166 8.47331Z" fill="white"/>
<path d="M47.0114 12.1473C47.0272 12.4476 47.043 12.8111 47.0589 13.2378C47.1537 15.5925 47.2011 17.1808 47.2011 18.0026C47.2011 18.4609 47.0351 18.856 46.7033 19.1878C46.3872 19.5197 46 19.6856 45.5417 19.6856C45.0834 19.6856 44.6883 19.5197 44.3564 19.1878C44.0246 18.856 43.8586 18.4609 43.8586 18.0026C43.8586 17.2282 43.8112 15.6873 43.7164 13.38C43.669 12.1947 43.6374 11.2544 43.6216 10.5591C43.5584 8.77325 43.5505 7.264 43.5979 6.03132C43.6611 4.41935 43.8112 3.09185 44.0483 2.04881C44.1589 1.60631 44.4117 1.26653 44.8068 1.02948C45.2019 0.776618 45.6207 0.705502 46.0632 0.816128C46.5057 0.91095 46.8455 1.15591 47.0826 1.551C47.3354 1.94609 47.4144 2.37278 47.3196 2.83109C47.051 3.92154 46.9166 5.53351 46.9166 7.66699C47.6752 7.12967 48.4733 6.71088 49.3109 6.41061C50.3855 6.01552 51.3337 5.90489 52.1555 6.07873C53.0563 6.28418 53.7675 6.78199 54.289 7.57217C54.6525 8.1095 54.9133 8.79695 55.0713 9.63454C55.1661 10.1403 55.2451 10.8119 55.3083 11.6495C55.3241 11.7601 55.3399 11.9577 55.3557 12.2421C55.4032 13.1746 55.4664 13.8067 55.5454 14.1386C55.6402 14.5495 55.8062 15.0078 56.0432 15.5135C56.2012 15.8612 56.462 16.359 56.8255 17.0069C57.0467 17.4178 57.0862 17.8445 56.944 18.287C56.8176 18.7295 56.5489 19.0614 56.138 19.2827C55.7429 19.5039 55.3241 19.5513 54.8816 19.4249C54.4391 19.2985 54.1073 19.0298 53.886 18.6189C53.4909 17.8919 53.1907 17.323 52.9852 16.9121C52.6691 16.1851 52.4321 15.4977 52.274 14.8497C52.1634 14.3598 52.0765 13.5538 52.0133 12.4318C51.9975 12.1631 51.9817 11.9735 51.9659 11.8629C51.9185 11.1833 51.8632 10.6539 51.7999 10.2746C51.7209 9.8795 51.6261 9.59504 51.5155 9.4212C51.4997 9.38959 51.4839 9.37379 51.4681 9.37379V9.35008H51.4444C51.3811 9.33428 51.2863 9.33428 51.1599 9.35008C50.9702 9.38169 50.7411 9.4449 50.4724 9.53972C49.1291 10.0296 47.9755 10.8988 47.0114 12.1473Z" fill="white"/>
<path d="M39.0452 10.8904C38.982 10.6217 38.9267 10.2266 38.8793 9.70508C38.8477 9.51544 38.824 9.38111 38.8082 9.30209C38.7924 9.12825 38.7766 8.97812 38.7607 8.85169C38.2076 8.97812 37.6308 9.20727 37.0303 9.53914C36.3033 9.95004 35.766 10.3925 35.4183 10.8666C35.2286 11.1195 35.1259 11.3408 35.1101 11.5304C35.1733 11.5462 35.2444 11.5699 35.3235 11.6015C35.6869 11.6963 36.406 11.7833 37.4807 11.8623C37.6703 11.8623 37.8046 11.8702 37.8836 11.886C38.5948 11.9334 39.1716 11.9887 39.6141 12.0519C40.3095 12.1625 40.9021 12.3206 41.3921 12.526C42.1506 12.8579 42.7354 13.3241 43.1463 13.9246C43.5571 14.5252 43.7468 15.2442 43.7152 16.0818C43.6994 16.7456 43.4465 17.3461 42.9566 17.8835C42.6247 18.2311 42.198 18.5472 41.6765 18.8317C40.8705 19.2742 39.867 19.6139 38.6659 19.851C37.5755 20.0723 36.5719 20.1592 35.6553 20.1118C35.1338 20.096 34.6834 20.0327 34.3041 19.9221C34.0197 19.8431 33.7747 19.7325 33.5693 19.5902C33.2216 19.369 32.9608 19.0845 32.787 18.7368C32.5815 18.326 32.5499 17.9072 32.6922 17.4805C32.8344 17.038 33.1189 16.714 33.5456 16.5085C33.8616 16.3505 34.1856 16.2952 34.5175 16.3426C34.8494 16.39 35.1417 16.5243 35.3946 16.7456C35.5052 16.7614 35.6316 16.7693 35.7739 16.7693C36.4376 16.8009 37.1883 16.7298 38.0259 16.5559C38.8951 16.3821 39.5825 16.1609 40.0883 15.8922C40.1831 15.8448 40.2621 15.7974 40.3253 15.75C40.3253 15.7342 40.3174 15.7263 40.3016 15.7263C40.2542 15.6788 40.1831 15.6393 40.0883 15.6077C39.6774 15.4339 38.8635 15.2996 37.6466 15.2047C37.5676 15.2047 37.4411 15.1968 37.2673 15.181C36.651 15.1494 36.1848 15.1099 35.8687 15.0625C35.3156 15.0151 34.8415 14.9361 34.4464 14.8255C33.8774 14.6674 33.4033 14.4462 33.024 14.1617C32.4709 13.7508 32.0995 13.2293 31.9099 12.5971C31.5622 11.317 31.8388 10.0765 32.7396 8.87539C33.3559 8.022 34.233 7.27133 35.3709 6.62338C36.3823 6.05445 37.3621 5.68306 38.3103 5.50922C38.8793 5.4144 39.3771 5.4065 39.8038 5.48552C40.1357 5.53293 40.428 5.62775 40.6809 5.76998C41.0602 5.99123 41.3446 6.2836 41.5343 6.64708C41.7081 6.97896 41.8504 7.37405 41.961 7.83235C42.0242 8.11682 42.0795 8.4645 42.1269 8.87539C42.1427 8.97021 42.1664 9.12035 42.198 9.3258C42.2454 9.72089 42.285 9.99745 42.3166 10.1555C42.4114 10.6138 42.3324 11.0405 42.0795 11.4356C41.8425 11.8149 41.4948 12.0598 41.0365 12.1704C40.594 12.2653 40.1752 12.1942 39.7801 11.9571C39.4008 11.7042 39.1558 11.3487 39.0452 10.8904Z" fill="white"/>
<path d="M24.4042 10.7473C24.2145 13.3707 24.2698 16.0099 24.5701 18.665C24.6175 19.1233 24.499 19.5262 24.2145 19.8739C23.93 20.2374 23.5587 20.4429 23.1004 20.4903C22.642 20.5535 22.2312 20.4429 21.8677 20.1584C21.5042 19.8739 21.2987 19.5025 21.2513 19.0442C21.0301 17.1162 20.9353 15.1091 20.9669 13.0231C20.9985 10.9212 21.1486 9.01685 21.4173 7.31006C21.4963 6.85175 21.7254 6.48827 22.1047 6.21961C22.484 5.95095 22.8949 5.85612 23.3374 5.93514C23.9063 6.02996 24.3172 6.33023 24.5701 6.83595C24.6333 6.80434 24.6965 6.78063 24.7597 6.76483C25.866 6.40135 27.0829 6.22751 28.4104 6.24331C29.406 6.24331 30.2278 6.59099 30.8757 7.28635C31.3498 7.80787 31.6738 8.47952 31.8477 9.30131C31.9583 9.90185 31.9741 10.534 31.8951 11.1977C31.8318 11.8457 31.6896 12.3988 31.4684 12.8571C31.2629 13.2838 30.9389 13.5762 30.4964 13.7342C30.0697 13.8765 29.643 13.8528 29.2164 13.6631C28.8055 13.4577 28.521 13.1416 28.363 12.7149C28.2207 12.2724 28.2523 11.8378 28.4578 11.4111L28.4815 11.3637C28.4973 11.3321 28.5052 11.2847 28.5052 11.2214C28.5368 11.1108 28.5605 10.9844 28.5763 10.8422C28.6237 10.5103 28.6158 10.21 28.5526 9.94136C28.5368 9.83073 28.5052 9.73591 28.4578 9.65689C28.4578 9.62529 28.4499 9.60158 28.4341 9.58578C28.4183 9.58578 28.4025 9.58578 28.3867 9.58578C27.4859 9.56997 26.672 9.6727 25.945 9.89395C25.2338 10.0994 24.7202 10.3839 24.4042 10.7473Z" fill="white"/>
<path d="M19.8444 1.05352C20.2237 1.29057 20.4607 1.62245 20.5555 2.04914C20.6662 2.49164 20.7136 2.89464 20.6978 3.25812C20.682 3.79544 20.516 4.25375 20.1999 4.63303C19.7733 5.13875 19.2359 5.3679 18.588 5.32049C18.1613 5.30469 17.7662 5.16246 17.4027 4.89379C16.7548 4.40388 16.415 3.77174 16.3834 2.99736C16.336 2.01754 16.7548 1.24316 17.6398 0.674228C18.0032 0.452977 18.3904 0.381861 18.8013 0.460879C19.228 0.524093 19.5757 0.721639 19.8444 1.05352ZM20.0103 8.47331C20.0103 8.48912 20.0103 8.50492 20.0103 8.52072C20.0103 8.55233 20.0024 8.59184 19.9866 8.63925C19.9708 8.78148 19.955 8.93162 19.9392 9.08965C19.876 9.61117 19.8207 10.1406 19.7733 10.6779C19.6626 11.9738 19.5915 13.167 19.5599 14.2574C19.5125 15.9168 19.5757 17.189 19.7495 18.074C19.8286 18.5165 19.7337 18.9274 19.4651 19.3067C19.2122 19.7018 18.8566 19.9388 18.3983 20.0179C17.9558 20.0969 17.537 20.002 17.1419 19.7334C16.7627 19.4805 16.5335 19.1328 16.4545 18.6903C16.249 17.5683 16.17 16.059 16.2174 14.1626C16.249 13.0089 16.3281 11.7526 16.4545 10.3935C16.5019 9.82452 16.5572 9.26349 16.6204 8.71037C16.6362 8.53653 16.652 8.37849 16.6678 8.23626C16.6836 8.18885 16.6915 8.14144 16.6915 8.09402C16.6915 8.07822 16.6915 8.06242 16.6915 8.04661C16.7548 7.58831 16.9681 7.22483 17.3316 6.95616C17.6951 6.6717 18.106 6.56108 18.5643 6.62429C19.0226 6.6717 19.394 6.87715 19.6784 7.24063C19.9629 7.60411 20.0735 8.01501 20.0103 8.47331Z" fill="white"/>
<path d="M5.65388 11.9576C5.66969 11.9418 5.68549 11.9339 5.70129 11.9339C7.40808 11.9181 8.69608 11.926 9.56528 11.9576C10.4661 11.9892 11.3037 12.0524 12.0781 12.1473C11.7304 9.6661 11.4222 8.03833 11.1535 7.26395C10.8217 6.22091 10.474 5.46234 10.1105 4.98823C9.99988 4.8618 9.90505 4.76698 9.82604 4.70376C9.73121 4.75118 9.61269 4.846 9.47045 4.98823C9.05956 5.35171 8.61706 5.95225 8.14295 6.78984C7.17893 8.48083 6.34924 10.2034 5.65388 11.9576ZM0.841681 18.7848C0.715252 17.7259 0.810074 16.4933 1.12615 15.0867C0.857485 14.9287 0.644136 14.7154 0.4861 14.4467C0.31226 14.1622 0.233242 13.862 0.249046 13.5459C0.264849 13.0876 0.446591 12.7004 0.79427 12.3843C1.12615 12.0682 1.52124 11.9181 1.97954 11.9339C2.01115 11.9339 2.04276 11.9339 2.07436 11.9339C2.12177 11.8233 2.16128 11.7048 2.19289 11.5783C2.99887 9.42904 4.01031 7.27975 5.22718 5.13046C5.87513 3.9926 6.53888 3.1234 7.21844 2.52287C8.10344 1.70108 9.03586 1.31389 10.0157 1.3613C11.0587 1.42451 11.9674 1.95394 12.7418 2.94956C13.3423 3.72394 13.8718 4.80649 14.3301 6.19721C14.6935 7.30346 15.0886 9.42114 15.5153 12.5503C15.9104 15.4581 16.108 17.4336 16.108 18.4766C16.108 18.9349 15.942 19.3221 15.6102 19.6382C15.2941 19.9701 14.9069 20.136 14.4486 20.136C13.9903 20.136 13.5952 19.9701 13.2633 19.6382C12.9314 19.3221 12.7655 18.9349 12.7655 18.4766C12.7655 17.9867 12.6865 17.0306 12.5285 15.6083C11.6118 15.4502 10.5846 15.3475 9.44675 15.3001C8.64076 15.2685 7.40808 15.2606 5.7487 15.2764C5.25879 15.2922 4.8479 15.3001 4.51602 15.3001C4.18415 16.596 4.06562 17.639 4.16044 18.4292C4.20785 18.8875 4.08142 19.2905 3.78115 19.6382C3.49669 20.0017 3.1253 20.2071 2.667 20.2545C2.20869 20.3177 1.7978 20.1992 1.43432 19.8989C1.08664 19.6145 0.889092 19.2431 0.841681 18.7848Z" fill="white"/>
<path d="M117.434 32.1358C117.181 34.1745 117.118 36.9243 117.245 40.3853C117.26 40.8278 117.292 41.4836 117.339 42.3528C117.434 44.8182 117.482 46.6593 117.482 47.8762C117.482 48.3345 117.316 48.7296 116.984 49.0615C116.668 49.3775 116.281 49.5356 115.822 49.5356C115.364 49.5356 114.969 49.3775 114.637 49.0615C114.305 48.7296 114.139 48.3345 114.139 47.8762C114.139 46.7067 114.092 44.913 113.997 42.4951C113.965 41.6101 113.942 40.9463 113.926 40.5038C113.863 38.797 113.831 37.3352 113.831 36.1183C113.863 34.5221 113.957 33.0603 114.116 31.7328C114.163 31.2745 114.368 30.9031 114.732 30.6186C115.095 30.3342 115.506 30.2236 115.965 30.2868C116.423 30.3342 116.794 30.5396 117.079 30.9031C117.363 31.2666 117.482 31.6775 117.434 32.1358Z" fill="white"/>
<path d="M105.106 42.5903C105.28 42.5903 105.477 42.5824 105.699 42.5666C105.888 42.5349 106.173 42.4954 106.552 42.448C107.216 42.3532 107.706 42.2979 108.022 42.2821C108.701 42.2347 109.27 42.0055 109.728 41.5946C109.871 41.4682 109.966 41.3418 110.013 41.2153C110.045 41.0415 110.005 40.8282 109.894 40.5753C109.721 40.1802 109.555 39.9115 109.397 39.7693C109.318 39.7061 109.231 39.6666 109.136 39.6508C108.709 39.5876 107.872 39.8088 106.623 40.3145C106.418 40.3936 106.196 40.5911 105.959 40.9072C105.722 41.2074 105.509 41.5788 105.319 42.0213C105.24 42.211 105.169 42.4006 105.106 42.5903ZM105.082 45.9327C105.272 46.391 105.572 46.715 105.983 46.9046C106.378 47.0785 106.884 47.1496 107.5 47.118C108.322 47.0706 109.27 46.8414 110.345 46.4305C110.787 46.2725 111.214 46.2883 111.625 46.4779C112.052 46.6676 112.344 46.9837 112.502 47.4262C112.676 47.8529 112.66 48.2796 112.455 48.7063C112.265 49.1171 111.957 49.4016 111.53 49.5597C108.685 50.6343 106.37 50.7607 104.584 49.9389C103.747 49.5438 103.067 48.9749 102.546 48.2321C102.04 47.4894 101.716 46.6281 101.574 45.6483C101.321 44.0363 101.542 42.4006 102.238 40.7412C102.996 38.9238 104.039 37.7464 105.367 37.2091C106.22 36.8614 106.931 36.6244 107.5 36.498C108.29 36.2925 109.001 36.2372 109.634 36.332C110.408 36.4585 111.088 36.7903 111.672 37.3277C112.178 37.786 112.605 38.4181 112.952 39.2241C113.347 40.1723 113.45 41.0731 113.261 41.9265C113.087 42.7641 112.644 43.4911 111.933 44.1074C111.443 44.5341 110.866 44.8818 110.203 45.1504C109.555 45.4191 108.899 45.5692 108.235 45.6008C108.014 45.6166 107.611 45.672 107.026 45.7668C106.615 45.8142 106.283 45.8537 106.03 45.8853C105.699 45.9169 105.382 45.9327 105.082 45.9327Z" fill="white"/>
<path d="M93.8744 36.7599C94.0957 37.5184 94.3169 38.3718 94.5382 39.3201C94.6488 39.8732 94.8147 40.7029 95.036 41.8091C95.036 41.8723 95.0439 41.9198 95.0597 41.9514C95.1861 42.5993 95.2809 43.0971 95.3442 43.4448C95.6128 43.0181 95.8736 42.5598 96.1264 42.0699C97.1537 40.2209 97.8885 38.6168 98.331 37.2577C98.4891 36.8152 98.7735 36.4912 99.1844 36.2858C99.5953 36.0803 100.014 36.0566 100.441 36.2146C100.883 36.3569 101.207 36.6334 101.413 37.0443C101.618 37.4552 101.65 37.8819 101.508 38.3244C101.002 39.8574 100.188 41.6432 99.0659 43.6819C97.8332 45.926 96.7112 47.5537 95.6997 48.5652C95.4943 48.7706 95.2572 48.9208 94.9886 49.0156C94.5619 49.1578 94.1431 49.1262 93.7322 48.9208C93.4635 48.7943 93.2423 48.6126 93.0684 48.3755C92.9736 48.2491 92.9025 48.1227 92.8551 47.9962C92.8077 47.8698 92.7603 47.7276 92.7129 47.5695C92.7129 47.5221 92.6971 47.4431 92.6654 47.3325V47.3088C92.539 46.9137 92.4284 46.3606 92.3336 45.6494C92.3336 45.6178 92.3257 45.5625 92.3099 45.4835C92.2625 45.1042 92.2229 44.8355 92.1913 44.6775C92.0807 44.1876 91.9385 43.4843 91.7646 42.5677C91.7646 42.5519 91.7567 42.5124 91.7409 42.4492C91.5355 41.3745 91.3775 40.5685 91.2668 40.0312C91.0772 39.1778 90.8796 38.4193 90.6742 37.7555C90.532 37.313 90.5636 36.8942 90.769 36.4991C90.9903 36.0882 91.3221 35.8117 91.7646 35.6694C92.2071 35.5272 92.6338 35.5667 93.0447 35.7879C93.4556 35.9934 93.7322 36.3174 93.8744 36.7599Z" fill="white"/>
<path d="M87.0068 40.0533C85.6003 40.0375 84.5019 40.2666 83.7117 40.7407C82.8741 41.2307 82.4237 42.0208 82.3605 43.1113C82.2973 44.2966 82.3921 45.2527 82.645 45.9796C82.8346 46.5012 83.0717 46.833 83.3561 46.9753C83.6406 47.1017 84.0436 47.078 84.5651 46.9042C85.3395 46.6197 86.2087 46.0271 87.1727 45.1262C87.1727 44.6205 87.1727 44.1464 87.1727 43.7039C87.1569 42.3764 87.1016 41.1595 87.0068 40.0533ZM90.2544 38.8206C90.3966 40.3219 90.4836 41.9339 90.5152 43.6565C90.5152 44.3361 90.5152 45.3712 90.5152 46.7619C90.4994 47.5205 90.4915 48.1131 90.4915 48.5398C90.4915 48.9981 90.3255 49.3853 89.9937 49.7014C89.6776 50.0333 89.2904 50.1992 88.8321 50.1992C88.5002 50.1992 88.1999 50.1123 87.9313 49.9384C87.6626 49.7646 87.4572 49.5355 87.3149 49.251C86.7618 49.5829 86.2245 49.8436 85.703 50.0333C84.2965 50.539 83.0243 50.5153 81.8864 49.9622C80.796 49.4248 80.0058 48.4766 79.5159 47.1175C79.0892 45.948 78.9232 44.5494 79.018 42.9216C79.1603 40.6459 80.1559 38.9549 82.0049 37.8487C83.6327 36.8847 85.7978 36.5291 88.5002 36.7819C88.8637 36.8135 89.1798 36.9479 89.4484 37.1849C89.7171 37.4062 89.8909 37.6906 89.9699 38.0383C90.128 38.2754 90.2228 38.5361 90.2544 38.8206Z" fill="white"/>
<path d="M71.8202 40.8352C71.6305 43.4586 71.6858 46.0978 71.9861 48.7528C72.0335 49.2111 71.915 49.6141 71.6305 49.9618C71.3461 50.3253 70.9747 50.5307 70.5164 50.5782C70.0581 50.6414 69.6472 50.5307 69.2837 50.2463C68.9202 49.9618 68.7148 49.5904 68.6673 49.1321C68.4461 47.2041 68.3513 45.197 68.3829 43.111C68.4145 41.0091 68.5646 39.1047 68.8333 37.3979C68.9123 36.9396 69.1415 36.5762 69.5207 36.3075C69.9 36.0388 70.3109 35.944 70.7534 36.023C71.3224 36.1179 71.7332 36.4181 71.9861 36.9238C72.0493 36.8922 72.1125 36.8685 72.1757 36.8527C73.282 36.4892 74.4989 36.3154 75.8264 36.3312C76.822 36.3312 77.6438 36.6789 78.2917 37.3742C78.7659 37.8958 79.0898 38.5674 79.2637 39.3892C79.3743 39.9897 79.3901 40.6219 79.3111 41.2856C79.2479 41.9336 79.1056 42.4867 78.8844 42.945C78.6789 43.3717 78.355 43.6641 77.9125 43.8221C77.4858 43.9643 77.0591 43.9406 76.6324 43.751C76.2215 43.5456 75.937 43.2295 75.779 42.8028C75.6367 42.3603 75.6683 41.9257 75.8738 41.499L75.8975 41.4516C75.9133 41.42 75.9212 41.3726 75.9212 41.3093C75.9528 41.1987 75.9765 41.0723 75.9923 40.9301C76.0397 40.5982 76.0318 40.2979 75.9686 40.0292C75.9528 39.9186 75.9212 39.8238 75.8738 39.7448C75.8738 39.7132 75.8659 39.6895 75.8501 39.6737C75.8343 39.6737 75.8185 39.6737 75.8027 39.6737C74.9019 39.6579 74.088 39.7606 73.361 39.9818C72.6499 40.1873 72.1362 40.4717 71.8202 40.8352Z" fill="white"/>
<path d="M57.1665 31.7808C59.221 32.002 61.8997 32.0179 65.2027 31.8282C65.5345 31.8124 66.0324 31.7492 66.6961 31.6386C66.8067 31.6228 66.8858 31.6149 66.9332 31.6149C67.4389 31.5358 67.8577 31.4805 68.1896 31.4489C68.7111 31.4015 69.201 31.3936 69.6593 31.4252C70.1176 31.4726 70.4969 31.6702 70.7971 32.0179C71.0974 32.3655 71.2317 32.7685 71.2001 33.2268C71.1685 33.6851 70.971 34.0644 70.6075 34.3647C70.2598 34.665 69.8568 34.7993 69.3985 34.7677C68.9402 34.7203 68.2923 34.7677 67.4547 34.9099C67.4073 34.9099 67.3283 34.9178 67.2176 34.9336C66.6329 35.0442 66.1904 35.1075 65.8901 35.1233C66.0798 36.3243 66.2141 37.6755 66.2931 39.1769C66.4195 41.579 66.3958 44.2024 66.222 47.0471C66.1904 47.5686 66.1509 48.0585 66.1035 48.5168C66.0877 48.6749 66.0798 48.8171 66.0798 48.9435C66.064 48.9751 66.0561 49.0067 66.0561 49.0383V49.0858C66.0087 49.5441 65.8032 49.9154 65.4397 50.1999C65.092 50.5002 64.6891 50.6266 64.2307 50.5792C63.7724 50.5318 63.3932 50.3263 63.0929 49.9629C62.8084 49.6152 62.6899 49.2122 62.7373 48.7539V48.7302C62.7373 48.6986 62.7373 48.667 62.7373 48.6354C62.7531 48.5247 62.7689 48.3983 62.7847 48.2561C62.8163 47.8136 62.8479 47.3395 62.8795 46.8337C63.0376 44.1155 63.0613 41.6264 62.9507 39.3665C62.8716 37.802 62.7294 36.4429 62.524 35.2892C60.3747 35.3366 58.4782 35.2734 56.8347 35.0996C56.3764 35.0521 55.9971 34.8546 55.6968 34.5069C55.4123 34.1434 55.2938 33.7325 55.3412 33.2742C55.3886 32.8159 55.5862 32.4445 55.9338 32.1601C56.2973 31.8598 56.7082 31.7334 57.1665 31.7808Z" fill="white"/>
<path d="M39.7441 41.7831C39.4122 42.1149 39.1356 42.431 38.9144 42.7313C38.298 43.5689 38.1163 44.3274 38.3692 45.007C38.4324 45.1808 38.622 45.3705 38.9381 45.5759C39.3648 45.8446 39.8942 46.05 40.5264 46.1923C41.1743 46.3187 41.7906 46.3582 42.3754 46.3108C42.4386 46.295 42.5097 46.2871 42.5887 46.2871C41.7985 45.2599 41.0795 44.1773 40.4315 43.0394C40.1787 42.6128 39.9495 42.194 39.7441 41.7831ZM43.7029 34.0551C43.3394 34.0393 43.0154 34.0788 42.731 34.1736C42.1778 34.3475 41.7432 34.545 41.4272 34.7663C41.3481 34.8295 41.2849 34.9638 41.2375 35.1693C41.1901 35.4379 41.198 35.7777 41.2612 36.1886C41.7353 35.8409 42.1067 35.5485 42.3754 35.3115C43.0233 34.79 43.4658 34.3712 43.7029 34.0551ZM48.1595 50.6252C47.7486 50.6252 47.3298 50.5304 46.9031 50.3407C46.587 50.1985 46.2552 50.0088 45.9075 49.7718C45.6072 49.5505 45.299 49.2898 44.983 48.9895C44.335 49.353 43.5448 49.5663 42.6124 49.6296C41.6958 49.7086 40.7792 49.6454 39.8626 49.4399C38.8354 49.2345 37.9425 48.8947 37.1839 48.4206C36.2041 47.8042 35.5482 47.0378 35.2163 46.1212C34.8687 45.1729 34.8134 44.201 35.0504 43.2054C35.24 42.3994 35.6272 41.5855 36.212 40.7637C36.6703 40.1474 37.2708 39.4994 38.0136 38.8199C38.1242 38.7093 38.2427 38.5986 38.3692 38.488C38.2427 38.0929 38.14 37.7057 38.061 37.3264C37.8397 36.2834 37.8081 35.3589 37.9662 34.5529C38.1716 33.4783 38.6773 32.6486 39.4833 32.0638C40.0681 31.6371 40.795 31.2816 41.6642 30.9971C42.2648 30.7916 42.9285 30.6968 43.6555 30.7126C44.3982 30.7126 45.0462 30.8391 45.5993 31.0919C45.9944 31.2816 46.3342 31.5265 46.6186 31.8268C46.9505 32.2061 47.1639 32.6407 47.2587 33.1306C47.4167 33.9998 47.1639 34.9164 46.5001 35.8804C46.0892 36.4651 45.4176 37.1368 44.4852 37.8954C44.1849 38.1482 43.7898 38.4643 43.2999 38.8436L42.6836 39.3177C42.5571 39.4125 42.4544 39.4915 42.3754 39.5548C42.644 40.1395 42.9601 40.7479 43.3236 41.3801C43.8925 42.3441 44.5089 43.2765 45.1726 44.1773C45.299 43.9719 45.4255 43.7664 45.5519 43.561C46.0576 42.6444 46.5396 41.5065 46.9979 40.1474C47.1402 39.7049 47.4167 39.3809 47.8276 39.1755C48.2385 38.9542 48.6573 38.9226 49.084 39.0806C49.5265 39.2229 49.8505 39.4994 50.0559 39.9103C50.2772 40.3212 50.3167 40.74 50.1745 41.1667C49.6529 42.7471 49.0761 44.0983 48.444 45.2203C48.1279 45.7735 47.796 46.2713 47.4483 46.7138C47.5906 46.8402 47.7328 46.9508 47.875 47.0457C48.0331 47.1563 48.1595 47.2353 48.2543 47.2827C48.6652 47.2985 49.0287 47.4645 49.3448 47.7805C49.6608 48.1124 49.8189 48.5075 49.8189 48.9658C49.8189 49.4241 49.6529 49.8113 49.3211 50.1274C49.005 50.4592 48.6178 50.6252 48.1595 50.6252Z" fill="white"/>
</svg>
