<svg width="118" height="24" viewBox="0 0 118 24" fill="none" xmlns="http://www.w3.org/2000/svg">
<path d="M112.886 3.33525C112.886 2.64725 113.094 2.09525 113.51 1.67925C113.942 1.24725 114.534 1.03125 115.286 1.03125C116.086 1.03125 116.678 1.23925 117.062 1.65525C117.462 2.07125 117.662 2.62325 117.662 3.31125C117.662 3.98325 117.462 4.52725 117.062 4.94325C116.678 5.34325 116.086 5.54325 115.286 5.54325C114.502 5.54325 113.902 5.34325 113.486 4.94325C113.086 4.52725 112.886 3.99125 112.886 3.33525ZM115.286 18.6712C114.534 18.6712 113.974 18.4632 113.606 18.0472C113.238 17.6312 113.054 17.1113 113.054 16.4873V8.27925C113.054 7.59125 113.238 7.04725 113.606 6.64725C113.974 6.24725 114.534 6.04725 115.286 6.04725C116.038 6.04725 116.598 6.24725 116.966 6.64725C117.35 7.04725 117.542 7.57525 117.542 8.23125V16.4873C117.542 17.1113 117.342 17.6312 116.942 18.0472C116.558 18.4632 116.006 18.6712 115.286 18.6712Z" fill="white"/>
<path d="M103.315 18.6728C102.131 18.6728 101.203 18.3528 100.531 17.7128C99.8749 17.0728 99.5469 16.1768 99.5469 15.0248C99.5469 13.8728 99.9309 13.0408 100.699 12.5288C101.467 12.0008 102.451 11.7368 103.651 11.7368C104.355 11.7368 104.995 11.7848 105.571 11.8808C106.147 11.9768 106.667 12.1128 107.131 12.2888H107.203V11.9288C107.203 11.5608 107.067 11.2728 106.795 11.0648C106.523 10.8408 106.179 10.7368 105.763 10.7528C105.363 10.7528 105.019 10.7768 104.731 10.8248C104.459 10.8728 104.115 10.9528 103.699 11.0648C102.931 11.2568 102.267 11.2408 101.707 11.0168C101.147 10.7928 100.763 10.3528 100.555 9.69683C100.363 9.00883 100.403 8.43283 100.675 7.96883C100.963 7.50483 101.395 7.14483 101.971 6.88883C102.467 6.64883 103.019 6.44883 103.627 6.28883C104.251 6.12883 104.923 6.04883 105.643 6.04883C107.739 6.04883 109.275 6.56083 110.251 7.58483C111.243 8.59283 111.739 10.2888 111.739 12.6728V16.3928C111.739 17.0488 111.539 17.5928 111.139 18.0248C110.739 18.4568 110.187 18.6728 109.483 18.6728C108.715 18.6728 108.139 18.4568 107.755 18.0248C107.387 17.5928 107.203 17.0648 107.203 16.4408V15.8888H106.723C106.723 16.3048 106.643 16.7288 106.483 17.1608C106.339 17.5928 106.027 17.9528 105.547 18.2408C105.083 18.5288 104.339 18.6728 103.315 18.6728ZM103.555 13.4168C103.555 13.6888 103.651 13.8808 103.843 13.9928C104.051 14.1048 104.491 14.1608 105.163 14.1608C105.771 14.1608 106.195 14.1048 106.435 13.9928C106.675 13.8808 106.795 13.6888 106.795 13.4168C106.795 13.1608 106.675 12.9848 106.435 12.8888C106.195 12.7768 105.771 12.7208 105.163 12.7208C104.491 12.7208 104.051 12.7768 103.843 12.8888C103.651 12.9848 103.555 13.1608 103.555 13.4168Z" fill="white"/>
<path d="M95.5898 19.1277C94.6458 19.1277 93.9098 18.8797 93.3818 18.3837C92.8538 17.8717 92.5898 17.1997 92.5898 16.3677C92.5898 15.5197 92.8618 14.8317 93.4058 14.3037C93.9498 13.7757 94.6778 13.5117 95.5898 13.5117C96.4858 13.5117 97.1978 13.7757 97.7258 14.3037C98.2698 14.8157 98.5418 15.4957 98.5418 16.3437C98.5418 17.1757 98.2858 17.8477 97.7738 18.3597C97.2618 18.8717 96.5338 19.1277 95.5898 19.1277Z" fill="white"/>
<path d="M78.5182 18.6714C77.5902 18.6714 76.8302 18.3674 76.2382 17.7594C75.6622 17.1514 75.1342 16.1514 74.6542 14.7594L72.8302 9.33539C72.6222 8.72739 72.6142 8.1114 72.8062 7.4874C72.9982 6.8634 73.4382 6.43939 74.1262 6.21539C74.7662 5.99139 75.3502 6.00739 75.8782 6.26339C76.4062 6.51939 76.7742 6.95939 76.9822 7.58339L78.9502 13.4634C79.1742 14.1514 79.4062 14.6154 79.6462 14.8554C79.8862 15.0794 80.2062 15.1274 80.6062 14.9994C80.9422 14.8874 81.1502 14.6474 81.2302 14.2794C81.3262 13.8954 81.2142 13.2394 80.8942 12.3114L79.9102 9.33539C79.7022 8.71139 79.6942 8.09539 79.8862 7.4874C80.0942 6.8634 80.5422 6.43939 81.2302 6.21539C81.8702 5.99139 82.4542 6.00739 82.9822 6.26339C83.5102 6.51939 83.8782 6.95939 84.0862 7.58339L86.1022 13.7274C86.2302 14.0954 86.4302 14.4314 86.7022 14.7354C86.9742 15.0394 87.3262 15.1274 87.7582 14.9994C88.0942 14.8874 88.3102 14.6634 88.4062 14.3274C88.5182 13.9914 88.5022 13.5994 88.3582 13.1514C88.1662 12.5434 87.9502 12.0634 87.7102 11.7114C87.4862 11.3594 87.2622 11.0554 87.0382 10.7994C86.8302 10.5434 86.6542 10.2714 86.5102 9.9834C86.3822 9.6954 86.3022 9.30339 86.2702 8.80739C86.2382 8.29539 86.3422 7.84739 86.5822 7.46339C86.8382 7.06339 87.1742 6.75139 87.5902 6.52739C88.0222 6.30339 88.4942 6.19139 89.0062 6.19139C89.7902 6.19139 90.4222 6.45539 90.9022 6.9834C91.3982 7.4954 91.6462 8.10339 91.6462 8.80739C91.6462 9.06339 91.6062 9.39939 91.5262 9.81539C91.4462 10.2314 91.3422 10.6154 91.2142 10.9674L90.2062 13.5834C89.9982 14.1594 89.7582 14.7514 89.4862 15.3594C89.2302 15.9514 88.9262 16.4954 88.5742 16.9914C88.2382 17.4874 87.8462 17.8954 87.3982 18.2154C86.9502 18.5194 86.4302 18.6714 85.8382 18.6714C84.8142 18.6714 83.9902 18.4074 83.3662 17.8794C82.7582 17.3514 82.2782 16.4794 81.9262 15.2634H81.6862C81.4782 16.2554 81.1342 17.0714 80.6542 17.7114C80.1742 18.3514 79.4622 18.6714 78.5182 18.6714Z" fill="white"/>
<path d="M66.4829 18.7194C64.6109 18.7194 63.1149 18.1674 61.9949 17.0634C60.8909 15.9434 60.3389 14.3674 60.3389 12.3354C60.3389 11.0874 60.5949 9.99144 61.1069 9.04744C61.6189 8.10344 62.3309 7.36744 63.2429 6.83944C64.1709 6.29544 65.2509 6.02344 66.4829 6.02344C67.8589 6.02344 69.0029 6.29544 69.9149 6.83944C70.8269 7.36744 71.5069 8.10344 71.9549 9.04744C72.4189 9.99144 72.6509 11.0874 72.6509 12.3354C72.6509 14.3674 72.1389 15.9434 71.1149 17.0634C70.1069 18.1674 68.5629 18.7194 66.4829 18.7194ZM63.1949 11.9274C63.1949 12.4234 63.4429 12.7754 63.9389 12.9834C64.4349 13.1754 65.2829 13.2714 66.4829 13.2714C67.6829 13.2714 68.5309 13.1754 69.0269 12.9834C69.5229 12.7754 69.7709 12.4234 69.7709 11.9274C69.7709 11.4474 69.5229 11.1114 69.0269 10.9194C68.5309 10.7274 67.6829 10.6314 66.4829 10.6314C65.2829 10.6314 64.4349 10.7274 63.9389 10.9194C63.4429 11.1114 63.1949 11.4474 63.1949 11.9274Z" fill="white"/>
<path d="M49.0667 18.672C48.3947 18.672 47.8427 18.464 47.4107 18.048C46.9947 17.616 46.7867 17.08 46.7867 16.44V11.088C46.3707 11.184 45.9947 11.128 45.6587 10.92C45.3227 10.696 45.0507 10.376 44.8427 9.96C44.6507 9.528 44.5547 9.064 44.5547 8.568C44.5547 8.072 44.6587 7.616 44.8667 7.2C45.0747 6.784 45.3467 6.472 45.6827 6.264C46.0347 6.04 46.4187 5.992 46.8347 6.12C46.9147 4.936 47.1467 3.888 47.5307 2.976C47.9307 2.048 48.4907 1.32 49.2107 0.792C49.9467 0.264 50.8507 0 51.9227 0C52.5787 0 53.1467 0.104 53.6267 0.312C54.1227 0.504001 54.4987 0.752 54.7547 1.056C55.2827 0.464 56.0347 0.168 57.0107 0.168C57.7147 0.168 58.2667 0.400001 58.6667 0.864C59.0667 1.312 59.2667 1.864 59.2667 2.52V16.488C59.2667 17.112 59.0667 17.632 58.6667 18.048C58.2827 18.464 57.7387 18.672 57.0347 18.672C56.2507 18.672 55.6587 18.464 55.2587 18.048C54.8747 17.632 54.6827 17.112 54.6827 16.488V4.992L54.6587 4.968C54.4827 5.112 54.2827 5.232 54.0587 5.328C53.8347 5.424 53.5787 5.472 53.2907 5.472C52.7787 5.472 52.3547 5.376 52.0187 5.184C51.6827 4.976 51.4027 4.728 51.1787 4.44C50.9707 4.152 50.7787 3.888 50.6027 3.648C50.0267 2.848 49.4667 2.592 48.9227 2.88C48.6827 2.992 48.5307 3.192 48.4667 3.48C48.4027 3.768 48.4587 4.072 48.6347 4.392C49.0667 5.176 49.4987 5.696 49.9307 5.952C50.3627 6.208 50.7787 6.32 51.1787 6.288L51.9467 6.24C52.7307 6.16 53.2987 6.352 53.6507 6.816C54.0027 7.264 54.1787 7.864 54.1787 8.616C54.1787 9.368 54.0027 9.968 53.6507 10.416C53.2987 10.864 52.7307 11.056 51.9467 10.992L51.3707 10.968V16.44C51.3707 17.08 51.1627 17.616 50.7467 18.048C50.3307 18.464 49.7707 18.672 49.0667 18.672Z" fill="white"/>
<path d="M39.5635 18.6719C38.6835 18.6719 37.9475 18.3999 37.3555 17.8559C36.7795 17.3119 36.4115 16.6079 36.2515 15.7439H35.8195V21.2639C35.8195 21.9199 35.6355 22.4719 35.2675 22.9199C34.8995 23.3839 34.3395 23.6159 33.5875 23.6159C32.8675 23.6159 32.3075 23.3839 31.9075 22.9199C31.5235 22.4719 31.3315 21.9039 31.3315 21.2159V12.2399C31.3315 11.4399 31.2995 10.7679 31.2355 10.2239C31.1875 9.66394 31.1395 9.15994 31.0915 8.71194C31.0275 8.03994 31.1635 7.47194 31.4995 7.00794C31.8355 6.52794 32.3795 6.23994 33.1315 6.14394C34.1075 6.01594 34.7955 6.19194 35.1955 6.67194C35.6115 7.13594 35.8195 7.86394 35.8195 8.85594V10.0079L35.9155 10.0319C35.9955 9.40794 36.1795 8.79994 36.4675 8.20794C36.7715 7.59994 37.1955 7.10394 37.7395 6.71994C38.2835 6.31994 38.9715 6.11994 39.8035 6.11994C41.1955 6.11994 42.2275 6.67994 42.8995 7.79994C43.5875 8.90394 43.9315 10.3839 43.9315 12.2399C43.9315 16.5279 42.4755 18.6719 39.5635 18.6719ZM35.7235 12.1919C35.7235 12.4479 35.7555 12.6479 35.8195 12.7919C35.9155 13.0959 36.1155 13.3199 36.4195 13.4639C36.7395 13.5919 37.2115 13.6559 37.8355 13.6559C38.6355 13.6559 39.1795 13.5359 39.4675 13.2959C39.7715 13.0559 39.9235 12.6879 39.9235 12.1919C39.9235 11.6799 39.7795 11.3119 39.4915 11.0879C39.2035 10.8479 38.6595 10.7279 37.8595 10.7279C37.2195 10.7279 36.7395 10.7999 36.4195 10.9439C36.1155 11.0719 35.9155 11.2879 35.8195 11.5919C35.7555 11.7359 35.7235 11.9359 35.7235 12.1919Z" fill="white"/>
<path d="M25.501 18.6719C24.621 18.6719 23.885 18.3999 23.293 17.8559C22.717 17.3119 22.349 16.6079 22.189 15.7439H21.757V21.2639C21.757 21.9199 21.573 22.4719 21.205 22.9199C20.837 23.3839 20.277 23.6159 19.525 23.6159C18.805 23.6159 18.245 23.3839 17.845 22.9199C17.461 22.4719 17.269 21.9039 17.269 21.2159V12.2399C17.269 11.4399 17.237 10.7679 17.173 10.2239C17.125 9.66394 17.077 9.15994 17.029 8.71194C16.965 8.03994 17.101 7.47194 17.437 7.00794C17.773 6.52794 18.317 6.23994 19.069 6.14394C20.045 6.01594 20.733 6.19194 21.133 6.67194C21.549 7.13594 21.757 7.86394 21.757 8.85594V10.0079L21.853 10.0319C21.933 9.40794 22.117 8.79994 22.405 8.20794C22.709 7.59994 23.133 7.10394 23.677 6.71994C24.221 6.31994 24.909 6.11994 25.741 6.11994C27.133 6.11994 28.165 6.67994 28.837 7.79994C29.525 8.90394 29.869 10.3839 29.869 12.2399C29.869 16.5279 28.413 18.6719 25.501 18.6719ZM21.661 12.1919C21.661 12.4479 21.693 12.6479 21.757 12.7919C21.853 13.0959 22.053 13.3199 22.357 13.4639C22.677 13.5919 23.149 13.6559 23.773 13.6559C24.573 13.6559 25.117 13.5359 25.405 13.2959C25.709 13.0559 25.861 12.6879 25.861 12.1919C25.861 11.6799 25.717 11.3119 25.429 11.0879C25.141 10.8479 24.597 10.7279 23.797 10.7279C23.157 10.7279 22.677 10.7999 22.357 10.9439C22.053 11.0719 21.853 11.2879 21.757 11.5919C21.693 11.7359 21.661 11.9359 21.661 12.1919Z" fill="white"/>
<path d="M2.288 18.6721C1.216 18.5121 0.52 18.0241 0.2 17.2081C-0.12 16.3761 -0.056 15.3281 0.392 14.0641L3.56 5.06408C3.848 4.23208 4.176 3.52008 4.544 2.92808C4.928 2.33608 5.4 1.88008 5.96 1.56008C6.536 1.24008 7.248 1.08008 8.096 1.08008C9.376 1.08008 10.336 1.43208 10.976 2.13608C11.632 2.84008 12.176 3.81608 12.608 5.06408L15.752 14.0641C16.2 15.3281 16.28 16.3761 15.992 17.2081C15.72 18.0241 15.04 18.5121 13.952 18.6721C13.072 18.7841 12.304 18.6801 11.648 18.3601C11.008 18.0401 10.624 17.5201 10.496 16.8001C10.4 16.3201 10.384 15.9201 10.448 15.6001C10.528 15.2801 10.6 15.0241 10.664 14.8321C10.712 14.6721 10.712 14.5201 10.664 14.3761C10.632 14.2161 10.512 14.1361 10.304 14.1361H5.84C5.632 14.1361 5.504 14.2161 5.456 14.3761C5.424 14.5201 5.44 14.6721 5.504 14.8321C5.568 15.0241 5.632 15.2801 5.696 15.6001C5.76 15.9201 5.752 16.3201 5.672 16.8001C5.544 17.5201 5.168 18.0401 4.544 18.3601C3.92 18.6801 3.168 18.7841 2.288 18.6721ZM9.848 10.7761L8.6 6.86408C8.568 6.70408 8.512 6.58408 8.432 6.50408C8.368 6.40808 8.256 6.36008 8.096 6.36008C7.936 6.36008 7.816 6.40808 7.736 6.50408C7.672 6.58408 7.616 6.70408 7.568 6.86408L6.344 10.7761H9.848Z" fill="white"/>
</svg>
