<svg width="142" height="55" viewBox="0 0 142 55" fill="none" xmlns="http://www.w3.org/2000/svg">
<path d="M102.873 18.095C102.873 18.0203 102.826 17.983 102.733 17.983C102.658 17.983 102.173 18.235 101.277 18.739C100.4 19.2244 99.6997 19.467 99.1771 19.467C98.6544 19.467 98.2437 19.2804 97.9451 18.907C97.6464 18.5337 97.4971 18.1417 97.4971 17.731C97.4971 16.5177 98.0197 15.323 99.0651 14.147C100.129 12.971 101.324 12.0563 102.649 11.403C103.974 10.7497 105.132 10.423 106.121 10.423C106.737 10.423 107.204 10.4977 107.521 10.647C107.838 10.7963 108.016 10.871 108.053 10.871H108.109C108.146 10.871 108.165 10.8617 108.165 10.843C109.826 8.82702 111.833 6.65235 114.185 4.31902C116.556 1.96702 118.096 0.791016 118.805 0.791016C119.104 0.82835 119.374 1.07102 119.617 1.51902C119.878 1.96702 120.018 2.45235 120.037 2.97502C119.925 3.38568 118.366 5.13102 115.361 8.21102C112.356 11.2723 110.666 13.0737 110.293 13.615C109.938 14.1563 108.977 15.5004 107.409 17.647C105.841 19.7937 104.964 20.951 104.777 21.119C104.59 21.3057 104.348 21.399 104.049 21.399C103.75 21.399 103.424 21.2123 103.069 20.839C102.714 20.4843 102.537 20.1297 102.537 19.775C102.537 19.4204 102.593 19.047 102.705 18.655L102.873 18.095ZM105.617 13.419C105.206 13.419 104.488 13.8763 103.461 14.791C102.453 15.7057 101.949 16.3123 101.949 16.611C101.949 16.779 102.024 16.863 102.173 16.863C102.677 16.863 103.424 16.387 104.413 15.435C105.402 14.4644 105.897 13.8577 105.897 13.615C105.897 13.4843 105.804 13.419 105.617 13.419Z" fill="white"/>
<path d="M92.6419 14.5674L94.0139 14.4274C94.6486 14.4274 94.9659 14.7447 94.9659 15.3794C94.9659 15.7154 94.6579 16.0887 94.0419 16.4994C93.4259 16.9101 92.8006 17.2927 92.1659 17.6474C91.5499 17.9834 91.2419 18.2447 91.2419 18.4314C91.2419 18.5621 91.3913 18.6461 91.6899 18.6834C92.3433 18.6834 93.5846 18.1607 95.4139 17.1154C97.2433 16.0701 98.2233 15.5474 98.3539 15.5474C98.6153 15.5474 98.7459 15.6781 98.7459 15.9394C98.7273 16.1261 98.1299 16.5927 96.9539 17.3394C95.7966 18.0674 94.4339 18.7767 92.8659 19.4674C91.3166 20.1394 90.1313 20.4754 89.3099 20.4754C88.0219 20.4754 87.3779 19.7941 87.3779 18.4314C87.3779 18.0394 87.6393 17.6101 88.1619 17.1434C88.7033 16.6767 89.2353 16.2754 89.7579 15.9394C90.2993 15.6034 90.5699 15.3981 90.5699 15.3234C90.5699 15.2301 90.4393 15.1274 90.1779 15.0154C89.3939 14.6794 89.0019 14.2314 89.0019 13.6714C89.0019 12.6261 89.8699 11.6367 91.6059 10.7034C93.3606 9.75139 94.9846 9.27539 96.4779 9.27539C97.2993 9.27539 97.9806 9.43406 98.5219 9.75139C99.0633 10.0501 99.3339 10.5167 99.3339 11.1514C99.3339 11.7674 98.8953 12.3461 98.0179 12.8874C97.1593 13.4287 96.5433 13.6994 96.1699 13.6994C96.0206 13.6994 95.8806 13.6621 95.7499 13.5874C95.6379 13.5127 95.5819 13.4287 95.5819 13.3354C95.5819 13.2421 95.8339 13.0927 96.3379 12.8874C96.8606 12.6634 97.1219 12.4581 97.1219 12.2714C97.1219 12.1781 96.9819 12.1314 96.7019 12.1314C96.4406 12.1314 95.5633 12.4301 94.0699 13.0274C92.5766 13.6061 91.8299 14.0167 91.8299 14.2594C91.8299 14.4647 92.1006 14.5674 92.6419 14.5674Z" fill="white"/>
<path d="M81.2291 8.71519C81.2291 8.41652 82.0318 8.14585 83.6371 7.90319C85.2424 7.66052 86.9598 7.49252 88.7891 7.39919C90.3198 6.01785 91.7011 4.84185 92.9331 3.87119L93.5491 3.36719C93.8291 3.36719 93.9691 3.57252 93.9691 3.98319L94.0251 5.35519C93.9691 5.56052 93.5771 6.20452 92.8491 7.28719H94.2211C96.2931 7.28719 97.4878 7.49252 97.8051 7.90319C98.1411 8.29519 98.3091 8.61252 98.3091 8.85519C98.3091 9.17252 97.9918 9.34052 97.3571 9.35919C96.7224 9.37785 94.7344 9.38719 91.3931 9.38719C88.7238 12.1312 86.6331 14.5672 85.1211 16.6952C84.5424 17.4792 84.0384 18.1792 83.6091 18.7952C83.1798 19.4112 82.8438 19.8405 82.6011 20.0832C82.3771 20.3445 82.1624 20.4752 81.9571 20.4752C81.3411 20.4752 80.8184 20.2699 80.3891 19.8592C79.9598 19.4485 79.7451 18.9445 79.7451 18.3472C79.7451 16.7045 82.0318 13.7272 86.6051 9.41519H82.2931C81.5838 9.41519 81.2291 9.18185 81.2291 8.71519Z" fill="white"/>
<path d="M77.475 18.7391L78.343 18.4031C78.6043 18.4031 78.735 18.5057 78.735 18.7111C78.735 19.1964 78.3337 19.6537 77.531 20.0831C76.747 20.5311 75.991 20.7551 75.263 20.7551C74.5537 20.7551 74.003 20.5964 73.611 20.2791C73.219 19.9804 73.023 19.5137 73.023 18.8791C73.023 18.2444 73.387 17.4604 74.115 16.5271C74.2083 16.4337 74.255 16.3591 74.255 16.3031C74.255 16.2284 74.2177 16.1911 74.143 16.1911C74.0683 16.1911 74.003 16.2097 73.947 16.2471C73.891 16.2844 73.4897 16.5364 72.743 17.0031C70.951 18.1417 69.6723 18.9351 68.907 19.3831C68.5897 19.5511 68.291 19.6351 68.011 19.6351C67.731 19.6351 67.423 19.4577 67.087 19.1031C66.751 18.7484 66.583 18.3937 66.583 18.0391C66.583 17.2924 67.6377 15.9297 69.747 13.9511C71.8563 11.9537 73.2843 10.9551 74.031 10.9551C74.311 10.9924 74.5537 11.1511 74.759 11.4311C74.9643 11.7111 75.067 12.0471 75.067 12.4391C75.067 12.8124 74.927 13.2231 74.647 13.6711C74.2363 14.3244 73.9003 14.7817 73.639 15.0431C73.3963 15.2857 73.275 15.4444 73.275 15.5191C73.275 15.5751 73.303 15.6031 73.359 15.6031C73.415 15.6031 73.4897 15.5751 73.583 15.5191C73.695 15.4444 74.5817 14.8657 76.243 13.7831C77.923 12.6817 78.8657 12.0751 79.071 11.9631C79.2763 11.8324 79.5003 11.7671 79.743 11.7671C79.9857 11.7671 80.303 11.8884 80.695 12.1311C81.087 12.3551 81.283 12.6631 81.283 13.0551C81.283 13.4471 80.9377 14.0257 80.247 14.7911C79.575 15.5564 78.8937 16.2937 78.203 17.0031C77.5123 17.7124 77.167 18.2164 77.167 18.5151C77.167 18.6644 77.2697 18.7391 77.475 18.7391Z" fill="white"/>
<path d="M62.7552 14.5674L64.1272 14.4274C64.7619 14.4274 65.0792 14.7447 65.0792 15.3794C65.0792 15.7154 64.7712 16.0887 64.1552 16.4994C63.5392 16.9101 62.9139 17.2927 62.2792 17.6474C61.6632 17.9834 61.3552 18.2447 61.3552 18.4314C61.3552 18.5621 61.5045 18.6461 61.8032 18.6834C62.4565 18.6834 63.6979 18.1607 65.5272 17.1154C67.3565 16.0701 68.3365 15.5474 68.4672 15.5474C68.7285 15.5474 68.8592 15.6781 68.8592 15.9394C68.8405 16.1261 68.2432 16.5927 67.0672 17.3394C65.9099 18.0674 64.5472 18.7767 62.9792 19.4674C61.4299 20.1394 60.2445 20.4754 59.4232 20.4754C58.1352 20.4754 57.4912 19.7941 57.4912 18.4314C57.4912 18.0394 57.7525 17.6101 58.2752 17.1434C58.8165 16.6767 59.3485 16.2754 59.8712 15.9394C60.4125 15.6034 60.6832 15.3981 60.6832 15.3234C60.6832 15.2301 60.5525 15.1274 60.2912 15.0154C59.5072 14.6794 59.1152 14.2314 59.1152 13.6714C59.1152 12.6261 59.9832 11.6367 61.7192 10.7034C63.4739 9.75139 65.0979 9.27539 66.5912 9.27539C67.4125 9.27539 68.0939 9.43406 68.6352 9.75139C69.1765 10.0501 69.4472 10.5167 69.4472 11.1514C69.4472 11.7674 69.0085 12.3461 68.1312 12.8874C67.2725 13.4287 66.6565 13.6994 66.2832 13.6994C66.1339 13.6994 65.9939 13.6621 65.8632 13.5874C65.7512 13.5127 65.6952 13.4287 65.6952 13.3354C65.6952 13.2421 65.9472 13.0927 66.4512 12.8874C66.9739 12.6634 67.2352 12.4581 67.2352 12.2714C67.2352 12.1781 67.0952 12.1314 66.8152 12.1314C66.5539 12.1314 65.6765 12.4301 64.1832 13.0274C62.6899 13.6061 61.9432 14.0167 61.9432 14.2594C61.9432 14.4647 62.2139 14.5674 62.7552 14.5674Z" fill="white"/>
<path d="M40.9592 19.859C40.6046 19.859 40.3059 19.7096 40.0632 19.411C39.8206 19.1123 39.6992 18.739 39.6992 18.291C39.6992 17.8243 39.9046 17.2643 40.3152 16.611C40.7259 15.9576 41.2206 15.351 41.7992 14.791C43.0312 13.6523 44.1232 12.775 45.0752 12.159L45.6912 11.739C45.9899 11.6083 46.2979 11.543 46.6152 11.543C46.9512 11.543 47.2499 11.655 47.5112 11.879C47.7726 12.0843 47.9032 12.327 47.9032 12.607C47.9032 12.887 47.8566 13.139 47.7632 13.363C47.6699 13.587 47.5672 13.7643 47.4552 13.895C47.1566 14.3243 46.9792 14.5763 46.9232 14.651C46.8672 14.707 46.8392 14.7723 46.8392 14.847C46.8392 14.903 46.8766 14.931 46.9512 14.931C47.0446 14.931 47.4366 14.6603 48.1272 14.119C50.1806 12.439 51.6552 11.599 52.5512 11.599C52.9059 11.599 53.2046 11.711 53.4472 11.935C53.7086 12.1403 53.8392 12.3736 53.8392 12.635C53.8392 12.8963 53.7832 13.1296 53.6712 13.335C53.5592 13.5216 53.4006 13.7363 53.1952 13.979C52.8592 14.371 52.6912 14.6136 52.6912 14.707C52.6912 14.7816 52.7566 14.819 52.8872 14.819C53.0366 14.819 53.6432 14.3896 54.7072 13.531C55.7712 12.6723 56.5086 12.243 56.9192 12.243C57.3299 12.243 57.6472 12.411 57.8712 12.747C58.1139 13.0643 58.2352 13.391 58.2352 13.727C58.2352 14.063 57.7592 14.8376 56.8072 16.051C55.8552 17.2456 55.3792 17.927 55.3792 18.095C55.3792 18.263 55.4446 18.347 55.5752 18.347C55.6872 18.3283 55.8179 18.2723 55.9672 18.179C56.1166 18.0856 56.2566 18.039 56.3872 18.039C56.6299 18.039 56.7512 18.1416 56.7512 18.347C56.7512 18.963 56.4059 19.5043 55.7152 19.971C55.0246 20.419 54.3246 20.643 53.6152 20.643C52.1219 20.643 51.3752 19.9896 51.3752 18.683C51.3752 18.4216 51.4499 18.095 51.5992 17.703C51.7672 17.311 51.9352 17.031 52.1032 16.863C52.1592 16.751 52.1872 16.6763 52.1872 16.639C52.1872 16.583 52.1499 16.555 52.0752 16.555C52.0192 16.555 51.9446 16.583 51.8512 16.639C51.7579 16.6763 51.3566 17.0123 50.6472 17.647C48.7059 19.383 47.3712 20.251 46.6432 20.251C46.2512 20.251 45.9526 20.111 45.7472 19.831C45.5419 19.5323 45.4392 19.2243 45.4392 18.907C45.4392 18.3283 45.7192 17.6936 46.2792 17.003C46.3352 16.9096 46.3632 16.8256 46.3632 16.751C46.3632 16.6576 46.3259 16.611 46.2512 16.611C46.1766 16.611 46.0926 16.6483 45.9992 16.723C43.4232 18.8136 41.7432 19.859 40.9592 19.859Z" fill="white"/>
<path d="M35.2353 18.3204C34.1153 19.0111 33.21 19.3564 32.5193 19.3564C31.8286 19.3564 31.306 19.1138 30.9513 18.6284C30.5966 18.1431 30.4193 17.7044 30.4193 17.3124C30.4193 16.9204 30.5406 16.4724 30.7833 15.9684C31.026 15.4644 31.3993 14.9044 31.9033 14.2884C32.426 13.6724 33.0233 13.0938 33.6953 12.5524C34.3673 12.0111 35.1886 11.5631 36.1593 11.2084C37.1486 10.8351 38.1753 10.6484 39.2393 10.6484C39.6873 10.6484 40.2006 10.8164 40.7793 11.1524C41.358 11.4698 41.6473 11.8618 41.6473 12.3284C41.6473 12.6458 41.386 12.8698 40.8633 13.0004C39.4446 13.3924 38.0446 13.9991 36.6633 14.8204C35.3006 15.6231 34.6193 16.3698 34.6193 17.0604C34.6193 17.2471 34.7033 17.3404 34.8713 17.3404C35.4686 17.3404 36.5513 16.6964 38.1193 15.4084C39.706 14.1204 40.5273 13.4764 40.5833 13.4764C40.8446 13.4764 40.9753 13.6538 40.9753 14.0084C40.9753 14.8298 40.5553 16.1178 39.7153 17.8724C38.8753 19.6271 37.8393 21.4004 36.6073 23.1924C35.394 25.0031 33.9846 26.5898 32.3793 27.9524C30.774 29.3151 29.2993 29.9964 27.9553 29.9964C27.75 29.9964 27.5073 29.7818 27.2273 29.3524C26.9286 28.9418 26.7793 28.6058 26.7793 28.3444C26.7793 28.0831 26.7886 27.9244 26.8073 27.8684C26.994 27.1964 28.198 26.0484 30.4193 24.4244C31.334 23.7711 32.2393 23.0898 33.1353 22.3804C34.0313 21.6898 34.7873 20.9431 35.4033 20.1404C36.0193 19.3564 36.3273 18.6191 36.3273 17.9284C36.3273 17.8911 36.262 17.8724 36.1313 17.8724C36.0006 17.8724 35.702 18.0218 35.2353 18.3204Z" fill="white"/>
<path d="M31.3961 15.7722C31.6575 15.7722 31.7881 15.9122 31.7881 16.1922C31.7881 16.4722 31.3775 16.9669 30.5561 17.6762C29.7348 18.3669 28.7548 19.0109 27.6161 19.6082C26.4961 20.2056 25.5721 20.5042 24.8441 20.5042C23.9295 20.5042 23.4721 20.0096 23.4721 19.0202C23.4721 18.7776 23.5655 18.5162 23.7521 18.2362C23.9388 17.9376 24.0321 17.7696 24.0321 17.7322C24.0321 17.6202 23.9668 17.5642 23.8361 17.5642C23.7055 17.5642 23.6121 17.5736 23.5561 17.5922C23.5188 17.6109 23.2015 17.7976 22.6041 18.1522C20.9055 19.1976 19.8228 19.7202 19.3561 19.7202C18.8895 19.7202 18.4788 19.5709 18.1241 19.2722C17.7881 18.9549 17.6201 18.6002 17.6201 18.2082C17.6201 17.4242 17.9001 16.6216 18.4601 15.8002C19.0201 14.9789 19.6641 14.2882 20.3921 13.7282C21.1201 13.1682 21.7921 12.7109 22.4081 12.3562C23.0428 12.0016 23.4721 11.8242 23.6961 11.8242C23.9201 11.8242 24.2001 11.9829 24.5361 12.3002C24.8721 12.6176 25.0401 12.9256 25.0401 13.2242C25.0401 13.5042 24.9375 13.7282 24.7321 13.8962C23.3508 15.1096 22.6601 15.9496 22.6601 16.4162C22.6601 16.6589 22.7721 16.7802 22.9961 16.7802C23.5375 16.7802 24.3121 16.3416 25.3201 15.4642C26.3281 14.5682 27.1495 13.7562 27.7841 13.0282C28.2881 12.5056 28.7268 12.2442 29.1001 12.2442C29.4735 12.2442 29.8375 12.3842 30.1921 12.6642C30.5655 12.9256 30.7521 13.1682 30.7521 13.3922C30.7521 13.5976 30.7055 13.7842 30.6121 13.9522C30.5188 14.1016 30.1455 14.5962 29.4921 15.4362C28.8388 16.2576 28.4188 16.7802 28.2321 17.0042C28.0641 17.2282 27.9801 17.4149 27.9801 17.5642C27.9801 17.7136 28.0175 17.7882 28.0921 17.7882C28.1668 17.7882 28.2321 17.7882 28.2881 17.7882C28.3628 17.7696 28.5961 17.6202 28.9881 17.3402C29.3988 17.0602 29.8281 16.7522 30.2761 16.4162C30.8548 15.9869 31.2281 15.7722 31.3961 15.7722Z" fill="white"/>
<path d="M18.3317 0.679688C19.6383 0.679688 20.6277 0.857021 21.2997 1.21169C21.9903 1.56636 22.3357 2.11702 22.3357 2.86369C22.3357 3.61035 21.869 4.44102 20.9357 5.35569C20.021 6.27036 19.3677 6.72769 18.9757 6.72769C18.5837 6.72769 18.3877 6.60635 18.3877 6.36369C18.3877 6.06502 18.6303 5.68235 19.1157 5.21569C19.6197 4.73035 19.8717 4.43169 19.8717 4.31969C19.8717 4.26369 19.825 4.23569 19.7317 4.23569C18.7423 4.23569 17.249 5.02902 15.2517 6.61569C13.273 8.20236 11.4717 9.99436 9.84768 11.9917C8.24235 13.9704 7.43968 15.473 7.43968 16.4997C7.43968 16.817 7.55168 16.9757 7.77568 16.9757C8.29835 16.9757 9.67968 15.949 11.9197 13.8957C14.1597 11.8424 16.269 9.77969 18.2477 7.70769C18.4343 7.67036 18.593 7.65169 18.7237 7.65169C18.8543 7.65169 19.0037 7.70769 19.1717 7.81969C19.3397 7.91302 19.461 8.01569 19.5357 8.12769C19.6103 8.23969 19.6383 8.37969 19.6197 8.54769C19.601 8.69702 19.4797 9.03302 19.2557 9.55569C19.0317 10.0784 18.7703 10.6197 18.4717 11.1797C18.1917 11.721 17.837 12.3464 17.4077 13.0557C16.997 13.765 16.6423 14.353 16.3437 14.8197C16.0637 15.2677 15.7463 15.7624 15.3917 16.3037C15.0183 16.9197 14.8317 17.2837 14.8317 17.3957C14.8317 17.489 14.8597 17.5357 14.9157 17.5357C14.9903 17.5357 15.0463 17.5264 15.0837 17.5077C15.121 17.489 15.2237 17.4237 15.3917 17.3117C15.5597 17.181 15.7557 17.041 15.9797 16.8917C16.2037 16.7424 16.3717 16.621 16.4837 16.5277C16.5957 16.4344 16.717 16.3877 16.8477 16.3877C16.997 16.3877 17.1277 16.4344 17.2397 16.5277C17.3517 16.621 17.4077 16.733 17.4077 16.8637C17.4077 17.461 16.717 18.189 15.3357 19.0477C13.9543 19.8877 12.993 20.3077 12.4517 20.3077C11.929 20.3077 11.4997 20.1677 11.1637 19.8877C10.8463 19.6077 10.6877 19.2717 10.6877 18.8797C10.6877 18.469 10.7997 17.965 11.0237 17.3677L11.3597 16.4997C11.3597 16.4437 11.341 16.4157 11.3037 16.4157C11.2663 16.4157 11.201 16.4437 11.1077 16.4997C8.17701 18.833 5.99301 19.9997 4.55568 19.9997C3.45435 19.9997 2.57701 19.5704 1.92368 18.7117C1.28901 17.853 0.97168 16.7517 0.97168 15.4077C0.97168 14.0637 1.34501 12.6357 2.09168 11.1237C2.83835 9.61169 3.82768 8.24902 5.05968 7.03569C6.31035 5.80369 7.69168 4.70235 9.20368 3.73169C10.7157 2.76102 12.293 2.01436 13.9357 1.49169C15.5783 0.950355 17.0437 0.679688 18.3317 0.679688Z" fill="white"/>
<path d="M121.954 52.2322C121.954 51.3362 122.402 50.0576 123.298 48.3962C124.175 46.7349 125.239 45.0269 126.49 43.2722C129.178 39.5762 131.511 36.5709 133.49 34.2562L134.806 32.7162C135.086 32.4549 135.366 32.3242 135.646 32.3242C135.926 32.3242 136.131 32.4269 136.262 32.6322C136.393 32.8376 136.458 33.0242 136.458 33.1922C136.458 33.3416 136.346 33.6869 136.122 34.2282C135.917 34.7696 135.665 35.3949 135.366 36.1042C135.067 36.7949 134.899 37.1776 134.862 37.2522C134.843 37.3082 134.834 37.3736 134.834 37.4482C134.834 37.5229 134.89 37.5602 135.002 37.5602C135.133 37.5602 135.431 37.3549 135.898 36.9442C137.335 35.7122 138.418 35.0962 139.146 35.0962C140.471 35.0962 141.134 35.7682 141.134 37.1122C141.041 37.8029 140.621 38.6989 139.874 39.8002C139.127 40.9016 138.185 41.9096 137.046 42.8242C135.926 43.7202 134.89 44.1682 133.938 44.1682C133.527 44.1682 133.173 44.0656 132.874 43.8602C132.575 43.6549 132.351 43.4496 132.202 43.2442C132.053 43.0389 131.95 42.9362 131.894 42.9362C131.857 42.9362 131.801 42.9829 131.726 43.0762C131.67 43.1696 129.859 46.1562 126.294 52.0362C125.361 53.5109 124.446 54.2482 123.55 54.2482C123.083 54.2482 122.701 54.0336 122.402 53.6042C122.103 53.1936 121.954 52.7362 121.954 52.2322ZM137.802 37.0002C137.335 37.0002 136.346 37.7282 134.834 39.1842C133.341 40.6402 132.594 41.5549 132.594 41.9282C132.594 41.9656 132.631 41.9842 132.706 41.9842C133.415 41.9842 134.479 41.3216 135.898 39.9962C137.317 38.6522 138.026 37.7096 138.026 37.1682C138.026 37.0562 137.951 37.0002 137.802 37.0002Z" fill="white"/>
<path d="M129.364 39.7722C129.625 39.7722 129.756 39.9122 129.756 40.1922C129.756 40.4722 129.345 40.9669 128.524 41.6762C127.703 42.3669 126.723 43.0109 125.584 43.6082C124.464 44.2056 123.54 44.5042 122.812 44.5042C121.897 44.5042 121.44 44.0096 121.44 43.0202C121.44 42.7776 121.533 42.5162 121.72 42.2362C121.907 41.9376 122 41.7696 122 41.7322C122 41.6202 121.935 41.5642 121.804 41.5642C121.673 41.5642 121.58 41.5736 121.524 41.5922C121.487 41.6109 121.169 41.7976 120.572 42.1522C118.873 43.1976 117.791 43.7202 117.324 43.7202C116.857 43.7202 116.447 43.5709 116.092 43.2722C115.756 42.9549 115.588 42.6002 115.588 42.2082C115.588 41.4242 115.868 40.6216 116.428 39.8002C116.988 38.9789 117.632 38.2882 118.36 37.7282C119.088 37.1682 119.76 36.7109 120.376 36.3562C121.011 36.0016 121.44 35.8242 121.664 35.8242C121.888 35.8242 122.168 35.9829 122.504 36.3002C122.84 36.6176 123.008 36.9256 123.008 37.2242C123.008 37.5042 122.905 37.7282 122.7 37.8962C121.319 39.1096 120.628 39.9496 120.628 40.4162C120.628 40.6589 120.74 40.7802 120.964 40.7802C121.505 40.7802 122.28 40.3416 123.288 39.4642C124.296 38.5682 125.117 37.7562 125.752 37.0282C126.256 36.5056 126.695 36.2442 127.068 36.2442C127.441 36.2442 127.805 36.3842 128.16 36.6642C128.533 36.9256 128.72 37.1682 128.72 37.3922C128.72 37.5976 128.673 37.7842 128.58 37.9522C128.487 38.1016 128.113 38.5962 127.46 39.4362C126.807 40.2576 126.387 40.7802 126.2 41.0042C126.032 41.2282 125.948 41.4149 125.948 41.5642C125.948 41.7136 125.985 41.7882 126.06 41.7882C126.135 41.7882 126.2 41.7882 126.256 41.7882C126.331 41.7696 126.564 41.6202 126.956 41.3402C127.367 41.0602 127.796 40.7522 128.244 40.4162C128.823 39.9869 129.196 39.7722 129.364 39.7722Z" fill="white"/>
<path d="M109.634 32.7152C109.634 32.4165 110.437 32.1459 112.042 31.9032C113.648 31.6605 115.365 31.4925 117.194 31.3992C118.725 30.0179 120.106 28.8419 121.338 27.8712L121.954 27.3672C122.234 27.3672 122.374 27.5725 122.374 27.9832L122.43 29.3552C122.374 29.5605 121.982 30.2045 121.254 31.2872H122.626C124.698 31.2872 125.893 31.4925 126.21 31.9032C126.546 32.2952 126.714 32.6125 126.714 32.8552C126.714 33.1725 126.397 33.3405 125.762 33.3592C125.128 33.3779 123.14 33.3872 119.798 33.3872C117.129 36.1312 115.038 38.5672 113.526 40.6952C112.948 41.4792 112.444 42.1792 112.014 42.7952C111.585 43.4112 111.249 43.8405 111.006 44.0832C110.782 44.3445 110.568 44.4752 110.362 44.4752C109.746 44.4752 109.224 44.2699 108.794 43.8592C108.365 43.4485 108.15 42.9445 108.15 42.3472C108.15 40.7045 110.437 37.7272 115.01 33.4152H110.698C109.989 33.4152 109.634 33.1819 109.634 32.7152Z" fill="white"/>
<path d="M105.717 33.5566C105.848 33.5566 105.969 33.622 106.081 33.7526C106.193 33.8646 106.249 34.0046 106.249 34.1726C106.249 34.322 106.156 34.518 105.969 34.7606C105.241 35.6566 104.756 36.226 104.513 36.4686C104.289 36.6926 104.177 36.842 104.177 36.9166C104.177 36.9913 104.233 37.0286 104.345 37.0286C104.476 37.0286 104.98 36.87 105.857 36.5526C106.735 36.2166 107.313 36.0486 107.593 36.0486C107.873 36.0486 108.163 36.17 108.461 36.4126C108.76 36.6366 108.909 36.9353 108.909 37.3086C108.909 37.6633 108.34 38.494 107.201 39.8006C106.063 41.0886 105.493 41.9286 105.493 42.3206C105.493 42.3953 105.521 42.4326 105.577 42.4326C105.671 42.4326 105.839 42.3766 106.081 42.2646C106.324 42.134 106.473 42.0686 106.529 42.0686C106.735 42.0686 106.837 42.1433 106.837 42.2926C106.837 42.8713 106.38 43.45 105.465 44.0286C104.551 44.6073 103.776 44.8966 103.141 44.8966C102.525 44.8966 102.021 44.7193 101.629 44.3646C101.237 44.0286 101.041 43.5713 101.041 42.9926C101.041 42.414 101.321 41.77 101.881 41.0606C102.46 40.3326 103.048 39.8193 103.645 39.5206C104.261 39.222 104.569 38.9793 104.569 38.7926C104.569 38.7366 104.56 38.6993 104.541 38.6806C103.72 39.0166 103.048 39.1846 102.525 39.1846C101.499 39.1846 100.985 38.886 100.985 38.2886C100.985 37.598 101.583 36.6926 102.777 35.5726C103.972 34.4526 104.952 33.7806 105.717 33.5566Z" fill="white"/>
<path d="M96.6073 42.8797C96.6073 42.9731 96.6726 43.0384 96.8033 43.0757C96.9339 43.0757 97.3819 42.8144 98.1473 42.2917C98.9313 41.7504 99.3699 41.4517 99.4633 41.3957C99.5753 41.3397 99.6779 41.3117 99.7713 41.3117C100.033 41.3117 100.163 41.4424 100.163 41.7037C100.163 41.9464 99.5006 42.4971 98.1753 43.3557C96.8686 44.2144 95.9446 44.6437 95.4033 44.6437C95.1793 44.6437 94.9366 44.5504 94.6753 44.3637C94.4326 44.1771 94.3113 43.9624 94.3113 43.7197C94.3113 43.4584 94.3766 43.1784 94.5073 42.8797C94.6379 42.5811 94.7033 42.3851 94.7033 42.2917C94.7033 42.1797 94.6753 42.1237 94.6193 42.1237C94.5633 42.1237 94.5073 42.1424 94.4513 42.1797C92.6406 43.5424 91.3059 44.2237 90.4473 44.2237C89.9619 44.2237 89.5793 44.0464 89.2993 43.6917C89.0193 43.3371 88.8513 42.9824 88.7953 42.6277L88.7393 42.0957C88.7393 41.4797 88.9726 40.7704 89.4393 39.9677C89.9246 39.1464 90.5499 38.3717 91.3153 37.6437C92.0993 36.8971 93.0513 36.2717 94.1713 35.7677C95.3099 35.2637 96.4673 35.0117 97.6433 35.0117C98.2779 35.0117 98.8659 35.1797 99.4073 35.5157C99.9673 35.8517 100.247 36.2437 100.247 36.6917C100.247 37.1397 99.8086 37.4104 98.9313 37.5037C98.2779 37.6531 97.1953 38.1944 95.6833 39.1277C94.1899 40.0424 93.4433 40.7424 93.4433 41.2277C93.4433 41.4331 93.5459 41.5357 93.7513 41.5357C94.1246 41.5357 95.0019 41.0037 96.3833 39.9397C97.7833 38.8757 98.6233 38.3437 98.9033 38.3437C99.1833 38.3437 99.3233 38.5117 99.3233 38.8477C99.3233 39.0904 99.2299 39.3237 99.0433 39.5477C98.8753 39.7531 98.7539 39.9024 98.6793 39.9957C98.5299 40.1824 98.1473 40.6024 97.5313 41.2557C96.9153 41.8904 96.6073 42.4317 96.6073 42.8797Z" fill="white"/>
<path d="M82.6735 32.7152C82.6735 32.4165 83.4761 32.1459 85.0815 31.9032C86.6868 31.6605 88.4041 31.4925 90.2335 31.3992C91.7641 30.0179 93.1455 28.8419 94.3775 27.8712L94.9935 27.3672C95.2735 27.3672 95.4135 27.5725 95.4135 27.9832L95.4695 29.3552C95.4135 29.5605 95.0215 30.2045 94.2935 31.2872H95.6655C97.7375 31.2872 98.9321 31.4925 99.2495 31.9032C99.5855 32.2952 99.7535 32.6125 99.7535 32.8552C99.7535 33.1725 99.4361 33.3405 98.8015 33.3592C98.1668 33.3779 96.1788 33.3872 92.8375 33.3872C90.1681 36.1312 88.0775 38.5672 86.5655 40.6952C85.9868 41.4792 85.4828 42.1792 85.0535 42.7952C84.6241 43.4112 84.2881 43.8405 84.0455 44.0832C83.8215 44.3445 83.6068 44.4752 83.4015 44.4752C82.7855 44.4752 82.2628 44.2699 81.8335 43.8592C81.4041 43.4485 81.1895 42.9445 81.1895 42.3472C81.1895 40.7045 83.4761 37.7272 88.0495 33.4152H83.7375C83.0281 33.4152 82.6735 33.1819 82.6735 32.7152Z" fill="white"/>
<path d="M74.7675 34.8998L68.8595 34.7878C67.7208 34.7692 66.7782 34.4612 66.0315 33.8638C65.2848 33.2665 64.9115 32.5105 64.9115 31.5958C64.9115 30.3452 65.8262 29.1038 67.6555 27.8718C69.5035 26.6212 71.6875 25.6412 74.2075 24.9318C76.7462 24.2038 78.9302 23.8398 80.7595 23.8398C84.3808 23.8398 86.1915 24.7638 86.1915 26.6118C86.1915 27.2092 85.5475 28.3198 84.2595 29.9438C82.9902 31.5678 82.0382 32.3798 81.4035 32.3798C81.2728 32.3798 81.1422 32.3238 81.0115 32.2118C80.8995 32.0812 80.8435 31.9225 80.8435 31.7358C80.8435 31.5492 81.0675 31.2132 81.5155 30.7278C81.9822 30.2238 82.2155 29.8598 82.2155 29.6358C82.2155 29.4678 82.0008 29.3838 81.5715 29.3838C80.4142 29.3838 78.5848 29.8225 76.0835 30.6998C73.5822 31.5585 72.3315 32.2398 72.3315 32.7438C72.3315 32.9492 72.5368 33.0798 72.9475 33.1358C73.3582 33.1732 74.0862 33.2105 75.1315 33.2478C76.1768 33.2665 77.0915 33.3318 77.8755 33.4438C78.6595 33.5558 79.2942 33.7238 79.7795 33.9478C80.2835 34.1532 80.6662 34.3772 80.9275 34.6198C81.2075 34.8625 81.4315 35.1425 81.5995 35.4598C81.8422 35.9638 81.9635 36.4678 81.9635 36.9718C81.9635 38.3158 81.0395 39.6692 79.1915 41.0318C77.3622 42.3945 75.1502 43.4865 72.5555 44.3078C69.9795 45.1292 67.6835 45.5398 65.6675 45.5398C61.4862 45.5398 59.3955 44.2238 59.3955 41.5918C59.3955 40.3785 60.3568 39.3798 62.2795 38.5958C62.8955 39.1372 64.2488 39.4078 66.3395 39.4078C67.8702 39.3145 69.2795 39.0998 70.5675 38.7638C71.8555 38.4092 72.8635 38.0265 73.5915 37.6158C74.3195 37.1865 74.8888 36.7852 75.2995 36.4118C75.7102 36.0198 75.9435 35.6932 75.9995 35.4318C75.9622 35.0772 75.5515 34.8998 74.7675 34.8998Z" fill="white"/>
</svg>
