<svg width="87" height="18" viewBox="0 0 87 18" fill="none" xmlns="http://www.w3.org/2000/svg">
<path d="M80.5557 16.8232V16.4863C80.5557 16.374 80.5594 16.1981 80.5669 15.9585C80.5744 15.7114 80.5781 15.513 80.5781 15.3633V14.7793C80.5781 12.9525 80.6979 12.0391 80.9375 12.0391H85.542C86.2607 12.0391 86.6201 12.1439 86.6201 12.3535C86.6501 13.791 86.665 14.8916 86.665 15.6553V16.0371C86.665 16.0895 86.6688 16.1719 86.6763 16.2842C86.6838 16.389 86.6875 16.4714 86.6875 16.5312C86.6875 16.9505 86.6051 17.1602 86.4404 17.1602H80.915L80.5557 16.8232Z" fill="white"/>
<path d="M64.0469 16.5759C63.9121 16.3513 63.8223 16.1941 63.7773 16.1042V1.34741H68.7412C68.7637 1.34741 68.8236 1.34741 68.9209 1.34741C69.0182 1.33993 69.0931 1.33993 69.1455 1.34741C69.1979 1.34741 69.269 1.35116 69.3589 1.35864C69.4562 1.36613 69.5348 1.3811 69.5947 1.40356C69.6546 1.41854 69.7145 1.44474 69.7744 1.48218C69.8418 1.51213 69.8942 1.55705 69.9316 1.61694C69.9766 1.67684 70.0065 1.74422 70.0215 1.81909V6.80542C70.2686 6.31128 70.613 5.60002 71.0547 4.67163C71.5039 3.74325 71.8333 3.06942 72.043 2.65015L72.5933 1.47095L73.6602 1.43726C73.8099 1.43726 74.0345 1.44474 74.334 1.45972C74.641 1.47469 74.8656 1.48218 75.0078 1.48218H75.8613C75.9212 1.48218 76.0073 1.47843 76.1196 1.47095C76.2394 1.46346 76.3255 1.45972 76.3779 1.45972H77.0293C77.0592 1.45972 77.1117 1.45223 77.1865 1.43726C78.3994 1.43726 79.0059 1.5271 79.0059 1.70679C79.0059 1.8116 78.9385 1.95386 78.8037 2.13354C78.4593 2.68009 77.8791 3.67961 77.063 5.13208C76.2469 6.57707 75.5881 7.66642 75.0864 8.40015L79.4775 15.9695C79.4775 15.977 79.4775 16.0032 79.4775 16.0481C79.4775 16.093 79.4775 16.123 79.4775 16.1379C79.4775 16.1529 79.4738 16.1791 79.4663 16.2166C79.4663 16.2465 79.4626 16.2727 79.4551 16.2952C79.4476 16.3101 79.4364 16.3326 79.4214 16.3625C79.4139 16.385 79.3989 16.4075 79.3765 16.4299C79.3615 16.4449 79.3428 16.4636 79.3203 16.4861C78.6165 16.4412 77.5684 16.4187 76.1758 16.4187C75.9886 16.4187 75.7004 16.4224 75.311 16.4299C74.9217 16.4374 74.6335 16.4412 74.4463 16.4412H72.9189V16.1267C72.7992 15.9246 72.5409 15.5278 72.144 14.9363C71.7472 14.3448 71.459 13.8806 71.2793 13.5437L70.0215 11.1404V16.1267C69.9167 16.4262 69.5049 16.5759 68.7861 16.5759H64.0469Z" fill="white"/>
<path d="M55.2422 16.5537V1.79688C55.2497 1.73698 55.3096 1.68457 55.4219 1.63965C55.5342 1.58724 55.6016 1.5498 55.624 1.52734H61.666V16.1494C61.6286 16.3066 61.5911 16.4152 61.5537 16.4751C61.5238 16.5275 61.4714 16.5537 61.3965 16.5537H55.2422Z" fill="white"/>
<path d="M41.1816 5.61523V1.57227H54.2539C54.3737 1.59473 54.4486 1.64339 54.4785 1.71826C54.5085 1.78564 54.5234 1.88672 54.5234 2.02148V5.61523C54.5085 5.79492 54.4036 5.88477 54.209 5.88477H51.0195V16.2168C51.0195 16.2243 51.0158 16.243 51.0083 16.2729C51.0008 16.3029 50.9971 16.3216 50.9971 16.3291C50.9971 16.3366 50.9933 16.3516 50.9858 16.374C50.9784 16.3965 50.9709 16.4115 50.9634 16.4189C50.9559 16.4264 50.9484 16.4414 50.9409 16.4639C50.9334 16.4788 50.9222 16.4901 50.9072 16.4976C50.8997 16.4976 50.8848 16.505 50.8623 16.52C50.8473 16.5275 50.8286 16.535 50.8062 16.5425C50.7912 16.55 50.7687 16.5575 50.7388 16.5649C50.7163 16.5649 50.6901 16.5687 50.6602 16.5762H49.9414C48.9831 16.5762 48.5039 16.5462 48.5039 16.4863C48.444 16.4863 48.3542 16.4901 48.2344 16.4976C48.1146 16.505 48.0247 16.5088 47.9648 16.5088H47.0664C46.8942 16.5088 46.6471 16.5125 46.3252 16.52C46.0107 16.5275 45.7637 16.5312 45.584 16.5312H44.9551L44.5059 16.2168V13.791C44.5133 13.3568 44.5433 12.4284 44.5957 11.0059C44.6556 9.58333 44.6855 8.46029 44.6855 7.63672V7.34473C44.6855 7.28483 44.6893 7.19124 44.6968 7.06396C44.7043 6.93669 44.708 6.8431 44.708 6.7832C44.708 6.71582 44.7043 6.58105 44.6968 6.37891C44.6893 6.16927 44.6855 6.03451 44.6855 5.97461H41.8779C41.7132 5.97461 41.556 5.9484 41.4062 5.896C41.2565 5.8361 41.1816 5.74251 41.1816 5.61523Z" fill="white"/>
<path d="M25.2119 8.84961L25.1895 8.60254C25.3317 7.38216 25.4665 6.53239 25.5938 6.05322C25.8857 4.93018 26.4098 3.99056 27.166 3.23438L27.4355 2.96484C27.7949 2.54557 28.3415 2.1862 29.0752 1.88672H29.502C30.2357 1.57975 31.4411 1.29525 33.1182 1.0332C33.5374 1.0332 33.9754 1.06689 34.4321 1.13428C34.8963 1.19417 35.4092 1.29899 35.9707 1.44873C36.5322 1.59098 37.0713 1.82308 37.5879 2.14502C38.112 2.45947 38.5462 2.83757 38.8906 3.2793V3.59375C40.1185 5.12858 40.7324 6.85059 40.7324 8.75977C40.7324 10.9085 40.2383 12.6605 39.25 14.0156L38.8008 14.5771C38.4564 15.0039 38.0259 15.3708 37.5093 15.6777C37.0002 15.9847 36.4574 16.2205 35.8809 16.3853C35.3044 16.5425 34.7503 16.6548 34.2188 16.7222C33.6947 16.7896 33.1706 16.8232 32.6465 16.8232C31.8753 16.8232 31.1379 16.7334 30.4341 16.5537C29.7378 16.3665 29.0827 16.0783 28.4688 15.689C27.8623 15.2996 27.327 14.8205 26.8628 14.2515C26.3986 13.6825 26.0205 12.9974 25.7285 12.1963C25.444 11.3877 25.2718 10.4967 25.2119 9.52344V8.84961ZM31.3887 8.93945C31.3887 11.5749 31.8903 12.8926 32.8936 12.8926C33.1706 12.8926 33.4102 12.8402 33.6123 12.7354C33.8219 12.6305 33.9904 12.4696 34.1177 12.2524C34.245 12.0353 34.3498 11.8145 34.4321 11.5898C34.5145 11.3652 34.5706 11.0845 34.6006 10.7476C34.638 10.4106 34.6605 10.1149 34.668 9.86035C34.6829 9.60579 34.6904 9.29883 34.6904 8.93945V8.53516C34.6904 8.14583 34.668 7.77148 34.623 7.41211C34.5781 7.05273 34.4995 6.69336 34.3872 6.33398C34.2824 5.96712 34.1177 5.67513 33.8931 5.45801C33.6685 5.2334 33.3952 5.12109 33.0732 5.12109C31.9502 5.12109 31.3887 6.22917 31.3887 8.44531V8.93945Z" fill="white"/>
<path d="M17.4404 16.5537V1.79688C17.4479 1.73698 17.5078 1.68457 17.6201 1.63965C17.7324 1.58724 17.7998 1.5498 17.8223 1.52734H23.8643V16.1494C23.8268 16.3066 23.7894 16.4152 23.752 16.4751C23.722 16.5275 23.6696 16.5537 23.5947 16.5537H17.4404Z" fill="white"/>
<path d="M0.0332031 15.4531V0.336914L9.73633 0C10.3353 0 10.8968 0.0374349 11.4209 0.112305C11.945 0.187174 12.4728 0.329427 13.0044 0.539062C13.5435 0.741211 14.0002 1.007 14.3745 1.33643C14.7563 1.65837 15.0671 2.08887 15.3066 2.62793C15.5462 3.16699 15.666 3.78841 15.666 4.49219C15.666 5.42806 15.4601 6.18799 15.0483 6.77197C14.6366 7.34847 14.0189 7.86133 13.1953 8.31055C14.1611 8.58008 14.8949 9.04801 15.3965 9.71436C15.9056 10.3732 16.1602 11.208 16.1602 12.2188C16.1602 12.9674 16.0179 13.6413 15.7334 14.2402C15.4489 14.8317 15.082 15.3146 14.6328 15.689C14.1836 16.0633 13.6558 16.374 13.0493 16.6211C12.4429 16.8682 11.8402 17.0404 11.2412 17.1377C10.6497 17.2425 10.0433 17.2949 9.42188 17.2949C9.0625 17.2949 8.51969 17.2874 7.79346 17.2725C7.07471 17.2575 6.5319 17.25 6.16504 17.25C4.08366 17.25 2.17448 17.2799 0.4375 17.3398C0.19043 16.943 0.0556641 16.3141 0.0332031 15.4531ZM6.47949 4.08789C6.47949 4.4248 6.49072 4.92643 6.51318 5.59277C6.53564 6.25911 6.54688 6.76074 6.54688 7.09766C6.54688 7.23991 6.63672 7.32227 6.81641 7.34473C6.92122 7.32975 7.10091 7.30729 7.35547 7.27734C7.61751 7.23991 7.8234 7.20996 7.97314 7.1875C8.12288 7.16504 8.30257 7.11263 8.51221 7.03027C8.72933 6.94043 8.89779 6.83561 9.01758 6.71582C9.13737 6.59603 9.24219 6.42383 9.33203 6.19922C9.42188 5.96712 9.4668 5.69759 9.4668 5.39062C9.4668 4.2526 8.68066 3.68359 7.1084 3.68359C6.79395 3.736 6.61051 3.78841 6.55811 3.84082C6.5057 3.90072 6.47949 3.98307 6.47949 4.08789ZM6.68164 12.6455C6.68164 13.1995 6.71159 13.4766 6.77148 13.4766H7.13086C7.42285 13.4766 7.67367 13.4691 7.8833 13.4541C8.10042 13.4316 8.33252 13.383 8.57959 13.3081C8.82666 13.2332 9.02507 13.1322 9.1748 13.0049C9.32454 12.8701 9.45182 12.6829 9.55664 12.4434C9.66146 12.2038 9.71387 11.9193 9.71387 11.5898C9.71387 11.4027 9.69515 11.2305 9.65771 11.0732C9.62028 10.916 9.56038 10.7812 9.47803 10.6689C9.39567 10.5566 9.31331 10.4593 9.23096 10.377C9.15609 10.2946 9.04378 10.2272 8.89404 10.1748C8.75179 10.1149 8.632 10.07 8.53467 10.04C8.44482 10.0026 8.30632 9.97266 8.11914 9.9502C7.93197 9.92773 7.7972 9.91276 7.71484 9.90527C7.63249 9.89779 7.49023 9.8903 7.28809 9.88281C7.08594 9.86784 6.95866 9.86035 6.90625 9.86035V10.2871C6.89876 10.3695 6.85758 10.6465 6.78271 11.1182C6.71533 11.5898 6.68164 11.9642 6.68164 12.2412V12.6455Z" fill="white"/>
</svg>
