<svg width="103" height="31" viewBox="0 0 103 31" fill="none" xmlns="http://www.w3.org/2000/svg">
<path d="M102.089 15.5514C102.153 15.4448 102.228 15.4234 102.313 15.4874C102.42 15.5301 102.441 15.6154 102.377 15.7434C101.929 16.3408 101.449 16.8634 100.937 17.3114C100.511 17.6954 100.02 18.0474 99.4654 18.3674C98.9321 18.6874 98.3881 18.8474 97.8334 18.8474C97.5347 18.8474 97.1934 18.7408 96.8094 18.5274C96.4467 18.3141 96.1054 18.0368 95.7854 17.6954C95.4654 17.3541 95.1987 16.9808 94.9854 16.5754C94.7721 16.1488 94.6654 15.7434 94.6654 15.3594C94.6654 15.0394 94.8041 14.6234 95.0814 14.1114C95.3801 13.5994 95.7001 13.0768 96.0414 12.5434C96.4041 11.9888 96.7347 11.4661 97.0334 10.9754C97.3321 10.4848 97.4814 10.0901 97.4814 9.79142C97.4814 9.70609 97.4707 9.64209 97.4494 9.59942C97.4281 9.53542 97.3641 9.50342 97.2574 9.50342C97.0654 9.50342 96.8094 9.65276 96.4894 9.95142C96.1907 10.2501 95.8601 10.6554 95.4974 11.1674C95.1561 11.6581 94.7827 12.2234 94.3774 12.8634C93.9934 13.4821 93.6201 14.1114 93.2574 14.7514C92.9587 15.3914 92.6174 16.0634 92.2334 16.7674C91.8494 17.4714 91.4761 18.1541 91.1134 18.8154C90.7721 19.4554 90.4734 20.0421 90.2174 20.5754C89.9827 21.0874 89.8654 21.4714 89.8654 21.7274C89.8654 22.0901 89.7694 22.3248 89.5774 22.4314C89.3854 22.5168 89.1507 22.5168 88.8734 22.4314C88.5961 22.3461 88.2867 22.1861 87.9454 21.9514C87.6041 21.7168 87.2947 21.4501 87.0174 21.1514C86.7401 20.8528 86.5054 20.5541 86.3134 20.2554C86.1214 19.9354 86.0254 19.6474 86.0254 19.3914C86.0254 19.1141 86.1427 18.7301 86.3774 18.2394C86.5907 17.7488 86.8681 17.2048 87.2094 16.6074C87.5507 15.9888 87.9134 15.3594 88.2974 14.7194C88.6814 14.0581 89.0441 13.4288 89.3854 12.8314C89.7267 12.2341 90.0041 11.6901 90.2174 11.1994C90.4521 10.7088 90.5694 10.3141 90.5694 10.0154C90.5694 9.80209 90.6014 9.62076 90.6654 9.47142C90.7294 9.30076 90.9534 9.21542 91.3374 9.21542C91.6147 9.21542 91.9134 9.34342 92.2334 9.59942C92.5534 9.83409 92.8414 10.1221 93.0974 10.4634C93.3747 10.8048 93.5987 11.1568 93.7694 11.5194C93.9401 11.8821 94.0254 12.1701 94.0254 12.3834V12.5114C94.3667 11.9781 94.7081 11.4768 95.0494 11.0074C95.4121 10.5381 95.7534 10.1328 96.0734 9.79142C96.3934 9.42876 96.6921 9.14076 96.9694 8.92742C97.2467 8.71409 97.5027 8.60742 97.7374 8.60742C98.0787 8.60742 98.4307 8.72476 98.7934 8.95942C99.1561 9.19409 99.4867 9.48209 99.7854 9.82342C100.084 10.1648 100.329 10.5381 100.521 10.9434C100.713 11.3274 100.809 11.6794 100.809 11.9994C100.809 12.3194 100.671 12.7354 100.393 13.2474C100.116 13.7594 99.8067 14.2928 99.4654 14.8474C99.1241 15.4021 98.8147 15.9354 98.5374 16.4474C98.2601 16.9594 98.1214 17.3754 98.1214 17.6954C98.1214 17.8448 98.1854 17.9194 98.3134 17.9194C98.7614 17.9194 99.2094 17.8021 99.6574 17.5674C100.105 17.3114 100.511 17.0341 100.873 16.7354C101.279 16.3941 101.684 15.9994 102.089 15.5514Z" fill="white"/>
<path d="M87.8296 15.5508C87.8936 15.4228 87.9789 15.3908 88.0856 15.4548C88.2136 15.4975 88.2349 15.5935 88.1496 15.7428C87.1896 17.0442 86.2083 18.2068 85.2056 19.2308C84.7789 19.6788 84.3309 20.1162 83.8616 20.5428C83.3923 20.9482 82.9229 21.3108 82.4536 21.6308C81.9843 21.9508 81.5149 22.2175 81.0456 22.4308C80.5763 22.6228 80.1283 22.7188 79.7016 22.7188C79.1683 22.7188 78.6456 22.5695 78.1336 22.2708C77.6216 21.9508 77.1523 21.5775 76.7256 21.1508C76.3203 20.7028 75.9896 20.2548 75.7336 19.8068C75.4776 19.3375 75.3496 18.9428 75.3496 18.6228C75.3496 18.1108 75.5203 17.5242 75.8616 16.8628C76.1816 16.1802 76.6083 15.4975 77.1416 14.8148C77.6749 14.1108 78.2723 13.4282 78.9336 12.7668C79.6163 12.0842 80.2883 11.4868 80.9496 10.9748C81.6109 10.4415 82.2403 10.0148 82.8376 9.69484C83.4349 9.37484 83.9256 9.21484 84.3096 9.21484C84.5016 9.21484 84.7363 9.31084 85.0136 9.50284C85.2909 9.67351 85.5576 9.90818 85.8136 10.2068C86.0696 10.5055 86.2829 10.8468 86.4536 11.2308C86.6456 11.6148 86.7416 12.0202 86.7416 12.4468C86.7416 12.8308 86.6243 13.2575 86.3896 13.7268C86.1549 14.1748 85.8563 14.6335 85.4936 15.1028C85.1309 15.5722 84.7256 16.0308 84.2776 16.4788C83.8296 16.9055 83.3923 17.2895 82.9656 17.6308C82.5603 17.9508 82.1763 18.2175 81.8136 18.4308C81.4509 18.6228 81.1843 18.7188 81.0136 18.7188C80.7789 18.7188 80.5976 18.6762 80.4696 18.5908C80.3629 18.4842 80.2883 18.3668 80.2456 18.2388C79.8829 18.8362 79.5843 19.4228 79.3496 19.9988C79.1149 20.5535 78.9976 21.0762 78.9976 21.5668C78.9976 21.7162 79.0296 21.8762 79.0936 22.0468C79.1576 22.1962 79.3389 22.2708 79.6376 22.2708C80.0429 22.2708 80.4696 22.1748 80.9176 21.9828C81.3869 21.7908 81.8563 21.5455 82.3256 21.2468C82.7949 20.9268 83.2536 20.5642 83.7016 20.1588C84.1496 19.7535 84.5763 19.3375 84.9816 18.9108C85.9416 17.9295 86.8909 16.8095 87.8296 15.5508ZM85.5896 12.8628C85.4189 12.8628 85.1523 12.9908 84.7896 13.2468C84.4483 13.4815 84.0536 13.8015 83.6056 14.2068C83.1789 14.6122 82.7203 15.0815 82.2296 15.6148C81.7603 16.1482 81.3123 16.7028 80.8856 17.2788C80.8429 17.4708 80.8003 17.6842 80.7576 17.9188C80.7363 18.1322 80.8109 18.2388 80.9816 18.2388C81.3229 18.2388 81.7603 18.0468 82.2936 17.6628C82.8269 17.2575 83.3496 16.7775 83.8616 16.2228C84.3736 15.6682 84.8109 15.1028 85.1736 14.5268C85.5576 13.9295 85.7496 13.4282 85.7496 13.0228C85.7496 13.0015 85.7389 12.9695 85.7176 12.9268C85.7176 12.8842 85.6749 12.8628 85.5896 12.8628Z" fill="white"/>
<path d="M76.6252 15.5508C76.6892 15.4442 76.7746 15.4228 76.8813 15.4868C76.9879 15.5295 76.9986 15.6148 76.9132 15.7428C76.1026 16.7668 75.3239 17.7162 74.5773 18.5908C74.2573 18.9748 73.9266 19.3588 73.5852 19.7428C73.2439 20.1268 72.9026 20.4895 72.5613 20.8308C72.2199 21.1722 71.8892 21.4815 71.5692 21.7588C71.2706 22.0362 70.9932 22.2602 70.7372 22.4308C70.1399 23.4335 69.4999 24.4468 68.8172 25.4708C68.1559 26.4948 67.5159 27.4122 66.8973 28.2228C66.2786 29.0335 65.7133 29.6948 65.2013 30.2068C64.7106 30.7188 64.3586 30.9748 64.1452 30.9748C63.7612 30.9748 63.3666 30.8575 62.9613 30.6228C62.5559 30.4095 62.1826 30.1428 61.8412 29.8228C61.5212 29.5028 61.2439 29.1722 61.0093 28.8308C60.7959 28.4895 60.6893 28.2015 60.6893 27.9668C60.6893 27.6042 60.8386 27.1775 61.1372 26.6868C61.4359 26.2175 61.8199 25.7162 62.2892 25.1828C62.7586 24.6495 63.2813 24.1162 63.8573 23.5828C64.4546 23.0495 65.0306 22.5375 65.5852 22.0468C66.1399 21.1508 66.6839 20.2442 67.2173 19.3268C67.7506 18.4095 68.2093 17.5775 68.5933 16.8308C68.2093 17.3428 67.7506 17.9295 67.2173 18.5908C66.7053 19.2522 66.1826 19.8708 65.6493 20.4468C65.1159 21.0228 64.5932 21.5135 64.0812 21.9188C63.5692 22.3028 63.1426 22.4948 62.8013 22.4948C62.5026 22.4948 62.1506 22.3668 61.7453 22.1108C61.3399 21.8335 60.9559 21.5028 60.5933 21.1188C60.2306 20.7348 59.9212 20.3188 59.6652 19.8708C59.4092 19.4015 59.2812 18.9748 59.2812 18.5908C59.2812 18.2922 59.4306 17.8548 59.7292 17.2788C60.0279 16.7028 60.4226 16.0735 60.9132 15.3908C61.4039 14.6868 61.9586 13.9722 62.5772 13.2468C63.1959 12.5215 63.8253 11.8602 64.4653 11.2628C65.1266 10.6655 65.7666 10.1748 66.3853 9.79084C67.0253 9.40684 67.5906 9.21484 68.0812 9.21484C68.4439 9.21484 68.7959 9.34284 69.1372 9.59884C69.4999 9.83351 69.8199 10.1322 70.0972 10.4948C70.3959 10.8362 70.6306 11.1882 70.8013 11.5508C70.9933 11.9135 71.0893 12.2015 71.0893 12.4148C71.0893 12.6495 71.0359 12.7455 70.9292 12.7028C70.8439 12.6602 70.7372 12.6388 70.6092 12.6388C70.3106 12.6388 69.9159 12.8095 69.4253 13.1508C68.9559 13.4922 68.4439 13.9402 67.8892 14.4948C67.3346 15.0282 66.7692 15.6255 66.1932 16.2868C65.6172 16.9268 65.0946 17.5668 64.6252 18.2068C64.1559 18.8255 63.7719 19.4015 63.4732 19.9348C63.1959 20.4468 63.0573 20.8308 63.0573 21.0868C63.0573 21.4282 63.1959 21.5988 63.4732 21.5988C63.7292 21.5988 64.1239 21.3322 64.6572 20.7988C65.1906 20.2655 65.7666 19.6362 66.3853 18.9108C67.0039 18.1855 67.6012 17.4495 68.1772 16.7028C68.7746 15.9348 69.2439 15.3162 69.5852 14.8468C69.6706 14.6122 69.7133 14.4202 69.7133 14.2708C69.7133 14.0575 69.7453 13.8762 69.8093 13.7268C69.8946 13.5562 70.1186 13.4708 70.4813 13.4708C70.7586 13.4708 71.0679 13.5988 71.4093 13.8548C71.7506 14.0895 72.0599 14.3775 72.3373 14.7188C72.6359 15.0602 72.8812 15.4122 73.0732 15.7748C73.2652 16.1375 73.3612 16.4255 73.3612 16.6388C73.3612 17.0442 73.1799 17.6628 72.8172 18.4948C72.4546 19.3055 71.9853 20.2228 71.4093 21.2468C71.8573 20.8842 72.3692 20.3828 72.9452 19.7428C73.5426 19.0815 74.1186 18.4415 74.6733 17.8228C75.3133 17.0975 75.9639 16.3402 76.6252 15.5508ZM61.2332 27.9028C61.3399 27.9028 61.5106 27.7748 61.7453 27.5188C62.0013 27.2842 62.2892 26.9428 62.6092 26.4948C62.9292 26.0682 63.2812 25.5668 63.6652 24.9908C64.0706 24.4148 64.4759 23.8068 64.8813 23.1668C63.4093 24.5962 62.3746 25.7375 61.7772 26.5908C61.1799 27.4655 60.9986 27.9028 61.2332 27.9028Z" fill="white"/>
<path d="M60.8252 15.5188C60.8892 15.4122 60.9745 15.3908 61.0812 15.4548C61.1878 15.4975 61.1985 15.5828 61.1132 15.7108C60.0678 17.0335 59.0972 18.2068 58.2012 19.2308C57.8172 19.6788 57.4225 20.1162 57.0172 20.5428C56.6332 20.9482 56.2598 21.3108 55.8972 21.6308C55.5345 21.9508 55.2038 22.2175 54.9052 22.4308C54.6065 22.6228 54.3718 22.7188 54.2012 22.7188C53.9025 22.7188 53.5612 22.6122 53.1772 22.3988C52.8145 22.1855 52.4732 21.9082 52.1532 21.5668C51.8332 21.2255 51.5665 20.8522 51.3532 20.4468C51.1398 20.0415 51.0332 19.6468 51.0332 19.2628C51.0332 18.9855 51.1505 18.6122 51.3852 18.1428C51.6198 17.6522 51.9078 17.1295 52.2492 16.5748C52.5905 16.0202 52.9638 15.4442 53.3692 14.8468C53.7745 14.2282 54.1478 13.6415 54.4892 13.0868C54.8305 12.5108 55.1185 11.9882 55.3532 11.5188C55.5878 11.0495 55.7052 10.6762 55.7052 10.3988C55.7052 10.3135 55.6945 10.2495 55.6732 10.2068C55.6518 10.1428 55.5878 10.1108 55.4812 10.1108C55.2252 10.1108 54.8945 10.3135 54.4892 10.7188C54.1052 11.1242 53.6785 11.6468 53.2092 12.2868C52.7398 12.9268 52.2598 13.6308 51.7692 14.3988C51.2785 15.1455 50.8198 15.8708 50.3932 16.5748C49.9878 17.2788 49.6252 17.9082 49.3052 18.4628C48.9852 19.0175 48.7612 19.4015 48.6332 19.6148C48.3985 20.0842 48.2065 20.5002 48.0572 20.8628C47.9078 21.2255 47.8332 21.5135 47.8332 21.7268C47.8332 22.0895 47.7372 22.3242 47.5452 22.4308C47.3532 22.5162 47.1185 22.5162 46.8412 22.4308C46.5638 22.3455 46.2545 22.1855 45.9132 21.9508C45.5718 21.7162 45.2625 21.4495 44.9852 21.1508C44.7078 20.8522 44.4732 20.5535 44.2812 20.2548C44.0892 19.9348 43.9932 19.6468 43.9932 19.3908C43.9932 19.1135 44.1105 18.7295 44.3452 18.2388C44.5585 17.7482 44.8358 17.2042 45.1772 16.6068C45.5185 15.9882 45.8812 15.3588 46.2652 14.7188C46.6492 14.0575 47.0118 13.4282 47.3532 12.8308C47.6945 12.2335 47.9718 11.6895 48.1852 11.1988C48.4198 10.7082 48.5372 10.3135 48.5372 10.0148C48.5372 9.80151 48.5692 9.62018 48.6332 9.47084C48.6972 9.30018 48.9212 9.21484 49.3052 9.21484C49.5825 9.21484 49.8812 9.34284 50.2012 9.59884C50.5212 9.83351 50.8092 10.1215 51.0652 10.4628C51.3425 10.8042 51.5665 11.1562 51.7372 11.5188C51.9078 11.8815 51.9932 12.1695 51.9932 12.3828C51.9932 12.6175 51.9505 12.8735 51.8652 13.1508C51.7798 13.4282 51.6625 13.7375 51.5132 14.0788C51.9185 13.4815 52.3345 12.8948 52.7612 12.3188C53.1878 11.7215 53.5932 11.1988 53.9772 10.7508C54.3825 10.2815 54.7558 9.90818 55.0972 9.63084C55.4385 9.35351 55.7265 9.21484 55.9612 9.21484C56.3025 9.21484 56.6545 9.33218 57.0172 9.56684C57.3798 9.80151 57.7105 10.0895 58.0092 10.4308C58.3078 10.7722 58.5532 11.1455 58.7452 11.5508C58.9372 11.9348 59.0332 12.2975 59.0332 12.6388C59.0332 12.9802 58.9158 13.4068 58.6812 13.9188C58.4678 14.4308 58.1905 14.9855 57.8492 15.5828C57.5078 16.1588 57.1452 16.7562 56.7612 17.3748C56.3772 17.9722 56.0145 18.5482 55.6732 19.1028C55.3318 19.6362 55.0438 20.1268 54.8092 20.5748C54.5958 21.0015 54.4892 21.3322 54.4892 21.5668C54.4892 21.7375 54.5532 21.8228 54.6812 21.8228C54.8092 21.8228 54.9905 21.7375 55.2252 21.5668C55.4598 21.3748 55.7372 21.1402 56.0572 20.8628C56.3772 20.5642 56.7078 20.2228 57.0492 19.8388C57.4118 19.4548 57.7745 19.0708 58.1372 18.6868C58.9692 17.7695 59.8652 16.7135 60.8252 15.5188Z" fill="white"/>
<path d="M45.8157 15.5505C45.901 15.4438 45.9863 15.4225 46.0717 15.4865C46.1783 15.5291 46.1997 15.6145 46.1357 15.7425C45.0903 17.0438 44.1197 18.2065 43.2237 19.2305C42.8397 19.6785 42.445 20.1158 42.0397 20.5425C41.6557 20.9478 41.2823 21.3105 40.9197 21.6305C40.557 21.9505 40.2263 22.2171 39.9277 22.4305C39.6503 22.6225 39.4157 22.7185 39.2237 22.7185C38.925 22.7185 38.5837 22.6118 38.1997 22.3985C37.837 22.1851 37.4957 21.9078 37.1757 21.5665C36.8557 21.2251 36.589 20.8518 36.3757 20.4465C36.1623 20.0411 36.0557 19.6465 36.0557 19.2625C36.0557 18.8358 36.2477 18.2811 36.6317 17.5985C37.0157 16.9158 37.4423 16.2118 37.9117 15.4865C38.381 14.7398 38.8077 14.0358 39.1917 13.3745C39.5757 12.6918 39.7677 12.1371 39.7677 11.7105C39.7677 11.4971 39.7997 11.3158 39.8637 11.1665C39.9277 10.9958 40.1517 10.9105 40.5357 10.9105C40.813 10.9105 41.101 11.0385 41.3997 11.2945C41.7197 11.5291 42.0077 11.8171 42.2637 12.1585C42.541 12.4998 42.765 12.8518 42.9357 13.2145C43.1063 13.5771 43.1917 13.8651 43.1917 14.0785C43.1917 14.6118 42.9997 15.2411 42.6157 15.9665C42.2317 16.6705 41.805 17.3851 41.3357 18.1105C40.8877 18.8145 40.4717 19.4865 40.0877 20.1265C39.7037 20.7451 39.5117 21.2251 39.5117 21.5665C39.5117 21.7371 39.5863 21.8225 39.7357 21.8225C39.8637 21.8225 40.045 21.7371 40.2797 21.5665C40.5143 21.3745 40.781 21.1398 41.0797 20.8625C41.3997 20.5638 41.7303 20.2225 42.0717 19.8385C42.4343 19.4545 42.797 19.0705 43.1597 18.6865C43.9917 17.7691 44.877 16.7238 45.8157 15.5505ZM45.5277 2.81445C46.5517 2.81445 47.2663 2.97445 47.6717 3.29445C48.077 3.61445 48.269 4.00912 48.2477 4.47845C48.2263 4.94779 48.0343 5.45979 47.6717 6.01445C47.309 6.56912 46.8717 7.08112 46.3597 7.55045C45.869 8.01979 45.3357 8.41445 44.7597 8.73445C44.205 9.05445 43.7143 9.21445 43.2877 9.21445C43.0317 9.21445 42.8397 9.05445 42.7117 8.73445C42.605 8.41445 42.5517 8.01979 42.5517 7.55045C42.5517 7.08112 42.605 6.56912 42.7117 6.01445C42.8397 5.45979 43.021 4.94779 43.2557 4.47845C43.5117 4.00912 43.821 3.61445 44.1837 3.29445C44.5677 2.97445 45.0157 2.81445 45.5277 2.81445Z" fill="white"/>
<path d="M37.8706 15.5514C37.9346 15.4448 38.0093 15.4234 38.0946 15.4874C38.2013 15.5301 38.2226 15.6154 38.1586 15.7434C37.7106 16.3408 37.2306 16.8634 36.7186 17.3114C36.292 17.6954 35.8013 18.0474 35.2466 18.3674C34.7133 18.6874 34.1693 18.8474 33.6146 18.8474C33.316 18.8474 32.9746 18.7408 32.5906 18.5274C32.228 18.3141 31.8866 18.0368 31.5666 17.6954C31.2466 17.3541 30.98 16.9808 30.7666 16.5754C30.5533 16.1488 30.4466 15.7434 30.4466 15.3594C30.4466 15.0394 30.5853 14.6234 30.8626 14.1114C31.1613 13.5994 31.4813 13.0768 31.8226 12.5434C32.1853 11.9888 32.516 11.4661 32.8146 10.9754C33.1133 10.4848 33.2626 10.0901 33.2626 9.79142C33.2626 9.70609 33.252 9.64209 33.2306 9.59942C33.2093 9.53542 33.1453 9.50342 33.0386 9.50342C32.8466 9.50342 32.5906 9.65276 32.2706 9.95142C31.972 10.2501 31.6413 10.6554 31.2786 11.1674C30.9373 11.6581 30.564 12.2234 30.1586 12.8634C29.7746 13.4821 29.4013 14.1114 29.0386 14.7514C28.74 15.3914 28.3986 16.0634 28.0146 16.7674C27.6306 17.4714 27.2573 18.1541 26.8946 18.8154C26.5533 19.4554 26.2546 20.0421 25.9986 20.5754C25.764 21.0874 25.6466 21.4714 25.6466 21.7274C25.6466 22.0901 25.5506 22.3248 25.3586 22.4314C25.1666 22.5168 24.932 22.5168 24.6546 22.4314C24.3773 22.3461 24.068 22.1861 23.7266 21.9514C23.3853 21.7168 23.076 21.4501 22.7986 21.1514C22.5213 20.8528 22.2866 20.5541 22.0946 20.2554C21.9026 19.9354 21.8066 19.6474 21.8066 19.3914C21.8066 19.1141 21.924 18.7301 22.1586 18.2394C22.372 17.7488 22.6493 17.2048 22.9906 16.6074C23.332 15.9888 23.6946 15.3594 24.0786 14.7194C24.4626 14.0581 24.8253 13.4288 25.1666 12.8314C25.508 12.2341 25.7853 11.6901 25.9986 11.1994C26.2333 10.7088 26.3506 10.3141 26.3506 10.0154C26.3506 9.80209 26.3826 9.62076 26.4466 9.47142C26.5106 9.30076 26.7346 9.21542 27.1186 9.21542C27.396 9.21542 27.6946 9.34342 28.0146 9.59942C28.3346 9.83409 28.6226 10.1221 28.8786 10.4634C29.156 10.8048 29.38 11.1568 29.5506 11.5194C29.7213 11.8821 29.8066 12.1701 29.8066 12.3834V12.5114C30.148 11.9781 30.4893 11.4768 30.8306 11.0074C31.1933 10.5381 31.5346 10.1328 31.8546 9.79142C32.1746 9.42876 32.4733 9.14076 32.7506 8.92742C33.028 8.71409 33.284 8.60742 33.5186 8.60742C33.86 8.60742 34.212 8.72476 34.5746 8.95942C34.9373 9.19409 35.268 9.48209 35.5666 9.82342C35.8653 10.1648 36.1106 10.5381 36.3026 10.9434C36.4946 11.3274 36.5906 11.6794 36.5906 11.9994C36.5906 12.3194 36.452 12.7354 36.1746 13.2474C35.8973 13.7594 35.588 14.2928 35.2466 14.8474C34.9053 15.4021 34.596 15.9354 34.3186 16.4474C34.0413 16.9594 33.9026 17.3754 33.9026 17.6954C33.9026 17.8448 33.9666 17.9194 34.0946 17.9194C34.5426 17.9194 34.9906 17.8021 35.4386 17.5674C35.8866 17.3114 36.292 17.0341 36.6546 16.7354C37.06 16.3941 37.4653 15.9994 37.8706 15.5514Z" fill="white"/>
<path d="M18.784 13.824C19.3173 14.0587 19.7973 14.432 20.224 14.944C20.672 15.4347 20.896 16.1813 20.896 17.184C20.896 18.2507 20.64 19.2213 20.128 20.096C19.6373 20.9493 18.976 21.6853 18.144 22.304C17.3333 22.9227 16.4053 23.392 15.36 23.712C14.3147 24.0533 13.248 24.224 12.16 24.224C11.84 24.224 11.4667 24.1173 11.04 23.904C10.6133 23.712 10.1973 23.4667 9.792 23.168C9.38667 22.8693 9.04533 22.5493 8.768 22.208C8.49067 21.8667 8.352 21.5573 8.352 21.28C8.352 21.0667 8.384 20.9173 8.448 20.832C8.53333 20.7253 8.61867 20.672 8.704 20.672C8.81067 20.6507 8.90667 20.672 8.992 20.736C9.07733 20.8 9.12 20.8853 9.12 20.992C9.12 21.1413 9.17333 21.28 9.28 21.408C9.408 21.536 9.57867 21.6 9.792 21.6C11.1573 21.6 12.352 21.3867 13.376 20.96C14.4 20.5333 15.2427 19.9893 15.904 19.328C16.5867 18.6667 17.0987 17.9627 17.44 17.216C17.7813 16.448 17.952 15.7227 17.952 15.04C17.952 14.592 17.7707 14.368 17.408 14.368C17.088 14.368 16.736 14.272 16.352 14.08C15.968 13.8667 15.616 13.6213 15.296 13.344C14.976 13.0667 14.7093 12.7787 14.496 12.48C14.2827 12.16 14.176 11.8827 14.176 11.648C14.176 11.4987 14.2293 11.4347 14.336 11.456C14.4427 11.456 14.5493 11.456 14.656 11.456C14.8907 11.456 15.2213 11.3173 15.648 11.04C16.0747 10.7627 16.5333 10.4 17.024 9.952C17.536 9.48267 18.048 8.96 18.56 8.384C19.0933 7.808 19.5733 7.21067 20 6.592C20.4267 5.97333 20.768 5.376 21.024 4.8C21.3013 4.20267 21.44 3.66933 21.44 3.2C21.44 2.96533 21.3867 2.816 21.28 2.752C21.1733 2.66667 21.0667 2.624 20.96 2.624C20.7467 2.624 20.4587 2.77333 20.096 3.072C19.7333 3.37067 19.328 3.76533 18.88 4.256C18.4533 4.72533 17.9947 5.26933 17.504 5.888C17.0133 6.48533 16.544 7.08267 16.096 7.68C15.6907 8.55467 15.1893 9.52533 14.592 10.592C14.016 11.6587 13.3973 12.736 12.736 13.824C12.096 14.912 11.4347 15.968 10.752 16.992C10.0693 17.9947 9.42933 18.8907 8.832 19.68C8.23467 20.448 7.712 21.0773 7.264 21.568C6.816 22.0373 6.496 22.272 6.304 22.272C5.92 22.272 5.54667 22.144 5.184 21.888C4.82133 21.632 4.49067 21.3227 4.192 20.96C3.89333 20.5973 3.648 20.2347 3.456 19.872C3.28533 19.488 3.2 19.1787 3.2 18.944C3.2 18.5387 3.36 18.0267 3.68 17.408C4.02133 16.768 4.448 16.0853 4.96 15.36C5.472 14.6133 6.02667 13.8667 6.624 13.12C7.24267 12.352 7.81867 11.648 8.352 11.008C8.90667 10.368 9.38667 9.824 9.792 9.376C10.2187 8.928 10.4853 8.64 10.592 8.512C11.3387 7.168 11.9147 5.952 12.32 4.864C12.7467 3.776 12.96 2.86933 12.96 2.144C12.96 1.71733 12.8533 1.39733 12.64 1.184C12.4267 0.949334 12.1387 0.832001 11.776 0.832001C11.2427 0.832001 10.656 1.03467 10.016 1.44C9.376 1.84533 8.72533 2.37867 8.064 3.04C7.40267 3.70133 6.76267 4.45867 6.144 5.312C5.52533 6.144 4.97067 6.99733 4.48 7.872C3.98933 8.74667 3.59467 9.6 3.296 10.432C3.01867 11.2427 2.88 11.9573 2.88 12.576C2.88 12.768 2.73067 12.8 2.432 12.672C2.13333 12.5227 1.80267 12.2773 1.44 11.936C1.07733 11.5733 0.746667 11.136 0.448 10.624C0.149333 10.0907 0 9.52533 0 8.928C0 8.288 0.224 7.62667 0.672 6.944C1.12 6.24 1.70667 5.55733 2.432 4.896C3.17867 4.23467 4.02133 3.60533 4.96 3.008C5.89867 2.41067 6.848 1.89867 7.808 1.472C8.78933 1.024 9.73867 0.672001 10.656 0.416C11.5947 0.138667 12.416 0 13.12 0C13.6107 0 14.0907 0.106667 14.56 0.320002C15.0293 0.533335 15.4453 0.842668 15.808 1.248C16.192 1.65333 16.4907 2.144 16.704 2.72C16.9387 3.27467 17.056 3.91467 17.056 4.64C17.056 4.832 17.024 5.056 16.96 5.312C16.9173 5.54667 16.8427 5.81333 16.736 6.112C17.184 5.55733 17.632 5.024 18.08 4.512C18.5493 3.97867 18.9867 3.50933 19.392 3.104C19.8187 2.67733 20.2027 2.34667 20.544 2.112C20.9067 1.856 21.2053 1.728 21.44 1.728C21.7813 1.728 22.1547 1.84533 22.56 2.08C22.9867 2.31467 23.3707 2.60267 23.712 2.944C24.0747 3.28533 24.3733 3.65867 24.608 4.064C24.8427 4.448 24.96 4.8 24.96 5.12C24.96 5.73867 24.7467 6.464 24.32 7.296C23.9147 8.128 23.4027 8.96 22.784 9.792C22.1653 10.624 21.4933 11.4027 20.768 12.128C20.064 12.8533 19.4027 13.4187 18.784 13.824ZM3.616 18.688C3.76533 18.688 4.04267 18.4533 4.448 17.984C4.85333 17.5147 5.32267 16.896 5.856 16.128C6.41067 15.36 6.99733 14.4853 7.616 13.504C8.23467 12.5227 8.85333 11.52 9.472 10.496C8.68267 11.3067 7.91467 12.192 7.168 13.152C6.42133 14.0907 5.76 14.976 5.184 15.808C4.62933 16.6187 4.20267 17.3013 3.904 17.856C3.60533 18.4107 3.50933 18.688 3.616 18.688Z" fill="white"/>
</svg>
