<svg width="113" height="52" viewBox="0 0 113 52" fill="none" xmlns="http://www.w3.org/2000/svg">
<path d="M95.0439 9.09766H95.7578C96.3444 8.04622 96.8757 7.30469 97.3516 6.87305C97.8275 6.43034 98.3698 6.20898 98.9785 6.20898C99.5872 6.20898 99.8916 6.34733 99.8916 6.62402C99.8916 6.75684 99.6536 7.11654 99.1777 7.70312C98.7018 8.28971 98.3421 8.78223 98.0986 9.18066C98.4749 9.22493 98.807 9.26367 99.0947 9.29688C99.3936 9.33008 99.626 9.35775 99.792 9.37988C99.1611 10.5531 98.3698 11.7539 97.418 12.9824C97.1081 12.9603 96.848 12.9437 96.6377 12.9326C96.4274 12.9105 96.2116 12.8939 95.9902 12.8828C95.7799 12.8607 95.5199 12.8385 95.21 12.8164C94.6123 13.7793 94.1087 14.6426 93.6992 15.4062C93.3008 16.1589 92.9909 16.8506 92.7695 17.4814C92.5592 18.1123 92.4541 18.71 92.4541 19.2744C92.4541 20.0381 92.7585 20.4199 93.3672 20.4199C93.7878 20.4199 94.3356 20.1986 95.0107 19.7559C95.6969 19.3021 96.61 18.6104 97.75 17.6807V18.793C94.7617 22.0358 92.5537 23.6572 91.126 23.6572C90.6279 23.6572 90.224 23.4635 89.9141 23.0762C89.6152 22.6888 89.4658 22.1908 89.4658 21.582C89.4658 21.1725 89.5488 20.6855 89.7148 20.1211C89.8919 19.5566 90.2018 18.7044 90.6445 17.5645C90.4896 17.6973 90.3402 17.8301 90.1963 17.9629C90.0635 18.0846 89.9362 18.2008 89.8145 18.3115C89.7038 18.4111 89.582 18.5218 89.4492 18.6436C89.3164 18.7542 89.1836 18.8704 89.0508 18.9922V17.8467C90.2129 16.8727 91.6185 15.1628 93.2676 12.7168C93.1016 12.7057 92.9466 12.7002 92.8027 12.7002C92.6589 12.6891 92.4873 12.6836 92.2881 12.6836C91.6351 12.6836 91.1481 12.7279 90.8271 12.8164C90.6943 12.8496 90.5671 12.8883 90.4453 12.9326C90.3346 12.9658 90.2572 12.9824 90.2129 12.9824C90.1686 12.9824 90.1465 12.9492 90.1465 12.8828C90.1465 12.5176 90.3734 11.9697 90.8271 11.2393C91.1924 10.6195 91.5355 10.1602 91.8564 9.86133C92.1885 9.5625 92.5869 9.36328 93.0518 9.26367C93.5277 9.15299 94.1917 9.09766 95.0439 9.09766Z" fill="white"/>
<path d="M87.9883 14.709C86.0404 16.8783 85.0664 18.389 85.0664 19.2412C85.0664 19.7171 85.2601 19.9551 85.6475 19.9551C85.9684 19.9551 86.3835 19.7891 86.8926 19.457C87.4128 19.1139 88.2207 18.5107 89.3164 17.6475V18.793C87.7448 20.3424 86.5384 21.4603 85.6973 22.1465C84.8561 22.8327 84.1699 23.1758 83.6387 23.1758C82.7311 23.1758 82.2773 22.5781 82.2773 21.3828C82.2773 21.0286 82.3327 20.68 82.4434 20.3369C82.554 19.9938 82.7035 19.6396 82.8916 19.2744C83.0908 18.8981 83.3896 18.3669 83.7881 17.6807C84.1865 16.9834 84.6458 16.1976 85.166 15.3232C84.5352 15.6442 83.7438 16.2806 82.792 17.2324C82.1722 17.8301 81.6465 18.4001 81.2148 18.9424C80.7832 19.4736 80.3184 20.0713 79.8203 20.7354C79.3333 21.3883 78.9736 21.8311 78.7412 22.0635C78.5199 22.2848 78.293 22.3955 78.0605 22.3955C77.7064 22.3955 77.3799 22.0247 77.0811 21.2832C76.7822 20.5417 76.6328 19.6784 76.6328 18.6934C76.6328 18.0846 76.6992 17.6087 76.832 17.2656C76.9759 16.9225 77.2526 16.4355 77.6621 15.8047C78.4258 14.6315 79.0843 13.7738 79.6377 13.2314C80.1911 12.6781 80.7223 12.4014 81.2314 12.4014C81.5856 12.4014 81.8678 12.4622 82.0781 12.584C82.2995 12.7057 82.4102 12.8939 82.4102 13.1484C82.4102 13.2591 82.377 13.3753 82.3105 13.4971C82.2441 13.6188 82.1667 13.7295 82.0781 13.8291C82.0007 13.9287 81.8291 14.1224 81.5635 14.4102C79.8148 16.347 78.9404 17.6032 78.9404 18.1787C78.9404 18.4997 79.0456 18.6602 79.2559 18.6602C79.3887 18.6602 79.6432 18.4499 80.0195 18.0293C80.4069 17.5977 80.8994 17.0387 81.4971 16.3525C82.1058 15.6553 82.8197 14.9303 83.6387 14.1777C84.4688 13.4251 85.4095 12.7002 86.4609 12.0029C87.0475 11.5934 87.5345 11.3887 87.9219 11.3887C88.099 11.3887 88.2705 11.6322 88.4365 12.1191C88.6136 12.6061 88.7021 13.0986 88.7021 13.5967C88.7021 13.8402 88.4642 14.2109 87.9883 14.709Z" fill="white"/>
<path d="M69.5273 18.3105V18.7256C69.5273 19.3786 69.6878 19.8877 70.0088 20.2529C70.3298 20.6182 70.7503 20.8008 71.2705 20.8008C71.8128 20.8008 72.3717 20.6735 72.9473 20.4189C73.5339 20.1644 74.1149 19.8268 74.6904 19.4062C75.266 18.9857 75.9688 18.4212 76.7988 17.7129V18.7256C75.5482 20.2308 74.375 21.3874 73.2793 22.1953C72.1836 22.9922 71.0713 23.3906 69.9424 23.3906C68.9574 23.3906 68.1771 23.0088 67.6016 22.2451C67.026 21.4814 66.7383 20.4355 66.7383 19.1074C66.7383 17.9453 67.0094 16.8939 67.5518 15.9531C68.0941 15.0013 68.9795 13.9997 70.208 12.9482C71.0492 12.2288 71.8848 11.6865 72.7148 11.3213C73.5449 10.9561 74.2865 10.7734 74.9395 10.7734C75.4596 10.7734 75.8691 10.8952 76.168 11.1387C76.4779 11.3711 76.6328 11.7253 76.6328 12.2012C76.6328 12.8984 76.3727 13.5957 75.8525 14.293C75.3324 14.9792 74.5355 15.6654 73.4619 16.3516C72.3994 17.0267 71.0879 17.6797 69.5273 18.3105ZM69.6934 17.2314C70.6895 16.8441 71.5417 16.3626 72.25 15.7871C72.9583 15.2116 73.4785 14.6637 73.8105 14.1436C74.1536 13.6123 74.3252 13.2249 74.3252 12.9814C74.3252 12.7269 74.209 12.5996 73.9766 12.5996C73.7773 12.5996 73.4508 12.7269 72.9971 12.9814C72.5544 13.236 72.1006 13.568 71.6357 13.9775C71.182 14.387 70.7725 14.8685 70.4072 15.4219C70.042 15.9753 69.804 16.5785 69.6934 17.2314Z" fill="white"/>
<path d="M65.6426 14.709C63.6947 16.8783 62.7207 18.389 62.7207 19.2412C62.7207 19.7171 62.9144 19.9551 63.3018 19.9551C63.6227 19.9551 64.0378 19.7891 64.5469 19.457C65.0671 19.1139 65.875 18.5107 66.9707 17.6475V18.793C65.3991 20.3424 64.1927 21.4603 63.3516 22.1465C62.5104 22.8327 61.8242 23.1758 61.293 23.1758C60.3854 23.1758 59.9316 22.5781 59.9316 21.3828C59.9316 21.0286 59.987 20.68 60.0977 20.3369C60.2083 19.9938 60.3577 19.6396 60.5459 19.2744C60.7451 18.8981 61.0439 18.3669 61.4424 17.6807C61.8408 16.9834 62.3001 16.1976 62.8203 15.3232C62.1895 15.6442 61.3981 16.2806 60.4463 17.2324C59.8265 17.8301 59.3008 18.4001 58.8691 18.9424C58.4375 19.4736 57.9727 20.0713 57.4746 20.7354C56.9876 21.3883 56.6279 21.8311 56.3955 22.0635C56.1742 22.2848 55.9473 22.3955 55.7148 22.3955C55.3607 22.3955 55.0342 22.0247 54.7354 21.2832C54.4365 20.5417 54.2871 19.6784 54.2871 18.6934C54.2871 18.0846 54.3535 17.6087 54.4863 17.2656C54.6302 16.9225 54.9069 16.4355 55.3164 15.8047C56.0801 14.6315 56.7386 13.7738 57.292 13.2314C57.8454 12.6781 58.3766 12.4014 58.8857 12.4014C59.2399 12.4014 59.5221 12.4622 59.7324 12.584C59.9538 12.7057 60.0645 12.8939 60.0645 13.1484C60.0645 13.2591 60.0312 13.3753 59.9648 13.4971C59.8984 13.6188 59.821 13.7295 59.7324 13.8291C59.6549 13.9287 59.4834 14.1224 59.2178 14.4102C57.4691 16.347 56.5947 17.6032 56.5947 18.1787C56.5947 18.4997 56.6999 18.6602 56.9102 18.6602C57.043 18.6602 57.2975 18.4499 57.6738 18.0293C58.0612 17.5977 58.5537 17.0387 59.1514 16.3525C59.7601 15.6553 60.474 14.9303 61.293 14.1777C62.123 13.4251 63.0638 12.7002 64.1152 12.0029C64.7018 11.5934 65.1888 11.3887 65.5762 11.3887C65.7533 11.3887 65.9248 11.6322 66.0908 12.1191C66.2679 12.6061 66.3564 13.0986 66.3564 13.5967C66.3564 13.8402 66.1185 14.2109 65.6426 14.709Z" fill="white"/>
<path d="M54.4697 17.6816V18.7939C53.7393 19.458 53.1527 19.9007 52.71 20.1221C52.2673 20.3434 51.6309 20.432 50.8008 20.3877C49.362 22.0921 48.0947 22.9443 46.999 22.9443C46.3792 22.9443 45.8148 22.7396 45.3057 22.3301C44.7965 21.9206 44.387 21.3617 44.0771 20.6533C43.7783 19.945 43.6289 19.1536 43.6289 18.2793C43.6289 17.571 43.8613 16.7852 44.3262 15.9219C44.8021 15.0586 45.4108 14.2562 46.1523 13.5146C46.9049 12.762 47.7074 12.1589 48.5596 11.7051C49.4118 11.2402 50.2031 11.0078 50.9336 11.0078C51.4538 11.0078 51.8633 11.0908 52.1621 11.2568C52.4609 11.4118 52.6104 11.6331 52.6104 11.9209C52.6104 12.1423 52.4831 12.3968 52.2285 12.6846C52.6491 12.7731 52.9368 12.9225 53.0918 13.1328C53.2467 13.332 53.3242 13.7028 53.3242 14.2451C53.3242 14.7764 53.1969 15.446 52.9424 16.2539C52.6989 17.0618 52.3613 17.82 51.9297 18.5283L52.2285 18.8271H52.4775C52.6657 18.8271 52.8483 18.7829 53.0254 18.6943C53.2135 18.5947 53.3796 18.4951 53.5234 18.3955C53.6673 18.2848 53.9827 18.0469 54.4697 17.6816ZM51.0498 13.3154C50.1312 13.8688 49.3454 14.3724 48.6924 14.8262C48.0394 15.2689 47.486 15.7227 47.0322 16.1875C46.5785 16.6413 46.2741 17.1006 46.1191 17.5654C45.8424 18.805 45.7041 19.4746 45.7041 19.5742C45.7041 20.3047 46.2132 20.6699 47.2314 20.6699C47.7074 20.6699 48.5042 20.2604 49.6221 19.4414C49.4339 18.9212 49.3398 18.4232 49.3398 17.9473C49.3398 17.25 49.4837 16.5417 49.7715 15.8223C50.0592 15.0918 50.4854 14.2562 51.0498 13.3154Z" fill="white"/>
<path d="M29.7832 19.1084V17.9463C31.3327 16.264 32.6663 14.6813 33.7842 13.1982C34.9131 11.7152 35.804 10.5365 36.457 9.66211C37.11 8.78776 37.6855 8.1735 38.1836 7.81934C38.6816 7.4541 39.307 7.27148 40.0596 7.27148C40.4359 7.27148 40.624 7.41536 40.624 7.70312C40.624 7.93555 40.4691 8.27865 40.1592 8.73242C39.8604 9.1862 39.473 9.65104 38.9971 10.127C38.3662 10.7467 37.7464 11.527 37.1377 12.4678C36.54 13.3975 35.8594 14.5872 35.0957 16.0371C35.6934 15.5723 36.3796 15.0244 37.1543 14.3936C37.9401 13.7516 38.5765 13.2536 39.0635 12.8994C39.5615 12.5342 40.0485 12.2464 40.5244 12.0361C41.0114 11.8258 41.4984 11.7207 41.9854 11.7207C42.2952 11.7207 42.4945 11.776 42.583 11.8867C42.6826 11.9974 42.7324 12.2132 42.7324 12.5342C42.7324 13.3753 42.5277 14.1999 42.1182 15.0078C41.7087 15.8047 41.1221 16.6348 40.3584 17.498C39.5947 18.3613 38.654 19.3021 37.5361 20.3203C37.9235 20.4642 38.3219 20.5361 38.7314 20.5361C40.0153 20.5361 41.7363 19.5566 43.8945 17.5977V18.793C43.0534 19.5456 42.2288 20.2539 41.4209 20.918C40.624 21.582 39.8714 22.1133 39.1631 22.5117C38.4548 22.9102 37.8018 23.1094 37.2041 23.1094C36.9827 23.1094 36.7448 23.0817 36.4902 23.0264C36.2467 22.9821 36.0199 22.9268 35.8096 22.8604C35.5993 22.7829 35.3281 22.6777 34.9961 22.5449C34.6641 22.4121 34.4095 22.318 34.2324 22.2627C33.8783 22.3512 33.679 22.3955 33.6348 22.3955C33.2474 22.3955 32.7936 22.2406 32.2734 21.9307C31.9082 22.639 31.5042 23.5521 31.0615 24.6699C30.6299 25.7988 30.2646 26.6953 29.9658 27.3594C29.667 28.0234 29.2686 28.6598 28.7705 29.2686C28.4938 29.5452 28.3001 29.6836 28.1895 29.6836C27.7135 29.6836 27.4756 29.263 27.4756 28.4219C27.4756 27.6914 27.625 26.9277 27.9238 26.1309C28.2116 25.3451 28.5713 24.598 29.0029 23.8896C29.4235 23.1813 29.8883 22.4674 30.3975 21.748C30.9066 21.0176 31.2663 20.4753 31.4766 20.1211C33.2253 17.1107 34.5866 14.5485 35.5605 12.4346C33.015 15.5335 31.0892 17.7581 29.7832 19.1084ZM36.5234 19.9219C37.6191 18.7708 38.4326 17.7913 38.9639 16.9834C39.5062 16.1755 39.7773 15.5557 39.7773 15.124C39.7773 14.7145 39.5726 14.5098 39.1631 14.5098C38.6097 14.5098 37.8294 14.9691 36.8223 15.8877C35.8262 16.7952 34.7969 18.0238 33.7344 19.5732C34.5534 19.4847 35.1012 19.457 35.3779 19.4902C35.6546 19.5124 36.0365 19.6562 36.5234 19.9219Z" fill="white"/>
<path d="M23.3252 17.7139V13.7959C22.9157 13.8955 22.5228 14.0726 22.1465 14.3271C21.7812 14.5817 21.3883 14.8971 20.9678 15.2734C20.5583 15.6497 20.3037 15.8379 20.2041 15.8379C20.0824 15.8379 20.0215 15.6774 20.0215 15.3564C20.0215 15.0355 20.348 14.471 21.001 13.6631C21.665 12.8441 22.3955 12.0915 23.1924 11.4053C23.9893 10.708 24.5648 10.3594 24.9189 10.3594C25.1292 10.3594 25.3118 10.4811 25.4668 10.7246C25.6217 10.9681 25.6992 11.3001 25.6992 11.7207C25.6992 11.9974 25.6937 12.252 25.6826 12.4844C25.6715 12.7168 25.6605 13.0267 25.6494 13.4141C25.6383 13.8014 25.6217 14.3604 25.5996 15.0908C28.0456 12.4788 29.4954 11.1729 29.9492 11.1729C30.082 11.1729 30.1872 11.2282 30.2646 11.3389C30.3532 11.4385 30.3975 11.5658 30.3975 11.7207C30.3975 12.0859 30.0986 12.6504 29.501 13.4141C28.9144 14.1667 28.5215 14.543 28.3223 14.543C28.0456 14.543 27.8298 14.4987 27.6748 14.4102L25.5664 17.0996C25.5885 18.0736 25.6715 18.7985 25.8154 19.2744C25.9704 19.7503 26.2415 19.9883 26.6289 19.9883C26.9609 19.9883 27.3483 19.8223 27.791 19.4902C28.2337 19.1582 28.9531 18.5439 29.9492 17.6475V18.793C27.6803 21.9251 26.0755 23.4912 25.1348 23.4912C24.5482 23.4912 24.1276 23.1813 23.873 22.5615C23.6296 21.9417 23.4691 20.9899 23.3916 19.7061C23.0042 20.1045 22.5505 20.5859 22.0303 21.1504C21.5101 21.7148 21.1283 22.1188 20.8848 22.3623C20.6523 22.5947 20.4365 22.7884 20.2373 22.9434C20.0492 23.0983 19.8776 23.1758 19.7227 23.1758C19.5677 23.1758 19.4902 23.043 19.4902 22.7773C19.4902 22.3346 19.7227 21.7259 20.1875 20.9512C20.6634 20.1764 21.0065 19.7891 21.2168 19.7891C21.2389 19.7891 21.2887 19.8001 21.3662 19.8223C21.4437 19.8444 21.4824 19.8555 21.4824 19.8555L23.3252 17.7139Z" fill="white"/>
<path d="M21.001 2.02539V3.1543C21.001 3.61914 20.9069 3.91243 20.7188 4.03418C20.5417 4.15592 19.8721 4.48242 18.71 5.01367C17.5589 5.54492 16.4521 6.17025 15.3896 6.88965C15.7992 6.29199 16.1699 5.84928 16.502 5.56152C16.8451 5.27376 17.3044 4.91406 17.8799 4.48242C17.3818 4.2832 16.6901 4.18359 15.8047 4.18359C14.4323 4.18359 12.9492 4.45475 11.3555 4.99707C9.77279 5.53939 8.42253 6.18685 7.30469 6.93945C6.19792 7.69206 5.64453 8.32292 5.64453 8.83203C5.64453 9.09766 5.81055 9.31901 6.14258 9.49609C6.48568 9.66211 7.02799 9.79492 7.76953 9.89453C8.52214 9.98307 9.45736 10.0439 10.5752 10.0771C11.693 10.1104 13.071 10.127 14.709 10.127C15.9043 10.127 16.6735 10.1712 17.0166 10.2598C17.3597 10.3483 17.5312 10.5531 17.5312 10.874C17.5312 11.2835 17.3265 11.7539 16.917 12.2852C16.5186 12.8053 15.9873 13.1152 15.3232 13.2148C14.2939 13.3809 13.4749 13.5247 12.8662 13.6465C12.2575 13.7572 11.5326 13.9508 10.6914 14.2275C9.86133 14.5042 8.93717 14.9027 7.91895 15.4229C6.40267 16.2197 5.21842 17.0277 4.36621 17.8467C3.514 18.6657 3.08789 19.3906 3.08789 20.0215C3.08789 20.5638 3.39225 20.9899 4.00098 21.2998C4.6097 21.5986 5.48405 21.748 6.62402 21.748C10.5531 21.748 14.554 19.9827 18.627 16.4521C18.6491 17.5368 18.5273 18.4941 18.2617 19.3242C18.0072 20.1432 17.4814 20.929 16.6846 21.6816C16.0205 22.3125 15.0465 22.9157 13.7627 23.4912C12.4899 24.0667 11.0954 24.526 9.5791 24.8691C8.07389 25.2122 6.65723 25.3838 5.3291 25.3838C3.79069 25.3838 2.5179 25.013 1.51074 24.2715C0.503581 23.541 0 22.5671 0 21.3496C0 20.4642 0.24349 19.5843 0.730469 18.71C1.21745 17.8356 1.96452 17 2.97168 16.2031C3.97884 15.3952 5.25163 14.6647 6.79004 14.0117C8.33952 13.3587 10.1214 12.8441 12.1357 12.4678C12.4235 12.4124 12.5674 12.3239 12.5674 12.2021C12.5674 12.0693 12.3958 11.9919 12.0527 11.9697C11.7207 11.9365 11.1009 11.9144 10.1934 11.9033C9.29688 11.8923 8.50553 11.8535 7.81934 11.7871C7.13314 11.7207 6.4082 11.5768 5.64453 11.3555C4.85872 11.112 4.25 10.6859 3.81836 10.0771C3.39779 9.46842 3.1875 8.79329 3.1875 8.05176C3.1875 7.09993 3.5306 6.14258 4.2168 5.17969C4.90299 4.2168 5.87142 3.34798 7.12207 2.57324C8.37272 1.7985 9.88346 1.17871 11.6543 0.713867C13.4362 0.237956 15.3841 0 17.498 0C18.7155 0 19.5622 0.0719401 20.0381 0.21582C20.5251 0.348633 20.8073 0.53125 20.8848 0.763672C20.9622 0.985026 21.001 1.4056 21.001 2.02539Z" fill="white"/>
<path d="M103.206 40.9971L102.907 42.3916C102.863 42.5687 102.841 42.7679 102.841 42.9893C102.841 43.5869 103.09 43.8857 103.588 43.8857C104.064 43.8857 105.22 42.9561 107.058 41.0967C107.069 40.3773 107.334 39.5472 107.854 38.6064C108.386 37.6657 108.967 36.8411 109.598 36.1328C110.24 35.4245 110.715 35.0703 111.025 35.0703C111.512 35.0703 111.756 35.3913 111.756 36.0332C111.756 36.4206 111.662 36.8965 111.474 37.4609C111.285 38.0143 111.009 38.6175 110.644 39.2705C110.278 39.9124 109.83 40.5765 109.299 41.2627C109.576 41.7607 109.858 42.0098 110.146 42.0098C110.389 42.0098 110.655 41.9268 110.942 41.7607C111.241 41.5837 111.612 41.318 112.055 40.9639V42.0762C111.435 42.5632 110.942 42.8952 110.577 43.0723C110.223 43.2493 109.764 43.3379 109.199 43.3379C108.978 43.3379 108.579 43.1885 108.004 42.8896C106.875 44.085 105.956 44.9814 105.248 45.5791C104.54 46.1657 103.964 46.459 103.521 46.459C102.758 46.459 102.105 46.0052 101.562 45.0977C101.031 44.179 100.766 43.1719 100.766 42.0762C100.766 40.6042 101.596 38.8389 103.256 36.7803C103.754 36.1605 104.152 35.7399 104.451 35.5186C104.761 35.2861 105.11 35.1699 105.497 35.1699C105.829 35.1699 106.145 35.2308 106.443 35.3525C106.742 35.4743 106.892 35.6182 106.892 35.7842C106.892 36.3376 106.521 37.151 105.779 38.2246C105.038 39.2871 104.18 40.2113 103.206 40.9971Z" fill="white"/>
<path d="M90.9375 42.2422V41.1631C91.5352 40.4548 91.9889 39.8516 92.2988 39.3535C91.9447 39.2318 91.6846 39.0824 91.5186 38.9053C91.3636 38.7282 91.2861 38.4626 91.2861 38.1084C91.2861 37.71 91.4521 37.2064 91.7842 36.5977C92.1162 35.9889 92.5257 35.4189 93.0127 34.8877C93.4997 34.3564 93.9424 34.0133 94.3408 33.8584C94.4958 33.7809 94.6452 33.7422 94.7891 33.7422C95.0104 33.7422 95.1211 33.8473 95.1211 34.0576C95.1211 34.2458 94.9495 34.6276 94.6064 35.2031C96.8864 34.849 98.3252 34.6719 98.9229 34.6719C99.1553 34.6719 99.3158 34.694 99.4043 34.7383C99.5924 34.8379 99.7474 35.0703 99.8691 35.4355C99.9909 35.8008 100.052 36.166 100.052 36.5312C100.052 36.7637 99.9466 37.0182 99.7363 37.2949C99.5371 37.5605 99.1885 37.9535 98.6904 38.4736C98.1038 39.1045 97.6113 39.7907 97.2129 40.5322C96.8145 41.2738 96.6152 41.8327 96.6152 42.209C96.6152 42.7292 96.9362 42.9893 97.5781 42.9893C98.2533 42.9893 99.4264 42.3031 101.098 40.9307V42.043C100.179 43.0059 99.4209 43.764 98.8232 44.3174C98.2256 44.8708 97.6722 45.3135 97.1631 45.6455C96.654 45.9665 96.2002 46.127 95.8018 46.127C95.3369 46.127 94.9495 45.9167 94.6396 45.4961C94.3298 45.0645 94.1748 44.4447 94.1748 43.6367C94.1748 43.1608 94.2965 42.6185 94.54 42.0098C94.7835 41.401 95.1377 40.7425 95.6025 40.0342C96.0785 39.3148 96.6097 38.6009 97.1963 37.8926C96.8864 37.959 96.5378 38.0309 96.1504 38.1084C95.763 38.1748 95.3535 38.2467 94.9219 38.3242C94.4902 38.4017 94.1582 38.4626 93.9258 38.5068C93.2396 39.8792 92.2435 41.1243 90.9375 42.2422Z" fill="white"/>
<path d="M83.832 41.5605V41.9756C83.832 42.6286 83.9925 43.1377 84.3135 43.5029C84.6344 43.8682 85.055 44.0508 85.5752 44.0508C86.1175 44.0508 86.6764 43.9235 87.252 43.6689C87.8385 43.4144 88.4196 43.0768 88.9951 42.6562C89.5706 42.2357 90.2734 41.6712 91.1035 40.9629V41.9756C89.8529 43.4808 88.6797 44.6374 87.584 45.4453C86.4883 46.2422 85.376 46.6406 84.2471 46.6406C83.262 46.6406 82.4818 46.2588 81.9062 45.4951C81.3307 44.7314 81.043 43.6855 81.043 42.3574C81.043 41.1953 81.3141 40.1439 81.8564 39.2031C82.3988 38.2513 83.2842 37.2497 84.5127 36.1982C85.3538 35.4788 86.1895 34.9365 87.0195 34.5713C87.8496 34.2061 88.5911 34.0234 89.2441 34.0234C89.7643 34.0234 90.1738 34.1452 90.4727 34.3887C90.7826 34.6211 90.9375 34.9753 90.9375 35.4512C90.9375 36.1484 90.6774 36.8457 90.1572 37.543C89.637 38.2292 88.8402 38.9154 87.7666 39.6016C86.7041 40.2767 85.3926 40.9297 83.832 41.5605ZM83.998 40.4814C84.9941 40.0941 85.8464 39.6126 86.5547 39.0371C87.263 38.4616 87.7832 37.9137 88.1152 37.3936C88.4583 36.8623 88.6299 36.4749 88.6299 36.2314C88.6299 35.9769 88.5137 35.8496 88.2812 35.8496C88.082 35.8496 87.7555 35.9769 87.3018 36.2314C86.859 36.486 86.4053 36.818 85.9404 37.2275C85.4867 37.637 85.0771 38.1185 84.7119 38.6719C84.3467 39.2253 84.1087 39.8285 83.998 40.4814Z" fill="white"/>
<path d="M70.4844 41.4297V41.0312C73.3398 38.0208 75.3044 35.9124 76.3779 34.7061C76.6214 33.3447 77.208 32.6641 78.1377 32.6641C78.3701 32.6641 78.6191 32.7305 78.8848 32.8633L78.9844 33.1787C78.9401 33.3115 78.918 33.4997 78.918 33.7432C78.918 33.9535 78.9954 34.3464 79.1504 34.9219C79.3164 35.4863 79.4437 35.9622 79.5322 36.3496C79.6208 36.737 79.665 37.1742 79.665 37.6611C79.665 38.3916 79.499 39.0944 79.167 39.7695C78.835 40.4336 78.3535 41.0755 77.7227 41.6953C77.0918 42.304 76.2783 42.9294 75.2822 43.5713C75.6807 43.6377 75.9961 43.6709 76.2285 43.6709C76.6823 43.6709 77.1693 43.5602 77.6895 43.3389C78.2207 43.1064 78.7575 42.8021 79.2998 42.4258C79.8532 42.0384 80.4951 41.5404 81.2256 40.9316V42.0439C79.8089 43.4274 78.5417 44.4788 77.4238 45.1982C76.306 45.9066 75.3431 46.2607 74.5352 46.2607C73.4948 46.2607 72.5319 45.818 71.6465 44.9326C71.1263 44.4014 70.7998 43.8923 70.667 43.4053C70.5452 42.9183 70.4844 42.2598 70.4844 41.4297ZM76.6768 38.8896L76.3779 36.4658C75.6917 37.2406 74.2253 38.7292 71.9785 40.9316C72.6426 41.0755 73.0964 41.2692 73.3398 41.5127C73.5833 41.7562 73.9264 42.2266 74.3691 42.9238C75.1217 42.6139 75.6973 42.1934 76.0957 41.6621C76.5052 41.1198 76.71 40.3838 76.71 39.4541C76.71 39.3434 76.7044 39.2438 76.6934 39.1553C76.6934 39.0667 76.6878 38.9782 76.6768 38.8896Z" fill="white"/>
<path d="M69.3223 37.959C67.3743 40.1283 66.4004 41.639 66.4004 42.4912C66.4004 42.9671 66.5941 43.2051 66.9814 43.2051C67.3024 43.2051 67.7174 43.0391 68.2266 42.707C68.7467 42.3639 69.5547 41.7607 70.6504 40.8975V42.043C69.0788 43.5924 67.8724 44.7103 67.0312 45.3965C66.1901 46.0827 65.5039 46.4258 64.9727 46.4258C64.0651 46.4258 63.6113 45.8281 63.6113 44.6328C63.6113 44.2786 63.6667 43.93 63.7773 43.5869C63.888 43.2438 64.0374 42.8896 64.2256 42.5244C64.4248 42.1481 64.7236 41.6169 65.1221 40.9307C65.5205 40.2334 65.9798 39.4476 66.5 38.5732C65.8691 38.8942 65.0778 39.5306 64.126 40.4824C63.5062 41.0801 62.9805 41.6501 62.5488 42.1924C62.1172 42.7236 61.6523 43.3213 61.1543 43.9854C60.6673 44.6383 60.3076 45.0811 60.0752 45.3135C59.8538 45.5348 59.627 45.6455 59.3945 45.6455C59.0404 45.6455 58.7139 45.2747 58.415 44.5332C58.1162 43.7917 57.9668 42.9284 57.9668 41.9434C57.9668 41.3346 58.0332 40.8587 58.166 40.5156C58.3099 40.1725 58.5866 39.6855 58.9961 39.0547C59.7598 37.8815 60.4183 37.0238 60.9717 36.4814C61.5251 35.9281 62.0563 35.6514 62.5654 35.6514C62.9196 35.6514 63.2018 35.7122 63.4121 35.834C63.6335 35.9557 63.7441 36.1439 63.7441 36.3984C63.7441 36.5091 63.7109 36.6253 63.6445 36.7471C63.5781 36.8688 63.5007 36.9795 63.4121 37.0791C63.3346 37.1787 63.1631 37.3724 62.8975 37.6602C61.1488 39.597 60.2744 40.8532 60.2744 41.4287C60.2744 41.7497 60.3796 41.9102 60.5898 41.9102C60.7227 41.9102 60.9772 41.6999 61.3535 41.2793C61.7409 40.8477 62.2334 40.2887 62.8311 39.6025C63.4398 38.9053 64.1536 38.1803 64.9727 37.4277C65.8027 36.6751 66.7435 35.9502 67.7949 35.2529C68.3815 34.8434 68.8685 34.6387 69.2559 34.6387C69.4329 34.6387 69.6045 34.8822 69.7705 35.3691C69.9476 35.8561 70.0361 36.3486 70.0361 36.8467C70.0361 37.0902 69.7982 37.4609 69.3223 37.959Z" fill="white"/>
<path d="M57.1367 33.542C56.86 33.542 56.5944 33.4368 56.3398 33.2266C56.0964 33.0163 55.9746 32.7507 55.9746 32.4297C55.9746 31.9427 56.207 31.4004 56.6719 30.8027C57.1367 30.2051 57.6182 29.9062 58.1162 29.9062C58.4482 29.9062 58.7249 30.0114 58.9463 30.2217C59.1676 30.4209 59.2783 30.7142 59.2783 31.1016C59.2783 31.5775 59.0514 32.1032 58.5977 32.6787C58.1439 33.2542 57.6569 33.542 57.1367 33.542ZM58.2656 40.9629V42.1748C57.1921 43.5583 56.1904 44.6042 55.2607 45.3125C54.3311 46.0098 53.5397 46.3584 52.8867 46.3584C51.9792 46.3584 51.304 45.8825 50.8613 44.9307C50.4186 43.9788 50.1973 42.9385 50.1973 41.8096C50.1973 41.3779 50.2415 40.9684 50.3301 40.5811C50.4186 40.1826 50.5238 39.8561 50.6455 39.6016C50.7673 39.347 50.9941 38.9486 51.3262 38.4062C52.8978 35.9603 54.3366 34.7373 55.6426 34.7373C56.3177 34.7373 56.6553 34.9974 56.6553 35.5176C56.6553 35.8717 56.4339 36.4251 55.9912 37.1777C55.5596 37.9303 55.1722 38.4671 54.8291 38.7881C53.8662 39.7178 53.2354 40.3652 52.9365 40.7305C52.6488 41.0957 52.5049 41.5107 52.5049 41.9756C52.5049 42.374 52.6543 42.7061 52.9531 42.9717C53.252 43.2373 53.6393 43.3701 54.1152 43.3701C54.6354 43.3701 55.2054 43.182 55.8252 42.8057C56.4561 42.4183 57.2695 41.804 58.2656 40.9629Z" fill="white"/>
<path d="M42.3945 37.9258H44.9014C46.3512 35.9779 47.4525 34.279 48.2051 32.8291C48.9688 31.3792 49.3506 30.4274 49.3506 29.9736C49.3506 29.3428 48.8083 29.0273 47.7236 29.0273C47.0928 29.0827 45.9749 29.221 44.3701 29.4424C42.7653 29.6527 41.2103 29.9072 39.7051 30.2061C38.3548 30.4606 37.2702 30.7262 36.4512 31.0029C35.6432 31.2686 35.0732 31.4899 34.7412 31.667C34.4092 31.8441 34.2044 31.9714 34.127 32.0488C34.946 32.0046 35.6377 31.9824 36.2021 31.9824C37.0876 31.9824 37.5303 32.082 37.5303 32.2812C37.5303 32.3698 37.2204 32.486 36.6006 32.6299C35.9808 32.7627 35.3942 32.9066 34.8408 33.0615C34.2985 33.2165 33.7673 33.3991 33.2471 33.6094C32.738 33.8197 32.4281 33.9248 32.3174 33.9248C32.0628 33.9248 31.8525 33.8307 31.6865 33.6426C31.5205 33.4434 31.4375 33.2054 31.4375 32.9287C31.4375 32.7406 31.5869 32.2536 31.8857 31.4678C32.1956 30.6709 32.6273 29.874 33.1807 29.0771C33.734 28.2692 34.4202 27.6715 35.2393 27.2842C35.5381 27.1403 36.4899 26.8802 38.0947 26.5039C39.7106 26.1276 41.5312 25.7845 43.5566 25.4746C45.582 25.1647 47.4359 25.0098 49.1182 25.0098C50.1364 25.0098 50.9499 25.1536 51.5586 25.4414C52.1784 25.7181 52.4883 26.3213 52.4883 27.251C52.4883 27.5498 52.3776 28.0146 52.1562 28.6455C51.9349 29.2653 51.5807 30.0622 51.0938 31.0361C50.6178 32.0101 50.0312 33.0781 49.334 34.2402C48.6478 35.4023 47.862 36.6309 46.9766 37.9258H49.5332L47.3252 41.0967C47.0264 41.1188 46.6501 41.1354 46.1963 41.1465C45.7536 41.1576 45.2666 41.1742 44.7354 41.1963C43.374 42.9671 41.8965 44.6328 40.3027 46.1934C38.7201 47.7539 37.2812 49.0046 35.9863 49.9453C34.7025 50.8861 33.8005 51.3564 33.2803 51.3564C33.07 51.3564 32.8874 51.2845 32.7324 51.1406C32.5775 51.0078 32.5 50.8307 32.5 50.6094C32.5 50.4212 32.7435 49.9398 33.2305 49.165C33.7285 48.3903 34.4147 47.6654 35.2891 46.9902C36.1634 46.3151 37.1595 45.9388 38.2773 45.8613C38.7311 45.3854 39.1185 44.9648 39.4395 44.5996C39.7715 44.2233 40.2363 43.6865 40.834 42.9893C41.4316 42.2809 41.891 41.7386 42.2119 41.3623L37.2148 41.6113C36.6725 41.6335 36.2962 41.6113 36.0859 41.5449C35.8867 41.4674 35.7871 41.2848 35.7871 40.9971C35.7871 40.9971 35.8424 40.8587 35.9531 40.582C36.0638 40.2943 36.18 40.0452 36.3018 39.835C36.4788 39.514 36.6172 39.3203 36.7168 39.2539C36.8275 39.1875 37.1318 39.099 37.6299 38.9883L40.6846 38.2412C41.5036 38.0309 42.0736 37.9258 42.3945 37.9258Z" fill="white"/>
</svg>
