<svg width="103" height="69" viewBox="0 0 103 69" fill="none" xmlns="http://www.w3.org/2000/svg">
<path d="M93.6436 21.5995C93.2169 22.3675 92.4063 23.2529 91.2116 24.2555C90.0383 25.2369 89.0036 25.7275 88.1076 25.7275C86.4222 25.7275 85.5369 24.6929 85.4516 22.6235C85.4516 22.4315 85.4089 22.3355 85.3236 22.3355C85.2809 22.3355 85.0569 22.5915 84.6516 23.1035C84.2676 23.6155 83.7236 24.1382 83.0196 24.6715C82.3369 25.1835 81.6223 25.4395 80.8756 25.4395C80.1503 25.4395 79.5636 25.2155 79.1156 24.7675C78.6889 24.3195 78.4756 23.7222 78.4756 22.9755C78.4756 22.2075 78.6996 21.2049 79.1476 19.9675C79.5956 18.7302 80.0329 18.1115 80.4596 18.1115C80.6729 18.1329 80.8436 18.2395 80.9716 18.4315C81.1209 18.6235 81.1956 18.8369 81.1956 19.0715C81.2169 19.3062 81.2702 19.5942 81.3556 19.9355C81.4409 20.2769 81.6756 20.6609 82.0596 21.0875C82.4436 21.4929 82.9449 21.6955 83.5636 21.6955C84.6302 21.6955 85.5049 20.7782 86.1876 18.9435C86.1876 18.9222 86.2089 18.8689 86.2516 18.7835C86.2943 18.6769 86.3263 18.6022 86.3476 18.5595C86.3689 18.4955 86.4009 18.4209 86.4436 18.3355C86.4862 18.2289 86.5289 18.1542 86.5716 18.1115C86.8703 17.8769 87.1156 17.8769 87.3076 18.1115C87.4356 18.2822 87.5103 18.5915 87.5316 19.0395C87.5316 19.7222 87.8196 20.3942 88.3956 21.0555C88.9929 21.6955 89.7609 22.0155 90.6996 22.0155C91.6383 22.0155 92.3849 21.7382 92.9396 21.1835C93.1529 20.9275 93.3662 20.7995 93.5796 20.7995C93.7289 20.7995 93.8036 20.8849 93.8036 21.0555C93.8036 21.2262 93.7503 21.4075 93.6436 21.5995Z" fill="white"/>
<path d="M71.8272 12.5755C71.8272 15.1995 72.0513 17.3435 72.4993 19.0075C73.0326 17.6421 73.4699 16.1168 73.8112 14.4315C74.1739 12.7248 74.3552 11.5195 74.3552 10.8155C74.3552 8.55412 74.0672 7.42345 73.4912 7.42345C73.0006 7.42345 72.5953 8.04212 72.2753 9.27946C71.9766 10.4955 71.8272 11.5941 71.8272 12.5755ZM76.5632 23.0715L77.7793 22.7515C78.0566 22.7515 78.1953 22.8688 78.1953 23.1035C78.1953 23.2955 78.0139 23.5941 77.6513 23.9995C77.2886 24.3835 76.7659 24.7888 76.0833 25.2155C75.4006 25.6421 74.7393 25.8555 74.0993 25.8555C72.6913 25.8555 71.6779 25.0875 71.0592 23.5515C69.8219 25.0661 68.4139 25.8235 66.8353 25.8235C66.0246 25.8235 65.4379 25.5248 65.0752 24.9275C64.7126 24.3515 64.5312 23.6261 64.5312 22.7515C64.5312 21.5781 65.1712 20.3728 66.4512 19.1355C67.7526 17.8981 68.7766 17.2795 69.5232 17.2795C69.7152 17.2795 69.8432 17.3968 69.9072 17.6315C69.9072 17.8021 69.6299 18.0688 69.0752 18.4315C68.2432 18.9435 67.8272 19.6048 67.8272 20.4155C67.8272 21.3115 68.0726 21.8875 68.5632 22.1435C68.9259 22.3568 69.2566 22.4635 69.5553 22.4635C69.8753 22.4635 70.2166 22.3141 70.5793 22.0155C70.3446 20.8635 70.2272 19.4768 70.2272 17.8555C70.2272 16.2128 70.3553 14.4848 70.6113 12.6715C70.8886 10.8368 71.3259 9.17279 71.9232 7.67945C72.5419 6.18612 73.2353 5.43945 74.0033 5.43945C74.4939 5.43945 74.8566 5.78079 75.0912 6.46345C75.3259 7.14612 75.4433 7.98879 75.4433 8.99145C75.4433 9.99412 75.2299 11.6581 74.8033 13.9835C74.3979 16.2875 73.7793 18.3995 72.9473 20.3195C73.7366 22.1541 74.9419 23.0715 76.5632 23.0715Z" fill="white"/>
<path d="M61.2865 20.6076L61.1585 21.5036C61.1585 21.8876 61.3185 22.2929 61.6385 22.7196C61.9798 23.1249 62.3745 23.3276 62.8225 23.3276C63.1638 23.3276 63.4412 23.2529 63.6545 23.1036C64.1238 22.7836 64.4118 22.5702 64.5185 22.4636C64.6465 22.3356 64.8385 22.2716 65.0945 22.2716C65.3718 22.2716 65.5105 22.3676 65.5105 22.5596C65.5105 22.7729 65.0092 23.4449 64.0065 24.5756C63.6865 24.9382 63.2172 25.3222 62.5985 25.7276C61.9798 26.1329 61.4252 26.3356 60.9345 26.3356C60.4652 26.3356 60.1025 26.2502 59.8465 26.0796C59.6118 25.9302 59.4412 25.6849 59.3345 25.3436C59.2065 24.8742 59.1425 24.2982 59.1425 23.6156C59.1425 23.5302 59.0892 23.4876 58.9825 23.4876C58.8758 23.4876 58.6305 23.7009 58.2465 24.1276C57.0518 25.3649 56.0812 25.9836 55.3345 25.9836C54.6092 25.9836 54.0438 25.7916 53.6385 25.4076C53.2545 25.0236 53.0625 24.5329 53.0625 23.9356C53.0625 22.8902 53.3398 21.8982 53.8945 20.9596C54.4492 19.9996 55.1105 19.2316 55.8785 18.6556C57.5852 17.3969 58.9078 16.7676 59.8465 16.7676C61.2545 16.8102 61.9585 17.3116 61.9585 18.2716C61.9585 18.6129 61.8092 18.9542 61.5105 19.2956C61.2118 19.6156 60.9345 19.7756 60.6785 19.7756C60.4225 19.7756 60.0705 19.5516 59.6225 19.1036C59.1745 18.6556 58.6838 18.4316 58.1505 18.4316C57.6172 18.4316 57.1798 18.6556 56.8385 19.1036C56.4972 19.5302 56.3265 20.0849 56.3265 20.7676C56.3265 21.8769 56.9132 22.4316 58.0865 22.4316C58.5558 22.4316 58.9398 22.3142 59.2385 22.0796C59.5585 21.8449 59.7825 21.5889 59.9105 21.3116C60.2732 20.5862 60.6038 20.2236 60.9025 20.2236C61.1585 20.2236 61.2865 20.3516 61.2865 20.6076Z" fill="white"/>
<path d="M49.6638 27.8077C49.0025 28.7891 48.5758 29.6637 48.3838 30.4317C48.1918 31.1997 48.0958 32.1171 48.0958 33.1837C48.0958 34.2504 48.3838 34.8157 48.9598 34.8797C49.4505 34.8797 49.6958 33.3651 49.6958 30.3357C49.6958 29.2904 49.6851 28.4477 49.6638 27.8077ZM49.6638 26.6877C49.6211 26.0051 49.5998 24.9597 49.5998 23.5517C49.5571 23.5517 49.3971 23.6904 49.1198 23.9677C48.8638 24.2237 48.5651 24.5011 48.2238 24.7997C47.9038 25.1197 47.4878 25.4077 46.9758 25.6637C46.4851 25.9411 45.9091 26.0797 45.2478 26.0797C44.5865 26.0797 44.0425 25.8771 43.6158 25.4717C43.2105 25.0664 43.0078 24.5224 43.0078 23.8397C43.0078 22.3677 43.7225 20.8531 45.1518 19.2957C46.6025 17.7171 48.1811 16.9277 49.8878 16.9277C50.4211 16.9277 50.8478 17.0557 51.1678 17.3117C51.5091 17.5464 51.6798 17.8557 51.6798 18.2397C51.6798 18.5811 51.5518 18.9011 51.2958 19.1997C50.8478 19.7117 50.2825 19.9677 49.5998 19.9677C49.3438 19.9677 49.2158 19.8931 49.2158 19.7437C49.2158 19.6584 49.2371 19.5624 49.2798 19.4557C49.3438 19.3491 49.3758 19.2104 49.3758 19.0397C49.3758 18.6131 49.1731 18.3997 48.7678 18.3997C48.1065 18.3997 47.5518 18.6877 47.1038 19.2637C46.6558 19.8397 46.4318 20.4051 46.4318 20.9597C46.4318 21.5144 46.5598 21.9304 46.8158 22.2077C47.0931 22.4637 47.4025 22.5917 47.7438 22.5917C48.0851 22.5917 48.4798 22.4317 48.9278 22.1117C49.3758 21.7917 49.6638 21.4291 49.7918 21.0237C49.9411 20.4691 50.2718 20.1917 50.7838 20.1917C50.9758 20.1917 51.0718 20.3411 51.0718 20.6397C51.0718 20.9171 50.9971 21.3117 50.8478 21.8237C50.7198 22.3144 50.6238 22.7624 50.5598 23.1677C50.5171 23.5517 50.4958 24.3837 50.4958 25.6637C51.7971 24.1277 52.9811 22.8691 54.0478 21.8877C54.2825 21.6531 54.5171 21.5357 54.7518 21.5357C54.9865 21.5357 55.1038 21.6211 55.1038 21.7917C55.1038 21.9411 54.9865 22.1224 54.7518 22.3357C52.8958 24.0211 51.4878 25.4611 50.5278 26.6557C50.5705 28.1917 50.5918 29.4397 50.5918 30.3997C50.5918 33.0237 50.3891 35.1251 49.9838 36.7037C49.5998 38.3037 48.8531 39.1037 47.7438 39.1037C47.0398 39.1037 46.4958 38.7624 46.1118 38.0797C45.7278 37.4184 45.5358 36.5117 45.5358 35.3597C45.5358 33.0344 46.9118 30.1437 49.6638 26.6877Z" fill="white"/>
<path d="M28.7891 21.952C28.7891 21.6106 29.1197 21.056 29.7811 20.288C30.4424 19.4986 30.9757 19.104 31.3811 19.104C31.8077 19.104 32.1171 19.264 32.3091 19.584C32.5224 19.904 32.6504 20.256 32.6931 20.64C32.7357 21.024 32.8531 21.376 33.0451 21.696C33.2584 22.016 33.5571 22.176 33.9411 22.176C34.3464 22.176 34.6984 22.0053 34.9971 21.664C35.3171 21.3013 35.5731 20.9066 35.7651 20.48C35.9571 20.032 36.2131 19.6373 36.5331 19.296C36.8531 18.9333 37.1624 18.752 37.4611 18.752C37.7811 18.752 38.0051 18.88 38.1331 19.136C39.4557 21.9733 40.7997 23.392 42.1651 23.392C42.3784 23.392 42.5704 23.36 42.7411 23.296C42.9117 23.232 43.0397 23.2 43.1251 23.2C43.3811 23.2 43.5091 23.4026 43.5091 23.808C43.5091 24.5333 43.1251 25.184 42.3571 25.76C41.6104 26.336 40.8424 26.624 40.0531 26.624C39.2637 26.624 38.5917 26.368 38.0371 25.856C37.5037 25.344 37.1304 24.8213 36.9171 24.288C36.7251 23.7333 36.5757 23.2 36.4691 22.688C36.3837 22.176 36.2877 21.92 36.1811 21.92C36.0104 21.92 35.6691 22.2613 35.1571 22.944C34.6664 23.6053 34.1011 24.2773 33.4611 24.96C32.8424 25.6426 32.2877 25.984 31.7971 25.984C31.2851 25.92 30.8797 25.664 30.5811 25.216C30.2824 24.7893 30.0904 24.3413 30.0051 23.872C29.8131 22.592 29.4077 21.952 28.7891 21.952Z" fill="white"/>
<path d="M23.3739 21.0238C23.7366 20.8958 24.0992 20.4905 24.4619 19.8078C24.8459 19.1038 25.0379 18.5278 25.0379 18.0798C25.0379 17.6318 24.8672 17.3972 24.5259 17.3758C24.0139 17.3758 23.6512 17.6105 23.4379 18.0798C23.2246 18.5278 23.1179 19.0292 23.1179 19.5838C23.1179 20.1172 23.2032 20.5972 23.3739 21.0238ZM26.1259 23.1038C26.7232 23.1038 27.2139 22.9758 27.5979 22.7198C28.0032 22.4425 28.3766 22.0905 28.7179 21.6638C29.0806 21.2372 29.3579 21.0238 29.5499 21.0238C29.7632 21.0238 29.8699 21.1198 29.8699 21.3118C29.8699 21.4398 29.8272 21.5892 29.7419 21.7598C29.0379 22.8905 28.1632 23.8825 27.1179 24.7358C26.0726 25.6105 24.9632 26.0478 23.7899 26.0478C22.6166 26.0478 21.7632 25.7598 21.2299 25.1838C20.7179 24.6292 20.4619 23.8825 20.4619 22.9438C20.4619 21.3225 21.0699 19.6692 22.2859 17.9838C23.5019 16.2772 24.7606 15.4238 26.0619 15.4238C26.7446 15.4238 27.0859 15.7012 27.0859 16.2558C27.0859 17.0025 26.8512 17.7812 26.3819 18.5918C25.9126 19.3812 25.0486 20.4585 23.7899 21.8238C24.3659 22.6772 25.1446 23.1038 26.1259 23.1038Z" fill="white"/>
<path d="M19.04 5.088C18.8907 5.088 18.7627 5.04533 18.656 4.96C18.5707 4.85333 18.528 4.74667 18.528 4.64C18.528 4.53333 18.5813 4.384 18.688 4.192C18.7947 4 18.848 3.81867 18.848 3.648C18.848 3.15733 18.592 2.80533 18.08 2.592C17.5893 2.35733 17.0773 2.24 16.544 2.24C14.9653 2.24 13.312 2.77333 11.584 3.84C9.87733 4.90667 8.87467 6.18667 8.576 7.68C8.68267 8.576 9.12 9.41867 9.888 10.208C10.6773 10.976 11.584 11.648 12.608 12.224C13.632 12.7787 14.6453 13.344 15.648 13.92C16.6507 14.496 17.4933 15.1787 18.176 15.968C18.8587 16.7573 19.2 17.568 19.2 18.4C19.2 19.2107 18.9013 20.0107 18.304 20.8C17.7067 21.568 17.1093 22.2187 16.512 22.752C15.936 23.2853 15.648 23.5733 15.648 23.616C15.648 23.6373 15.68 23.648 15.744 23.648C17.0453 23.648 18.8267 22.9333 21.088 21.504L21.408 21.28C21.5573 21.1947 21.664 21.152 21.728 21.152C21.8133 21.152 21.8987 21.216 21.984 21.344C22.0693 21.472 22.112 21.6107 22.112 21.76C22.112 21.9093 21.9733 22.0587 21.696 22.208C20.4587 23.3813 18.144 24.5013 14.752 25.568C11.3813 26.6347 8.33067 27.168 5.6 27.168C1.86667 27.168 0 26.08 0 23.904C0 23.584 0.32 23.1253 0.96 22.528C1.94133 21.632 2.53867 21.184 2.752 21.184C2.96533 21.184 3.50933 21.4507 4.384 21.984C5.25867 22.5173 6.35733 23.0507 7.68 23.584C9.00267 24.1173 10.3147 24.384 11.616 24.384C12.9173 24.384 13.9093 23.9787 14.592 23.168C15.296 22.3573 15.648 21.5253 15.648 20.672C15.648 19.8187 15.2853 19.0507 14.56 18.368C13.8347 17.6853 12.9493 17.088 11.904 16.576C10.88 16.0427 9.84533 15.4987 8.8 14.944C7.75467 14.3893 6.86933 13.7173 6.144 12.928C5.41867 12.1387 5.056 11.2747 5.056 10.336C5.056 8.82133 5.89867 7.232 7.584 5.568C9.26933 3.904 11.2 2.56 13.376 1.536C15.552 0.512 17.408 0 18.944 0C20.864 0 21.824 0.64 21.824 1.92C21.824 2.688 21.472 3.41333 20.768 4.096C20.0853 4.75733 19.5093 5.088 19.04 5.088Z" fill="white"/>
<path d="M99.0772 52.4053C99.2478 52.4053 99.5252 52.2773 99.9092 52.0213C100.293 51.7653 100.602 51.5093 100.837 51.2533L101.189 50.9013C101.338 50.7519 101.488 50.6773 101.637 50.6773C101.893 50.6773 102.021 50.8266 102.021 51.1253C102.021 51.2319 102.01 51.3173 101.989 51.3813C101.434 52.7253 100.411 53.8026 98.9172 54.6133C97.4238 55.4453 96.0905 55.8613 94.9172 55.8613C92.6345 55.8613 91.4932 54.9653 91.4932 53.1733C91.4932 52.9386 91.7705 52.5653 92.3252 52.0533C92.8798 51.5413 93.2852 51.2213 93.5412 51.0933C93.7118 50.9653 93.8398 50.9013 93.9252 50.9013C94.0318 50.9013 94.1172 50.9439 94.1812 51.0293C94.2452 51.1146 94.3198 51.2213 94.4052 51.3493C94.4905 51.4773 94.5652 51.5839 94.6292 51.6693C94.6932 51.7546 94.7785 51.8719 94.8852 52.0213C94.9918 52.1706 95.0985 52.2986 95.2052 52.4053C95.3332 52.4906 95.4718 52.5759 95.6212 52.6613C95.8985 52.8746 96.1865 52.9813 96.4852 52.9813C96.8052 52.9813 96.9652 52.7999 96.9652 52.4373C96.9652 51.5413 96.6345 50.7733 95.9732 50.1333C95.3118 49.4719 94.7572 49.1413 94.3092 49.1413C94.2025 49.1413 94.0958 49.2053 93.9892 49.3333L92.8052 50.5173C92.6132 50.7093 92.4745 50.8053 92.3892 50.8053C92.0692 50.8053 91.9092 50.6666 91.9092 50.3893C94.1918 47.5946 95.5465 46.1973 95.9732 46.1973C96.5705 46.1973 97.2532 46.6026 98.0212 47.4133C98.7892 48.2239 99.1732 49.0346 99.1732 49.8453C99.1732 50.6133 99.1092 51.1999 98.9812 51.6053C98.8745 52.0106 98.8212 52.2453 98.8212 52.3093C98.8212 52.3733 98.9065 52.4053 99.0772 52.4053Z" fill="white"/>
<path d="M85.7536 50.3253C85.7536 51.0719 85.9776 51.7119 86.4256 52.2453C86.8736 52.7573 87.4603 53.0133 88.1856 53.0133C88.9323 53.0133 89.5403 52.9279 90.0096 52.7573C90.5003 52.5653 90.8736 52.3839 91.1296 52.2133C91.3856 52.0213 91.5776 51.9253 91.7056 51.9253C91.8976 51.9253 91.9936 52.0213 91.9936 52.2133C91.9936 52.8746 91.375 53.6533 90.1376 54.5493C88.9003 55.4666 87.4603 55.9253 85.8176 55.9253C84.7723 55.9253 83.983 55.6586 83.4496 55.1253C82.9376 54.6133 82.6816 53.9306 82.6816 53.0773C82.6816 51.5413 83.3323 50.0159 84.6336 48.5013C85.9563 46.9653 87.471 46.1973 89.1776 46.1973C89.583 46.1973 89.903 46.3253 90.1376 46.5813C90.3936 46.8159 90.5216 47.1679 90.5216 47.6373C90.5216 48.0853 90.255 48.5973 89.7216 49.1733C89.2096 49.7279 88.687 50.0053 88.1536 50.0053C88.0043 50.0053 87.9296 49.9306 87.9296 49.7813C87.9296 49.6319 88.0043 49.4719 88.1536 49.3013C88.3243 49.1306 88.4096 48.9279 88.4096 48.6933C88.4096 48.4373 88.3243 48.1919 88.1536 47.9573C88.0043 47.7226 87.8336 47.6053 87.6416 47.6053C87.0656 47.6053 86.607 47.8719 86.2656 48.4053C85.9243 48.9173 85.7536 49.5573 85.7536 50.3253Z" fill="white"/>
<path d="M76.2377 44.5015C75.9177 44.1389 75.7577 43.6909 75.7577 43.1575C75.7577 42.6242 75.9177 42.1762 76.2377 41.8135C76.5791 41.4509 76.9951 41.2695 77.4857 41.2695C77.9764 41.2695 78.3817 41.4509 78.7017 41.8135C79.0431 42.1762 79.2137 42.6242 79.2137 43.1575C79.2137 43.6909 79.0431 44.1389 78.7017 44.5015C78.3817 44.8642 77.9764 45.0455 77.4857 45.0455C76.9951 45.0455 76.5791 44.8642 76.2377 44.5015ZM82.8937 51.4775C83.1071 51.3069 83.2991 51.2215 83.4697 51.2215C83.7684 51.2215 83.9177 51.4135 83.9177 51.7975C83.9177 52.3309 83.2564 53.1309 81.9337 54.1975C80.6111 55.2429 79.4697 55.7655 78.5097 55.7655C77.5497 55.7655 76.8031 55.4242 76.2697 54.7415C75.7364 54.0589 75.4697 53.1842 75.4697 52.1175C75.4697 51.0295 75.6511 49.9842 76.0137 48.9815C76.3764 47.9789 76.7391 47.4775 77.1017 47.4775C77.2724 47.4989 77.3577 47.7655 77.3577 48.2775C77.3577 48.7682 77.4324 49.3122 77.5817 49.9095C77.7311 50.5069 78.0511 51.0829 78.5417 51.6375C79.0537 52.1709 79.7044 52.4375 80.4937 52.4375C81.3044 52.4375 82.1044 52.1175 82.8937 51.4775Z" fill="white"/>
<path d="M61.5391 51.702C61.5391 51.3606 61.8697 50.806 62.5311 50.038C63.1924 49.2486 63.7257 48.854 64.1311 48.854C64.5577 48.854 64.8671 49.014 65.0591 49.334C65.2724 49.654 65.4004 50.006 65.4431 50.39C65.4857 50.774 65.6031 51.126 65.7951 51.446C66.0084 51.766 66.3071 51.926 66.6911 51.926C67.0964 51.926 67.4484 51.7553 67.7471 51.414C68.0671 51.0513 68.3231 50.6566 68.5151 50.23C68.7071 49.782 68.9631 49.3873 69.2831 49.046C69.6031 48.6833 69.9124 48.502 70.2111 48.502C70.5311 48.502 70.7551 48.63 70.8831 48.886C72.2057 51.7233 73.5497 53.142 74.9151 53.142C75.1284 53.142 75.3204 53.11 75.4911 53.046C75.6617 52.982 75.7897 52.95 75.8751 52.95C76.1311 52.95 76.2591 53.1526 76.2591 53.558C76.2591 54.2833 75.8751 54.934 75.1071 55.51C74.3604 56.086 73.5924 56.374 72.8031 56.374C72.0137 56.374 71.3417 56.118 70.7871 55.606C70.2537 55.094 69.8804 54.5713 69.6671 54.038C69.4751 53.4833 69.3257 52.95 69.2191 52.438C69.1337 51.926 69.0377 51.67 68.9311 51.67C68.7604 51.67 68.4191 52.0113 67.9071 52.694C67.4164 53.3553 66.8511 54.0273 66.2111 54.71C65.5924 55.3926 65.0377 55.734 64.5471 55.734C64.0351 55.67 63.6297 55.414 63.3311 54.966C63.0324 54.5393 62.8404 54.0913 62.7551 53.622C62.5631 52.342 62.1577 51.702 61.5391 51.702Z" fill="white"/>
<path d="M57.974 50.3576L57.846 51.2536C57.846 51.6376 58.006 52.0429 58.326 52.4696C58.6673 52.8749 59.062 53.0776 59.51 53.0776C59.8513 53.0776 60.1287 53.0029 60.342 52.8536C60.8113 52.5336 61.0993 52.3202 61.206 52.2136C61.334 52.0856 61.526 52.0216 61.782 52.0216C62.0593 52.0216 62.198 52.1176 62.198 52.3096C62.198 52.5229 61.6967 53.1949 60.694 54.3256C60.374 54.6882 59.9047 55.0722 59.286 55.4776C58.6673 55.8829 58.1127 56.0856 57.622 56.0856C57.1527 56.0856 56.79 56.0002 56.534 55.8296C56.2993 55.6802 56.1287 55.4349 56.022 55.0936C55.894 54.6242 55.83 54.0482 55.83 53.3656C55.83 53.2802 55.7767 53.2376 55.67 53.2376C55.5633 53.2376 55.318 53.4509 54.934 53.8776C53.7393 55.1149 52.7687 55.7336 52.022 55.7336C51.2967 55.7336 50.7313 55.5416 50.326 55.1576C49.942 54.7736 49.75 54.2829 49.75 53.6856C49.75 52.6402 50.0273 51.6482 50.582 50.7096C51.1367 49.7496 51.798 48.9816 52.566 48.4056C54.2727 47.1469 55.5953 46.5176 56.534 46.5176C57.942 46.5602 58.646 47.0616 58.646 48.0216C58.646 48.3629 58.4967 48.7042 58.198 49.0456C57.8993 49.3656 57.622 49.5256 57.366 49.5256C57.11 49.5256 56.758 49.3016 56.31 48.8536C55.862 48.4056 55.3713 48.1816 54.838 48.1816C54.3047 48.1816 53.8673 48.4056 53.526 48.8536C53.1847 49.2802 53.014 49.8349 53.014 50.5176C53.014 51.6269 53.6007 52.1816 54.774 52.1816C55.2433 52.1816 55.6273 52.0642 55.926 51.8296C56.246 51.5949 56.47 51.3389 56.598 51.0616C56.9607 50.3362 57.2913 49.9736 57.59 49.9736C57.846 49.9736 57.974 50.1016 57.974 50.3576Z" fill="white"/>
<path d="M46.3513 57.5577C45.69 58.5391 45.2633 59.4137 45.0713 60.1817C44.8793 60.9497 44.7833 61.8671 44.7833 62.9337C44.7833 64.0004 45.0713 64.5657 45.6473 64.6297C46.138 64.6297 46.3833 63.1151 46.3833 60.0857C46.3833 59.0404 46.3726 58.1977 46.3513 57.5577ZM46.3513 56.4377C46.3086 55.7551 46.2873 54.7097 46.2873 53.3017C46.2446 53.3017 46.0846 53.4404 45.8073 53.7177C45.5513 53.9737 45.2526 54.2511 44.9113 54.5497C44.5913 54.8697 44.1753 55.1577 43.6633 55.4137C43.1726 55.6911 42.5966 55.8297 41.9353 55.8297C41.274 55.8297 40.73 55.6271 40.3033 55.2217C39.898 54.8164 39.6953 54.2724 39.6953 53.5897C39.6953 52.1177 40.41 50.6031 41.8393 49.0457C43.29 47.4671 44.8686 46.6777 46.5753 46.6777C47.1086 46.6777 47.5353 46.8057 47.8553 47.0617C48.1966 47.2964 48.3673 47.6057 48.3673 47.9897C48.3673 48.3311 48.2393 48.6511 47.9833 48.9497C47.5353 49.4617 46.97 49.7177 46.2873 49.7177C46.0313 49.7177 45.9033 49.6431 45.9033 49.4937C45.9033 49.4084 45.9246 49.3124 45.9673 49.2057C46.0313 49.0991 46.0633 48.9604 46.0633 48.7897C46.0633 48.3631 45.8606 48.1497 45.4553 48.1497C44.794 48.1497 44.2393 48.4377 43.7913 49.0137C43.3433 49.5897 43.1193 50.1551 43.1193 50.7097C43.1193 51.2644 43.2473 51.6804 43.5033 51.9577C43.7806 52.2137 44.09 52.3417 44.4313 52.3417C44.7726 52.3417 45.1673 52.1817 45.6153 51.8617C46.0633 51.5417 46.3513 51.1791 46.4793 50.7737C46.6286 50.2191 46.9593 49.9417 47.4713 49.9417C47.6633 49.9417 47.7593 50.0911 47.7593 50.3897C47.7593 50.6671 47.6846 51.0617 47.5353 51.5737C47.4073 52.0644 47.3113 52.5124 47.2473 52.9177C47.2046 53.3017 47.1833 54.1337 47.1833 55.4137C48.4846 53.8777 49.6686 52.6191 50.7353 51.6377C50.97 51.4031 51.2046 51.2857 51.4393 51.2857C51.674 51.2857 51.7913 51.3711 51.7913 51.5417C51.7913 51.6911 51.674 51.8724 51.4393 52.0857C49.5833 53.7711 48.1753 55.2111 47.2153 56.4057C47.258 57.9417 47.2793 59.1897 47.2793 60.1497C47.2793 62.7737 47.0766 64.8751 46.6713 66.4537C46.2873 68.0537 45.5406 68.8537 44.4313 68.8537C43.7273 68.8537 43.1833 68.5124 42.7993 67.8297C42.4153 67.1684 42.2233 66.2617 42.2233 65.1097C42.2233 62.7844 43.5993 59.8937 46.3513 56.4377Z" fill="white"/>
<path d="M32.8209 50.2625L31.9569 50.3265C31.5729 50.3265 31.3809 50.2305 31.3809 50.0385C31.3809 49.7398 31.7542 49.1745 32.5009 48.3425C33.2689 47.4892 33.9515 47.0625 34.5489 47.0625C34.8049 47.0625 35.0289 47.1372 35.2209 47.2865C35.4342 47.4358 35.5515 47.6172 35.5729 47.8305L35.7329 49.2705C35.7969 49.3558 35.8609 49.3985 35.9249 49.3985C35.9889 49.3985 36.1595 49.2278 36.4369 48.8865C37.3329 47.8412 38.1329 47.3185 38.8369 47.3185C39.1142 47.3185 39.3382 47.3612 39.5089 47.4465C39.6795 47.5318 39.8715 47.7025 40.0849 47.9585C40.3195 48.1932 40.4475 48.3212 40.4689 48.3425C40.6182 48.2785 40.7675 48.2465 40.9169 48.2465C41.1515 48.2465 41.2689 48.3958 41.2689 48.6945C41.2689 48.9718 40.8529 49.5052 40.0209 50.2945C39.1889 51.0625 38.5702 51.4465 38.1649 51.4465C37.7595 51.4465 37.4182 51.2652 37.1409 50.9025C36.8635 50.5398 36.6609 50.3585 36.5329 50.3585C36.0422 50.3585 35.7969 50.6145 35.7969 51.1265C35.7969 51.5105 35.9675 52.1612 36.3089 53.0785C36.6715 53.9958 36.8529 54.5398 36.8529 54.7105C36.8529 55.1372 36.6289 55.4678 36.1809 55.7025C35.7542 55.9585 35.2742 56.0865 34.7409 56.0865C34.2289 56.0865 33.8129 56.0012 33.4929 55.8305C33.1729 55.6598 33.0129 55.4252 33.0129 55.1265L33.9089 51.2545C33.9089 50.5932 33.5462 50.2625 32.8209 50.2625Z" fill="white"/>
<path d="M26.668 48.9502C25.196 48.9502 24.012 48.3742 23.116 47.2222C22.22 46.0489 21.772 44.7796 21.772 43.4142C21.772 42.0276 22.1133 40.4809 22.796 38.7742C23.5 37.0462 24.5133 35.4889 25.836 34.1022C27.1587 32.6942 28.5773 31.8729 30.092 31.6382C30.0707 31.6169 30.06 31.5636 30.06 31.4782C30.06 30.9449 29.932 30.5822 29.676 30.3902C29.4413 30.1769 29.0253 30.0702 28.428 30.0702C27.0413 30.0702 25.58 30.8489 24.044 32.4062C22.508 33.9422 21.228 35.8196 20.204 38.0382C19.2013 40.2569 18.7 42.3049 18.7 44.1822C18.7 45.8676 19.0627 47.4569 19.788 48.9502C20.1507 49.7182 20.7053 50.3369 21.452 50.8062C22.1987 51.2756 23.084 51.5102 24.108 51.5102C25.9427 51.5102 27.6387 50.4756 29.196 48.4062C28.3427 48.7689 27.5 48.9502 26.668 48.9502ZM28.844 46.0382C29.5053 46.0382 30.1773 45.9316 30.86 45.7182C32.1827 43.0302 32.844 40.5342 32.844 38.2302C32.844 36.9716 32.556 35.8836 31.98 34.9662C31.4253 34.0489 30.6147 33.5902 29.548 33.5902C28.1827 33.5902 26.956 34.3582 25.868 35.8942C24.78 37.4089 24.236 39.0302 24.236 40.7582C24.236 42.4649 24.7373 43.7769 25.74 44.6942C26.764 45.5902 27.7987 46.0382 28.844 46.0382ZM30.668 27.5742C31.0947 27.5742 31.5 27.7449 31.884 28.0862C32.2893 28.4276 32.492 28.8222 32.492 29.2702C32.492 29.6969 32.3427 30.1449 32.044 30.6142C31.7453 31.0622 31.3933 31.3822 30.988 31.5742C32.076 31.5742 32.9187 32.0222 33.516 32.9182C34.1133 33.7929 34.412 34.8382 34.412 36.0542C34.412 38.7849 33.7507 41.7396 32.428 44.9182C33.132 44.4062 33.7827 43.7876 34.38 43.0622C34.572 42.8062 34.7 42.6782 34.764 42.6782C34.8493 42.6782 34.9347 42.7316 35.02 42.8382C35.1053 42.9236 35.148 43.0196 35.148 43.1262C35.1267 43.4676 34.7427 44.0649 33.996 44.9182C33.2493 45.7716 32.3747 46.5502 31.372 47.2542C30.0067 49.8782 28.4067 52.0222 26.572 53.6862C24.7373 55.3502 22.9133 56.1822 21.1 56.1822C19.2867 56.1822 17.9 55.4889 16.94 54.1022C15.98 52.7156 15.5 50.9662 15.5 48.8542C15.5 46.7422 15.8413 44.6196 16.524 42.4862C17.228 40.3529 18.1347 38.4222 19.244 36.6942C20.3533 34.9449 21.5693 33.3769 22.892 31.9902C24.236 30.5822 25.5907 29.4942 26.956 28.7262C28.3213 27.9582 29.5587 27.5742 30.668 27.5742Z" fill="white"/>
</svg>
