<svg width="86" height="65" viewBox="0 0 86 65" fill="none" xmlns="http://www.w3.org/2000/svg">
<path d="M66.9771 24.5C65.9744 24.5 65.2704 24.1693 64.8651 23.508C64.4811 22.8253 64.2891 22.0253 64.2891 21.108C64.2891 20.0627 64.4811 18.836 64.8651 17.428C65.2491 16.02 65.7504 14.548 66.3691 13.012C67.0091 11.4547 67.7024 9.94 68.4491 8.468C69.2171 6.97467 69.9851 5.63067 70.7531 4.436C71.5211 3.24133 72.2251 2.292 72.8651 1.588C73.5264 0.862666 74.0597 0.5 74.4651 0.5C74.7424 0.5 74.9771 0.649333 75.1691 0.948C75.3611 1.22533 75.5104 1.56667 75.6171 1.972C75.7451 2.356 75.8091 2.71867 75.8091 3.06C75.8091 3.636 75.6597 4.39333 75.3611 5.332C75.0837 6.24933 74.6784 7.26267 74.1451 8.372C73.6331 9.48133 73.0144 10.6227 72.2891 11.796C71.5851 12.948 70.7957 14.0467 69.9211 15.092C69.0677 16.1373 68.1504 17.044 67.1691 17.812C67.0837 18.3453 66.9984 18.8787 66.9131 19.412C66.8491 19.924 66.8171 20.3933 66.8171 20.82C66.8171 21.588 66.9451 22.1533 67.2011 22.516C67.4571 22.8573 67.7877 23.028 68.1931 23.028C68.7264 23.028 69.2704 22.7827 69.8251 22.292C70.4011 21.78 70.9451 21.14 71.4571 20.372C71.9904 19.5827 72.4491 18.772 72.8331 17.94L73.6011 18.356C72.6837 20.2547 71.6597 21.7587 70.5291 22.868C69.3984 23.956 68.2144 24.5 66.9771 24.5ZM67.7451 15.828C68.4704 15.0387 69.1531 14.1853 69.7931 13.268C70.4544 12.3293 71.0517 11.38 71.5851 10.42C72.1397 9.46 72.6197 8.532 73.0251 7.636C73.4304 6.74 73.7397 5.94 73.9531 5.236C74.1877 4.51067 74.3157 3.93467 74.3371 3.508C74.3371 3.48667 74.3371 3.476 74.3371 3.476C74.3371 3.45467 74.3371 3.43333 74.3371 3.412C74.1664 3.412 73.8891 3.65733 73.5051 4.148C73.1424 4.61733 72.7051 5.268 72.1931 6.1C71.6811 6.932 71.1477 7.88133 70.5931 8.948C70.0597 10.0147 69.5371 11.1453 69.0251 12.34C68.5344 13.5133 68.1077 14.676 67.7451 15.828Z" fill="white"/>
<path d="M51.7988 25.0445C51.0948 25.0445 50.4868 24.8098 49.9748 24.3405C49.4415 23.8711 49.1748 23.1671 49.1748 22.2285C49.1748 21.4818 49.3455 20.6711 49.6868 19.7965C50.0281 18.9218 50.4975 18.0578 51.0948 17.2045C51.6921 16.3511 52.3748 15.5831 53.1428 14.9005C53.9108 14.1965 54.7321 13.6311 55.6068 13.2045C56.4815 12.7778 57.3561 12.5645 58.2308 12.5645C59.1481 12.5645 59.9268 12.7991 60.5668 13.2685C61.2068 13.7378 61.5268 14.3565 61.5268 15.1245C61.5268 15.7005 61.3241 16.1165 60.9188 16.3725C60.5135 16.6285 60.0335 16.7031 59.4788 16.5965C59.5215 16.4045 59.5535 16.2125 59.5748 16.0205C59.6175 15.8285 59.6388 15.6258 59.6388 15.4125C59.6388 14.9858 59.5535 14.6018 59.3828 14.2605C59.2121 13.9191 58.8495 13.7485 58.2948 13.7485C57.6975 13.7485 57.0895 13.9511 56.4708 14.3565C55.8521 14.7618 55.2548 15.2951 54.6788 15.9565C54.1241 16.5965 53.6228 17.3111 53.1748 18.1005C52.7268 18.8685 52.3748 19.6258 52.1188 20.3725C51.8628 21.1191 51.7348 21.7911 51.7348 22.3885C51.7348 23.0711 51.9801 23.4125 52.4708 23.4125C52.9615 23.4125 53.5055 23.1778 54.1028 22.7085C54.7001 22.2178 55.2975 21.6098 55.8948 20.8845C56.5135 20.1591 57.1001 19.4231 57.6548 18.6765C58.2095 17.9085 58.6895 17.2578 59.0948 16.7245C59.1588 16.6178 59.2441 16.5645 59.3508 16.5645C59.4361 16.5858 59.5961 16.6391 59.8308 16.7245C60.0868 16.7885 60.3215 16.8951 60.5348 17.0445C60.7481 17.1938 60.8548 17.3858 60.8548 17.6205C60.8548 17.8338 60.7588 18.1111 60.5668 18.4525C60.3961 18.7725 60.1828 19.1351 59.9268 19.5405C59.6921 19.9245 59.4788 20.3191 59.2868 20.7245C59.1161 21.1085 59.0308 21.4818 59.0308 21.8445C59.0308 22.1218 59.1055 22.3885 59.2548 22.6445C59.4041 22.8791 59.6495 22.9965 59.9908 22.9965C60.5028 22.9965 61.2175 22.6231 62.1348 21.8765C63.0735 21.1085 64.0228 19.8178 64.9828 18.0045L65.5908 18.6125C65.0788 19.7645 64.4601 20.7885 63.7348 21.6845C63.0308 22.5591 62.2841 23.2418 61.4948 23.7325C60.7055 24.2445 59.9055 24.5005 59.0948 24.5005C58.2201 24.5005 57.5695 24.2231 57.1428 23.6685C56.7161 23.1138 56.4815 22.5165 56.4388 21.8765C56.4388 21.8338 56.4388 21.8018 56.4388 21.7805C56.4388 21.7591 56.4388 21.7378 56.4388 21.7165C55.5855 22.7405 54.7961 23.5511 54.0708 24.1485C53.3668 24.7458 52.6095 25.0445 51.7988 25.0445Z" fill="white"/>
<path d="M44.7545 24.5008C43.8158 24.5008 43.1118 24.2235 42.6425 23.6688C42.1731 23.1142 41.9385 22.4422 41.9385 21.6528C41.9385 21.1622 42.0238 20.5435 42.1945 19.7968C42.3651 19.0502 42.5998 18.2715 42.8985 17.4608C43.2185 16.6288 43.5811 15.8502 43.9865 15.1248C44.3918 14.3995 44.8291 13.8128 45.2985 13.3648C45.7678 12.8955 46.2371 12.6608 46.7065 12.6608C46.9625 12.6608 47.1865 12.7462 47.3785 12.9168C47.5705 13.0662 47.6665 13.2902 47.6665 13.5888C47.6665 13.8662 47.4958 14.2822 47.1545 14.8368C46.8345 15.3915 46.4505 16.0315 46.0025 16.7568C45.5758 17.4822 45.1918 18.2395 44.8505 19.0288C44.5305 19.7968 44.3705 20.5328 44.3705 21.2368C44.3705 21.9195 44.4878 22.3782 44.7225 22.6128C44.9785 22.8262 45.3411 22.9328 45.8105 22.9328C46.5358 22.9328 47.3251 22.5702 48.1785 21.8448C49.0318 21.1195 49.9171 19.8502 50.8345 18.0368L51.3145 18.5488C50.5678 20.4262 49.6185 21.8875 48.4665 22.9328C47.3145 23.9782 46.0771 24.5008 44.7545 24.5008ZM48.5305 10.0688C48.1251 10.0688 47.7518 9.97284 47.4105 9.78084C47.0905 9.56751 46.9305 9.24751 46.9305 8.82084C46.9305 8.30884 47.2078 7.87151 47.7625 7.50884C48.3171 7.14618 48.8931 6.96484 49.4905 6.96484C49.8745 6.96484 50.1945 7.05018 50.4505 7.22084C50.7278 7.39151 50.8665 7.70084 50.8665 8.14884C50.8665 8.59684 50.6211 9.03418 50.1305 9.46084C49.6398 9.86618 49.1065 10.0688 48.5305 10.0688Z" fill="white"/>
<path d="M35.1537 25.3326C34.0444 25.3326 33.127 24.9806 32.4017 24.2766C31.6977 23.5939 31.3457 22.5379 31.3457 21.1086C31.3457 20.0633 31.5484 19.0393 31.9537 18.0366C32.359 17.0339 32.903 16.1379 33.5857 15.3486C34.2684 14.5379 35.0257 13.8979 35.8577 13.4286C36.711 12.9593 37.575 12.7246 38.4497 12.7246C39.3457 12.7246 39.9857 12.9486 40.3697 13.3966C40.775 13.8446 40.9777 14.3673 40.9777 14.9646C40.9777 15.5619 40.8284 16.1486 40.5297 16.7246C40.2524 17.2793 39.8684 17.5566 39.3777 17.5566C38.9724 17.5566 38.6417 17.3539 38.3857 16.9486C38.599 16.7993 38.823 16.5219 39.0577 16.1166C39.2924 15.7113 39.4097 15.1886 39.4097 14.5486C39.4097 14.3779 39.367 14.2499 39.2817 14.1646C39.1964 14.0579 39.0364 14.0046 38.8017 14.0046C38.2684 14.0046 37.703 14.2499 37.1057 14.7406C36.5297 15.2099 35.9857 15.8286 35.4737 16.5966C34.983 17.3433 34.5777 18.1433 34.2577 18.9966C33.959 19.8286 33.8097 20.5966 33.8097 21.3006C33.8097 21.8979 33.959 22.4526 34.2577 22.9646C34.5777 23.4553 35.1857 23.7006 36.0817 23.7006C36.8924 23.7006 37.735 23.4659 38.6097 22.9966C39.4844 22.5273 40.3057 21.8766 41.0737 21.0446C41.8417 20.1913 42.4604 19.1779 42.9297 18.0046L43.5697 18.5806C43.0577 19.8819 42.343 21.0446 41.4257 22.0686C40.5297 23.0713 39.527 23.8606 38.4177 24.4366C37.3297 25.0339 36.2417 25.3326 35.1537 25.3326Z" fill="white"/>
<path d="M21.744 24.5634C20.784 24.5634 20.1227 24.2434 19.76 23.6034C19.4187 22.9847 19.248 22.3021 19.248 21.5554C19.248 20.8727 19.3547 20.1794 19.568 19.4754C19.7814 18.7501 20.0694 18.0781 20.432 17.4594C20.816 16.8407 21.232 16.3501 21.68 15.9874C22.1494 15.6034 22.6187 15.4114 23.088 15.4114C23.2374 15.4114 23.408 15.4434 23.6 15.5074C23.8134 15.5501 23.9627 15.6247 24.048 15.7314C23.792 16.0514 23.5254 16.4461 23.248 16.9154C22.992 17.3847 22.7467 17.8861 22.512 18.4194C22.2987 18.9314 22.128 19.4541 22 19.9874C21.872 20.5207 21.808 21.0114 21.808 21.4594C21.808 21.8861 21.8827 22.2381 22.032 22.5154C22.2027 22.7927 22.4907 22.9314 22.896 22.9314C23.3014 22.9314 23.7814 22.7074 24.336 22.2594C24.912 21.7901 25.456 21.2567 25.968 20.6594C25.2854 20.0407 24.7947 19.3687 24.496 18.6434C24.1974 17.8967 24.048 17.0007 24.048 15.9554C24.048 15.5074 24.1547 14.9954 24.368 14.4194C24.6027 13.8434 24.9654 13.3421 25.456 12.9154C25.968 12.4887 26.6507 12.2754 27.504 12.2754C28.4214 12.2754 29.0614 12.5314 29.424 13.0434C29.808 13.5554 30 14.1634 30 14.8674C30 15.6567 29.7867 16.5421 29.36 17.5234C28.9547 18.5047 28.464 19.4327 27.888 20.3074C28.144 20.4354 28.4427 20.4994 28.784 20.4994C29.104 20.4994 29.488 20.4247 29.936 20.2754C30.384 20.1261 30.8214 19.8807 31.248 19.5394C31.6747 19.1767 32.016 18.6967 32.272 18.0994L32.848 18.5154C32.3787 19.6034 31.7494 20.4034 30.96 20.9154C30.192 21.4061 29.4347 21.6514 28.688 21.6514C28.4107 21.6514 28.1334 21.6301 27.856 21.5874C27.5787 21.5234 27.3227 21.4487 27.088 21.3634C26.3627 22.2167 25.5307 22.9634 24.592 23.6034C23.6534 24.2434 22.704 24.5634 21.744 24.5634ZM26.8 19.6354C27.312 18.8887 27.7494 18.0887 28.112 17.2354C28.4747 16.3821 28.656 15.5927 28.656 14.8674C28.656 14.3767 28.5814 14.0247 28.432 13.8114C28.2827 13.5767 28.0587 13.4594 27.76 13.4594C27.3547 13.4594 26.9387 13.7474 26.512 14.3234C26.0854 14.8994 25.872 15.6247 25.872 16.4994C25.872 16.9474 25.9467 17.4914 26.096 18.1314C26.2667 18.7714 26.5014 19.2727 26.8 19.6354Z" fill="white"/>
<path d="M8.93152 26.324C7.69418 26.324 6.51018 26.1107 5.37952 25.684C4.27018 25.2573 3.36352 24.6067 2.65952 23.732C1.95552 22.8573 1.60352 21.7693 1.60352 20.468C1.60352 19.316 1.85952 18.42 2.37152 17.78C2.88352 17.1187 3.52352 16.66 4.29152 16.404C5.05952 16.148 5.80618 16.02 6.53152 16.02C5.84885 16.7453 5.32618 17.492 4.96352 18.26C4.62218 19.028 4.45152 19.764 4.45152 20.468C4.45152 21.1933 4.63285 21.876 4.99552 22.516C5.37952 23.1347 5.94485 23.636 6.69152 24.02C7.43818 24.4253 8.36618 24.628 9.47552 24.628C10.4355 24.628 11.3635 24.468 12.2595 24.148C13.1768 23.828 13.9235 23.348 14.4995 22.708C15.0968 22.068 15.3955 21.268 15.3955 20.308C15.3955 19.4333 15.1395 18.6867 14.6275 18.068C14.1368 17.428 13.4968 16.8627 12.7075 16.372C11.9182 15.86 11.0862 15.38 10.2115 14.932C9.33685 14.4627 8.50485 13.9613 7.71552 13.428C6.92618 12.8947 6.27552 12.276 5.76352 11.572C5.27285 10.868 5.02752 10.0253 5.02752 9.044C5.02752 8.16933 5.24085 7.24133 5.66752 6.26C6.11552 5.25733 6.74485 4.31867 7.55552 3.444C8.36618 2.56933 9.34752 1.86533 10.4995 1.332C11.6515 0.777334 12.9315 0.5 14.3395 0.5C15.8115 0.5 16.8462 0.809333 17.4435 1.428C18.0408 2.04667 18.3395 2.85733 18.3395 3.86C18.3395 4.64933 18.2008 5.492 17.9235 6.388C17.6462 7.284 17.3048 8.13733 16.8995 8.948C16.5155 9.75867 16.1422 10.452 15.7795 11.028C15.3102 10.9213 14.9582 10.74 14.7235 10.484C14.4888 10.2067 14.3715 9.844 14.3715 9.396C14.3715 8.948 14.4568 8.44667 14.6275 7.892C14.8195 7.33733 15.0328 6.76133 15.2675 6.164C15.5235 5.56667 15.7368 4.99067 15.9075 4.436C16.0995 3.86 16.1955 3.35867 16.1955 2.932C16.1955 2.548 16.0782 2.24933 15.8435 2.036C15.6302 1.82267 15.1822 1.716 14.4995 1.716C13.4755 1.716 12.5368 1.94 11.6835 2.388C10.8302 2.836 10.0835 3.40133 9.44352 4.084C8.82485 4.76667 8.34485 5.492 8.00352 6.26C7.66218 7.00667 7.49152 7.68933 7.49152 8.308C7.49152 9.076 7.73685 9.73733 8.22752 10.292C8.71818 10.8253 9.34752 11.316 10.1155 11.764C10.9048 12.212 11.7262 12.66 12.5795 13.108C13.4542 13.556 14.2755 14.0573 15.0435 14.612C15.8328 15.1667 16.4728 15.828 16.9635 16.596C17.4542 17.364 17.6995 18.3027 17.6995 19.412C17.6995 20.5213 17.4435 21.5027 16.9315 22.356C16.4408 23.2093 15.7688 23.924 14.9155 24.5C14.0622 25.0973 13.1128 25.5453 12.0675 25.844C11.0435 26.164 9.99818 26.324 8.93152 26.324Z" fill="white"/>
<path fill-rule="evenodd" clip-rule="evenodd" d="M64.4341 23.7613L64.4295 23.7531C64.0688 23.112 63.8647 22.3891 63.8066 21.594C63.9322 21.4359 64.0545 21.2739 64.1735 21.108C64.213 21.053 64.2521 20.9975 64.2908 20.9416C64.2898 20.9976 64.2892 21.053 64.2892 21.108C64.2892 22.0253 64.4813 22.8253 64.8652 23.508C65.2706 24.1693 65.9746 24.5 66.9772 24.5C68.2146 24.5 69.3986 23.956 70.5293 22.868C71.6599 21.7587 72.6839 20.2547 73.6012 18.356L72.8333 17.94C72.7635 18.0911 72.6913 18.2416 72.6166 18.3913C72.2802 19.0658 71.8937 19.7261 71.4573 20.372C70.9453 21.14 70.4013 21.78 69.8252 22.292C69.2706 22.7827 68.7266 23.028 68.1933 23.028C67.7879 23.028 67.4573 22.8573 67.2012 22.516C66.9453 22.1533 66.8173 21.588 66.8173 20.82C66.8173 20.3933 66.8493 19.924 66.9133 19.412L67.1693 17.812C68.1506 17.044 69.0679 16.1373 69.9212 15.092C70.7959 14.0467 71.5853 12.948 72.2893 11.796C73.0146 10.6227 73.6332 9.48133 74.1452 8.372C74.6786 7.26267 75.0839 6.24933 75.3613 5.332C75.6599 4.39333 75.8092 3.636 75.8092 3.06C75.8092 2.71867 75.7453 2.356 75.6172 1.972C75.5106 1.56667 75.3613 1.22533 75.1693 0.948C74.9772 0.649333 74.7426 0.5 74.4652 0.5C74.0599 0.5 73.5266 0.862667 72.8652 1.588C72.2253 2.292 71.5212 3.24133 70.7533 4.436C69.9853 5.63067 69.2172 6.97467 68.4492 8.468C67.7026 9.94 67.0092 11.4547 66.3692 13.012C65.7506 14.548 65.2492 16.02 64.8652 17.428C64.7343 17.9081 64.6257 18.3672 64.5394 18.8052C64.3133 19.1957 64.0877 19.557 63.8628 19.8891C63.9537 19.0949 64.1282 18.2301 64.3829 17.2964C64.7726 15.8674 65.2805 14.3769 65.9055 12.8252L65.9068 12.8219C66.5517 11.2526 67.2506 9.72587 68.0033 8.24181L68.0046 8.23932C68.7787 6.7342 69.5546 5.37596 70.3327 4.16562C71.1091 2.9578 71.8299 1.98356 72.4953 1.25166C72.8401 0.873432 73.169 0.570098 73.4801 0.358536C73.7847 0.151423 74.119 0 74.4652 0C74.9574 0 75.3304 0.277749 75.5851 0.670222C75.812 1.00007 75.9796 1.39008 76.0966 1.82915C76.2353 2.2496 76.3092 2.66083 76.3092 3.06C76.3092 3.71048 76.143 4.52347 75.8388 5.48008C75.5526 6.42602 75.1376 7.46156 74.5975 8.58533C74.0765 9.71372 73.4486 10.8713 72.715 12.0581C71.9988 13.2301 71.1959 14.3476 70.3066 15.4106C69.477 16.4265 68.5858 17.3179 67.6322 18.083L67.4083 19.4825C67.3471 19.9746 67.3173 20.4201 67.3173 20.82C67.3173 21.5459 67.4408 21.9842 67.6057 22.2219C67.7719 22.4408 67.9569 22.528 68.1933 22.528C68.564 22.528 68.9947 22.3589 69.4931 21.9183C70.0316 21.4396 70.5484 20.8339 71.0412 20.0947L71.0429 20.0921C71.5618 19.3242 72.007 18.537 72.3793 17.7305L72.6027 17.2465L74.2591 18.1437L74.0515 18.5735C73.1169 20.5079 72.0623 22.0643 70.8794 23.2249L70.876 23.2283C69.6782 24.3808 68.376 25 66.9772 25C65.8586 25 64.9618 24.6224 64.4389 23.7693L64.4341 23.7613ZM69.3832 12.9819L69.3845 12.98C70.0361 12.0552 70.6239 11.1209 71.1482 10.1772L71.1523 10.1698C71.6997 9.22236 72.172 8.30912 72.5697 7.42992C72.9688 6.5476 73.2694 5.76857 73.4747 5.091L73.4774 5.08206C73.4868 5.05329 73.4959 5.02485 73.5049 4.99668C73.2434 5.37263 72.9483 5.82713 72.6191 6.36205C72.1152 7.18084 71.5884 8.11817 71.0388 9.17498C70.5111 10.2306 69.9933 11.3505 69.4857 12.535C69.3861 12.7732 69.2892 13.0109 69.195 13.2481C69.2581 13.16 69.3208 13.0713 69.3832 12.9819ZM68.5981 14.8466C68.3207 15.184 68.0364 15.5112 67.7452 15.828C67.874 15.419 68.0108 15.0087 68.1557 14.5971C68.4189 13.8491 68.7088 13.0968 69.0253 12.34C69.5372 11.1453 70.0599 10.0147 70.5933 8.948C71.1479 7.88133 71.6813 6.932 72.1933 6.1C72.7053 5.268 73.1426 4.61733 73.5052 4.148C73.6139 4.00921 73.714 3.89004 73.8055 3.79051C73.9207 3.66525 74.0224 3.57108 74.1106 3.508C74.1157 3.50437 74.1207 3.50084 74.1257 3.49742C74.1368 3.48977 74.1478 3.48263 74.1584 3.476C74.2273 3.43333 74.2869 3.412 74.3372 3.412V3.508C74.3296 3.66141 74.3081 3.83412 74.2729 4.02615C74.2101 4.36818 74.1035 4.77147 73.9532 5.236C73.7399 5.94 73.4306 6.74 73.0253 7.636C72.6199 8.532 72.1399 9.46 71.5853 10.42C71.0519 11.38 70.4546 12.3293 69.7933 13.268C69.4101 13.8171 69.0117 14.3433 68.5981 14.8466Z" fill="white"/>
<path fill-rule="evenodd" clip-rule="evenodd" d="M48.6982 22.7137C48.7799 23.5304 49.0784 24.2156 49.6406 24.7124C50.2455 25.2653 50.9733 25.5445 51.7989 25.5445C52.7432 25.5445 53.6112 25.1933 54.3915 24.5322C54.9414 24.0789 55.5201 23.5139 56.1273 22.8403C56.2643 23.2382 56.4719 23.6163 56.7465 23.9733C57.2912 24.6814 58.1078 25.0005 59.0949 25.0005C60.0154 25.0005 60.9071 24.7088 61.763 24.1545C62.6072 23.629 63.3932 22.9063 64.1242 21.9982C64.1241 21.9983 64.1242 21.9981 64.1242 21.9982L63.7349 21.6845M61.4949 23.7325C60.7055 24.2445 59.9055 24.5005 59.0949 24.5005C58.2202 24.5005 57.5695 24.2231 57.1429 23.6685C56.834 23.2669 56.6257 22.8429 56.5181 22.3966C56.477 22.2265 56.4506 22.0531 56.4389 21.8765V21.7165C56.421 21.7379 56.4032 21.7592 56.3854 21.7805C56.3584 21.8127 56.3314 21.8447 56.3046 21.8765C56.3019 21.8796 56.2992 21.8828 56.2966 21.8859C56.1898 22.0121 56.0842 22.1348 55.9795 22.2541C55.3004 23.0284 54.6642 23.6598 54.0709 24.1485C53.3669 24.7458 52.6095 25.0445 51.7989 25.0445C51.0949 25.0445 50.4869 24.8098 49.9749 24.3405C49.4415 23.8711 49.1749 23.1671 49.1749 22.2285C49.1749 22.2216 49.1749 22.2147 49.1749 22.2079C49.1689 22.2147 49.1629 22.2216 49.1569 22.2285C49.008 22.3983 48.8551 22.5601 48.6982 22.7137M55.8949 20.8845C56.5135 20.1591 57.1002 19.4231 57.6549 18.6765C58.1197 18.0328 58.5321 17.4716 58.8921 16.9928C58.9616 16.9003 59.0292 16.8108 59.0949 16.7245C59.1559 16.6227 59.2364 16.5694 59.3364 16.5648C59.3412 16.5646 59.346 16.5645 59.3509 16.5645C59.3689 16.569 59.3902 16.5749 59.4148 16.5822C59.4338 16.5879 59.4548 16.5944 59.4778 16.6018C59.5662 16.6301 59.6839 16.671 59.8309 16.7245C60.0869 16.7885 60.3215 16.8951 60.5349 17.0445C60.545 17.0515 60.5549 17.0587 60.5645 17.066C60.7581 17.2121 60.8549 17.3969 60.8549 17.6205C60.8549 17.8338 60.7589 18.1111 60.5669 18.4525C60.3962 18.7725 60.1829 19.1351 59.9269 19.5405C59.6922 19.9245 59.4789 20.3191 59.2869 20.7245C59.1162 21.1085 59.0309 21.4818 59.0309 21.8445C59.0309 22.1218 59.1055 22.3885 59.2549 22.6445C59.4042 22.8791 59.6495 22.9965 59.9909 22.9965C60.5029 22.9965 61.2175 22.6231 62.1349 21.8765C62.9289 21.2268 63.7305 20.2032 64.5397 18.8056C64.5684 18.6601 64.5996 18.5121 64.6332 18.3619C64.6339 18.3586 64.6347 18.3552 64.6354 18.3519C64.6702 18.197 64.7075 18.0397 64.7475 17.8799C64.7846 17.7315 64.824 17.5811 64.8656 17.4285C64.8833 17.3637 64.9012 17.2988 64.9193 17.2338L64.8577 17.1722L64.541 17.7705C63.5939 19.5594 62.6823 20.7821 61.8192 21.4887C61.3758 21.8496 60.9965 22.1076 60.6794 22.2733C60.3565 22.4419 60.1329 22.4965 59.9909 22.4965C59.7845 22.4965 59.7179 22.4375 59.6812 22.3829C59.5772 22.2013 59.5309 22.024 59.5309 21.8445C59.5309 21.5635 59.5963 21.2609 59.7414 20.9328C59.9246 20.5466 60.128 20.1704 60.3517 19.8042C60.6101 19.3949 60.8285 19.0241 61.0054 18.6926C61.2083 18.3311 61.3549 17.9633 61.3549 17.6205C61.3549 17.3236 61.2521 17.0675 61.0743 16.8613C61.1119 16.8405 61.1491 16.8184 61.1859 16.7952C61.7672 16.428 62.0269 15.8319 62.0269 15.1245C62.0269 14.191 61.6259 13.4251 60.8625 12.8653C60.1239 12.3236 59.2373 12.0645 58.2309 12.0645C57.272 12.0645 56.3228 12.2989 55.3876 12.7551C54.4679 13.2037 53.608 13.7963 52.8078 14.5293C52.0115 15.2376 51.3039 16.034 50.6852 16.9177C50.0675 17.8002 49.5784 18.6991 49.2211 19.6147C48.9976 20.1872 48.8405 20.7422 48.7538 21.2783C48.9997 21.004 49.2481 20.6861 49.499 20.3245C49.5545 20.1511 49.6171 19.9751 49.6869 19.7965C50.0282 18.9218 50.4975 18.0578 51.0949 17.2045C51.6922 16.3511 52.3749 15.5831 53.1429 14.9005C53.9109 14.1965 54.7322 13.6311 55.6069 13.2045C56.4815 12.7778 57.3562 12.5645 58.2309 12.5645C59.1482 12.5645 59.9269 12.7991 60.5669 13.2685C61.2069 13.7378 61.5269 14.3565 61.5269 15.1245C61.5269 15.7005 61.3242 16.1165 60.9189 16.3725C60.8285 16.4295 60.7345 16.4776 60.6367 16.5166C60.4339 16.5976 60.2151 16.6398 59.9803 16.6433C59.941 16.6439 59.9012 16.6434 59.8609 16.6418C59.8578 16.6416 59.8547 16.6415 59.8516 16.6414C59.7314 16.6361 59.6071 16.6211 59.4789 16.5965C59.5018 16.4931 59.5217 16.3897 59.5385 16.2863C59.5483 16.2259 59.5571 16.1656 59.5647 16.1052C59.5683 16.077 59.5717 16.0487 59.5749 16.0205C59.6175 15.8285 59.6389 15.6258 59.6389 15.4125C59.6389 14.9858 59.5535 14.6018 59.3829 14.2605C59.2122 13.9191 58.8495 13.7485 58.2949 13.7485C57.6975 13.7485 57.0895 13.9511 56.4709 14.3565C55.8522 14.7618 55.2549 15.2951 54.6789 15.9565C54.1242 16.5965 53.6229 17.3111 53.1749 18.1005C52.7269 18.8685 52.3749 19.6258 52.1189 20.3725C51.8629 21.1191 51.7349 21.7911 51.7349 22.3885C51.7349 23.0711 51.9802 23.4125 52.4709 23.4125C52.9615 23.4125 53.5055 23.1778 54.1029 22.7085C54.7002 22.2178 55.2975 21.6098 55.8949 20.8845ZM53.7897 22.3187C54.356 21.8529 54.9293 21.2703 55.5089 20.5666L55.5144 20.5599C56.1252 19.8438 56.7043 19.1175 57.2515 18.381C57.8007 17.6206 58.278 16.9733 58.6832 16.4398C58.7726 16.3017 58.8988 16.1857 59.0581 16.1207C59.0656 16.0688 59.0722 16.017 59.0779 15.9652L59.0809 15.9384L59.0868 15.912C59.1209 15.7585 59.1389 15.5924 59.1389 15.4125C59.1389 15.0541 59.0677 14.7481 58.9356 14.4841C58.8858 14.3843 58.7573 14.2485 58.2949 14.2485C57.8158 14.2485 57.3016 14.41 56.7449 14.7747C56.171 15.1506 55.6077 15.6514 55.0565 16.2841C54.525 16.8974 54.0425 17.5847 53.6097 18.3473L53.6068 18.3524C53.1734 19.0954 52.8359 19.8228 52.5918 20.5346C52.3483 21.2449 52.2349 21.8608 52.2349 22.3885C52.2349 22.6849 52.2908 22.8173 52.3249 22.8646C52.3379 22.8827 52.3482 22.8897 52.3592 22.8949C52.373 22.9012 52.4059 22.9125 52.4709 22.9125C52.8019 22.9125 53.2369 22.7521 53.7897 22.3187ZM64.3226 21.7467C64.3006 21.5407 64.2896 21.3279 64.2896 21.1085C64.2896 21.0535 64.2901 20.998 64.2912 20.942" fill="white"/>
<path fill-rule="evenodd" clip-rule="evenodd" d="M41.4551 22.036C41.5222 22.7755 41.7879 23.4335 42.2603 23.9918C42.8509 24.6897 43.7144 25.0008 44.754 25.0008C46.2223 25.0008 47.5752 24.4163 48.802 23.3031C48.9463 23.1722 49.0874 23.0353 49.2251 22.8926C49.1914 22.6862 49.1745 22.465 49.1745 22.2288C49.1745 22.222 49.1745 22.2151 49.1746 22.2083C48.9476 22.4687 48.7114 22.7102 48.466 22.9328C47.314 23.9782 46.0767 24.5008 44.754 24.5008C43.8154 24.5008 43.1114 24.2235 42.642 23.6688C42.1727 23.1142 41.938 22.4422 41.938 21.6528C41.938 21.5874 41.9395 21.5197 41.9426 21.4498C41.8896 21.518 41.8357 21.5857 41.7811 21.6528C41.6755 21.7826 41.5668 21.9104 41.4551 22.036ZM49.4987 20.3249C49.5542 20.1515 49.6168 19.9755 49.6865 19.7968C49.9317 19.1686 50.2429 18.5459 50.6201 17.9286C50.7233 17.7599 50.8314 17.5915 50.9444 17.4235L50.7103 17.1738L50.3879 17.8111C49.4801 19.6056 48.631 20.8036 47.8542 21.4639C47.0443 22.1523 46.367 22.4328 45.81 22.4328C45.4301 22.4328 45.2009 22.3504 45.0627 22.2451C45.0297 22.2057 44.9823 22.1247 44.9424 21.9689C44.8976 21.7936 44.87 21.5531 44.87 21.2368C44.87 20.6106 45.012 19.941 45.3103 19.2242C45.6426 18.4562 46.0159 17.7198 46.4303 17.0149C46.8773 16.2912 47.2618 15.6503 47.5836 15.0928C47.761 14.804 47.9023 14.5384 48.0006 14.2986C48.0972 14.0632 48.166 13.8206 48.166 13.5888C48.166 13.1803 48.0302 12.798 47.6983 12.5327C47.4175 12.2878 47.0797 12.1608 46.706 12.1608C46.059 12.1608 45.4714 12.4858 44.9486 13.0072C44.4363 13.4972 43.9716 14.1257 43.5496 14.8809C43.1318 15.6284 42.7593 16.4288 42.4314 17.2814L42.4313 17.2813L42.4289 17.288C42.1237 18.1162 41.8826 18.9155 41.7066 19.6854C41.6436 19.961 41.5912 20.2228 41.5498 20.4704C41.7226 20.2439 41.8864 20.0077 42.0412 19.7619C42.1363 19.6108 42.2281 19.456 42.3164 19.2976C42.4714 18.7048 42.6653 18.0925 42.898 17.4608C43.218 16.6288 43.5807 15.8502 43.986 15.1248C44.3914 14.3995 44.8287 13.8128 45.298 13.3648C45.7674 12.8955 46.2367 12.6608 46.706 12.6608C46.962 12.6608 47.186 12.7462 47.378 12.9168C47.57 13.0662 47.666 13.2902 47.666 13.5888C47.666 13.8662 47.4954 14.2822 47.154 14.8368C46.834 15.3915 46.45 16.0315 46.002 16.7568C45.5754 17.4822 45.1914 18.2395 44.85 19.0288C44.53 19.7968 44.37 20.5328 44.37 21.2368C44.37 21.9195 44.4874 22.3782 44.722 22.6128C44.978 22.8262 45.3407 22.9328 45.81 22.9328C46.5354 22.9328 47.3247 22.5702 48.178 21.8448C48.6101 21.4776 49.0503 20.971 49.4987 20.3249ZM47.41 9.78084C47.7514 9.97284 48.1247 10.0688 48.53 10.0688C49.106 10.0688 49.6394 9.86618 50.13 9.46084C50.6207 9.03418 50.866 8.59684 50.866 8.14884C50.866 7.70084 50.7274 7.39151 50.45 7.22084C50.194 7.05018 49.874 6.96484 49.49 6.96484C48.8927 6.96484 48.3167 7.14618 47.762 7.50884C47.2074 7.87151 46.93 8.30884 46.93 8.82084C46.93 9.24751 47.09 9.56751 47.41 9.78084ZM50.72 6.79993C50.3651 6.5658 49.945 6.46484 49.49 6.46484C48.785 6.46484 48.1152 6.68054 47.4884 7.09036C46.8392 7.51482 46.43 8.09097 46.43 8.82084C46.43 9.39316 46.6566 9.87947 47.1327 10.1969L47.1484 10.2074L47.1649 10.2166C47.5838 10.4522 48.042 10.5688 48.53 10.5688C49.2346 10.5688 49.8782 10.3174 50.4485 9.84632L50.4486 9.84645L50.4581 9.83815C51.0075 9.3604 51.366 8.79718 51.366 8.14884C51.366 7.6028 51.192 7.09481 50.72 6.79993Z" fill="white"/>
<path fill-rule="evenodd" clip-rule="evenodd" d="M30.8466 20.987C30.846 21.0275 30.8457 21.068 30.8457 21.1086C30.8457 22.6111 31.2155 23.8228 32.0536 24.6356C32.8817 25.4392 33.9283 25.8326 35.1537 25.8326C36.3353 25.8326 37.5036 25.5079 38.6532 24.8777C39.8182 24.272 40.8666 23.4447 41.7985 22.4018C41.8592 22.3341 41.919 22.2658 41.9779 22.1969C41.9513 22.0221 41.938 21.8407 41.938 21.6526C41.938 21.5872 41.9395 21.5195 41.9425 21.4495C41.778 21.6612 41.6058 21.8676 41.4257 22.0686C40.5297 23.0713 39.527 23.8606 38.4177 24.4366C37.3297 25.0339 36.2417 25.3326 35.1537 25.3326C34.0444 25.3326 33.127 24.9806 32.4017 24.2766C31.6977 23.5939 31.3457 22.5379 31.3457 21.1086C31.3457 20.9453 31.3507 20.7825 31.3606 20.6202C31.2318 20.7279 31.0981 20.8267 30.9595 20.9166C30.9218 20.9407 30.8842 20.9641 30.8466 20.987ZM42.3163 19.2974C42.433 18.8512 42.5717 18.3939 42.7324 17.9257C42.7852 17.7719 42.8404 17.6168 42.898 17.4606C42.9129 17.4216 42.928 17.3828 42.9432 17.3441L42.7316 17.1536L42.4655 17.8189C42.0162 18.942 41.428 19.9029 40.7041 20.7078C39.9693 21.5035 39.1918 22.1168 38.3733 22.556C37.5552 22.995 36.7933 23.2006 36.0817 23.2006C35.2695 23.2006 34.8714 22.9815 34.6828 22.701C34.4337 22.2694 34.3097 21.8056 34.3097 21.3006C34.3097 20.6677 34.444 19.9586 34.7271 19.1688C35.034 18.3513 35.4219 17.5862 35.8907 16.8725C36.3811 16.1371 36.8926 15.5592 37.4215 15.1282L37.4231 15.127C37.9701 14.6776 38.4263 14.5046 38.8017 14.5046C38.8508 14.5046 38.8853 14.5081 38.9082 14.5118C38.9091 14.5214 38.9097 14.5336 38.9097 14.5486C38.9097 15.1315 38.8023 15.5598 38.625 15.8661C38.4022 16.2509 38.2224 16.4526 38.099 16.539L37.7083 16.8124L37.963 17.2156C38.291 17.7351 38.7672 18.0566 39.3777 18.0566C40.1095 18.0566 40.6397 17.6205 40.9752 16.9517C41.3064 16.3118 41.4777 15.6477 41.4777 14.9646C41.4777 14.2439 41.2294 13.6037 40.7448 13.0659C40.2252 12.4639 39.4126 12.2246 38.4497 12.2246C37.4816 12.2246 36.5354 12.4853 35.6167 12.9905L35.6167 12.9905L35.612 12.9931C34.7235 13.4943 33.9218 14.1738 33.2054 15.024C32.4865 15.8558 31.9149 16.7985 31.4901 17.8492C31.2365 18.4766 31.0574 19.1136 30.9534 19.7595C31.052 19.6915 31.15 19.6186 31.2475 19.5406C31.3612 19.4439 31.4689 19.3389 31.5705 19.2256C31.6671 18.826 31.7948 18.4297 31.9537 18.0366C32.359 17.0339 32.903 16.1379 33.5857 15.3486C34.2684 14.5379 35.0257 13.8979 35.8577 13.4286C36.711 12.9593 37.575 12.7246 38.4497 12.7246C39.3457 12.7246 39.9857 12.9486 40.3697 13.3966C40.775 13.8446 40.9777 14.3673 40.9777 14.9646C40.9777 15.5619 40.8284 16.1486 40.5297 16.7246C40.2524 17.2793 39.8684 17.5566 39.3777 17.5566C39.1287 17.5566 38.9079 17.4801 38.7152 17.3272C38.6344 17.263 38.5586 17.1854 38.4877 17.0944C38.4525 17.0491 38.4185 17.0005 38.3857 16.9486C38.599 16.7993 38.823 16.5219 39.0577 16.1166C39.2924 15.7113 39.4097 15.1886 39.4097 14.5486C39.4097 14.3779 39.367 14.2499 39.2817 14.1646C39.1964 14.0579 39.0364 14.0046 38.8017 14.0046C38.2684 14.0046 37.703 14.2499 37.1057 14.7406C36.5297 15.2099 35.9857 15.8286 35.4737 16.5966C34.983 17.3433 34.5777 18.1433 34.2577 18.9966C33.959 19.8286 33.8097 20.5966 33.8097 21.3006C33.8097 21.8979 33.959 22.4526 34.2577 22.9646C34.5777 23.4553 35.1857 23.7006 36.0817 23.7006C36.8924 23.7006 37.735 23.4659 38.6097 22.9966C39.4844 22.5273 40.3057 21.8766 41.0737 21.0446C41.5439 20.5222 41.9581 19.9398 42.3163 19.2974Z" fill="white"/>
<path fill-rule="evenodd" clip-rule="evenodd" d="M19.76 23.6034C20.1227 24.2434 20.784 24.5634 21.744 24.5634C22.704 24.5634 23.6534 24.2434 24.592 23.6034C25.5307 22.9634 26.3627 22.2167 27.088 21.3634C27.3227 21.4487 27.5787 21.5234 27.856 21.5874C28.1334 21.6301 28.4107 21.6514 28.688 21.6514C29.4347 21.6514 30.192 21.4061 30.96 20.9154C31.0987 20.8255 31.2324 20.7267 31.3611 20.619C31.3513 20.7812 31.3463 20.9441 31.3463 21.1074C31.3463 21.1579 31.3467 21.2079 31.3476 21.2574C31.3095 21.2838 31.271 21.3097 31.2321 21.3349L31.2292 21.3367C30.3987 21.8674 29.5493 22.1514 28.688 22.1514C28.385 22.1514 28.0822 22.1281 27.78 22.0816L27.7617 22.0788L27.7436 22.0746C27.5713 22.0348 27.4054 21.9909 27.2461 21.9426C26.5453 22.7248 25.7542 23.4162 24.8737 24.0165C23.8676 24.7025 22.8218 25.0634 21.744 25.0634C20.6672 25.0634 19.8038 24.6948 19.325 23.8499L19.3222 23.8449L19.3223 23.8449C18.9378 23.1481 18.748 22.3816 18.748 21.5554C18.748 20.8205 18.8629 20.079 19.089 19.3322C19.3131 18.5707 19.6167 17.8616 20.0007 17.2065L20.0071 17.1956L20.0072 17.1957C20.413 16.542 20.8635 16.0054 21.3642 15.5998C21.8962 15.1647 22.4735 14.9114 23.088 14.9114C23.2771 14.9114 23.4716 14.9461 23.6672 15.0043C23.7249 14.7591 23.8028 14.506 23.8992 14.2457L23.902 14.2382L23.905 14.2307C24.1706 13.5788 24.5809 13.0138 25.128 12.5381L25.1359 12.5312L25.136 12.5313C25.7605 12.0108 26.5672 11.7754 27.504 11.7754C28.5015 11.7754 29.3331 12.0549 29.828 12.7487C30.2808 13.3548 30.5 14.0689 30.5 14.8674C30.5 15.7438 30.2641 16.6969 29.8205 17.7185C29.4928 18.5112 29.1107 19.2707 28.6744 19.9966C28.7099 19.9984 28.7464 19.9994 28.784 19.9994C29.0313 19.9994 29.359 19.9407 29.7779 19.801C30.16 19.6737 30.544 19.4613 30.9298 19.1537C31.2863 18.849 31.5832 18.4374 31.8125 17.9024L32.0585 17.3284L32.2162 17.4423C32.1327 17.616 32.0538 17.7932 31.9794 17.974C31.9709 17.9944 31.9626 18.0149 31.9543 18.0354C31.7954 18.4284 31.6677 18.8248 31.5711 19.2244C31.4694 19.3377 31.3618 19.4427 31.248 19.5394C30.8214 19.8807 30.384 20.1261 29.936 20.2754C29.488 20.4247 29.104 20.4994 28.784 20.4994C28.6425 20.4994 28.5082 20.4884 28.3814 20.4664C28.2023 20.4353 28.0379 20.3823 27.888 20.3074C27.9804 20.1671 28.0707 20.0254 28.1587 19.8823C28.6193 19.1336 29.0197 18.3473 29.36 17.5234C29.7867 16.5421 30 15.6567 30 14.8674C30 14.1634 29.808 13.5554 29.424 13.0434C29.0614 12.5314 28.4214 12.2754 27.504 12.2754C26.6507 12.2754 25.968 12.4887 25.456 12.9154C24.9654 13.3421 24.6027 13.8434 24.368 14.4194C24.2701 14.6839 24.1946 14.9349 24.1416 15.1724C24.0986 15.3652 24.0704 15.5491 24.0571 15.7242C24.0567 15.7287 24.0564 15.7333 24.0561 15.7378C24.0507 15.8119 24.048 15.8845 24.048 15.9554C24.048 16.1609 24.0538 16.3607 24.0654 16.5547C24.1125 17.3473 24.2561 18.0435 24.496 18.6434C24.7947 19.3687 25.2854 20.0407 25.968 20.6594C25.456 21.2567 24.912 21.7901 24.336 22.2594C23.7814 22.7074 23.3014 22.9314 22.896 22.9314C22.4907 22.9314 22.2027 22.7927 22.032 22.5154C21.8827 22.2381 21.808 21.8861 21.808 21.4594C21.808 21.0114 21.872 20.5207 22 19.9874C22.128 19.4541 22.2987 18.9314 22.512 18.4194C22.7467 17.8861 22.992 17.3847 23.248 16.9154C23.3528 16.7382 23.456 16.5716 23.5577 16.4157C23.6655 16.2503 23.7717 16.0968 23.8761 15.9554C23.9339 15.877 23.9913 15.8024 24.048 15.7314C24.0087 15.6822 23.9556 15.6397 23.889 15.6041C23.8112 15.5626 23.7149 15.5304 23.6 15.5074C23.5969 15.5063 23.5937 15.5053 23.5905 15.5042C23.5861 15.5028 23.5817 15.5013 23.5773 15.4999C23.3945 15.4409 23.2314 15.4114 23.088 15.4114C22.6187 15.4114 22.1494 15.6034 21.68 15.9874C21.232 16.3501 20.816 16.8407 20.432 17.4594C20.0694 18.0781 19.7814 18.7501 19.568 19.4754C19.3547 20.1794 19.248 20.8727 19.248 21.5554C19.248 22.3021 19.4187 22.9847 19.76 23.6034ZM23.6312 17.2579C23.4033 17.6828 23.1834 18.1355 22.9717 18.6162C22.7694 19.1025 22.6076 19.5984 22.4862 20.1041C22.3654 20.6074 22.308 21.0583 22.308 21.4594C22.308 21.822 22.3704 22.0818 22.4649 22.2644C22.5229 22.3522 22.6266 22.4314 22.896 22.4314C23.1279 22.4314 23.4952 22.2956 24.021 21.8711C24.4574 21.5154 24.8758 21.1205 25.276 20.6857C24.7262 20.1182 24.3086 19.5014 24.0337 18.8338L24.0318 18.8291L24.0318 18.8291C23.8411 18.3524 23.7087 17.8277 23.6312 17.2579ZM27.091 19.1925C26.9969 19.3422 26.8999 19.4898 26.8 19.6354C26.6917 19.5038 26.5917 19.3539 26.5002 19.1858C26.3395 18.8906 26.2048 18.5391 26.096 18.1314C25.9467 17.4914 25.872 16.9474 25.872 16.4994C25.872 15.6247 26.0854 14.8994 26.512 14.3234C26.9387 13.7474 27.3547 13.4594 27.76 13.4594C28.0587 13.4594 28.2827 13.5767 28.432 13.8114C28.5814 14.0247 28.656 14.3767 28.656 14.8674C28.656 15.5927 28.4747 16.3821 28.112 17.2354C27.8201 17.9223 27.4798 18.5747 27.091 19.1925ZM26.8137 18.6887C27.128 18.1647 27.4074 17.6151 27.6519 17.0398C27.9953 16.2318 28.156 15.5096 28.156 14.8674C28.156 14.4018 28.0803 14.1808 28.0224 14.0981L28.0161 14.0891L28.0102 14.0798C27.9605 14.0017 27.9029 13.9594 27.76 13.9594C27.6022 13.9594 27.3162 14.0778 26.9138 14.621C26.5639 15.0933 26.372 15.7078 26.372 16.4994C26.372 16.8943 26.4381 17.3953 26.5812 18.0101C26.65 18.2669 26.7281 18.4923 26.8137 18.6887Z" fill="white"/>
<path fill-rule="evenodd" clip-rule="evenodd" d="M5.20299 26.1518L5.20002 26.1507C4.01341 25.6943 3.03256 24.9929 2.27001 24.0455C1.48342 23.0682 1.10352 21.8644 1.10352 20.468C1.10352 19.2494 1.37354 18.229 1.97853 17.4708C2.54869 16.7355 3.26935 16.2177 4.1334 15.9297C4.94652 15.6586 5.74659 15.52 6.53152 15.52H7.68873L6.89562 16.3627C6.24441 17.0546 5.75482 17.7569 5.4181 18.4683C5.10135 19.1826 4.95152 19.8477 4.95152 20.468C4.95152 21.1024 5.1082 21.6974 5.42557 22.2607C5.75484 22.7875 6.24514 23.2282 6.92019 23.5754L6.93012 23.5805L6.93006 23.5806C7.58451 23.9358 8.42482 24.128 9.47552 24.128C10.3787 24.128 11.2498 23.9777 12.0913 23.6771L12.0948 23.6759C12.9431 23.38 13.6151 22.9433 14.1279 22.3735L14.1339 22.3668L14.134 22.3668C14.6362 21.8287 14.8955 21.1547 14.8955 20.308C14.8955 19.5386 14.6733 18.9076 14.2423 18.3868L14.2364 18.3796L14.2307 18.3722C13.7818 17.7867 13.1894 17.2603 12.4435 16.7966L12.4354 16.7916L12.4354 16.7915C11.661 16.2891 10.8438 15.8176 9.98358 15.377L9.97506 15.3727L9.97511 15.3726C9.08612 14.8956 8.23954 14.3855 7.43559 13.8423C6.60264 13.2795 5.90841 12.6213 5.35915 11.8661L5.35323 11.858L5.35332 11.8579C4.79607 11.0584 4.52752 10.1124 4.52752 9.044C4.52752 8.08723 4.76092 7.09117 5.20898 6.06064L5.21099 6.05602L5.21101 6.05603C5.68315 4.99935 6.34416 4.01544 7.1888 3.10412C8.04576 2.1795 9.08022 1.43859 10.286 0.879849C11.5114 0.290527 12.8655 0 14.3395 0C15.8565 0 17.0632 0.314302 17.8032 1.0807C18.5054 1.80797 18.8395 2.75085 18.8395 3.86C18.8395 4.70785 18.6906 5.6007 18.4012 6.53584C18.1166 7.45522 17.766 8.33236 17.3491 9.16681C16.9599 9.98818 16.5779 10.6984 16.2026 11.2944L16.014 11.594L15.6687 11.5156C15.1374 11.3948 14.6802 11.1767 14.3549 10.8219L14.3482 10.8145L14.3418 10.807C14.0142 10.4197 13.8715 9.93371 13.8715 9.396C13.8715 8.88595 13.9684 8.33399 14.1496 7.74496L14.1522 7.73665L14.155 7.72845C14.3495 7.16674 14.5652 6.5843 14.8021 5.98117L14.8049 5.97406L14.8079 5.96704C15.0578 5.38411 15.2648 4.82481 15.4296 4.28896L15.433 4.27784L15.4332 4.27789C15.6148 3.73314 15.6955 3.28747 15.6955 2.932C15.6955 2.65668 15.616 2.50486 15.5072 2.40597L15.4984 2.39797L15.49 2.38955C15.4746 2.37416 15.4095 2.32474 15.2317 2.2824C15.0591 2.2413 14.8186 2.216 14.4995 2.216C13.5513 2.216 12.6931 2.42268 11.9159 2.8307C11.1118 3.25286 10.4112 3.78354 9.81118 4.42288C9.22615 5.06902 8.7777 5.7492 8.46042 6.46307L8.45828 6.46789L8.45825 6.46788C8.13746 7.16962 7.99152 7.78047 7.99152 8.308C7.99152 8.95722 8.19438 9.49829 8.59885 9.95713C9.0481 10.4446 9.63363 10.9038 10.3649 11.3306C11.1477 11.7749 11.9626 12.2194 12.8097 12.6641C13.7043 13.1225 14.5457 13.6359 15.3336 14.2047C16.1719 14.7943 16.8576 15.5016 17.3849 16.3268C17.9371 17.1911 18.1995 18.2281 18.1995 19.412C18.1995 20.5996 17.9249 21.6705 17.3627 22.6092C16.8332 23.5287 16.1093 24.2967 15.1988 24.9121C14.3005 25.5402 13.3035 26.0102 12.2108 26.3231C11.1407 26.6568 10.047 26.824 8.93152 26.824C7.63535 26.824 6.39143 26.6003 5.20299 26.1518ZM12.0675 25.844C13.1128 25.5453 14.0622 25.0973 14.9155 24.5C15.7688 23.924 16.4408 23.2093 16.9315 22.356C17.4435 21.5027 17.6995 20.5213 17.6995 19.412C17.6995 18.3027 17.4542 17.364 16.9635 16.596C16.4728 15.828 15.8328 15.1667 15.0435 14.612C14.2755 14.0573 13.4542 13.556 12.5795 13.108C11.7262 12.66 10.9048 12.212 10.1155 11.764C9.34752 11.316 8.71818 10.8253 8.22752 10.292C7.73685 9.73733 7.49152 9.076 7.49152 8.308C7.49152 7.68933 7.66218 7.00667 8.00352 6.26C8.34485 5.492 8.82485 4.76667 9.44352 4.084C10.0835 3.40133 10.8302 2.836 11.6835 2.388C12.5368 1.94 13.4755 1.716 14.4995 1.716C15.1822 1.716 15.6302 1.82267 15.8435 2.036C16.0782 2.24933 16.1955 2.548 16.1955 2.932C16.1955 3.35867 16.0995 3.86 15.9075 4.436C15.7368 4.99067 15.5235 5.56667 15.2675 6.164C15.0328 6.76133 14.8195 7.33733 14.6275 7.892C14.4568 8.44667 14.3715 8.948 14.3715 9.396C14.3715 9.844 14.4888 10.2067 14.7235 10.484C14.9582 10.74 15.3102 10.9213 15.7795 11.028C16.1422 10.452 16.5155 9.75867 16.8995 8.948C17.3048 8.13733 17.6462 7.284 17.9235 6.388C18.2008 5.492 18.3395 4.64933 18.3395 3.86C18.3395 2.85733 18.0408 2.04667 17.4435 1.428C16.8462 0.809333 15.8115 0.5 14.3395 0.5C12.9315 0.5 11.6515 0.777334 10.4995 1.332C9.34752 1.86533 8.36618 2.56933 7.55552 3.444C6.74485 4.31867 6.11552 5.25733 5.66752 6.26C5.24085 7.24133 5.02752 8.16933 5.02752 9.044C5.02752 10.0253 5.27285 10.868 5.76352 11.572C6.27552 12.276 6.92618 12.8947 7.71552 13.428C8.50485 13.9613 9.33685 14.4627 10.2115 14.932C11.0862 15.38 11.9182 15.86 12.7075 16.372C13.4968 16.8627 14.1368 17.428 14.6275 18.068C15.1395 18.6867 15.3955 19.4333 15.3955 20.308C15.3955 21.268 15.0968 22.068 14.4995 22.708C13.9235 23.348 13.1768 23.828 12.2595 24.148C11.3635 24.468 10.4355 24.628 9.47552 24.628C8.36618 24.628 7.43818 24.4253 6.69152 24.02C5.94485 23.636 5.37952 23.1347 4.99552 22.516C4.63285 21.876 4.45152 21.1933 4.45152 20.468C4.45152 19.764 4.62218 19.028 4.96352 18.26C5.24041 17.6736 5.61058 17.0997 6.07401 16.5382C6.21756 16.3643 6.37006 16.1915 6.53152 16.02C6.29761 16.02 6.06147 16.0333 5.82313 16.0599C5.32238 16.1159 4.81185 16.2306 4.29152 16.404C3.52352 16.66 2.88352 17.1187 2.37152 17.78C1.85952 18.42 1.60352 19.316 1.60352 20.468C1.60352 21.7693 1.95552 22.8573 2.65952 23.732C3.36352 24.6067 4.27018 25.2573 5.37952 25.684C6.51018 26.1107 7.69418 26.324 8.93152 26.324C9.99818 26.324 11.0435 26.164 12.0675 25.844Z" fill="white"/>
<path d="M72.1682 64.5003C71.6349 64.5003 71.1335 64.3297 70.6642 63.9883C70.2162 63.6683 69.9922 63.1457 69.9922 62.4203C69.9922 61.7377 70.1949 61.119 70.6002 60.5643C71.0055 60.031 71.5282 59.5297 72.1682 59.0603C72.8082 58.6123 73.4909 58.1963 74.2162 57.8123C74.9629 57.4497 75.6775 57.1083 76.3602 56.7883C76.5949 56.1697 76.8509 55.391 77.1282 54.4523C77.4269 53.4923 77.6829 52.607 77.8962 51.7963C77.2349 52.7137 76.5309 53.5243 75.7842 54.2283C75.0375 54.9323 74.2055 55.2843 73.2882 55.2843C72.9042 55.2843 72.4989 55.2097 72.0722 55.0603C71.6455 54.8897 71.2829 54.6123 70.9842 54.2283C70.7069 53.823 70.5682 53.2897 70.5682 52.6283C70.5682 52.0737 70.6642 51.4017 70.8562 50.6123C71.0695 49.823 71.3255 49.055 71.6242 48.3083C71.9442 47.5403 72.2749 46.911 72.6162 46.4203C72.9575 45.9083 73.2562 45.6523 73.5122 45.6523C73.6402 45.6523 73.8215 45.7057 74.0562 45.8123C74.3122 45.8977 74.5575 46.0257 74.7922 46.1963C75.0269 46.3457 75.1762 46.5163 75.2402 46.7083C75.0482 46.9643 74.8349 47.3377 74.6002 47.8283C74.3655 48.2977 74.1415 48.831 73.9282 49.4283C73.7149 50.0043 73.5335 50.5697 73.3842 51.1243C73.2562 51.679 73.1922 52.159 73.1922 52.5643C73.1922 52.8843 73.2562 53.1617 73.3842 53.3963C73.5122 53.631 73.7575 53.7483 74.1202 53.7483C74.5895 53.7483 75.0695 53.5563 75.5602 53.1723C76.0722 52.7883 76.5629 52.2977 77.0322 51.7003C77.5229 51.103 77.9602 50.495 78.3442 49.8763C78.3869 49.727 78.4295 49.4923 78.4722 49.1723C78.5148 48.8523 78.5895 48.5217 78.6962 48.1803C78.8029 47.8177 78.9842 47.487 79.2402 47.1883C79.5175 46.8897 79.9015 46.7403 80.3922 46.7403C80.5629 46.7403 80.7229 46.751 80.8722 46.7723C81.0215 46.7937 81.2029 46.8257 81.4162 46.8683C81.4162 47.1883 81.2989 47.8177 81.0642 48.7563C80.8509 49.6737 80.5629 50.7403 80.2002 51.9563C79.8375 53.1723 79.4322 54.3883 78.9842 55.6043C79.8802 55.2417 80.8082 54.6443 81.7682 53.8123C82.7495 52.959 83.5389 51.7537 84.1362 50.1963L84.6802 50.6443C84.3602 51.711 83.8695 52.639 83.2082 53.4283C82.5682 54.2177 81.8429 54.8897 81.0322 55.4443C80.2215 55.999 79.4002 56.4577 78.5682 56.8203C77.9922 58.207 77.3629 59.487 76.6802 60.6603C76.0189 61.8337 75.3149 62.7617 74.5682 63.4443C73.8215 64.1483 73.0215 64.5003 72.1682 64.5003ZM71.8482 63.3163C72.2535 63.3163 72.8189 62.8897 73.5442 62.0363C74.2695 61.183 75.0055 59.903 75.7522 58.1963C75.0695 58.5377 74.3762 58.9323 73.6722 59.3803C72.9895 59.8497 72.4135 60.3403 71.9442 60.8523C71.4749 61.3643 71.2402 61.887 71.2402 62.4203C71.2402 62.6337 71.2829 62.8363 71.3682 63.0283C71.4749 63.2203 71.6349 63.3163 71.8482 63.3163Z" fill="white"/>
<path d="M64.9268 56.3719C64.1375 56.3719 63.4975 56.1586 63.0068 55.7319C62.5162 55.3266 62.2708 54.7719 62.2708 54.0679C62.2708 53.4706 62.4202 52.8306 62.7188 52.1479C63.0175 51.4653 63.3162 50.7933 63.6148 50.1319C63.9348 49.4706 64.0948 48.8839 64.0948 48.3719C64.0948 47.8813 63.9348 47.4759 63.6148 47.1559C63.2948 46.8146 62.9215 46.5373 62.4948 46.3239C62.0255 47.4973 61.4922 48.6386 60.8948 49.7479C60.3188 50.8359 59.8495 51.6893 59.4868 52.3079L59.0068 51.3799C59.3055 50.8253 59.7002 50.0359 60.1908 49.0119C60.6815 47.9879 61.1508 46.8466 61.5988 45.5879C61.3855 45.3746 61.2788 45.0866 61.2788 44.7239C61.2788 44.1693 61.4495 43.6466 61.7908 43.1559C62.1322 42.6653 62.4628 42.4199 62.7828 42.4199C63.0388 42.4199 63.2202 42.5693 63.3268 42.8679C63.4548 43.1453 63.5188 43.3373 63.5188 43.4439C63.5188 43.5506 63.4655 43.7426 63.3588 44.0199C63.2735 44.2973 63.2095 44.4999 63.1668 44.6279C63.1882 44.8626 63.3695 45.0973 63.7108 45.3319C64.0735 45.5453 64.4788 45.8013 64.9268 46.0999C65.3748 46.3986 65.7695 46.7719 66.1108 47.2199C66.4522 47.6679 66.6228 48.2333 66.6228 48.9159C66.6228 49.5346 66.4842 50.1639 66.2068 50.8039C65.9295 51.4439 65.6522 52.0413 65.3748 52.5959C65.0975 53.1506 64.9588 53.6306 64.9588 54.0359C64.9588 54.3346 65.0335 54.5373 65.1828 54.6439C65.3535 54.7293 65.5455 54.7719 65.7588 54.7719C66.2708 54.7719 66.8042 54.6226 67.3588 54.3239C67.9135 54.0039 68.4575 53.5986 68.9908 53.1079C69.5242 52.6173 69.9935 52.1053 70.3988 51.5719C70.8042 51.0173 71.1135 50.5159 71.3268 50.0679L72.0948 50.6439C71.6895 51.5613 71.1028 52.4679 70.3348 53.3639C69.5668 54.2386 68.7135 54.9639 67.7748 55.5399C66.8362 56.0946 65.8868 56.3719 64.9268 56.3719Z" fill="white"/>
<path d="M51.8126 56.9483C50.4473 56.9483 49.3913 56.575 48.6446 55.8283C47.9193 55.1029 47.5566 54.1856 47.5566 53.0763C47.5566 52.1376 47.7913 51.1456 48.2606 50.1003C48.7513 49.0336 49.402 48.0416 50.2126 47.1243C51.0233 46.1856 51.9193 45.4283 52.9006 44.8523C53.882 44.2763 54.8633 43.9883 55.8446 43.9883C56.3993 43.9883 56.922 44.1376 57.4126 44.4363C57.9246 44.7136 58.1806 45.2789 58.1806 46.1323C58.1806 46.9429 57.946 47.7003 57.4766 48.4043C57.0073 49.1083 56.378 49.7376 55.5886 50.2923C54.7993 50.8469 53.9246 51.3056 52.9646 51.6683C52.026 52.0096 51.0766 52.2336 50.1166 52.3403C50.0953 52.4256 50.074 52.5216 50.0526 52.6283C50.0526 52.7136 50.0526 52.8629 50.0526 53.0763C50.0526 53.1829 50.0633 53.3749 50.0846 53.6523C50.1273 53.9083 50.2233 54.1856 50.3726 54.4843C50.522 54.783 50.7673 55.0389 51.1086 55.2523C51.45 55.4656 51.9193 55.5723 52.5166 55.5723C53.4126 55.5723 54.3086 55.3269 55.2046 54.8363C56.122 54.3243 56.9753 53.6523 57.7646 52.8203C58.5753 51.9883 59.2473 51.0603 59.7806 50.0363L60.4206 50.5483C59.8446 51.8283 59.098 52.9483 58.1806 53.9083C57.2846 54.8683 56.282 55.6149 55.1726 56.1483C54.0846 56.6816 52.9646 56.9483 51.8126 56.9483ZM50.4686 51.1563C51.0233 51.0923 51.642 50.9003 52.3246 50.5803C53.0073 50.2603 53.658 49.8549 54.2766 49.3643C54.9166 48.8736 55.4393 48.3403 55.8446 47.7643C56.25 47.1669 56.4526 46.5696 56.4526 45.9723C56.4526 45.7376 56.41 45.5776 56.3246 45.4923C56.2393 45.4069 56.1006 45.3643 55.9086 45.3643C55.418 45.3643 54.906 45.5456 54.3726 45.9083C53.8393 46.2496 53.3166 46.7083 52.8046 47.2843C52.2926 47.8389 51.834 48.4576 51.4286 49.1403C51.0233 49.823 50.7033 50.4949 50.4686 51.1563Z" fill="white"/>
<path d="M35.4215 56.5C34.4189 56.5 33.6722 56.1693 33.1815 55.508C32.7122 54.8467 32.4775 53.9933 32.4775 52.948C32.4775 51.9453 32.6695 50.7507 33.0535 49.364C33.4375 47.9773 33.9389 46.516 34.5575 44.98C35.1975 43.444 35.8909 41.94 36.6375 40.468C37.4055 38.996 38.1735 37.6627 38.9415 36.468C39.7095 35.252 40.4135 34.292 41.0535 33.588C41.7149 32.8627 42.2482 32.5 42.6535 32.5C42.9309 32.5 43.1655 32.6493 43.3575 32.948C43.5495 33.2253 43.6989 33.5667 43.8055 33.972C43.9335 34.3773 43.9975 34.7613 43.9975 35.124C43.9975 35.6787 43.8482 36.4147 43.5495 37.332C43.2722 38.228 42.8669 39.22 42.3335 40.308C41.8215 41.396 41.2029 42.516 40.4775 43.668C39.7735 44.7987 38.9842 45.8867 38.1095 46.932C37.2562 47.956 36.3389 48.852 35.3575 49.62C35.2722 50.1533 35.1869 50.7187 35.1015 51.316C35.0375 51.892 35.0055 52.3933 35.0055 52.82C35.0055 54.292 35.4642 55.028 36.3815 55.028C36.8509 55.028 37.3309 54.836 37.8215 54.452C38.3335 54.0467 38.8242 53.524 39.2935 52.884C39.7629 52.2227 40.1895 51.508 40.5735 50.74C40.7869 49.652 41.1069 48.4787 41.5335 47.22C41.9602 45.9613 42.4509 44.7027 43.0055 43.444C43.5815 42.164 44.1895 40.948 44.8295 39.796C45.4695 38.6227 46.0989 37.588 46.7175 36.692C47.3362 35.7747 47.9015 35.06 48.4135 34.548C48.9469 34.0147 49.3842 33.748 49.7255 33.748C50.0029 33.748 50.2375 33.8973 50.4295 34.196C50.6429 34.4733 50.8029 34.8253 50.9095 35.252C51.0375 35.6573 51.1015 36.052 51.1015 36.436C51.1015 37.0973 50.9202 37.972 50.5575 39.06C50.1949 40.1267 49.6722 41.3 48.9895 42.58C48.3282 43.8387 47.5175 45.0867 46.5575 46.324C45.5975 47.5613 44.5095 48.66 43.2935 49.62C43.1869 50.1107 43.1015 50.6333 43.0375 51.188C42.9735 51.7427 42.9415 52.2333 42.9415 52.66C42.9415 54.2387 43.3789 55.028 44.2535 55.028C44.8082 55.028 45.3735 54.7827 45.9495 54.292C46.5255 53.78 47.0695 53.1293 47.5815 52.34C48.0935 51.5507 48.5309 50.7507 48.8935 49.94L49.6935 50.356C48.7975 52.2547 47.8162 53.7587 46.7495 54.868C45.7042 55.956 44.5522 56.5 43.2935 56.5C42.3122 56.5 41.5869 56.18 41.1175 55.54C40.6482 54.9 40.4029 54.068 40.3815 53.044C39.6562 54.132 38.8775 54.9747 38.0455 55.572C37.2349 56.1907 36.3602 56.5 35.4215 56.5ZM35.9335 47.828C36.6375 47.0813 37.3095 46.26 37.9495 45.364C38.6109 44.4467 39.2189 43.5187 39.7735 42.58C40.3282 41.6413 40.8082 40.7347 41.2135 39.86C41.6402 38.9853 41.9709 38.196 42.2055 37.492C42.4402 36.788 42.5575 36.2333 42.5575 35.828C42.5575 35.7213 42.5575 35.636 42.5575 35.572C42.5575 35.508 42.5362 35.4653 42.4935 35.444C42.3442 35.444 42.0775 35.6893 41.6935 36.18C41.3095 36.6493 40.8615 37.3 40.3495 38.132C39.8589 38.964 39.3362 39.9133 38.7815 40.98C38.2482 42.0253 37.7255 43.1453 37.2135 44.34C36.7229 45.5133 36.2962 46.676 35.9335 47.828ZM43.8055 47.86C44.6589 46.964 45.4375 46.004 46.1415 44.98C46.8669 43.9347 47.4855 42.9107 47.9975 41.908C48.5309 40.884 48.9362 39.956 49.2135 39.124C49.5122 38.2707 49.6615 37.5987 49.6615 37.108C49.6615 37.0013 49.6615 36.9267 49.6615 36.884C49.6615 36.82 49.6509 36.7667 49.6295 36.724C49.4162 36.724 49.0749 37.0333 48.6055 37.652C48.1575 38.2707 47.6455 39.1133 47.0695 40.18C46.4935 41.2253 45.9175 42.4093 45.3415 43.732C44.7655 45.0547 44.2535 46.4307 43.8055 47.86Z" fill="white"/>
<path d="M19.9863 57.0445C19.2823 57.0445 18.6743 56.8098 18.1623 56.3405C17.629 55.8711 17.3623 55.1671 17.3623 54.2285C17.3623 53.4818 17.533 52.6711 17.8743 51.7965C18.2156 50.9218 18.685 50.0578 19.2823 49.2045C19.8796 48.3511 20.5623 47.5831 21.3303 46.9005C22.0983 46.1965 22.9196 45.6311 23.7943 45.2045C24.669 44.7778 25.5436 44.5645 26.4183 44.5645C27.3356 44.5645 28.1143 44.7991 28.7543 45.2685C29.3943 45.7378 29.7143 46.3565 29.7143 47.1245C29.7143 47.7005 29.5116 48.1165 29.1063 48.3725C28.701 48.6285 28.221 48.7031 27.6663 48.5965C27.709 48.4045 27.741 48.2125 27.7623 48.0205C27.805 47.8285 27.8263 47.6258 27.8263 47.4125C27.8263 46.9858 27.741 46.6018 27.5703 46.2605C27.3996 45.9191 27.037 45.7485 26.4823 45.7485C25.885 45.7485 25.277 45.9511 24.6583 46.3565C24.0396 46.7618 23.4423 47.2951 22.8663 47.9565C22.3116 48.5965 21.8103 49.3111 21.3623 50.1005C20.9143 50.8685 20.5623 51.6258 20.3063 52.3725C20.0503 53.1191 19.9223 53.7911 19.9223 54.3885C19.9223 55.0711 20.1676 55.4125 20.6583 55.4125C21.149 55.4125 21.693 55.1778 22.2903 54.7085C22.8876 54.2178 23.485 53.6098 24.0823 52.8845C24.701 52.1591 25.2876 51.4231 25.8423 50.6765C26.397 49.9085 26.877 49.2578 27.2823 48.7245C27.3463 48.6178 27.4316 48.5645 27.5383 48.5645C27.6236 48.5858 27.7836 48.6391 28.0183 48.7245C28.2743 48.7885 28.509 48.8951 28.7223 49.0445C28.9356 49.1938 29.0423 49.3858 29.0423 49.6205C29.0423 49.8338 28.9463 50.1111 28.7543 50.4525C28.5836 50.7725 28.3703 51.1351 28.1143 51.5405C27.8796 51.9245 27.6663 52.3191 27.4743 52.7245C27.3036 53.1085 27.2183 53.4818 27.2183 53.8445C27.2183 54.1218 27.293 54.3885 27.4423 54.6445C27.5916 54.8791 27.837 54.9965 28.1783 54.9965C28.6903 54.9965 29.405 54.6231 30.3223 53.8765C31.261 53.1085 32.2103 51.8178 33.1703 50.0045L33.7783 50.6125C33.2663 51.7645 32.6476 52.7885 31.9223 53.6845C31.2183 54.5591 30.4716 55.2418 29.6823 55.7325C28.893 56.2445 28.093 56.5005 27.2823 56.5005C26.4076 56.5005 25.757 56.2231 25.3303 55.6685C24.9036 55.1138 24.669 54.5165 24.6263 53.8765C24.6263 53.8338 24.6263 53.8018 24.6263 53.7805C24.6263 53.7591 24.6263 53.7378 24.6263 53.7165C23.773 54.7405 22.9836 55.5511 22.2583 56.1485C21.5543 56.7458 20.797 57.0445 19.9863 57.0445Z" fill="white"/>
<path d="M7.092 58.3233C5.89733 58.3233 4.79867 58.0033 3.796 57.3633C2.79333 56.7446 1.99333 55.8379 1.396 54.6433C0.798667 53.4273 0.5 51.9766 0.5 50.2913C0.5 48.6486 0.756 46.9846 1.268 45.2992C1.78 43.6139 2.484 42.0139 3.38 40.4993C4.276 38.9632 5.3 37.5979 6.452 36.4032C7.604 35.2086 8.82 34.2699 10.1 33.5872C11.4013 32.8832 12.7027 32.5312 14.004 32.5312C14.9427 32.5312 15.6893 32.7126 16.244 33.0753C16.7987 33.4166 17.1933 33.8752 17.428 34.4513C17.684 35.0273 17.812 35.6459 17.812 36.3073C17.812 37.0539 17.6733 37.8006 17.396 38.5473C17.14 39.2939 16.7773 39.9126 16.308 40.4033C15.86 40.8939 15.3587 41.1393 14.804 41.1393C14.548 41.1393 14.3133 41.0646 14.1 40.9153C13.8867 40.7659 13.6733 40.4886 13.46 40.0833C13.78 39.8699 14.132 39.4966 14.516 38.9633C14.9213 38.4299 15.2733 37.8433 15.572 37.2033C15.8707 36.5419 16.02 35.9553 16.02 35.4433C16.02 35.0166 15.8813 34.6646 15.604 34.3873C15.348 34.0886 14.9107 33.9393 14.292 33.9393C13.332 33.9393 12.34 34.3019 11.316 35.0273C10.3133 35.7313 9.35333 36.6806 8.436 37.8752C7.51867 39.0486 6.68667 40.3713 5.94 41.8433C5.21467 43.2939 4.63867 44.7873 4.212 46.3233C3.78533 47.8379 3.572 49.2779 3.572 50.6433C3.572 52.5846 3.988 54.0993 4.82 55.1873C5.67333 56.2539 6.68667 56.7873 7.86 56.7873C8.73467 56.7873 9.53467 56.5099 10.26 55.9553C11.0067 55.4006 11.6573 54.6753 12.212 53.7793C12.788 52.8619 13.2467 51.8699 13.588 50.8033C13.9293 49.7366 14.1427 48.6913 14.228 47.6673C13.6947 47.5606 13.14 47.4859 12.564 47.4433C12.0093 47.3793 11.4227 47.3472 10.804 47.3472C10.4627 47.3472 10.1213 47.3579 9.78 47.3793C9.43867 47.3793 9.076 47.3899 8.692 47.4113C8.884 46.6646 9.18267 46.1206 9.588 45.7793C10.0147 45.4166 10.5693 45.2353 11.252 45.2353C11.892 45.2353 12.532 45.3419 13.172 45.5553C13.8333 45.7473 14.4947 45.9606 15.156 46.1952C15.8387 46.4299 16.5 46.6219 17.14 46.7712L16.82 47.7633C16.436 48.9366 16.116 49.9179 15.86 50.7073C15.6253 51.4753 15.444 52.1366 15.316 52.6913C15.188 53.2246 15.1027 53.7153 15.06 54.1633C15.0173 54.5899 14.996 55.0379 14.996 55.5073C14.996 55.9339 15.0067 56.3713 15.028 56.8193C15.0493 57.2886 15.0707 57.8539 15.092 58.5153C14.452 58.4299 13.972 58.2379 13.652 57.9393C13.3533 57.6619 13.1507 57.3313 13.044 56.9473C12.9587 56.5633 12.916 56.1899 12.916 55.8273C12.916 55.7206 12.916 55.6139 12.916 55.5073C12.916 55.4006 12.9267 55.2939 12.948 55.1873C12.2013 56.1046 11.3373 56.8513 10.356 57.4273C9.396 58.0246 8.308 58.3233 7.092 58.3233Z" fill="white"/>
<path fill-rule="evenodd" clip-rule="evenodd" d="M70.1649 53.5543C70.2455 53.9074 70.3785 54.2285 70.5715 54.5107L70.5801 54.5233L70.5895 54.5353C70.9393 54.9851 71.3726 55.319 71.8865 55.5246L71.8967 55.5287L71.907 55.5323C72.3776 55.697 72.839 55.7843 73.2882 55.7843C74.3485 55.7843 75.2997 55.3724 76.1272 54.5921C76.3401 54.3914 76.5495 54.1824 76.7552 53.9654C76.721 54.0771 76.6861 54.1899 76.6507 54.3038L76.6487 54.3107C76.4013 55.1479 76.1727 55.8511 75.963 56.4225C75.3343 56.7182 74.6792 57.0316 73.9977 57.3626L73.9899 57.3664L73.9822 57.3705C73.2396 57.7636 72.5392 58.1903 71.8815 58.6507L71.8725 58.6571C71.2007 59.1498 70.6413 59.6839 70.2021 60.2618L70.1965 60.2693C69.729 60.9091 69.4922 61.6309 69.4922 62.4203C69.4922 63.25 69.7537 63.9515 70.3718 64.394C70.9182 64.7909 71.5204 65.0003 72.1682 65.0003C73.1729 65.0003 74.0896 64.5818 74.9085 63.8107C75.7029 63.0836 76.4361 62.1112 77.114 60.9089C77.7778 59.7677 78.3906 58.53 78.9528 57.1965C79.7523 56.8342 80.5396 56.3872 81.3145 55.857C82.1654 55.2748 82.9253 54.5705 83.5941 53.7463C84.3011 52.9015 84.8216 51.9129 85.1591 50.788L85.2546 50.4697L83.918 49.369L83.6693 50.0173C83.0934 51.5189 82.345 52.648 81.4407 53.4345C80.9029 53.9006 80.3814 54.2854 79.8765 54.5922C80.1638 53.7614 80.4314 52.9304 80.6793 52.0992C81.0435 50.8782 81.3341 49.8025 81.5503 48.8733C81.7817 47.9475 81.9162 47.2597 81.9162 46.8683V46.4584L81.5142 46.3781C81.2954 46.3343 81.1044 46.3004 80.9429 46.2774C80.7673 46.2523 80.5835 46.2403 80.3922 46.2403C79.7932 46.2403 79.2648 46.4271 78.8738 46.8481L78.867 46.8554L78.8606 46.8629C78.5614 47.2119 78.3453 47.6035 78.2178 48.035C78.1041 48.3993 78.0232 48.7565 77.9766 49.1063C77.9414 49.3702 77.9084 49.5564 77.8798 49.6761C77.5176 50.2532 77.1065 50.8222 76.6458 51.383L76.639 51.3914C76.1918 51.9607 75.7315 52.4189 75.2602 52.7723L75.252 52.7786C74.8205 53.1163 74.446 53.2483 74.1202 53.2483C73.8722 53.2483 73.8346 53.1782 73.8239 53.1583L73.8231 53.1569C73.7424 53.0089 73.6922 52.8171 73.6922 52.5643C73.6922 52.2106 73.7481 51.773 73.8694 51.2456C74.014 50.7094 74.1898 50.1616 74.3971 49.602L74.3991 49.5965C74.607 49.0144 74.8233 48.5 75.0474 48.052L75.0513 48.0441C75.2801 47.5656 75.4769 47.226 75.6402 47.0083L75.7974 46.7988L75.7145 46.5502C75.6044 46.2198 75.3637 45.9703 75.0741 45.7831C74.8121 45.5943 74.5338 45.4475 74.2396 45.3465C73.9995 45.2391 73.7452 45.1523 73.5122 45.1523C73.2152 45.1523 72.9642 45.2989 72.7708 45.4647C72.5739 45.6335 72.3856 45.8654 72.203 46.1387C71.8362 46.6668 71.4906 47.3289 71.1627 48.116L71.16 48.1226C70.8539 48.8877 70.5918 49.6741 70.3735 50.4819L70.3704 50.4942C70.2431 51.0172 70.1544 51.4996 70.1074 51.9393C70.2081 51.8181 70.3054 51.6958 70.3992 51.5723C70.5271 51.3973 70.6455 51.2275 70.7543 51.063C70.7846 50.9173 70.8186 50.7671 70.8562 50.6123C71.0695 49.823 71.3255 49.055 71.6242 48.3083C71.9442 47.5403 72.2749 46.911 72.6162 46.4203C72.9575 45.9083 73.2562 45.6523 73.5122 45.6523C73.6402 45.6523 73.8215 45.7057 74.0562 45.8123C74.3122 45.8977 74.5575 46.0257 74.7922 46.1963C75.0269 46.3457 75.1762 46.5163 75.2402 46.7083C75.0482 46.9643 74.8349 47.3377 74.6002 47.8283C74.3655 48.2977 74.1415 48.831 73.9282 49.4283C73.7149 50.0043 73.5335 50.5697 73.3842 51.1243C73.2562 51.679 73.1922 52.159 73.1922 52.5643C73.1922 52.8843 73.2562 53.1617 73.3842 53.3963C73.5122 53.631 73.7575 53.7483 74.1202 53.7483C74.5895 53.7483 75.0695 53.5563 75.5602 53.1723C76.0722 52.7883 76.5629 52.2977 77.0322 51.7003C77.5229 51.103 77.9602 50.495 78.3442 49.8763C78.3869 49.727 78.4295 49.4923 78.4722 49.1723C78.5149 48.8523 78.5895 48.5217 78.6962 48.1803C78.8029 47.8177 78.9842 47.487 79.2402 47.1883C79.5175 46.8897 79.9015 46.7403 80.3922 46.7403C80.5629 46.7403 80.7229 46.751 80.8722 46.7723C81.0215 46.7937 81.2029 46.8257 81.4162 46.8683C81.4162 47.1883 81.2989 47.8177 81.0642 48.7563C80.8509 49.6737 80.5629 50.7403 80.2002 51.9563C79.9024 52.9548 79.5759 53.9532 79.2205 54.9517C79.1431 55.1692 79.0643 55.3868 78.9842 55.6043C79.1957 55.5187 79.409 55.4201 79.624 55.3083C80.3201 54.9466 81.0348 54.448 81.7682 53.8123C82.6451 53.0498 83.3687 52.0063 83.9389 50.6816C84.0069 50.5239 84.0726 50.3621 84.1362 50.1963L84.6802 50.6443C84.3602 51.711 83.8695 52.639 83.2082 53.4283C82.5682 54.2177 81.8429 54.8897 81.0322 55.4443C80.2215 55.999 79.4002 56.4577 78.5682 56.8203C77.9922 58.207 77.3629 59.487 76.6802 60.6603C76.0189 61.8337 75.3149 62.7617 74.5682 63.4443C73.8215 64.1483 73.0215 64.5003 72.1682 64.5003C71.6349 64.5003 71.1335 64.3297 70.6642 63.9883C70.2162 63.6683 69.9922 63.1457 69.9922 62.4203C69.9922 61.7377 70.1949 61.119 70.6002 60.5643C71.0055 60.031 71.5282 59.5297 72.1682 59.0603C72.8082 58.6123 73.4909 58.1963 74.2162 57.8123C74.9629 57.4497 75.6775 57.1083 76.3602 56.7883C76.5949 56.1697 76.8509 55.391 77.1282 54.4523C77.2769 53.9744 77.415 53.515 77.5425 53.0741C77.6712 52.6294 77.7891 52.2034 77.8962 51.7963C77.6345 52.1594 77.3661 52.5057 77.091 52.8353C76.671 53.3386 76.2354 53.8029 75.7842 54.2283C75.0375 54.9323 74.2055 55.2843 73.2882 55.2843C72.9042 55.2843 72.4989 55.2097 72.0722 55.0603C71.6455 54.8897 71.2829 54.6123 70.9842 54.2283C70.7698 53.915 70.6383 53.5252 70.5896 53.0589C70.5071 53.1609 70.4223 53.2627 70.3352 53.3643C70.2789 53.4285 70.2221 53.4918 70.1649 53.5543ZM73.5442 62.0363C72.8189 62.8897 72.2535 63.3163 71.8482 63.3163C71.6349 63.3163 71.4749 63.2203 71.3682 63.0283C71.2829 62.8363 71.2402 62.6337 71.2402 62.4203C71.2402 61.887 71.4749 61.3643 71.9442 60.8523C72.4135 60.3403 72.9895 59.8497 73.6722 59.3803C74.1308 59.0885 74.585 58.8192 75.0346 58.5727C75.2751 58.4407 75.5143 58.3153 75.7522 58.1963C75.6405 58.4515 75.5291 58.6972 75.418 58.9333C74.7857 60.2763 74.1611 61.3106 73.5442 62.0363ZM74.6491 59.3675C74.1391 60.3698 73.6429 61.1482 73.1632 61.7125C72.8123 62.1254 72.5166 62.4149 72.275 62.5973C72.0212 62.7888 71.887 62.8163 71.8482 62.8163C71.8361 62.8163 71.8287 62.8153 71.8251 62.8146C71.8231 62.8125 71.8195 62.8083 71.8147 62.8012C71.7651 62.6813 71.7402 62.5557 71.7402 62.4203C71.7402 62.0462 71.9017 61.6387 72.3128 61.1902C72.7506 60.7126 73.2941 60.2477 73.9482 59.7974C74.1832 59.6479 74.4169 59.5046 74.6491 59.3675Z" fill="white"/>
<path fill-rule="evenodd" clip-rule="evenodd" d="M59.1517 52.7465L59.4604 53.3433L59.9191 52.5608C60.2869 51.9333 60.7599 51.0732 61.3369 49.9833C61.8507 49.0289 62.3179 48.0512 62.7383 47.0503C62.9241 47.1822 63.0949 47.3314 63.251 47.4979L63.2565 47.5038L63.2622 47.5095C63.48 47.7273 63.5957 48.0015 63.5957 48.3719C63.5957 48.783 63.4661 49.2933 63.1657 49.9141L63.16 49.9261C62.8606 50.5893 62.5611 51.2631 62.2617 51.9475C61.942 52.6782 61.7717 53.3868 61.7717 54.0679C61.7717 54.9009 62.0689 55.6024 62.6843 56.1133C63.2837 56.6323 64.0471 56.8719 64.9277 56.8719C65.9888 56.8719 67.0251 56.5643 68.0301 55.9704L68.0372 55.9661C69.021 55.3624 69.9123 54.604 70.7115 53.6938L70.7154 53.6893C70.7169 53.6876 70.7183 53.6858 70.7198 53.6841C70.657 53.4936 70.6138 53.2851 70.5902 53.0585C70.5077 53.1604 70.4229 53.2623 70.3357 53.3639C69.5677 54.2386 68.7144 54.9639 67.7757 55.5399C66.8371 56.0946 65.8877 56.3719 64.9277 56.3719C64.1384 56.3719 63.4984 56.1586 63.0077 55.7319C62.5171 55.3266 62.2717 54.7719 62.2717 54.0679C62.2717 53.4706 62.4211 52.8306 62.7197 52.1479C63.0184 51.4653 63.3171 50.7933 63.6157 50.1319C63.9357 49.4706 64.0957 48.8839 64.0957 48.3719C64.0957 47.8813 63.9357 47.4759 63.6157 47.1559C63.4101 46.9366 63.1825 46.7437 62.9328 46.5772C62.794 46.4846 62.6483 46.4002 62.4957 46.3239C62.4336 46.4793 62.3703 46.634 62.306 46.7883C61.8841 47.7989 61.414 48.7855 60.8957 49.7479C60.4657 50.5602 60.0951 51.2417 59.784 51.7924C59.6784 51.9793 59.5796 52.1511 59.4877 52.3079L59.4738 52.281C59.4708 52.2855 59.4679 52.29 59.4649 52.2945C59.4564 52.3073 59.448 52.3201 59.4395 52.3329C59.3462 52.4732 59.2503 52.6111 59.1517 52.7465ZM70.7549 51.0626C70.6461 51.2271 70.5277 51.3968 70.3997 51.5719C69.9944 52.1053 69.5251 52.6173 68.9917 53.1079C68.4584 53.5986 67.9144 54.0039 67.3597 54.3239C66.8051 54.6226 66.2717 54.7719 65.7597 54.7719C65.5464 54.7719 65.3544 54.7293 65.1837 54.6439C65.0344 54.5373 64.9597 54.3346 64.9597 54.0359C64.9597 53.6306 65.0984 53.1506 65.3757 52.5959C65.6531 52.0413 65.9304 51.4439 66.2077 50.8039C66.4851 50.1639 66.6237 49.5346 66.6237 48.9159C66.6237 48.2333 66.4531 47.6679 66.1117 47.2199C65.7704 46.7719 65.3757 46.3986 64.9277 46.0999C64.4797 45.8013 64.0744 45.5453 63.7117 45.3319C63.3704 45.0973 63.1891 44.8626 63.1677 44.6279C63.2104 44.4999 63.2744 44.2973 63.3597 44.0199C63.4664 43.7426 63.5197 43.5506 63.5197 43.4439C63.5197 43.3373 63.4557 43.1453 63.3277 42.8679C63.2211 42.5693 63.0397 42.4199 62.7837 42.4199C62.4637 42.4199 62.1331 42.6653 61.7917 43.1559C61.4504 43.6466 61.2797 44.1693 61.2797 44.7239C61.2797 45.0866 61.3864 45.3746 61.5997 45.5879C61.1517 46.8466 60.6824 47.9879 60.1917 49.0119C59.7815 49.8681 59.4384 50.5602 59.1624 51.0882C59.1014 51.1806 59.0391 51.272 58.9755 51.3625C58.9629 51.3805 58.9502 51.3984 58.9375 51.4162C58.847 51.5435 58.754 51.669 58.6584 51.7928L58.4424 51.3752L58.5675 51.1429C58.8606 50.5985 59.2513 49.8174 59.7408 48.7959C60.1891 47.8603 60.6209 46.8216 61.0357 45.679C60.8589 45.4003 60.7797 45.0737 60.7797 44.7239C60.7797 44.0591 60.9864 43.438 61.3813 42.8704C61.7389 42.3563 62.2003 41.9199 62.7837 41.9199C63.0166 41.9199 63.2412 41.9908 63.4296 42.146C63.6038 42.2894 63.7167 42.4797 63.7904 42.6774C63.8548 42.8179 63.9078 42.9471 63.9461 43.0618C63.9827 43.1717 64.0197 43.3082 64.0197 43.4439C64.0197 43.566 63.9917 43.6929 63.9615 43.8017C63.9302 43.9144 63.8864 44.0424 63.8326 44.1832C63.7762 44.3664 63.7287 44.5183 63.6903 44.6381C63.7237 44.6922 63.8014 44.7848 63.9813 44.9104C64.3497 45.1276 64.7578 45.3857 65.2051 45.6839C65.7013 46.0147 66.1361 46.4269 66.5095 46.9169C66.9303 47.4692 67.1237 48.1476 67.1237 48.9159C67.1237 49.6112 66.9676 50.308 66.6665 51.0027C66.386 51.6501 66.1048 52.2558 65.823 52.8195C65.5636 53.3382 65.4597 53.7385 65.4597 54.0359C65.4597 54.1349 65.4711 54.1953 65.4812 54.2281C65.5595 54.2559 65.6509 54.2719 65.7597 54.2719C66.1702 54.2719 66.6204 54.1531 67.1163 53.8871C67.6331 53.5883 68.1456 53.207 68.6532 52.74C69.1653 52.2688 69.6134 51.7798 69.9988 51.2731C70.3908 50.7363 70.6808 50.2635 70.8763 49.853L71.139 49.3014L71.2329 49.3718C71.1699 49.5587 71.1093 49.7469 71.0513 49.9363C70.9829 50.1597 70.9181 50.385 70.8567 50.6119C70.8191 50.7667 70.7851 50.9169 70.7549 51.0626Z" fill="white"/>
<path fill-rule="evenodd" clip-rule="evenodd" d="M47.2196 54.3469C47.4093 55.0411 47.7654 55.6561 48.2911 56.1818C49.1568 57.0475 50.3553 57.4483 51.8126 57.4483C53.0443 57.4483 54.2388 57.1626 55.3912 56.598C56.5586 56.0364 57.6097 55.2524 58.5442 54.2515C59.502 53.2487 60.2791 52.0813 60.8766 50.7535L61.0357 50.4L60.6939 50.1266C60.6501 50.2087 60.6069 50.2893 60.5645 50.3685C60.5287 50.4352 60.4934 50.5008 60.4586 50.5654C60.0772 51.2729 59.7533 51.8539 59.4869 52.3083L59.4729 52.2813C59.0883 52.8669 58.6575 53.4092 58.1806 53.9083C57.2846 54.8683 56.282 55.615 55.1726 56.1483C54.0846 56.6816 52.9646 56.9483 51.8126 56.9483C50.4473 56.9483 49.3913 56.5749 48.6446 55.8283C48.0952 55.2788 47.7539 54.6192 47.6206 53.8494C47.4884 54.0219 47.3547 54.1877 47.2196 54.3469ZM59.5519 50.3222C59.6035 50.2188 59.6567 50.1115 59.7115 50.0003C59.7858 49.8494 59.863 49.6913 59.9432 49.526L59.6181 49.2659L59.3372 49.8053C58.8265 50.7858 58.1834 51.6741 57.4065 52.4714L57.4019 52.4762C56.6447 53.2743 55.8315 53.9136 54.9628 54.3987C54.1306 54.8541 53.317 55.0723 52.5166 55.0723C51.9706 55.0723 51.6059 54.9734 51.3736 54.8283C51.0942 54.6536 50.9203 54.4616 50.8199 54.2607C50.6914 54.0037 50.6157 53.7811 50.5814 53.5905C50.5612 53.3256 50.5526 53.1589 50.5526 53.0763V52.7896C51.4235 52.6655 52.2846 52.4476 53.1355 52.1382L53.1413 52.136C54.1381 51.7595 55.0504 51.2816 55.8761 50.7014C56.709 50.1161 57.3845 49.4438 57.8927 48.6816C58.4142 47.8993 58.6806 47.0461 58.6806 46.1323C58.6806 45.1952 58.3962 44.407 57.6623 44.0029C57.0991 43.6625 56.4904 43.4883 55.8446 43.4883C54.761 43.4883 53.6932 43.8073 52.6475 44.4211C51.6157 45.0267 50.6788 45.8199 49.8361 46.7953C48.9953 47.7471 48.318 48.7792 47.8064 49.8913L47.8045 49.8955C47.3125 50.9913 47.0566 52.0532 47.0566 53.0763C47.0566 53.0794 47.0567 53.0826 47.0567 53.0858C47.0591 53.0826 47.0615 53.0794 47.0639 53.0763C47.2398 52.846 47.4122 52.6007 47.5811 52.3403C47.5904 52.326 47.5997 52.3117 47.6089 52.2974C47.7019 51.5933 47.9191 50.8609 48.2606 50.1003C48.7513 49.0336 49.402 48.0416 50.2126 47.1243C51.0233 46.1856 51.9193 45.4283 52.9006 44.8523C53.882 44.2763 54.8633 43.9883 55.8446 43.9883C56.3993 43.9883 56.922 44.1376 57.4126 44.4363C57.9246 44.7136 58.1806 45.2789 58.1806 46.1323C58.1806 46.9429 57.946 47.7003 57.4766 48.4043C57.0073 49.1083 56.378 49.7376 55.5886 50.2923C54.7993 50.847 53.9246 51.3056 52.9646 51.6683C52.026 52.0096 51.0766 52.2336 50.1166 52.3403C50.0953 52.4256 50.074 52.5216 50.0526 52.6283V53.0763C50.0526 53.1829 50.0633 53.375 50.0846 53.6523C50.1273 53.9083 50.2233 54.1856 50.3726 54.4843C50.522 54.7829 50.7673 55.0389 51.1086 55.2523C51.45 55.4656 51.9193 55.5723 52.5166 55.5723C53.4126 55.5723 54.3086 55.327 55.2046 54.8363C56.122 54.3243 56.9753 53.6523 57.7646 52.8203C58.2881 52.2831 58.7537 51.7058 59.1615 51.0886C59.2623 50.8958 59.372 50.6811 59.4907 50.4446C59.5108 50.4044 59.5312 50.3636 59.5519 50.3222ZM51.0416 51.0504C50.8436 51.0998 50.6526 51.1351 50.4686 51.1563C50.5319 50.9779 50.6014 50.7987 50.6772 50.6188C50.8821 50.1317 51.1326 49.6388 51.4286 49.1403C51.834 48.4576 52.2926 47.8389 52.8046 47.2843C53.3166 46.7083 53.8393 46.2496 54.3726 45.9083C54.906 45.5456 55.418 45.3643 55.9086 45.3643C56.1006 45.3643 56.2393 45.4069 56.3246 45.4923C56.41 45.5776 56.4526 45.7376 56.4526 45.9723C56.4526 46.5696 56.25 47.1669 55.8446 47.7643C55.4393 48.3403 54.9166 48.8736 54.2766 49.3643C53.658 49.8549 53.0073 50.2603 52.3246 50.5803C51.8684 50.7942 51.4407 50.9508 51.0416 51.0504ZM51.2961 50.4561C51.5519 50.3718 51.8238 50.2628 52.1124 50.1276C52.7584 49.8248 53.3762 49.4403 53.9659 48.9725L53.9724 48.9674C54.5765 48.5043 55.0613 48.0078 55.4332 47.4801C55.7926 46.9494 55.9526 46.4492 55.9526 45.9723C55.9526 45.9278 55.9506 45.8926 55.9477 45.8654C55.9364 45.8647 55.9234 45.8643 55.9086 45.8643C55.5454 45.8643 55.1299 45.998 54.6538 46.3217L54.6423 46.3296C54.1549 46.6415 53.6662 47.0676 53.1783 47.6165L53.1721 47.6235C52.685 48.1512 52.247 48.7414 51.8586 49.3956C51.6459 49.7537 51.4586 50.1072 51.2961 50.4561Z" fill="white"/>
<path fill-rule="evenodd" clip-rule="evenodd" d="M32.7735 55.7974C32.3343 55.1785 32.0857 54.4325 32.0059 53.5799C32.1675 53.3758 32.3237 53.1651 32.4744 52.948C32.4754 52.9466 32.4763 52.9452 32.4773 52.9439C32.4773 52.9452 32.4773 52.9466 32.4773 52.948C32.4773 53.9933 32.712 54.8467 33.1813 55.508C33.672 56.1693 34.4186 56.5 35.4213 56.5C36.36 56.5 37.2346 56.1907 38.0453 55.572C38.705 55.0984 39.3312 54.4705 39.9238 53.6884C40.0786 53.4841 40.2311 53.2693 40.3813 53.044C40.387 53.3176 40.4087 53.5776 40.4464 53.8238C40.5497 54.499 40.7734 55.071 41.1173 55.54C41.5866 56.18 42.312 56.5 43.2933 56.5C44.552 56.5 45.704 55.956 46.7493 54.868C47.0464 54.559 47.3369 54.2194 47.6208 53.8491C47.6573 54.0603 47.7095 54.2631 47.7774 54.4577C47.5592 54.7262 47.3366 54.9786 47.1097 55.2146C47.1097 55.2146 47.1097 55.2145 47.1097 55.2146M48.6845 49.2679C48.601 49.417 48.5208 49.5676 48.444 49.7198L48.6534 49.2517L48.6845 49.2679ZM48.1887 50.2645C47.8906 50.8707 47.5485 51.4718 47.1618 52.0679C46.6703 52.8257 46.1558 53.4387 45.6212 53.9147C45.1043 54.354 44.651 54.528 44.2533 54.528C44.1122 54.528 44.0126 54.497 43.937 54.4516C43.8607 54.4056 43.7811 54.3281 43.7066 54.1937C43.5493 53.9097 43.4413 53.4195 43.4413 52.66C43.4413 52.2573 43.4716 51.7864 43.534 51.2453C43.5888 50.7705 43.6594 50.3218 43.7455 49.8989C44.9363 48.9408 46.0054 47.851 46.9523 46.6305C47.9282 45.3727 48.755 44.1006 49.4312 42.8139C50.1228 41.517 50.6574 40.3189 51.0307 39.221L51.0316 39.2181C51.4007 38.1108 51.6013 37.1765 51.6013 36.436C51.6013 36.0005 51.5294 35.5599 51.3906 35.1159C51.2732 34.6529 51.0933 34.2448 50.8382 33.9076C50.5836 33.5208 50.213 33.248 49.7253 33.248C49.4278 33.248 49.1415 33.3622 48.881 33.5211C48.6166 33.6823 48.3426 33.9116 48.0597 34.1944C47.517 34.7372 46.932 35.4796 46.3044 36.41C45.6746 37.3223 45.037 38.3711 44.3913 39.5548C43.7444 40.7194 43.1304 41.9474 42.5493 43.2388L42.5477 43.2424C41.9874 44.514 41.4913 45.7864 41.0598 47.0595C40.636 48.3095 40.3142 49.482 40.096 50.5763C39.7313 51.2987 39.3284 51.9702 38.8878 52.5915C38.4406 53.2008 37.9812 53.6875 37.5121 54.0591C37.081 54.3962 36.7069 54.528 36.3813 54.528C36.0832 54.528 35.9055 54.4231 35.7736 54.2116C35.6173 53.9607 35.5053 53.5203 35.5053 52.82C35.5053 52.4188 35.5353 51.9393 35.5974 51.379C35.6718 50.8582 35.7462 50.3622 35.8205 49.8909C36.773 49.1276 37.6638 48.2476 38.4934 47.2521C38.4932 47.2523 38.493 47.2526 38.4928 47.2529L38.1093 46.932L38.4934 47.2521C39.3821 46.1899 40.1848 45.0836 40.9011 43.9334C41.6348 42.768 42.2628 41.6317 42.784 40.5245C43.3241 39.4223 43.7394 38.408 44.0259 37.4832C44.3299 36.5486 44.4973 35.7554 44.4973 35.124C44.4973 34.706 44.4242 34.2749 44.2857 33.833C44.1686 33.3924 44.0008 33.0011 43.7732 32.6703C43.5184 32.2778 43.1454 32 42.6533 32C42.307 32 41.9727 32.1514 41.6681 32.3585C41.357 32.5701 41.0287 32.8729 40.6838 33.2511C40.0173 33.9842 39.2957 34.9706 38.5196 36.1993C37.7426 37.4081 36.9675 38.7542 36.194 40.2367L36.1914 40.2418C35.439 41.725 34.7405 43.2403 34.0957 44.7877L34.0935 44.7932C33.4688 46.3441 32.9611 47.8233 32.5714 49.2306C32.301 50.2072 32.1205 51.1022 32.0349 51.9126C32.2562 51.5871 32.4782 51.2333 32.7007 50.8512C32.7909 50.3828 32.9084 49.887 33.0533 49.364C33.4373 47.9773 33.9386 46.516 34.5573 44.98C35.1973 43.444 35.8906 41.94 36.6373 40.468C37.4053 38.996 38.1733 37.6627 38.9413 36.468C39.7093 35.252 40.4133 34.292 41.0533 33.588C41.7146 32.8627 42.248 32.5 42.6533 32.5C42.9306 32.5 43.1653 32.6493 43.3573 32.948C43.5493 33.2253 43.6986 33.5667 43.8053 33.972C43.9333 34.3773 43.9973 34.7613 43.9973 35.124C43.9973 35.6787 43.8479 36.4147 43.5493 37.332C43.2719 38.228 42.8666 39.22 42.3333 40.308C41.8213 41.396 41.2026 42.516 40.4773 43.668C39.7733 44.7987 38.984 45.8867 38.1093 46.932M37.9493 45.364C37.5685 45.897 37.1765 46.4036 36.7731 46.8838C36.9506 46.3742 37.1407 45.8623 37.3434 45.3481C37.0141 45.7963 36.6768 46.2242 36.3315 46.6319C36.598 45.8725 36.8919 45.1085 37.2133 44.34L37.6729 44.537C37.6732 44.5362 37.6735 44.5354 37.6738 44.5347C37.6741 44.5341 37.6743 44.5335 37.6746 44.5329L37.2133 44.34C37.7253 43.1453 38.248 42.0253 38.7813 40.98L39.2249 41.2107C39.2252 41.2101 39.2255 41.2095 39.2258 41.2089C39.2261 41.2083 39.2264 41.2078 39.2267 41.2072L38.7813 40.98C39.336 39.9133 39.8586 38.964 40.3493 38.132L40.7751 38.394C40.776 38.3927 40.7768 38.3913 40.7776 38.39C40.7784 38.3886 40.7792 38.3873 40.78 38.386L40.3493 38.132C40.8613 37.3 41.3093 36.6493 41.6933 36.18C41.8293 36.0061 41.9507 35.8631 42.0573 35.7508V35.828C42.0573 35.9826 42.0352 36.1757 41.9873 36.4101C41.9867 36.4131 41.9861 36.416 41.9854 36.419C41.9674 36.5063 41.9459 36.5991 41.9205 36.6978C41.9752 36.627 42.0285 36.5599 42.0803 36.4966L42.087 36.4882C42.2724 36.2513 42.4157 36.0917 42.5198 35.996C42.5321 35.9847 42.5432 35.9749 42.5531 35.9664C42.5302 36.3565 42.4143 36.865 42.2053 37.492C41.9706 38.196 41.6399 38.9853 41.2133 39.86C40.808 40.7347 40.3279 41.6413 39.7733 42.58C39.2186 43.5187 38.6106 44.4467 37.9493 45.364ZM42.5546 35.9386C42.5564 35.9006 42.5573 35.8637 42.5573 35.828V35.572C42.5573 35.508 42.5359 35.4653 42.4933 35.444C42.431 35.444 42.3483 35.4867 42.2452 35.572C42.1987 35.6105 42.148 35.6578 42.0931 35.7137C42.0934 35.7143 42.0938 35.715 42.0941 35.7156C42.1152 35.7578 42.144 35.796 42.1786 35.828C42.2058 35.8532 42.2365 35.8746 42.2697 35.8912L42.4933 35.444V35.944C42.5168 35.944 42.5373 35.9418 42.5546 35.9386ZM47.609 52.2971C47.6953 51.6439 47.8885 50.9663 48.1887 50.2645ZM47.609 52.2971C47.5998 52.3114 47.5906 52.3257 47.5813 52.34C47.0693 53.1293 46.5253 53.78 45.9493 54.292C45.3733 54.7827 44.808 55.028 44.2533 55.028C43.3786 55.028 42.9413 54.2387 42.9413 52.66C42.9413 52.2333 42.9733 51.7427 43.0373 51.188C43.1013 50.6333 43.1866 50.1107 43.2933 49.62C44.5093 48.66 45.5973 47.5613 46.5573 46.324C47.5173 45.0867 48.3279 43.8387 48.9893 42.58C49.672 41.3 50.1946 40.1267 50.5573 39.06C50.92 37.972 51.1013 37.0973 51.1013 36.436C51.1013 36.052 51.0373 35.6573 50.9093 35.252C50.8026 34.8253 50.6426 34.4733 50.4293 34.196C50.2373 33.8973 50.0026 33.748 49.7253 33.748C49.384 33.748 48.9466 34.0147 48.4133 34.548C47.9013 35.06 47.336 35.7747 46.7173 36.692C46.0986 37.588 45.4693 38.6227 44.8293 39.796C44.1893 40.948 43.5813 42.164 43.0053 43.444C42.4506 44.7027 41.96 45.9613 41.5333 47.22C41.1066 48.4787 40.7866 49.652 40.5733 50.74C40.1893 51.508 39.7626 52.2227 39.2933 52.884C38.824 53.524 38.3333 54.0467 37.8213 54.452C37.3306 54.836 36.8506 55.028 36.3813 55.028C35.464 55.028 35.0053 54.292 35.0053 52.82C35.0053 52.3933 35.0373 51.892 35.1013 51.316C35.1866 50.7187 35.2719 50.1533 35.3573 49.62M47.1097 55.2146C45.9903 56.3796 44.7146 57 43.2933 57C42.1948 57 41.3 56.6347 40.7141 55.8357C40.3972 55.4035 40.1752 54.9052 40.0403 54.3484C39.5067 54.9997 38.9414 55.5432 38.3428 55.9739C37.4545 56.6501 36.4769 57 35.4213 57C34.2989 57 33.3856 56.6225 32.7797 55.8059L32.7735 55.7974M46.1413 44.98C45.6712 45.6637 45.1679 46.3189 44.6313 46.9455C44.8004 46.4519 44.9775 45.965 45.1626 45.4849C44.8516 45.8988 44.5273 46.3013 44.1896 46.6923C44.5399 45.6775 44.9238 44.6907 45.3413 43.732C45.9173 42.4093 46.4933 41.2253 47.0693 40.18C47.6453 39.1133 48.1573 38.2707 48.6053 37.652L49.0036 37.9542C49.0048 37.9527 49.0059 37.9512 49.007 37.9497C49.0081 37.9482 49.0092 37.9467 49.0103 37.9453L48.6053 37.652C48.8166 37.3735 49.0019 37.1577 49.1613 37.0046V37.1074C49.1613 37.3124 49.1288 37.57 49.0588 37.8821C49.26 37.6221 49.4229 37.4408 49.549 37.3265C49.5955 37.2844 49.6317 37.2562 49.658 37.2381C49.6346 37.7152 49.4864 38.3438 49.2133 39.124C48.936 39.956 48.5306 40.884 47.9973 41.908C47.4853 42.9107 46.8666 43.9347 46.1413 44.98ZM49.6587 37.2224C49.6501 37.2234 49.6403 37.224 49.6293 37.224V36.724C49.6506 36.7667 49.6613 36.82 49.6613 36.884V37.108C49.6613 37.1451 49.6604 37.1832 49.6587 37.2224ZM49.2784 36.8994C49.2848 36.8942 49.2911 36.889 49.2973 36.884C49.4301 36.7773 49.5407 36.724 49.6293 36.724L49.2784 36.8994Z" fill="white"/>
<path fill-rule="evenodd" clip-rule="evenodd" d="M18.1631 56.3395C18.6751 56.8088 19.2831 57.0435 19.9871 57.0435C20.7978 57.0435 21.5551 56.7448 22.2591 56.1475C22.8525 55.6588 23.4887 55.0274 24.1677 54.2532C24.2724 54.1338 24.3781 54.0111 24.4848 53.885C24.4875 53.8818 24.4901 53.8787 24.4928 53.8755C24.5197 53.8437 24.5466 53.8117 24.5736 53.7795C24.5914 53.7582 24.6092 53.7369 24.6271 53.7155V53.8755C24.6389 54.0521 24.6653 54.2255 24.7063 54.3957C24.8139 54.842 25.0222 55.2659 25.3311 55.6675C25.7578 56.2222 26.4084 56.4995 27.2831 56.4995C28.0938 56.4995 28.8938 56.2435 29.6831 55.7315C30.4724 55.2408 31.2191 54.5582 31.9231 53.6835C32.1155 53.4458 32.3004 53.1991 32.4778 52.9434C32.4778 52.9447 32.4778 52.9461 32.4778 52.9475C32.4778 53.2201 32.4938 53.4797 32.5257 53.7263C32.4557 53.8178 32.3845 53.9081 32.3124 53.9973C32.3123 53.9973 32.3125 53.9972 32.3124 53.9973" fill="white"/>
<path fill-rule="evenodd" clip-rule="evenodd" d="M14.5886 58.4176C14.1939 58.3131 13.8817 58.1537 13.652 57.9393C13.3533 57.6619 13.1507 57.3313 13.044 56.9473C12.971 56.6189 12.9293 56.2984 12.9187 55.9857C12.9169 55.9327 12.916 55.8798 12.916 55.8273V55.5073C12.916 55.4006 12.9267 55.2939 12.948 55.1873C12.8592 55.2963 12.7688 55.403 12.6767 55.5073C12.5912 55.604 12.5043 55.6986 12.416 55.7912C11.799 56.4379 11.1124 56.9833 10.356 57.4273C9.396 58.0246 8.308 58.3233 7.092 58.3233C5.89733 58.3233 4.79867 58.0033 3.796 57.3633C2.79333 56.7446 1.99333 55.8379 1.396 54.6433C0.798667 53.4273 0.5 51.9766 0.5 50.2913C0.5 48.6486 0.756 46.9846 1.268 45.2992C1.78 43.6139 2.484 42.0139 3.38 40.4993C4.276 38.9633 5.3 37.5979 6.452 36.4032C7.604 35.2086 8.82 34.2699 10.1 33.5872C11.4013 32.8832 12.7027 32.5312 14.004 32.5312C14.9427 32.5312 15.6893 32.7126 16.244 33.0753C16.7987 33.4166 17.1933 33.8752 17.428 34.4513C17.684 35.0273 17.812 35.6459 17.812 36.3073C17.812 37.0539 17.6733 37.8006 17.396 38.5473C17.14 39.2939 16.7773 39.9126 16.308 40.4033C15.86 40.8939 15.3587 41.1393 14.804 41.1393C14.548 41.1393 14.3133 41.0646 14.1 40.9153C13.8867 40.7659 13.6733 40.4886 13.46 40.0833C13.78 39.8699 14.132 39.4966 14.516 38.9633C14.9213 38.4299 15.2733 37.8433 15.572 37.2033C15.8707 36.5419 16.02 35.9553 16.02 35.4433C16.02 35.0166 15.8813 34.6646 15.604 34.3873C15.348 34.0886 14.9107 33.9393 14.292 33.9393C13.332 33.9393 12.34 34.3019 11.316 35.0273C10.3133 35.7312 9.35333 36.6806 8.436 37.8752C7.51867 39.0486 6.68667 40.3713 5.94 41.8433C5.21467 43.2939 4.63867 44.7873 4.212 46.3233C3.78533 47.8379 3.572 49.2779 3.572 50.6433C3.572 52.5846 3.988 54.0993 4.82 55.1873C5.67333 56.2539 6.68667 56.7873 7.86 56.7873C8.73467 56.7873 9.53467 56.5099 10.26 55.9553C11.0067 55.4006 11.6573 54.6753 12.212 53.7793C12.788 52.8619 13.2467 51.8699 13.588 50.8033C13.9293 49.7366 14.1427 48.6913 14.228 47.6673C13.6947 47.5606 13.14 47.4859 12.564 47.4433C12.0093 47.3793 11.4227 47.3472 10.804 47.3472C10.4627 47.3472 10.1213 47.3579 9.78 47.3793C9.59822 47.3793 9.41039 47.3823 9.21651 47.3883C9.04634 47.3936 8.8715 47.4013 8.692 47.4113C8.7387 47.2296 8.79171 47.06 8.85103 46.9024C9.0356 46.4119 9.28125 46.0376 9.588 45.7793C10.0147 45.4166 10.5693 45.2353 11.252 45.2353C11.892 45.2353 12.532 45.3419 13.172 45.5553C13.8333 45.7473 14.4947 45.9606 15.156 46.1952C15.6671 46.371 16.1663 46.5227 16.6535 46.6506C16.817 46.6935 16.9792 46.7337 17.14 46.7712L16.82 47.7633C16.436 48.9366 16.116 49.9179 15.86 50.7073C15.6253 51.4753 15.444 52.1366 15.316 52.6913C15.188 53.2246 15.1027 53.7153 15.06 54.1633C15.0173 54.5899 14.996 55.0379 14.996 55.5073C14.996 55.9339 15.0067 56.3713 15.028 56.8193C15.0437 57.1637 15.0593 57.5599 15.075 58.0077C15.0806 58.1701 15.0863 58.3393 15.092 58.5153C14.9115 58.4912 14.7436 58.4586 14.5886 58.4176ZM16.3369 50.8574C16.105 51.6167 15.9275 52.2648 15.8032 52.8037L15.8022 52.8079C15.6785 53.3232 15.5978 53.7904 15.5577 54.2107L15.5575 54.213C15.5167 54.6217 15.496 55.053 15.496 55.5073C15.496 55.9256 15.5065 56.355 15.5274 56.7955L15.5275 56.7965C15.5489 57.2688 15.5704 57.8364 15.5917 58.4991L15.6108 59.0888L15.0259 59.0109C14.3297 58.918 13.7355 58.7009 13.3113 58.3052C12.9467 57.9665 12.6942 57.5561 12.5622 57.0811L12.5587 57.0685L12.5559 57.0557C12.5115 56.8558 12.4775 56.6575 12.4541 56.4609C11.8931 56.9991 11.2798 57.4642 10.6146 57.8552C9.57071 58.5033 8.39174 58.8233 7.092 58.8233C5.80372 58.8233 4.61273 58.4769 3.5302 57.7868C2.43976 57.113 1.58138 56.132 0.948786 54.8669L0.947212 54.8637C0.308983 53.5644 0 52.0348 0 50.2913C0 48.5959 0.264308 46.883 0.78959 45.1539C1.31304 43.4309 2.03292 41.7946 2.94891 40.2459C3.8634 38.6785 4.91083 37.2812 6.09208 36.0562C7.27491 34.8295 8.53157 33.8573 9.86341 33.1468C11.2273 32.4092 12.6092 32.0312 14.004 32.0312C14.9982 32.0312 15.8493 32.222 16.5118 32.653C17.1472 33.0455 17.6118 33.5815 17.888 34.2553C18.1717 34.8963 18.312 35.5821 18.312 36.3073C18.312 37.1152 18.1621 37.9187 17.8669 38.7154C17.592 39.5149 17.1969 40.1959 16.6733 40.7447C16.1517 41.3141 15.525 41.6393 14.804 41.6393C14.4435 41.6393 14.1091 41.5319 13.8133 41.3249C13.5024 41.1073 13.2438 40.746 13.0175 40.3161L12.8076 39.9173L13.1826 39.6672C13.4295 39.5026 13.74 39.1852 14.1102 38.6711L14.1178 38.6606C14.4999 38.1579 14.8334 37.603 15.1176 36.9946C15.3975 36.3742 15.52 35.8605 15.52 35.4433C15.52 35.1364 15.4253 34.9157 15.2504 34.7408L15.2369 34.7272L15.2244 34.7126C15.1066 34.5753 14.8477 34.4393 14.292 34.4393C13.4632 34.4393 12.5703 34.7515 11.605 35.4353L11.6033 35.4365C10.6504 36.1055 9.72581 37.0165 8.83257 38.1798L8.82992 38.1832C7.9348 39.3281 7.11996 40.6225 6.38655 42.0682C5.67565 43.4902 5.11154 44.953 4.69376 46.4571L4.69327 46.4588C4.27718 47.9359 4.072 49.3301 4.072 50.6433C4.072 52.5167 4.47348 53.9084 5.21391 54.8792C5.98898 55.8461 6.86598 56.2873 7.86 56.2873C8.61981 56.2873 9.31404 56.0492 9.95627 55.5581L9.96181 55.5538C10.6515 55.0415 11.261 54.3655 11.7869 53.5161L11.7885 53.5134C12.3415 52.6327 12.7828 51.679 13.1118 50.6509C13.3922 49.7745 13.5824 48.9167 13.6837 48.0769C13.3095 48.0163 12.924 47.9713 12.5271 47.9419L12.5169 47.9411L12.5067 47.94C11.973 47.8784 11.4055 47.8472 10.804 47.8472C10.4731 47.8472 10.1422 47.8576 9.81119 47.8783L9.79561 47.8793H9.78C9.44899 47.8793 9.09563 47.8896 8.71974 47.9105L8.03762 47.9484L8.20775 47.2867C8.41428 46.4836 8.75189 45.8301 9.26505 45.3975C9.80064 44.9427 10.4781 44.7353 11.252 44.7353C11.9454 44.7353 12.6356 44.8504 13.3207 45.0778C13.9876 45.2716 14.6543 45.4867 15.3207 45.7232C15.9881 45.9525 16.6324 46.1394 17.2536 46.2843L17.7826 46.4078L17.2952 47.9188C16.9119 49.0898 16.5925 50.0693 16.3369 50.8574Z" fill="white"/>
</svg>
