<svg width="104" height="32" viewBox="0 0 104 32" fill="none" xmlns="http://www.w3.org/2000/svg">
<path d="M102.897 16.0241C102.961 15.9174 103.036 15.8961 103.121 15.9601C103.228 16.0027 103.249 16.0881 103.185 16.2161C102.737 16.8134 102.257 17.3361 101.745 17.7841C101.318 18.1681 100.828 18.5201 100.273 18.8401C99.7397 19.1601 99.1957 19.3201 98.641 19.3201C98.3423 19.3201 98.001 19.2134 97.617 19.0001C97.2543 18.7867 96.913 18.5094 96.593 18.1681C96.273 17.8267 96.0063 17.4534 95.793 17.0481C95.5797 16.6214 95.473 16.2161 95.473 15.8321C95.473 15.5121 95.6117 15.0961 95.889 14.5841C96.1877 14.0721 96.5077 13.5494 96.849 13.0161C97.2117 12.4614 97.5423 11.9387 97.841 11.4481C98.1397 10.9574 98.289 10.5627 98.289 10.2641C98.289 10.1787 98.2783 10.1147 98.257 10.0721C98.2357 10.0081 98.1717 9.97608 98.065 9.97608C97.873 9.97608 97.617 10.1254 97.297 10.4241C96.9983 10.7227 96.6677 11.1281 96.305 11.6401C95.9637 12.1307 95.5903 12.6961 95.185 13.3361C94.801 13.9547 94.4277 14.5841 94.065 15.2241C93.7663 15.8641 93.425 16.5361 93.041 17.2401C92.657 17.9441 92.2837 18.6267 91.921 19.2881C91.5797 19.9281 91.281 20.5147 91.025 21.0481C90.7903 21.5601 90.673 21.9441 90.673 22.2001C90.673 22.5627 90.577 22.7974 90.385 22.9041C90.193 22.9894 89.9583 22.9894 89.681 22.9041C89.4037 22.8187 89.0943 22.6587 88.753 22.4241C88.4117 22.1894 88.1023 21.9227 87.825 21.6241C87.5477 21.3254 87.313 21.0267 87.121 20.7281C86.929 20.4081 86.833 20.1201 86.833 19.8641C86.833 19.5867 86.9503 19.2027 87.185 18.7121C87.3983 18.2214 87.6757 17.6774 88.017 17.0801C88.3583 16.4614 88.721 15.8321 89.105 15.1921C89.489 14.5307 89.8517 13.9014 90.193 13.3041C90.5343 12.7067 90.8117 12.1627 91.025 11.6721C91.2597 11.1814 91.377 10.7867 91.377 10.4881C91.377 10.2747 91.409 10.0934 91.473 9.94408C91.537 9.77341 91.761 9.68808 92.145 9.68808C92.4223 9.68808 92.721 9.81608 93.041 10.0721C93.361 10.3067 93.649 10.5947 93.905 10.9361C94.1823 11.2774 94.4063 11.6294 94.577 11.9921C94.7477 12.3547 94.833 12.6427 94.833 12.8561V12.9841C95.1743 12.4507 95.5157 11.9494 95.857 11.4801C96.2197 11.0107 96.561 10.6054 96.881 10.2641C97.201 9.90141 97.4997 9.61341 97.777 9.40008C98.0543 9.18675 98.3103 9.08008 98.545 9.08008C98.8863 9.08008 99.2383 9.19741 99.601 9.43208C99.9637 9.66675 100.294 9.95475 100.593 10.2961C100.892 10.6374 101.137 11.0107 101.329 11.4161C101.521 11.8001 101.617 12.1521 101.617 12.4721C101.617 12.7921 101.478 13.2081 101.201 13.7201C100.924 14.2321 100.614 14.7654 100.273 15.3201C99.9317 15.8747 99.6223 16.4081 99.345 16.9201C99.0677 17.4321 98.929 17.8481 98.929 18.1681C98.929 18.3174 98.993 18.3921 99.121 18.3921C99.569 18.3921 100.017 18.2747 100.465 18.0401C100.913 17.7841 101.318 17.5067 101.681 17.2081C102.086 16.8667 102.492 16.4721 102.897 16.0241Z" fill="#050038"/>
<path d="M88.6372 16.0235C88.7012 15.8955 88.7866 15.8635 88.8932 15.9275C89.0212 15.9702 89.0426 16.0662 88.9572 16.2155C87.9972 17.5168 87.0159 18.6795 86.0132 19.7035C85.5866 20.1515 85.1386 20.5888 84.6692 21.0155C84.1999 21.4208 83.7306 21.7835 83.2612 22.1035C82.7919 22.4235 82.3226 22.6902 81.8532 22.9035C81.3839 23.0955 80.9359 23.1915 80.5092 23.1915C79.9759 23.1915 79.4532 23.0422 78.9412 22.7435C78.4292 22.4235 77.9599 22.0502 77.5332 21.6235C77.1279 21.1755 76.7972 20.7275 76.5412 20.2795C76.2852 19.8102 76.1572 19.4155 76.1572 19.0955C76.1572 18.5835 76.3279 17.9968 76.6692 17.3355C76.9892 16.6528 77.4159 15.9702 77.9492 15.2875C78.4826 14.5835 79.0799 13.9008 79.7412 13.2395C80.4239 12.5568 81.0959 11.9595 81.7572 11.4475C82.4186 10.9142 83.0479 10.4875 83.6452 10.1675C84.2426 9.8475 84.7332 9.6875 85.1172 9.6875C85.3092 9.6875 85.5439 9.7835 85.8212 9.9755C86.0986 10.1462 86.3652 10.3808 86.6212 10.6795C86.8772 10.9782 87.0906 11.3195 87.2612 11.7035C87.4532 12.0875 87.5492 12.4928 87.5492 12.9195C87.5492 13.3035 87.4319 13.7302 87.1972 14.1995C86.9626 14.6475 86.6639 15.1062 86.3012 15.5755C85.9386 16.0448 85.5332 16.5035 85.0852 16.9515C84.6372 17.3782 84.1999 17.7622 83.7732 18.1035C83.3679 18.4235 82.9839 18.6902 82.6212 18.9035C82.2586 19.0955 81.9919 19.1915 81.8212 19.1915C81.5866 19.1915 81.4052 19.1488 81.2772 19.0635C81.1706 18.9568 81.0959 18.8395 81.0532 18.7115C80.6906 19.3088 80.3919 19.8955 80.1572 20.4715C79.9226 21.0262 79.8052 21.5488 79.8052 22.0395C79.8052 22.1888 79.8372 22.3488 79.9012 22.5195C79.9652 22.6688 80.1466 22.7435 80.4452 22.7435C80.8506 22.7435 81.2772 22.6475 81.7252 22.4555C82.1946 22.2635 82.6639 22.0182 83.1332 21.7195C83.6026 21.3995 84.0612 21.0368 84.5092 20.6315C84.9572 20.2262 85.3839 19.8102 85.7892 19.3835C86.7492 18.4022 87.6986 17.2822 88.6372 16.0235ZM86.3972 13.3355C86.2266 13.3355 85.9599 13.4635 85.5972 13.7195C85.2559 13.9542 84.8612 14.2742 84.4132 14.6795C83.9866 15.0848 83.5279 15.5542 83.0372 16.0875C82.5679 16.6208 82.1199 17.1755 81.6932 17.7515C81.6506 17.9435 81.6079 18.1568 81.5652 18.3915C81.5439 18.6048 81.6186 18.7115 81.7892 18.7115C82.1306 18.7115 82.5679 18.5195 83.1012 18.1355C83.6346 17.7302 84.1572 17.2502 84.6692 16.6955C85.1812 16.1408 85.6186 15.5755 85.9812 14.9995C86.3652 14.4022 86.5572 13.9008 86.5572 13.4955C86.5572 13.4742 86.5466 13.4422 86.5252 13.3995C86.5252 13.3568 86.4826 13.3355 86.3972 13.3355Z" fill="#050038"/>
<path d="M77.4329 16.0235C77.4969 15.9168 77.5822 15.8955 77.6889 15.9595C77.7955 16.0022 77.8062 16.0875 77.7209 16.2155C76.9102 17.2395 76.1315 18.1888 75.3849 19.0635C75.0649 19.4475 74.7342 19.8315 74.3929 20.2155C74.0515 20.5995 73.7102 20.9622 73.3689 21.3035C73.0275 21.6448 72.6969 21.9542 72.3769 22.2315C72.0782 22.5088 71.8009 22.7328 71.5449 22.9035C70.9475 23.9062 70.3075 24.9195 69.6249 25.9435C68.9635 26.9675 68.3235 27.8848 67.7049 28.6955C67.0862 29.5062 66.5209 30.1675 66.0089 30.6795C65.5182 31.1915 65.1662 31.4475 64.9529 31.4475C64.5689 31.4475 64.1742 31.3302 63.7689 31.0955C63.3635 30.8822 62.9902 30.6155 62.6489 30.2955C62.3289 29.9755 62.0515 29.6448 61.8169 29.3035C61.6035 28.9622 61.4969 28.6742 61.4969 28.4395C61.4969 28.0768 61.6462 27.6502 61.9449 27.1595C62.2435 26.6902 62.6275 26.1888 63.0969 25.6555C63.5662 25.1222 64.0889 24.5888 64.6649 24.0555C65.2622 23.5222 65.8382 23.0102 66.3929 22.5195C66.9475 21.6235 67.4915 20.7168 68.0249 19.7995C68.5582 18.8822 69.0169 18.0502 69.4009 17.3035C69.0169 17.8155 68.5582 18.4022 68.0249 19.0635C67.5129 19.7248 66.9902 20.3435 66.4569 20.9195C65.9235 21.4955 65.4009 21.9862 64.8889 22.3915C64.3769 22.7755 63.9502 22.9675 63.6089 22.9675C63.3102 22.9675 62.9582 22.8395 62.5529 22.5835C62.1475 22.3062 61.7635 21.9755 61.4009 21.5915C61.0382 21.2075 60.7289 20.7915 60.4729 20.3435C60.2169 19.8742 60.0889 19.4475 60.0889 19.0635C60.0889 18.7648 60.2382 18.3275 60.5369 17.7515C60.8355 17.1755 61.2302 16.5462 61.7209 15.8635C62.2115 15.1595 62.7662 14.4448 63.3849 13.7195C64.0035 12.9942 64.6329 12.3328 65.2729 11.7355C65.9342 11.1382 66.5742 10.6475 67.1929 10.2635C67.8329 9.8795 68.3982 9.6875 68.8889 9.6875C69.2515 9.6875 69.6035 9.8155 69.9449 10.0715C70.3075 10.3062 70.6275 10.6048 70.9049 10.9675C71.2035 11.3088 71.4382 11.6608 71.6089 12.0235C71.8009 12.3862 71.8969 12.6742 71.8969 12.8875C71.8969 13.1222 71.8435 13.2182 71.7369 13.1755C71.6515 13.1328 71.5449 13.1115 71.4169 13.1115C71.1182 13.1115 70.7235 13.2822 70.2329 13.6235C69.7635 13.9648 69.2515 14.4128 68.6969 14.9675C68.1422 15.5008 67.5769 16.0982 67.0009 16.7595C66.4249 17.3995 65.9022 18.0395 65.4329 18.6795C64.9635 19.2982 64.5795 19.8742 64.2809 20.4075C64.0035 20.9195 63.8649 21.3035 63.8649 21.5595C63.8649 21.9008 64.0035 22.0715 64.2809 22.0715C64.5369 22.0715 64.9315 21.8048 65.4649 21.2715C65.9982 20.7382 66.5742 20.1088 67.1929 19.3835C67.8115 18.6582 68.4089 17.9222 68.9849 17.1755C69.5822 16.4075 70.0515 15.7888 70.3929 15.3195C70.4782 15.0848 70.5209 14.8928 70.5209 14.7435C70.5209 14.5302 70.5529 14.3488 70.6169 14.1995C70.7022 14.0288 70.9262 13.9435 71.2889 13.9435C71.5662 13.9435 71.8755 14.0715 72.2169 14.3275C72.5582 14.5622 72.8675 14.8502 73.1449 15.1915C73.4435 15.5328 73.6889 15.8848 73.8809 16.2475C74.0729 16.6102 74.1689 16.8982 74.1689 17.1115C74.1689 17.5168 73.9875 18.1355 73.6249 18.9675C73.2622 19.7782 72.7929 20.6955 72.2169 21.7195C72.6649 21.3568 73.1769 20.8555 73.7529 20.2155C74.3502 19.5542 74.9262 18.9142 75.4809 18.2955C76.1209 17.5702 76.7715 16.8128 77.4329 16.0235ZM62.0409 28.3755C62.1475 28.3755 62.3182 28.2475 62.5529 27.9915C62.8089 27.7568 63.0969 27.4155 63.4169 26.9675C63.7369 26.5408 64.0889 26.0395 64.4729 25.4635C64.8782 24.8875 65.2835 24.2795 65.6889 23.6395C64.2169 25.0688 63.1822 26.2102 62.5849 27.0635C61.9875 27.9382 61.8062 28.3755 62.0409 28.3755Z" fill="#050038"/>
<path d="M61.6328 15.9915C61.6968 15.8848 61.7821 15.8635 61.8888 15.9275C61.9954 15.9702 62.0061 16.0555 61.9208 16.1835C60.8755 17.5062 59.9048 18.6795 59.0088 19.7035C58.6248 20.1515 58.2301 20.5888 57.8248 21.0155C57.4408 21.4208 57.0675 21.7835 56.7048 22.1035C56.3421 22.4235 56.0115 22.6902 55.7128 22.9035C55.4141 23.0955 55.1795 23.1915 55.0088 23.1915C54.7101 23.1915 54.3688 23.0848 53.9848 22.8715C53.6221 22.6582 53.2808 22.3808 52.9608 22.0395C52.6408 21.6982 52.3741 21.3248 52.1608 20.9195C51.9474 20.5142 51.8408 20.1195 51.8408 19.7355C51.8408 19.4582 51.9581 19.0848 52.1928 18.6155C52.4274 18.1248 52.7154 17.6022 53.0568 17.0475C53.3981 16.4928 53.7715 15.9168 54.1768 15.3195C54.5821 14.7008 54.9555 14.1142 55.2968 13.5595C55.6381 12.9835 55.9261 12.4608 56.1608 11.9915C56.3954 11.5222 56.5128 11.1488 56.5128 10.8715C56.5128 10.7862 56.5021 10.7222 56.4808 10.6795C56.4595 10.6155 56.3955 10.5835 56.2888 10.5835C56.0328 10.5835 55.7021 10.7862 55.2968 11.1915C54.9128 11.5968 54.4861 12.1195 54.0168 12.7595C53.5474 13.3995 53.0674 14.1035 52.5768 14.8715C52.0861 15.6182 51.6274 16.3435 51.2008 17.0475C50.7954 17.7515 50.4328 18.3808 50.1128 18.9355C49.7928 19.4902 49.5688 19.8742 49.4408 20.0875C49.2061 20.5568 49.0141 20.9728 48.8648 21.3355C48.7155 21.6982 48.6408 21.9862 48.6408 22.1995C48.6408 22.5622 48.5448 22.7968 48.3528 22.9035C48.1608 22.9888 47.9261 22.9888 47.6488 22.9035C47.3714 22.8182 47.0621 22.6582 46.7208 22.4235C46.3794 22.1888 46.0701 21.9222 45.7928 21.6235C45.5154 21.3248 45.2808 21.0262 45.0888 20.7275C44.8968 20.4075 44.8008 20.1195 44.8008 19.8635C44.8008 19.5862 44.9181 19.2022 45.1528 18.7115C45.3661 18.2208 45.6434 17.6768 45.9848 17.0795C46.3261 16.4608 46.6888 15.8315 47.0728 15.1915C47.4568 14.5302 47.8194 13.9008 48.1608 13.3035C48.5021 12.7062 48.7794 12.1622 48.9928 11.6715C49.2274 11.1808 49.3448 10.7862 49.3448 10.4875C49.3448 10.2742 49.3768 10.0928 49.4408 9.9435C49.5048 9.77283 49.7288 9.6875 50.1128 9.6875C50.3901 9.6875 50.6888 9.8155 51.0088 10.0715C51.3288 10.3062 51.6168 10.5942 51.8728 10.9355C52.1501 11.2768 52.3741 11.6288 52.5448 11.9915C52.7154 12.3542 52.8008 12.6422 52.8008 12.8555C52.8008 13.0902 52.7581 13.3462 52.6728 13.6235C52.5874 13.9008 52.4701 14.2102 52.3208 14.5515C52.7261 13.9542 53.1421 13.3675 53.5688 12.7915C53.9954 12.1942 54.4008 11.6715 54.7848 11.2235C55.1901 10.7542 55.5634 10.3808 55.9048 10.1035C56.2461 9.82617 56.5341 9.6875 56.7688 9.6875C57.1101 9.6875 57.4621 9.80483 57.8248 10.0395C58.1874 10.2742 58.5181 10.5622 58.8168 10.9035C59.1155 11.2448 59.3608 11.6182 59.5528 12.0235C59.7448 12.4075 59.8408 12.7702 59.8408 13.1115C59.8408 13.4528 59.7234 13.8795 59.4888 14.3915C59.2754 14.9035 58.9981 15.4582 58.6568 16.0555C58.3155 16.6315 57.9528 17.2288 57.5688 17.8475C57.1848 18.4448 56.8221 19.0208 56.4808 19.5755C56.1395 20.1088 55.8514 20.5995 55.6168 21.0475C55.4035 21.4742 55.2968 21.8048 55.2968 22.0395C55.2968 22.2102 55.3608 22.2955 55.4888 22.2955C55.6168 22.2955 55.7981 22.2102 56.0328 22.0395C56.2675 21.8475 56.5448 21.6128 56.8648 21.3355C57.1848 21.0368 57.5155 20.6955 57.8568 20.3115C58.2195 19.9275 58.5821 19.5435 58.9448 19.1595C59.7768 18.2422 60.6728 17.1862 61.6328 15.9915Z" fill="#050038"/>
<path d="M46.6233 16.0231C46.7086 15.9164 46.794 15.8951 46.8793 15.9591C46.986 16.0018 47.0073 16.0871 46.9433 16.2151C45.8979 17.5164 44.9273 18.6791 44.0313 19.7031C43.6473 20.1511 43.2526 20.5884 42.8473 21.0151C42.4633 21.4204 42.09 21.7831 41.7273 22.1031C41.3646 22.4231 41.0339 22.6898 40.7353 22.9031C40.4579 23.0951 40.2233 23.1911 40.0313 23.1911C39.7326 23.1911 39.3913 23.0844 39.0073 22.8711C38.6446 22.6578 38.3033 22.3804 37.9833 22.0391C37.6633 21.6978 37.3966 21.3244 37.1833 20.9191C36.9699 20.5138 36.8633 20.1191 36.8633 19.7351C36.8633 19.3084 37.0553 18.7538 37.4393 18.0711C37.8233 17.3884 38.25 16.6844 38.7193 15.9591C39.1886 15.2124 39.6153 14.5084 39.9993 13.8471C40.3833 13.1644 40.5753 12.6098 40.5753 12.1831C40.5753 11.9698 40.6073 11.7884 40.6713 11.6391C40.7353 11.4684 40.9593 11.3831 41.3433 11.3831C41.6206 11.3831 41.9086 11.5111 42.2073 11.7671C42.5273 12.0018 42.8153 12.2898 43.0713 12.6311C43.3486 12.9724 43.5726 13.3244 43.7433 13.6871C43.9139 14.0498 43.9993 14.3378 43.9993 14.5511C43.9993 15.0844 43.8073 15.7138 43.4233 16.4391C43.0393 17.1431 42.6126 17.8578 42.1433 18.5831C41.6953 19.2871 41.2793 19.9591 40.8953 20.5991C40.5113 21.2178 40.3193 21.6978 40.3193 22.0391C40.3193 22.2098 40.3939 22.2951 40.5433 22.2951C40.6713 22.2951 40.8526 22.2098 41.0873 22.0391C41.322 21.8471 41.5886 21.6124 41.8873 21.3351C42.2073 21.0364 42.538 20.6951 42.8793 20.3111C43.242 19.9271 43.6046 19.5431 43.9673 19.1591C44.7993 18.2418 45.6846 17.1964 46.6233 16.0231ZM46.3353 3.28711C47.3593 3.28711 48.0739 3.44711 48.4793 3.76711C48.8846 4.08711 49.0766 4.48178 49.0553 4.95111C49.0339 5.42044 48.8419 5.93244 48.4793 6.48711C48.1166 7.04178 47.6793 7.55378 47.1673 8.02311C46.6766 8.49244 46.1433 8.88711 45.5673 9.20711C45.0126 9.52711 44.522 9.68711 44.0953 9.68711C43.8393 9.68711 43.6473 9.52711 43.5193 9.20711C43.4126 8.88711 43.3593 8.49244 43.3593 8.02311C43.3593 7.55378 43.4126 7.04178 43.5193 6.48711C43.6473 5.93244 43.8286 5.42044 44.0633 4.95111C44.3193 4.48178 44.6286 4.08711 44.9913 3.76711C45.3753 3.44711 45.8233 3.28711 46.3353 3.28711Z" fill="#050038"/>
<path d="M38.6783 16.0241C38.7423 15.9174 38.8169 15.8961 38.9023 15.9601C39.0089 16.0027 39.0303 16.0881 38.9663 16.2161C38.5183 16.8134 38.0383 17.3361 37.5263 17.7841C37.0996 18.1681 36.6089 18.5201 36.0543 18.8401C35.5209 19.1601 34.9769 19.3201 34.4223 19.3201C34.1236 19.3201 33.7823 19.2134 33.3983 19.0001C33.0356 18.7867 32.6943 18.5094 32.3743 18.1681C32.0543 17.8267 31.7876 17.4534 31.5743 17.0481C31.3609 16.6214 31.2543 16.2161 31.2543 15.8321C31.2543 15.5121 31.3929 15.0961 31.6703 14.5841C31.9689 14.0721 32.2889 13.5494 32.6303 13.0161C32.9929 12.4614 33.3236 11.9387 33.6223 11.4481C33.9209 10.9574 34.0703 10.5627 34.0703 10.2641C34.0703 10.1787 34.0596 10.1147 34.0383 10.0721C34.0169 10.0081 33.9529 9.97608 33.8463 9.97608C33.6543 9.97608 33.3983 10.1254 33.0783 10.4241C32.7796 10.7227 32.4489 11.1281 32.0863 11.6401C31.7449 12.1307 31.3716 12.6961 30.9663 13.3361C30.5823 13.9547 30.2089 14.5841 29.8463 15.2241C29.5476 15.8641 29.2063 16.5361 28.8223 17.2401C28.4383 17.9441 28.0649 18.6267 27.7023 19.2881C27.3609 19.9281 27.0623 20.5147 26.8063 21.0481C26.5716 21.5601 26.4543 21.9441 26.4543 22.2001C26.4543 22.5627 26.3583 22.7974 26.1663 22.9041C25.9743 22.9894 25.7396 22.9894 25.4623 22.9041C25.1849 22.8187 24.8756 22.6587 24.5343 22.4241C24.1929 22.1894 23.8836 21.9227 23.6063 21.6241C23.3289 21.3254 23.0943 21.0267 22.9023 20.7281C22.7103 20.4081 22.6143 20.1201 22.6143 19.8641C22.6143 19.5867 22.7316 19.2027 22.9663 18.7121C23.1796 18.2214 23.4569 17.6774 23.7983 17.0801C24.1396 16.4614 24.5023 15.8321 24.8863 15.1921C25.2703 14.5307 25.6329 13.9014 25.9743 13.3041C26.3156 12.7067 26.5929 12.1627 26.8063 11.6721C27.0409 11.1814 27.1583 10.7867 27.1583 10.4881C27.1583 10.2747 27.1903 10.0934 27.2543 9.94408C27.3183 9.77341 27.5423 9.68808 27.9263 9.68808C28.2036 9.68808 28.5023 9.81608 28.8223 10.0721C29.1423 10.3067 29.4303 10.5947 29.6863 10.9361C29.9636 11.2774 30.1876 11.6294 30.3583 11.9921C30.5289 12.3547 30.6143 12.6427 30.6143 12.8561V12.9841C30.9556 12.4507 31.2969 11.9494 31.6383 11.4801C32.0009 11.0107 32.3423 10.6054 32.6623 10.2641C32.9823 9.90141 33.2809 9.61341 33.5583 9.40008C33.8356 9.18675 34.0916 9.08008 34.3263 9.08008C34.6676 9.08008 35.0196 9.19741 35.3823 9.43208C35.7449 9.66675 36.0756 9.95475 36.3743 10.2961C36.6729 10.6374 36.9183 11.0107 37.1103 11.4161C37.3023 11.8001 37.3983 12.1521 37.3983 12.4721C37.3983 12.7921 37.2596 13.2081 36.9823 13.7201C36.7049 14.2321 36.3956 14.7654 36.0543 15.3201C35.7129 15.8747 35.4036 16.4081 35.1263 16.9201C34.8489 17.4321 34.7103 17.8481 34.7103 18.1681C34.7103 18.3174 34.7743 18.3921 34.9023 18.3921C35.3503 18.3921 35.7983 18.2747 36.2463 18.0401C36.6943 17.7841 37.0996 17.5067 37.4623 17.2081C37.8676 16.8667 38.2729 16.4721 38.6783 16.0241Z" fill="#050038"/>
<path d="M19.5916 14.2967C20.125 14.5313 20.605 14.9047 21.0316 15.4167C21.4796 15.9073 21.7036 16.654 21.7036 17.6567C21.7036 18.7233 21.4476 19.694 20.9356 20.5687C20.445 21.422 19.7836 22.158 18.9516 22.7767C18.141 23.3953 17.213 23.8647 16.1676 24.1847C15.1223 24.526 14.0556 24.6967 12.9676 24.6967C12.6476 24.6967 12.2743 24.59 11.8476 24.3767C11.421 24.1847 11.005 23.9393 10.5996 23.6407C10.1943 23.342 9.85295 23.022 9.57562 22.6807C9.29828 22.3393 9.15962 22.03 9.15962 21.7527C9.15962 21.5393 9.19162 21.39 9.25562 21.3047C9.34095 21.198 9.42628 21.1447 9.51162 21.1447C9.61828 21.1233 9.71428 21.1447 9.79962 21.2087C9.88495 21.2727 9.92762 21.358 9.92762 21.4647C9.92762 21.614 9.98095 21.7527 10.0876 21.8807C10.2156 22.0087 10.3863 22.0727 10.5996 22.0727C11.965 22.0727 13.1596 21.8593 14.1836 21.4327C15.2076 21.006 16.0503 20.462 16.7116 19.8007C17.3943 19.1393 17.9063 18.4353 18.2476 17.6887C18.589 16.9207 18.7596 16.1953 18.7596 15.5127C18.7596 15.0647 18.5783 14.8407 18.2156 14.8407C17.8956 14.8407 17.5436 14.7447 17.1596 14.5527C16.7756 14.3393 16.4236 14.094 16.1036 13.8167C15.7836 13.5393 15.517 13.2513 15.3036 12.9527C15.0903 12.6327 14.9836 12.3553 14.9836 12.1207C14.9836 11.9713 15.037 11.9073 15.1436 11.9287C15.2503 11.9287 15.357 11.9287 15.4636 11.9287C15.6983 11.9287 16.029 11.79 16.4556 11.5127C16.8823 11.2353 17.341 10.8727 17.8316 10.4247C18.3436 9.95532 18.8556 9.43266 19.3676 8.85666C19.901 8.28066 20.381 7.68332 20.8076 7.06466C21.2343 6.44599 21.5756 5.84866 21.8316 5.27266C22.109 4.67532 22.2476 4.14199 22.2476 3.67266C22.2476 3.43799 22.1943 3.28866 22.0876 3.22466C21.981 3.13932 21.8743 3.09666 21.7676 3.09666C21.5543 3.09666 21.2663 3.24599 20.9036 3.54466C20.541 3.84332 20.1356 4.23799 19.6876 4.72866C19.261 5.19799 18.8023 5.74199 18.3116 6.36066C17.821 6.95799 17.3516 7.55532 16.9036 8.15266C16.4983 9.02732 15.997 9.99799 15.3996 11.0647C14.8236 12.1313 14.205 13.2087 13.5436 14.2967C12.9036 15.3847 12.2423 16.4407 11.5596 17.4647C10.877 18.4673 10.237 19.3633 9.63962 20.1527C9.04228 20.9207 8.51962 21.55 8.07162 22.0407C7.62362 22.51 7.30362 22.7447 7.11162 22.7447C6.72762 22.7447 6.35428 22.6167 5.99162 22.3607C5.62895 22.1047 5.29828 21.7953 4.99962 21.4327C4.70095 21.07 4.45562 20.7073 4.26362 20.3447C4.09295 19.9607 4.00762 19.6513 4.00762 19.4167C4.00762 19.0113 4.16762 18.4993 4.48762 17.8807C4.82895 17.2407 5.25562 16.558 5.76762 15.8327C6.27962 15.086 6.83428 14.3393 7.43162 13.5927C8.05028 12.8247 8.62628 12.1207 9.15962 11.4807C9.71428 10.8407 10.1943 10.2967 10.5996 9.84866C11.0263 9.40066 11.293 9.11266 11.3996 8.98466C12.1463 7.64066 12.7223 6.42466 13.1276 5.33666C13.5543 4.24866 13.7676 3.34199 13.7676 2.61666C13.7676 2.18999 13.661 1.86999 13.4476 1.65666C13.2343 1.42199 12.9463 1.30466 12.5836 1.30466C12.0503 1.30466 11.4636 1.50732 10.8236 1.91266C10.1836 2.31799 9.53295 2.85132 8.87162 3.51266C8.21028 4.17399 7.57028 4.93132 6.95162 5.78466C6.33295 6.61666 5.77828 7.46999 5.28762 8.34466C4.79695 9.21932 4.40228 10.0727 4.10362 10.9047C3.82628 11.7153 3.68762 12.43 3.68762 13.0487C3.68762 13.2407 3.53828 13.2727 3.23962 13.1447C2.94095 12.9953 2.61028 12.75 2.24762 12.4087C1.88495 12.046 1.55428 11.6087 1.25562 11.0967C0.956951 10.5633 0.807617 9.99799 0.807617 9.40066C0.807617 8.76066 1.03162 8.09932 1.47962 7.41666C1.92762 6.71266 2.51428 6.02999 3.23962 5.36866C3.98628 4.70732 4.82895 4.07799 5.76762 3.48066C6.70628 2.88332 7.65562 2.37132 8.61562 1.94466C9.59695 1.49666 10.5463 1.14466 11.4636 0.888657C12.4023 0.611323 13.2236 0.472656 13.9276 0.472656C14.4183 0.472656 14.8983 0.579323 15.3676 0.792658C15.837 1.00599 16.253 1.31532 16.6156 1.72066C16.9996 2.12599 17.2983 2.61666 17.5116 3.19266C17.7463 3.74732 17.8636 4.38732 17.8636 5.11266C17.8636 5.30466 17.8316 5.52866 17.7676 5.78466C17.725 6.01932 17.6503 6.28599 17.5436 6.58466C17.9916 6.02999 18.4396 5.49666 18.8876 4.98466C19.357 4.45132 19.7943 3.98199 20.1996 3.57666C20.6263 3.14999 21.0103 2.81932 21.3516 2.58466C21.7143 2.32866 22.013 2.20066 22.2476 2.20066C22.589 2.20066 22.9623 2.31799 23.3676 2.55266C23.7943 2.78732 24.1783 3.07532 24.5196 3.41666C24.8823 3.75799 25.181 4.13132 25.4156 4.53666C25.6503 4.92066 25.7676 5.27266 25.7676 5.59266C25.7676 6.21132 25.5543 6.93666 25.1276 7.76866C24.7223 8.60066 24.2103 9.43266 23.5916 10.2647C22.973 11.0967 22.301 11.8753 21.5756 12.6007C20.8716 13.326 20.2103 13.8913 19.5916 14.2967ZM4.42362 19.1607C4.57295 19.1607 4.85028 18.926 5.25562 18.4567C5.66095 17.9873 6.13028 17.3687 6.66362 16.6007C7.21828 15.8327 7.80495 14.958 8.42362 13.9767C9.04228 12.9953 9.66095 11.9927 10.2796 10.9687C9.49028 11.7793 8.72228 12.6647 7.97562 13.6247C7.22895 14.5633 6.56762 15.4487 5.99162 16.2807C5.43695 17.0913 5.01028 17.774 4.71162 18.3287C4.41295 18.8833 4.31695 19.1607 4.42362 19.1607Z" fill="#050038"/>
</svg>
