<svg width="179" height="30" viewBox="0 0 179 30" fill="none" xmlns="http://www.w3.org/2000/svg">
<path d="M169.415 17.8037L169.116 19.1982C169.072 19.3753 169.05 19.5745 169.05 19.7959C169.05 20.3936 169.299 20.6924 169.797 20.6924C170.273 20.6924 171.429 19.7627 173.267 17.9033C173.278 17.1839 173.543 16.3538 174.063 15.4131C174.595 14.4723 175.176 13.6478 175.807 12.9395C176.449 12.2311 176.924 11.877 177.234 11.877C177.721 11.877 177.965 12.1979 177.965 12.8398C177.965 13.2272 177.871 13.7031 177.683 14.2676C177.494 14.821 177.218 15.4242 176.853 16.0771C176.487 16.7191 176.039 17.3831 175.508 18.0693C175.785 18.5674 176.067 18.8164 176.354 18.8164C176.598 18.8164 176.864 18.7334 177.151 18.5674C177.45 18.3903 177.821 18.1247 178.264 17.7705V18.8828C177.644 19.3698 177.151 19.7018 176.786 19.8789C176.432 20.056 175.973 20.1445 175.408 20.1445C175.187 20.1445 174.788 19.9951 174.213 19.6963C173.084 20.8916 172.165 21.7881 171.457 22.3857C170.749 22.9723 170.173 23.2656 169.73 23.2656C168.967 23.2656 168.314 22.8118 167.771 21.9043C167.24 20.9857 166.975 19.9785 166.975 18.8828C166.975 17.4108 167.805 15.6455 169.465 13.5869C169.963 12.9671 170.361 12.5465 170.66 12.3252C170.97 12.0928 171.319 11.9766 171.706 11.9766C172.038 11.9766 172.354 12.0374 172.652 12.1592C172.951 12.2809 173.101 12.4248 173.101 12.5908C173.101 13.1442 172.73 13.9577 171.988 15.0312C171.247 16.0938 170.389 17.0179 169.415 17.8037Z" fill="#050038"/>
<path d="M157.146 19.0488V17.9697C157.744 17.2614 158.198 16.6582 158.508 16.1602C158.154 16.0384 157.894 15.889 157.728 15.7119C157.573 15.5348 157.495 15.2692 157.495 14.915C157.495 14.5166 157.661 14.013 157.993 13.4043C158.325 12.7956 158.735 12.2256 159.222 11.6943C159.709 11.1631 160.151 10.82 160.55 10.665C160.705 10.5876 160.854 10.5488 160.998 10.5488C161.219 10.5488 161.33 10.654 161.33 10.8643C161.33 11.0524 161.159 11.4342 160.815 12.0098C163.095 11.6556 164.534 11.4785 165.132 11.4785C165.364 11.4785 165.525 11.5007 165.613 11.5449C165.801 11.6445 165.956 11.877 166.078 12.2422C166.2 12.6074 166.261 12.9727 166.261 13.3379C166.261 13.5703 166.156 13.8249 165.945 14.1016C165.746 14.3672 165.397 14.7601 164.899 15.2803C164.313 15.9111 163.82 16.5973 163.422 17.3389C163.023 18.0804 162.824 18.6393 162.824 19.0156C162.824 19.5358 163.145 19.7959 163.787 19.7959C164.462 19.7959 165.635 19.1097 167.307 17.7373V18.8496C166.388 19.8125 165.63 20.5706 165.032 21.124C164.435 21.6774 163.881 22.1201 163.372 22.4521C162.863 22.7731 162.409 22.9336 162.011 22.9336C161.546 22.9336 161.159 22.7233 160.849 22.3027C160.539 21.8711 160.384 21.2513 160.384 20.4434C160.384 19.9674 160.506 19.4251 160.749 18.8164C160.993 18.2077 161.347 17.5492 161.812 16.8408C162.287 16.1214 162.819 15.4076 163.405 14.6992C163.095 14.7656 162.747 14.8376 162.359 14.915C161.972 14.9814 161.562 15.0534 161.131 15.1309C160.699 15.2083 160.367 15.2692 160.135 15.3135C159.449 16.6859 158.452 17.931 157.146 19.0488Z" fill="#050038"/>
<path d="M150.041 18.3691V18.7842C150.041 19.4372 150.201 19.9463 150.522 20.3115C150.843 20.6768 151.264 20.8594 151.784 20.8594C152.326 20.8594 152.885 20.7321 153.461 20.4775C154.048 20.223 154.629 19.8854 155.204 19.4648C155.78 19.0443 156.482 18.4798 157.312 17.7715V18.7842C156.062 20.2894 154.889 21.446 153.793 22.2539C152.697 23.0508 151.585 23.4492 150.456 23.4492C149.471 23.4492 148.691 23.0674 148.115 22.3037C147.54 21.54 147.252 20.4941 147.252 19.166C147.252 18.0039 147.523 16.9525 148.065 16.0117C148.608 15.0599 149.493 14.0583 150.722 13.0068C151.563 12.2874 152.398 11.7451 153.229 11.3799C154.059 11.0146 154.8 10.832 155.453 10.832C155.973 10.832 156.383 10.9538 156.682 11.1973C156.992 11.4297 157.146 11.7839 157.146 12.2598C157.146 12.957 156.886 13.6543 156.366 14.3516C155.846 15.0378 155.049 15.724 153.976 16.4102C152.913 17.0853 151.602 17.7383 150.041 18.3691ZM150.207 17.29C151.203 16.9027 152.055 16.4212 152.764 15.8457C153.472 15.2702 153.992 14.7223 154.324 14.2021C154.667 13.6709 154.839 13.2835 154.839 13.04C154.839 12.7855 154.723 12.6582 154.49 12.6582C154.291 12.6582 153.965 12.7855 153.511 13.04C153.068 13.2946 152.614 13.6266 152.149 14.0361C151.696 14.4456 151.286 14.9271 150.921 15.4805C150.556 16.0339 150.318 16.637 150.207 17.29Z" fill="#050038"/>
<path d="M136.693 18.2344V17.8359C139.549 14.8255 141.513 12.7171 142.587 11.5107C142.83 10.1494 143.417 9.46875 144.347 9.46875C144.579 9.46875 144.828 9.53516 145.094 9.66797L145.193 9.9834C145.149 10.1162 145.127 10.3044 145.127 10.5479C145.127 10.7581 145.204 11.151 145.359 11.7266C145.525 12.291 145.653 12.7669 145.741 13.1543C145.83 13.5417 145.874 13.9788 145.874 14.4658C145.874 15.1963 145.708 15.8991 145.376 16.5742C145.044 17.2383 144.562 17.8802 143.932 18.5C143.301 19.1087 142.487 19.734 141.491 20.376C141.89 20.4424 142.205 20.4756 142.438 20.4756C142.891 20.4756 143.378 20.3649 143.898 20.1436C144.43 19.9111 144.966 19.6068 145.509 19.2305C146.062 18.8431 146.704 18.3451 147.435 17.7363V18.8486C146.018 20.2321 144.751 21.2835 143.633 22.0029C142.515 22.7113 141.552 23.0654 140.744 23.0654C139.704 23.0654 138.741 22.6227 137.855 21.7373C137.335 21.2061 137.009 20.6969 136.876 20.21C136.754 19.723 136.693 19.0645 136.693 18.2344ZM142.886 15.6943L142.587 13.2705C141.901 14.0452 140.434 15.5339 138.188 17.7363C138.852 17.8802 139.305 18.0739 139.549 18.3174C139.792 18.5609 140.135 19.0312 140.578 19.7285C141.331 19.4186 141.906 18.998 142.305 18.4668C142.714 17.9245 142.919 17.1885 142.919 16.2588C142.919 16.1481 142.913 16.0485 142.902 15.96C142.902 15.8714 142.897 15.7829 142.886 15.6943Z" fill="#050038"/>
<path d="M135.531 14.7656C133.583 16.9349 132.609 18.4456 132.609 19.2979C132.609 19.7738 132.803 20.0117 133.19 20.0117C133.511 20.0117 133.926 19.8457 134.436 19.5137C134.956 19.1706 135.764 18.5674 136.859 17.7041V18.8496C135.288 20.3991 134.081 21.5169 133.24 22.2031C132.399 22.8893 131.713 23.2324 131.182 23.2324C130.274 23.2324 129.82 22.6348 129.82 21.4395C129.82 21.0853 129.876 20.7367 129.986 20.3936C130.097 20.0505 130.246 19.6963 130.435 19.3311C130.634 18.9548 130.933 18.4235 131.331 17.7373C131.729 17.04 132.189 16.2542 132.709 15.3799C132.078 15.7008 131.287 16.3372 130.335 17.2891C129.715 17.8867 129.189 18.4567 128.758 18.999C128.326 19.5303 127.861 20.1279 127.363 20.792C126.876 21.445 126.517 21.8877 126.284 22.1201C126.063 22.3415 125.836 22.4521 125.604 22.4521C125.249 22.4521 124.923 22.0814 124.624 21.3398C124.325 20.5983 124.176 19.735 124.176 18.75C124.176 18.1413 124.242 17.6654 124.375 17.3223C124.519 16.9792 124.796 16.4922 125.205 15.8613C125.969 14.6882 126.627 13.8304 127.181 13.2881C127.734 12.7347 128.265 12.458 128.774 12.458C129.129 12.458 129.411 12.5189 129.621 12.6406C129.842 12.7624 129.953 12.9505 129.953 13.2051C129.953 13.3158 129.92 13.432 129.854 13.5537C129.787 13.6755 129.71 13.7861 129.621 13.8857C129.544 13.9854 129.372 14.179 129.106 14.4668C127.358 16.4036 126.483 17.6598 126.483 18.2354C126.483 18.5563 126.589 18.7168 126.799 18.7168C126.932 18.7168 127.186 18.5065 127.562 18.0859C127.95 17.6543 128.442 17.0954 129.04 16.4092C129.649 15.7119 130.363 14.987 131.182 14.2344C132.012 13.4818 132.952 12.7568 134.004 12.0596C134.59 11.6501 135.077 11.4453 135.465 11.4453C135.642 11.4453 135.813 11.6888 135.979 12.1758C136.157 12.6628 136.245 13.1553 136.245 13.6533C136.245 13.8968 136.007 14.2676 135.531 14.7656Z" fill="#050038"/>
<path d="M123.346 10.3506C123.069 10.3506 122.803 10.2454 122.549 10.0352C122.305 9.82487 122.184 9.55924 122.184 9.23828C122.184 8.7513 122.416 8.20898 122.881 7.61133C123.346 7.01367 123.827 6.71484 124.325 6.71484C124.657 6.71484 124.934 6.81999 125.155 7.03027C125.377 7.22949 125.487 7.52279 125.487 7.91016C125.487 8.38607 125.26 8.91178 124.807 9.4873C124.353 10.0628 123.866 10.3506 123.346 10.3506ZM124.475 17.7715V18.9834C123.401 20.3669 122.399 21.4128 121.47 22.1211C120.54 22.8184 119.749 23.167 119.096 23.167C118.188 23.167 117.513 22.6911 117.07 21.7393C116.628 20.7874 116.406 19.7471 116.406 18.6182C116.406 18.1865 116.451 17.777 116.539 17.3896C116.628 16.9912 116.733 16.6647 116.854 16.4102C116.976 16.1556 117.203 15.7572 117.535 15.2148C119.107 12.7689 120.546 11.5459 121.852 11.5459C122.527 11.5459 122.864 11.806 122.864 12.3262C122.864 12.6803 122.643 13.2337 122.2 13.9863C121.769 14.7389 121.381 15.2757 121.038 15.5967C120.075 16.5264 119.444 17.1738 119.146 17.5391C118.858 17.9043 118.714 18.3193 118.714 18.7842C118.714 19.1826 118.863 19.5146 119.162 19.7803C119.461 20.0459 119.848 20.1787 120.324 20.1787C120.844 20.1787 121.414 19.9906 122.034 19.6143C122.665 19.2269 123.479 18.6126 124.475 17.7715Z" fill="#050038"/>
<path d="M108.604 14.7324H111.11C112.56 12.7845 113.661 11.0856 114.414 9.63574C115.178 8.18587 115.56 7.23405 115.56 6.78027C115.56 6.14941 115.017 5.83398 113.933 5.83398C113.302 5.88932 112.184 6.02767 110.579 6.24902C108.974 6.45931 107.419 6.71387 105.914 7.0127C104.564 7.26725 103.479 7.53288 102.66 7.80957C101.852 8.0752 101.282 8.29655 100.95 8.47363C100.618 8.65072 100.413 8.77799 100.336 8.85547C101.155 8.8112 101.847 8.78906 102.411 8.78906C103.297 8.78906 103.739 8.88867 103.739 9.08789C103.739 9.17643 103.429 9.29264 102.81 9.43652C102.19 9.56934 101.603 9.71322 101.05 9.86816C100.507 10.0231 99.9762 10.2057 99.4561 10.416C98.9469 10.6263 98.637 10.7314 98.5264 10.7314C98.2718 10.7314 98.0615 10.6374 97.8955 10.4492C97.7295 10.25 97.6465 10.012 97.6465 9.73535C97.6465 9.5472 97.7959 9.06022 98.0947 8.27441C98.4046 7.47754 98.8363 6.68066 99.3896 5.88379C99.943 5.07585 100.629 4.47819 101.448 4.09082C101.747 3.94694 102.699 3.68685 104.304 3.31055C105.92 2.93424 107.74 2.59115 109.766 2.28125C111.791 1.97135 113.645 1.81641 115.327 1.81641C116.345 1.81641 117.159 1.96029 117.768 2.24805C118.387 2.52474 118.697 3.12793 118.697 4.05762C118.697 4.35645 118.587 4.82129 118.365 5.45215C118.144 6.07194 117.79 6.86882 117.303 7.84277C116.827 8.81673 116.24 9.88477 115.543 11.0469C114.857 12.209 114.071 13.4375 113.186 14.7324H115.742L113.534 17.9033C113.235 17.9255 112.859 17.9421 112.405 17.9531C111.963 17.9642 111.476 17.9808 110.944 18.0029C109.583 19.7738 108.105 21.4395 106.512 23C104.929 24.5605 103.49 25.8112 102.195 26.752C100.911 27.6927 100.009 28.1631 99.4893 28.1631C99.279 28.1631 99.0964 28.0911 98.9414 27.9473C98.7865 27.8145 98.709 27.6374 98.709 27.416C98.709 27.2279 98.9525 26.7464 99.4395 25.9717C99.9375 25.1969 100.624 24.472 101.498 23.7969C102.372 23.1217 103.368 22.7454 104.486 22.668C104.94 22.1921 105.327 21.7715 105.648 21.4062C105.98 21.0299 106.445 20.4932 107.043 19.7959C107.641 19.0876 108.1 18.5452 108.421 18.1689L103.424 18.418C102.882 18.4401 102.505 18.418 102.295 18.3516C102.096 18.2741 101.996 18.0915 101.996 17.8037C101.996 17.8037 102.051 17.6654 102.162 17.3887C102.273 17.1009 102.389 16.8519 102.511 16.6416C102.688 16.3206 102.826 16.127 102.926 16.0605C103.036 15.9941 103.341 15.9056 103.839 15.7949L106.894 15.0479C107.713 14.8376 108.283 14.7324 108.604 14.7324Z" fill="#050038"/>
<path d="M95.1729 9.1543H95.8867C96.4733 8.10286 97.0046 7.36133 97.4805 6.92969C97.9564 6.48698 98.4987 6.26562 99.1074 6.26562C99.7161 6.26562 100.021 6.40397 100.021 6.68066C100.021 6.81348 99.7826 7.17318 99.3066 7.75977C98.8307 8.34635 98.471 8.83887 98.2275 9.2373C98.6038 9.28158 98.9359 9.32031 99.2236 9.35352C99.5225 9.38672 99.7549 9.41439 99.9209 9.43652C99.29 10.6097 98.4987 11.8105 97.5469 13.0391C97.237 13.0169 96.9769 13.0003 96.7666 12.9893C96.5563 12.9671 96.3405 12.9505 96.1191 12.9395C95.9089 12.9173 95.6488 12.8952 95.3389 12.873C94.7412 13.8359 94.2376 14.6992 93.8281 15.4629C93.4297 16.2155 93.1198 16.9072 92.8984 17.5381C92.6882 18.1689 92.583 18.7666 92.583 19.3311C92.583 20.0947 92.8874 20.4766 93.4961 20.4766C93.9167 20.4766 94.4645 20.2552 95.1396 19.8125C95.8258 19.3587 96.7389 18.667 97.8789 17.7373V18.8496C94.8906 22.0924 92.6826 23.7139 91.2549 23.7139C90.7568 23.7139 90.3529 23.5202 90.043 23.1328C89.7441 22.7454 89.5947 22.2474 89.5947 21.6387C89.5947 21.2292 89.6777 20.7422 89.8438 20.1777C90.0208 19.6133 90.3307 18.7611 90.7734 17.6211C90.6185 17.7539 90.4691 17.8867 90.3252 18.0195C90.1924 18.1413 90.0651 18.2575 89.9434 18.3682C89.8327 18.4678 89.7109 18.5785 89.5781 18.7002C89.4453 18.8109 89.3125 18.9271 89.1797 19.0488V17.9033C90.3418 16.9294 91.7474 15.2194 93.3965 12.7734C93.2305 12.7624 93.0755 12.7568 92.9316 12.7568C92.7878 12.7458 92.6162 12.7402 92.417 12.7402C91.764 12.7402 91.277 12.7845 90.9561 12.873C90.8232 12.9062 90.696 12.945 90.5742 12.9893C90.4635 13.0225 90.3861 13.0391 90.3418 13.0391C90.2975 13.0391 90.2754 13.0059 90.2754 12.9395C90.2754 12.5742 90.5023 12.0264 90.9561 11.2959C91.3213 10.6761 91.6644 10.2168 91.9854 9.91797C92.3174 9.61914 92.7158 9.41992 93.1807 9.32031C93.6566 9.20964 94.3206 9.1543 95.1729 9.1543Z" fill="#050038"/>
<path d="M88.1172 14.7656C86.1693 16.9349 85.1953 18.4456 85.1953 19.2979C85.1953 19.7738 85.389 20.0117 85.7764 20.0117C86.0973 20.0117 86.5124 19.8457 87.0215 19.5137C87.5417 19.1706 88.3496 18.5674 89.4453 17.7041V18.8496C87.8737 20.3991 86.6673 21.5169 85.8262 22.2031C84.985 22.8893 84.2988 23.2324 83.7676 23.2324C82.86 23.2324 82.4062 22.6348 82.4062 21.4395C82.4062 21.0853 82.4616 20.7367 82.5723 20.3936C82.6829 20.0505 82.8324 19.6963 83.0205 19.3311C83.2197 18.9548 83.5186 18.4235 83.917 17.7373C84.3154 17.04 84.7747 16.2542 85.2949 15.3799C84.6641 15.7008 83.8727 16.3372 82.9209 17.2891C82.3011 17.8867 81.7754 18.4567 81.3438 18.999C80.9121 19.5303 80.4473 20.1279 79.9492 20.792C79.4622 21.445 79.1025 21.8877 78.8701 22.1201C78.6488 22.3415 78.4219 22.4521 78.1895 22.4521C77.8353 22.4521 77.5088 22.0814 77.21 21.3398C76.9111 20.5983 76.7617 19.735 76.7617 18.75C76.7617 18.1413 76.8281 17.6654 76.9609 17.3223C77.1048 16.9792 77.3815 16.4922 77.791 15.8613C78.5547 14.6882 79.2132 13.8304 79.7666 13.2881C80.32 12.7347 80.8512 12.458 81.3604 12.458C81.7145 12.458 81.9967 12.5189 82.207 12.6406C82.4284 12.7624 82.5391 12.9505 82.5391 13.2051C82.5391 13.3158 82.5059 13.432 82.4395 13.5537C82.373 13.6755 82.2956 13.7861 82.207 13.8857C82.1296 13.9854 81.958 14.179 81.6924 14.4668C79.9437 16.4036 79.0693 17.6598 79.0693 18.2354C79.0693 18.5563 79.1745 18.7168 79.3848 18.7168C79.5176 18.7168 79.7721 18.5065 80.1484 18.0859C80.5358 17.6543 81.0283 17.0954 81.626 16.4092C82.2347 15.7119 82.9486 14.987 83.7676 14.2344C84.5977 13.4818 85.5384 12.7568 86.5898 12.0596C87.1764 11.6501 87.6634 11.4453 88.0508 11.4453C88.2279 11.4453 88.3994 11.6888 88.5654 12.1758C88.7425 12.6628 88.8311 13.1553 88.8311 13.6533C88.8311 13.8968 88.5931 14.2676 88.1172 14.7656Z" fill="#050038"/>
<path d="M69.6562 18.3691V18.7842C69.6562 19.4372 69.8167 19.9463 70.1377 20.3115C70.4587 20.6768 70.8792 20.8594 71.3994 20.8594C71.9417 20.8594 72.5007 20.7321 73.0762 20.4775C73.6628 20.223 74.2438 19.8854 74.8193 19.4648C75.3949 19.0443 76.0977 18.4798 76.9277 17.7715V18.7842C75.6771 20.2894 74.5039 21.446 73.4082 22.2539C72.3125 23.0508 71.2002 23.4492 70.0713 23.4492C69.0863 23.4492 68.306 23.0674 67.7305 22.3037C67.1549 21.54 66.8672 20.4941 66.8672 19.166C66.8672 18.0039 67.1383 16.9525 67.6807 16.0117C68.223 15.0599 69.1084 14.0583 70.3369 13.0068C71.1781 12.2874 72.0137 11.7451 72.8438 11.3799C73.6738 11.0146 74.4154 10.832 75.0684 10.832C75.5885 10.832 75.998 10.9538 76.2969 11.1973C76.6068 11.4297 76.7617 11.7839 76.7617 12.2598C76.7617 12.957 76.5016 13.6543 75.9814 14.3516C75.4613 15.0378 74.6644 15.724 73.5908 16.4102C72.5283 17.0853 71.2168 17.7383 69.6562 18.3691ZM69.8223 17.29C70.8184 16.9027 71.6706 16.4212 72.3789 15.8457C73.0872 15.2702 73.6074 14.7223 73.9395 14.2021C74.2826 13.6709 74.4541 13.2835 74.4541 13.04C74.4541 12.7855 74.3379 12.6582 74.1055 12.6582C73.9062 12.6582 73.5798 12.7855 73.126 13.04C72.6833 13.2946 72.2295 13.6266 71.7646 14.0361C71.3109 14.4456 70.9014 14.9271 70.5361 15.4805C70.1709 16.0339 69.9329 16.637 69.8223 17.29Z" fill="#050038"/>
<path d="M65.7715 14.7656C63.8236 16.9349 62.8496 18.4456 62.8496 19.2979C62.8496 19.7738 63.0433 20.0117 63.4307 20.0117C63.7516 20.0117 64.1667 19.8457 64.6758 19.5137C65.196 19.1706 66.0039 18.5674 67.0996 17.7041V18.8496C65.528 20.3991 64.3216 21.5169 63.4805 22.2031C62.6393 22.8893 61.9531 23.2324 61.4219 23.2324C60.5143 23.2324 60.0605 22.6348 60.0605 21.4395C60.0605 21.0853 60.1159 20.7367 60.2266 20.3936C60.3372 20.0505 60.4867 19.6963 60.6748 19.3311C60.874 18.9548 61.1729 18.4235 61.5713 17.7373C61.9697 17.04 62.429 16.2542 62.9492 15.3799C62.3184 15.7008 61.527 16.3372 60.5752 17.2891C59.9554 17.8867 59.4297 18.4567 58.998 18.999C58.5664 19.5303 58.1016 20.1279 57.6035 20.792C57.1165 21.445 56.7568 21.8877 56.5244 22.1201C56.3031 22.3415 56.0762 22.4521 55.8438 22.4521C55.4896 22.4521 55.1631 22.0814 54.8643 21.3398C54.5654 20.5983 54.416 19.735 54.416 18.75C54.416 18.1413 54.4824 17.6654 54.6152 17.3223C54.7591 16.9792 55.0358 16.4922 55.4453 15.8613C56.209 14.6882 56.8675 13.8304 57.4209 13.2881C57.9743 12.7347 58.5055 12.458 59.0146 12.458C59.3688 12.458 59.651 12.5189 59.8613 12.6406C60.0827 12.7624 60.1934 12.9505 60.1934 13.2051C60.1934 13.3158 60.1602 13.432 60.0938 13.5537C60.0273 13.6755 59.9499 13.7861 59.8613 13.8857C59.7839 13.9854 59.6123 14.179 59.3467 14.4668C57.598 16.4036 56.7236 17.6598 56.7236 18.2354C56.7236 18.5563 56.8288 18.7168 57.0391 18.7168C57.1719 18.7168 57.4264 18.5065 57.8027 18.0859C58.1901 17.6543 58.6826 17.0954 59.2803 16.4092C59.889 15.7119 60.6029 14.987 61.4219 14.2344C62.252 13.4818 63.1927 12.7568 64.2441 12.0596C64.8307 11.6501 65.3177 11.4453 65.7051 11.4453C65.8822 11.4453 66.0537 11.6888 66.2197 12.1758C66.3968 12.6628 66.4854 13.1553 66.4854 13.6533C66.4854 13.8968 66.2474 14.2676 65.7715 14.7656Z" fill="#050038"/>
<path d="M54.5986 17.7363V18.8486C53.8682 19.5127 53.2816 19.9554 52.8389 20.1768C52.3962 20.3981 51.7598 20.4867 50.9297 20.4424C49.4909 22.1468 48.2236 22.999 47.1279 22.999C46.5081 22.999 45.9437 22.7943 45.4346 22.3848C44.9255 21.9753 44.516 21.4163 44.2061 20.708C43.9072 19.9997 43.7578 19.2083 43.7578 18.334C43.7578 17.6257 43.9902 16.8398 44.4551 15.9766C44.931 15.1133 45.5397 14.3109 46.2812 13.5693C47.0339 12.8167 47.8363 12.2135 48.6885 11.7598C49.5407 11.2949 50.332 11.0625 51.0625 11.0625C51.5827 11.0625 51.9922 11.1455 52.291 11.3115C52.5898 11.4665 52.7393 11.6878 52.7393 11.9756C52.7393 12.1969 52.612 12.4515 52.3574 12.7393C52.778 12.8278 53.0658 12.9772 53.2207 13.1875C53.3757 13.3867 53.4531 13.7575 53.4531 14.2998C53.4531 14.8311 53.3258 15.5007 53.0713 16.3086C52.8278 17.1165 52.4902 17.8747 52.0586 18.583L52.3574 18.8818H52.6064C52.7946 18.8818 52.9772 18.8376 53.1543 18.749C53.3424 18.6494 53.5085 18.5498 53.6523 18.4502C53.7962 18.3395 54.1117 18.1016 54.5986 17.7363ZM51.1787 13.3701C50.2601 13.9235 49.4743 14.4271 48.8213 14.8809C48.1683 15.3236 47.6149 15.7773 47.1611 16.2422C46.7074 16.696 46.403 17.1553 46.248 17.6201C45.9714 18.8597 45.833 19.5293 45.833 19.6289C45.833 20.3594 46.3421 20.7246 47.3604 20.7246C47.8363 20.7246 48.6331 20.3151 49.751 19.4961C49.5628 18.9759 49.4688 18.4779 49.4688 18.002C49.4688 17.3047 49.6126 16.5964 49.9004 15.877C50.1882 15.1465 50.6143 14.3109 51.1787 13.3701Z" fill="#050038"/>
<path d="M29.9121 19.165V18.0029C31.4616 16.3206 32.7952 14.738 33.9131 13.2549C35.042 11.7718 35.9329 10.5931 36.5859 9.71875C37.2389 8.8444 37.8145 8.23014 38.3125 7.87598C38.8105 7.51074 39.4359 7.32812 40.1885 7.32812C40.5648 7.32812 40.7529 7.47201 40.7529 7.75977C40.7529 7.99219 40.598 8.33529 40.2881 8.78906C39.9893 9.24284 39.6019 9.70768 39.126 10.1836C38.4951 10.8034 37.8753 11.5837 37.2666 12.5244C36.6689 13.4541 35.9883 14.6439 35.2246 16.0938C35.8223 15.6289 36.5085 15.0811 37.2832 14.4502C38.069 13.8083 38.7054 13.3102 39.1924 12.9561C39.6904 12.5908 40.1774 12.3031 40.6533 12.0928C41.1403 11.8825 41.6273 11.7773 42.1143 11.7773C42.4242 11.7773 42.6234 11.8327 42.7119 11.9434C42.8115 12.054 42.8613 12.2699 42.8613 12.5908C42.8613 13.432 42.6566 14.2565 42.2471 15.0645C41.8376 15.8613 41.251 16.6914 40.4873 17.5547C39.7236 18.418 38.7829 19.3587 37.665 20.377C38.0524 20.5208 38.4508 20.5928 38.8604 20.5928C40.1442 20.5928 41.8652 19.6133 44.0234 17.6543V18.8496C43.1823 19.6022 42.3577 20.3105 41.5498 20.9746C40.7529 21.6387 40.0003 22.1699 39.292 22.5684C38.5837 22.9668 37.9307 23.166 37.333 23.166C37.1117 23.166 36.8737 23.1383 36.6191 23.083C36.3757 23.0387 36.1488 22.9834 35.9385 22.917C35.7282 22.8395 35.457 22.7344 35.125 22.6016C34.793 22.4688 34.5384 22.3747 34.3613 22.3193C34.0072 22.4079 33.8079 22.4521 33.7637 22.4521C33.3763 22.4521 32.9225 22.2972 32.4023 21.9873C32.0371 22.6956 31.6331 23.6087 31.1904 24.7266C30.7588 25.8555 30.3936 26.752 30.0947 27.416C29.7959 28.0801 29.3975 28.7165 28.8994 29.3252C28.6227 29.6019 28.429 29.7402 28.3184 29.7402C27.8424 29.7402 27.6045 29.3197 27.6045 28.4785C27.6045 27.748 27.7539 26.9844 28.0527 26.1875C28.3405 25.4017 28.7002 24.6546 29.1318 23.9463C29.5524 23.238 30.0173 22.5241 30.5264 21.8047C31.0355 21.0742 31.3952 20.5319 31.6055 20.1777C33.3542 17.1673 34.7155 14.6051 35.6895 12.4912C33.1439 15.5902 31.2181 17.8148 29.9121 19.165ZM36.6523 19.9785C37.748 18.8275 38.5615 17.848 39.0928 17.04C39.6351 16.2321 39.9062 15.6123 39.9062 15.1807C39.9062 14.7712 39.7015 14.5664 39.292 14.5664C38.7386 14.5664 37.9583 15.0257 36.9512 15.9443C35.9551 16.8519 34.9258 18.0804 33.8633 19.6299C34.6823 19.5413 35.2301 19.5137 35.5068 19.5469C35.7835 19.569 36.1654 19.7129 36.6523 19.9785Z" fill="#050038"/>
<path d="M23.4541 17.7705V13.8525C23.0446 13.9521 22.6517 14.1292 22.2754 14.3838C21.9102 14.6383 21.5173 14.9538 21.0967 15.3301C20.6872 15.7064 20.4326 15.8945 20.333 15.8945C20.2113 15.8945 20.1504 15.734 20.1504 15.4131C20.1504 15.0921 20.4769 14.5277 21.1299 13.7197C21.7939 12.9007 22.5244 12.1481 23.3213 11.4619C24.1182 10.7646 24.6937 10.416 25.0479 10.416C25.2581 10.416 25.4408 10.5378 25.5957 10.7812C25.7507 11.0247 25.8281 11.3568 25.8281 11.7773C25.8281 12.054 25.8226 12.3086 25.8115 12.541C25.8005 12.7734 25.7894 13.0833 25.7783 13.4707C25.7673 13.8581 25.7507 14.417 25.7285 15.1475C28.1745 12.5355 29.6243 11.2295 30.0781 11.2295C30.2109 11.2295 30.3161 11.2848 30.3936 11.3955C30.4821 11.4951 30.5264 11.6224 30.5264 11.7773C30.5264 12.1426 30.2275 12.707 29.6299 13.4707C29.0433 14.2233 28.6504 14.5996 28.4512 14.5996C28.1745 14.5996 27.9587 14.5553 27.8037 14.4668L25.6953 17.1562C25.7174 18.1302 25.8005 18.8551 25.9443 19.3311C26.0993 19.807 26.3704 20.0449 26.7578 20.0449C27.0898 20.0449 27.4772 19.8789 27.9199 19.5469C28.3626 19.2148 29.082 18.6006 30.0781 17.7041V18.8496C27.8092 21.9818 26.2044 23.5479 25.2637 23.5479C24.6771 23.5479 24.2565 23.238 24.002 22.6182C23.7585 21.9984 23.598 21.0465 23.5205 19.7627C23.1331 20.1611 22.6794 20.6426 22.1592 21.207C21.639 21.7715 21.2572 22.1755 21.0137 22.4189C20.7812 22.6514 20.5654 22.8451 20.3662 23C20.1781 23.1549 20.0065 23.2324 19.8516 23.2324C19.6966 23.2324 19.6191 23.0996 19.6191 22.834C19.6191 22.3913 19.8516 21.7826 20.3164 21.0078C20.7923 20.2331 21.1354 19.8457 21.3457 19.8457C21.3678 19.8457 21.4176 19.8568 21.4951 19.8789C21.5726 19.901 21.6113 19.9121 21.6113 19.9121L23.4541 17.7705Z" fill="#050038"/>
<path d="M21.1299 2.08203V3.21094C21.1299 3.67578 21.0358 3.96908 20.8477 4.09082C20.6706 4.21257 20.001 4.53906 18.8389 5.07031C17.6878 5.60156 16.5811 6.22689 15.5186 6.94629C15.9281 6.34863 16.2988 5.90592 16.6309 5.61816C16.974 5.3304 17.4333 4.9707 18.0088 4.53906C17.5107 4.33984 16.819 4.24023 15.9336 4.24023C14.5612 4.24023 13.0781 4.51139 11.4844 5.05371C9.90169 5.59603 8.55143 6.24349 7.43359 6.99609C6.32682 7.7487 5.77344 8.37956 5.77344 8.88867C5.77344 9.1543 5.93945 9.37565 6.27148 9.55273C6.61458 9.71875 7.1569 9.85156 7.89844 9.95117C8.65104 10.0397 9.58626 10.1006 10.7041 10.1338C11.8219 10.167 13.1999 10.1836 14.8379 10.1836C16.0332 10.1836 16.8024 10.2279 17.1455 10.3164C17.4886 10.4049 17.6602 10.6097 17.6602 10.9307C17.6602 11.3402 17.4554 11.8105 17.0459 12.3418C16.6475 12.862 16.1162 13.1719 15.4521 13.2715C14.4229 13.4375 13.6038 13.5814 12.9951 13.7031C12.3864 13.8138 11.6615 14.0075 10.8203 14.2842C9.99023 14.5609 9.06608 14.9593 8.04785 15.4795C6.53158 16.2764 5.34733 17.0843 4.49512 17.9033C3.6429 18.7223 3.2168 19.4473 3.2168 20.0781C3.2168 20.6204 3.52116 21.0465 4.12988 21.3564C4.73861 21.6553 5.61296 21.8047 6.75293 21.8047C10.682 21.8047 14.6829 20.0394 18.7559 16.5088C18.778 17.5934 18.6562 18.5508 18.3906 19.3809C18.1361 20.1999 17.6104 20.9857 16.8135 21.7383C16.1494 22.3691 15.1755 22.9723 13.8916 23.5479C12.6188 24.1234 11.2243 24.5827 9.70801 24.9258C8.2028 25.2689 6.78613 25.4404 5.45801 25.4404C3.9196 25.4404 2.64681 25.0697 1.63965 24.3281C0.632487 23.5977 0.128906 22.6237 0.128906 21.4062C0.128906 20.5208 0.372396 19.641 0.859375 18.7666C1.34635 17.8923 2.09342 17.0566 3.10059 16.2598C4.10775 15.4518 5.38053 14.7214 6.91895 14.0684C8.46842 13.4154 10.2503 12.9007 12.2646 12.5244C12.5524 12.4691 12.6963 12.3805 12.6963 12.2588C12.6963 12.126 12.5247 12.0485 12.1816 12.0264C11.8496 11.9932 11.2298 11.971 10.3223 11.96C9.42578 11.9489 8.63444 11.9102 7.94824 11.8438C7.26204 11.7773 6.53711 11.6335 5.77344 11.4121C4.98763 11.1686 4.37891 10.7425 3.94727 10.1338C3.52669 9.52507 3.31641 8.84993 3.31641 8.1084C3.31641 7.15658 3.65951 6.19922 4.3457 5.23633C5.0319 4.27344 6.00033 3.40462 7.25098 2.62988C8.50163 1.85514 10.0124 1.23535 11.7832 0.770508C13.5651 0.294596 15.513 0.0566406 17.627 0.0566406C18.8444 0.0566406 19.6911 0.128581 20.167 0.272461C20.654 0.405273 20.9362 0.587891 21.0137 0.820312C21.0911 1.04167 21.1299 1.46224 21.1299 2.08203Z" fill="#050038"/>
</svg>
