<svg width="87" height="18" viewBox="0 0 87 18" fill="none" xmlns="http://www.w3.org/2000/svg">
<path d="M80.5557 17.3428V17.0059C80.5557 16.8936 80.5594 16.7176 80.5669 16.478C80.5744 16.231 80.5781 16.0326 80.5781 15.8828V15.2988C80.5781 13.472 80.6979 12.5586 80.9375 12.5586H85.542C86.2607 12.5586 86.6201 12.6634 86.6201 12.873C86.6501 14.3105 86.665 15.4111 86.665 16.1748V16.5566C86.665 16.609 86.6688 16.6914 86.6763 16.8037C86.6838 16.9085 86.6875 16.9909 86.6875 17.0508C86.6875 17.4701 86.6051 17.6797 86.4404 17.6797H80.915L80.5557 17.3428Z" fill="#050038"/>
<path d="M64.0469 17.0955C63.9121 16.8708 63.8223 16.7136 63.7773 16.6238V1.86694H68.7412C68.7637 1.86694 68.8236 1.86694 68.9209 1.86694C69.0182 1.85946 69.0931 1.85946 69.1455 1.86694C69.1979 1.86694 69.269 1.87069 69.3589 1.87817C69.4562 1.88566 69.5348 1.90063 69.5947 1.9231C69.6546 1.93807 69.7145 1.96427 69.7744 2.00171C69.8418 2.03166 69.8942 2.07658 69.9316 2.13647C69.9766 2.19637 70.0065 2.26375 70.0215 2.33862V7.32495C70.2686 6.83081 70.613 6.11955 71.0547 5.19116C71.5039 4.26278 71.8333 3.58895 72.043 3.16968L72.5933 1.99048L73.6602 1.95679C73.8099 1.95679 74.0345 1.96427 74.334 1.97925C74.641 1.99422 74.8656 2.00171 75.0078 2.00171H75.8613C75.9212 2.00171 76.0073 1.99797 76.1196 1.99048C76.2394 1.98299 76.3255 1.97925 76.3779 1.97925H77.0293C77.0592 1.97925 77.1117 1.97176 77.1865 1.95679C78.3994 1.95679 79.0059 2.04663 79.0059 2.22632C79.0059 2.33114 78.9385 2.47339 78.8037 2.65308C78.4593 3.19963 77.8791 4.19914 77.063 5.65161C76.2469 7.0966 75.5881 8.18595 75.0864 8.91968L79.4775 16.489C79.4775 16.4965 79.4775 16.5227 79.4775 16.5676C79.4775 16.6125 79.4775 16.6425 79.4775 16.6575C79.4775 16.6724 79.4738 16.6986 79.4663 16.7361C79.4663 16.766 79.4626 16.7922 79.4551 16.8147C79.4476 16.8297 79.4364 16.8521 79.4214 16.8821C79.4139 16.9045 79.3989 16.927 79.3765 16.9495C79.3615 16.9644 79.3428 16.9832 79.3203 17.0056C78.6165 16.9607 77.5684 16.9382 76.1758 16.9382C75.9886 16.9382 75.7004 16.942 75.311 16.9495C74.9217 16.9569 74.6335 16.9607 74.4463 16.9607H72.9189V16.6462C72.7992 16.4441 72.5409 16.0473 72.144 15.4558C71.7472 14.8643 71.459 14.4001 71.2793 14.0632L70.0215 11.6599V16.6462C69.9167 16.9457 69.5049 17.0955 68.7861 17.0955H64.0469Z" fill="#050038"/>
<path d="M55.2422 17.0732V2.31641C55.2497 2.25651 55.3096 2.2041 55.4219 2.15918C55.5342 2.10677 55.6016 2.06934 55.624 2.04688H61.666V16.6689C61.6286 16.8262 61.5911 16.9347 61.5537 16.9946C61.5238 17.047 61.4714 17.0732 61.3965 17.0732H55.2422Z" fill="#050038"/>
<path d="M41.1816 6.13477V2.0918H54.2539C54.3737 2.11426 54.4486 2.16292 54.4785 2.23779C54.5085 2.30518 54.5234 2.40625 54.5234 2.54102V6.13477C54.5085 6.31445 54.4036 6.4043 54.209 6.4043H51.0195V16.7363C51.0195 16.7438 51.0158 16.7625 51.0083 16.7925C51.0008 16.8224 50.9971 16.8411 50.9971 16.8486C50.9971 16.8561 50.9933 16.8711 50.9858 16.8936C50.9784 16.916 50.9709 16.931 50.9634 16.9385C50.9559 16.946 50.9484 16.9609 50.9409 16.9834C50.9334 16.9984 50.9222 17.0096 50.9072 17.0171C50.8997 17.0171 50.8848 17.0246 50.8623 17.0396C50.8473 17.047 50.8286 17.0545 50.8062 17.062C50.7912 17.0695 50.7687 17.077 50.7388 17.0845C50.7163 17.0845 50.6901 17.0882 50.6602 17.0957H49.9414C48.9831 17.0957 48.5039 17.0658 48.5039 17.0059C48.444 17.0059 48.3542 17.0096 48.2344 17.0171C48.1146 17.0246 48.0247 17.0283 47.9648 17.0283H47.0664C46.8942 17.0283 46.6471 17.0321 46.3252 17.0396C46.0107 17.047 45.7637 17.0508 45.584 17.0508H44.9551L44.5059 16.7363V14.3105C44.5133 13.8763 44.5433 12.9479 44.5957 11.5254C44.6556 10.1029 44.6855 8.97982 44.6855 8.15625V7.86426C44.6855 7.80436 44.6893 7.71077 44.6968 7.5835C44.7043 7.45622 44.708 7.36263 44.708 7.30273C44.708 7.23535 44.7043 7.10059 44.6968 6.89844C44.6893 6.6888 44.6855 6.55404 44.6855 6.49414H41.8779C41.7132 6.49414 41.556 6.46794 41.4062 6.41553C41.2565 6.35563 41.1816 6.26204 41.1816 6.13477Z" fill="#050038"/>
<path d="M25.2119 9.36914L25.1895 9.12207C25.3317 7.90169 25.4665 7.05192 25.5938 6.57275C25.8857 5.44971 26.4098 4.51009 27.166 3.75391L27.4355 3.48438C27.7949 3.0651 28.3415 2.70573 29.0752 2.40625H29.502C30.2357 2.09928 31.4411 1.81478 33.1182 1.55273C33.5374 1.55273 33.9754 1.58643 34.4321 1.65381C34.8963 1.7137 35.4092 1.81852 35.9707 1.96826C36.5322 2.11051 37.0713 2.34261 37.5879 2.66455C38.112 2.979 38.5462 3.3571 38.8906 3.79883V4.11328C40.1185 5.64811 40.7324 7.37012 40.7324 9.2793C40.7324 11.4281 40.2383 13.18 39.25 14.5352L38.8008 15.0967C38.4564 15.5234 38.0259 15.8903 37.5093 16.1973C37.0002 16.5042 36.4574 16.7401 35.8809 16.9048C35.3044 17.062 34.7503 17.1743 34.2188 17.2417C33.6947 17.3091 33.1706 17.3428 32.6465 17.3428C31.8753 17.3428 31.1379 17.2529 30.4341 17.0732C29.7378 16.8861 29.0827 16.5978 28.4688 16.2085C27.8623 15.8192 27.327 15.34 26.8628 14.771C26.3986 14.202 26.0205 13.5169 25.7285 12.7158C25.444 11.9072 25.2718 11.0163 25.2119 10.043V9.36914ZM31.3887 9.45898C31.3887 12.0944 31.8903 13.4121 32.8936 13.4121C33.1706 13.4121 33.4102 13.3597 33.6123 13.2549C33.8219 13.1501 33.9904 12.9891 34.1177 12.772C34.245 12.5549 34.3498 12.334 34.4321 12.1094C34.5145 11.8848 34.5706 11.604 34.6006 11.2671C34.638 10.9302 34.6605 10.6344 34.668 10.3799C34.6829 10.1253 34.6904 9.81836 34.6904 9.45898V9.05469C34.6904 8.66536 34.668 8.29102 34.623 7.93164C34.5781 7.57227 34.4995 7.21289 34.3872 6.85352C34.2824 6.48665 34.1177 6.19466 33.8931 5.97754C33.6685 5.75293 33.3952 5.64062 33.0732 5.64062C31.9502 5.64062 31.3887 6.7487 31.3887 8.96484V9.45898Z" fill="#050038"/>
<path d="M17.4404 17.0732V2.31641C17.4479 2.25651 17.5078 2.2041 17.6201 2.15918C17.7324 2.10677 17.7998 2.06934 17.8223 2.04688H23.8643V16.6689C23.8268 16.8262 23.7894 16.9347 23.752 16.9946C23.722 17.047 23.6696 17.0732 23.5947 17.0732H17.4404Z" fill="#050038"/>
<path d="M0.0332031 15.9727V0.856445L9.73633 0.519531C10.3353 0.519531 10.8968 0.556966 11.4209 0.631836C11.945 0.706706 12.4728 0.848958 13.0044 1.05859C13.5435 1.26074 14.0002 1.52653 14.3745 1.85596C14.7563 2.1779 15.0671 2.6084 15.3066 3.14746C15.5462 3.68652 15.666 4.30794 15.666 5.01172C15.666 5.94759 15.4601 6.70752 15.0483 7.2915C14.6366 7.868 14.0189 8.38086 13.1953 8.83008C14.1611 9.09961 14.8949 9.56755 15.3965 10.2339C15.9056 10.8927 16.1602 11.7275 16.1602 12.7383C16.1602 13.487 16.0179 14.1608 15.7334 14.7598C15.4489 15.3512 15.082 15.8341 14.6328 16.2085C14.1836 16.5828 13.6558 16.8936 13.0493 17.1406C12.4429 17.3877 11.8402 17.5599 11.2412 17.6572C10.6497 17.762 10.0433 17.8145 9.42188 17.8145C9.0625 17.8145 8.51969 17.807 7.79346 17.792C7.07471 17.777 6.5319 17.7695 6.16504 17.7695C4.08366 17.7695 2.17448 17.7995 0.4375 17.8594C0.19043 17.4626 0.0556641 16.8337 0.0332031 15.9727ZM6.47949 4.60742C6.47949 4.94434 6.49072 5.44596 6.51318 6.1123C6.53564 6.77865 6.54688 7.28027 6.54688 7.61719C6.54688 7.75944 6.63672 7.8418 6.81641 7.86426C6.92122 7.84928 7.10091 7.82682 7.35547 7.79688C7.61751 7.75944 7.8234 7.72949 7.97314 7.70703C8.12288 7.68457 8.30257 7.63216 8.51221 7.5498C8.72933 7.45996 8.89779 7.35514 9.01758 7.23535C9.13737 7.11556 9.24219 6.94336 9.33203 6.71875C9.42188 6.48665 9.4668 6.21712 9.4668 5.91016C9.4668 4.77214 8.68066 4.20312 7.1084 4.20312C6.79395 4.25553 6.61051 4.30794 6.55811 4.36035C6.5057 4.42025 6.47949 4.5026 6.47949 4.60742ZM6.68164 13.165C6.68164 13.7191 6.71159 13.9961 6.77148 13.9961H7.13086C7.42285 13.9961 7.67367 13.9886 7.8833 13.9736C8.10042 13.9512 8.33252 13.9025 8.57959 13.8276C8.82666 13.7528 9.02507 13.6517 9.1748 13.5244C9.32454 13.3896 9.45182 13.2025 9.55664 12.9629C9.66146 12.7233 9.71387 12.4388 9.71387 12.1094C9.71387 11.9222 9.69515 11.75 9.65771 11.5928C9.62028 11.4355 9.56038 11.3008 9.47803 11.1885C9.39567 11.0762 9.31331 10.9788 9.23096 10.8965C9.15609 10.8141 9.04378 10.7467 8.89404 10.6943C8.75179 10.6344 8.632 10.5895 8.53467 10.5596C8.44482 10.5221 8.30632 10.4922 8.11914 10.4697C7.93197 10.4473 7.7972 10.4323 7.71484 10.4248C7.63249 10.4173 7.49023 10.4098 7.28809 10.4023C7.08594 10.3874 6.95866 10.3799 6.90625 10.3799V10.8066C6.89876 10.889 6.85758 11.166 6.78271 11.6377C6.71533 12.1094 6.68164 12.4837 6.68164 12.7607V13.165Z" fill="#050038"/>
</svg>
