<svg width="187" height="42" viewBox="0 0 187 42" fill="none" xmlns="http://www.w3.org/2000/svg">
<path d="M183.577 25.4521C183.748 25.4521 184.025 25.3241 184.409 25.0681C184.793 24.8121 185.102 24.5561 185.337 24.3001L185.689 23.9481C185.838 23.7988 185.988 23.7241 186.137 23.7241C186.393 23.7241 186.521 23.8735 186.521 24.1721C186.521 24.2788 186.51 24.3641 186.489 24.4281C185.934 25.7721 184.91 26.8495 183.417 27.6601C181.924 28.4921 180.59 28.9081 179.417 28.9081C177.134 28.9081 175.993 28.0121 175.993 26.2201C175.993 25.9855 176.27 25.6121 176.825 25.1001C177.38 24.5881 177.785 24.2681 178.041 24.1401C178.212 24.0121 178.34 23.9481 178.425 23.9481C178.532 23.9481 178.617 23.9908 178.681 24.0761C178.745 24.1615 178.82 24.2681 178.905 24.3961C178.99 24.5241 179.065 24.6308 179.129 24.7161C179.193 24.8015 179.278 24.9188 179.385 25.0681C179.492 25.2175 179.599 25.3455 179.705 25.4521C179.833 25.5375 179.972 25.6228 180.121 25.7081C180.399 25.9215 180.687 26.0281 180.985 26.0281C181.305 26.0281 181.465 25.8468 181.465 25.4841C181.465 24.5881 181.134 23.8201 180.473 23.1801C179.812 22.5188 179.257 22.1881 178.809 22.1881C178.702 22.1881 178.596 22.2521 178.489 22.3801L177.305 23.5641C177.113 23.7561 176.974 23.8521 176.889 23.8521C176.569 23.8521 176.409 23.7135 176.409 23.4361C178.692 20.6415 180.046 19.2441 180.473 19.2441C181.07 19.2441 181.753 19.6495 182.521 20.4601C183.289 21.2708 183.673 22.0815 183.673 22.8921C183.673 23.6601 183.609 24.2468 183.481 24.6521C183.375 25.0575 183.321 25.2921 183.321 25.3561C183.321 25.4201 183.406 25.4521 183.577 25.4521Z" fill="#050038"/>
<path d="M170.254 23.3721C170.254 24.1188 170.478 24.7588 170.926 25.2921C171.374 25.8041 171.96 26.0601 172.686 26.0601C173.432 26.0601 174.04 25.9748 174.51 25.8041C175 25.6121 175.374 25.4308 175.63 25.2601C175.886 25.0681 176.078 24.9721 176.206 24.9721C176.398 24.9721 176.494 25.0681 176.494 25.2601C176.494 25.9215 175.875 26.7001 174.638 27.5961C173.4 28.5135 171.96 28.9721 170.318 28.9721C169.272 28.9721 168.483 28.7055 167.95 28.1721C167.438 27.6601 167.182 26.9775 167.182 26.1241C167.182 24.5881 167.832 23.0628 169.134 21.5481C170.456 20.0121 171.971 19.2441 173.678 19.2441C174.083 19.2441 174.403 19.3721 174.638 19.6281C174.894 19.8628 175.022 20.2148 175.022 20.6841C175.022 21.1321 174.755 21.6441 174.222 22.2201C173.71 22.7748 173.187 23.0521 172.654 23.0521C172.504 23.0521 172.43 22.9775 172.43 22.8281C172.43 22.6788 172.504 22.5188 172.654 22.3481C172.824 22.1775 172.91 21.9748 172.91 21.7401C172.91 21.4841 172.824 21.2388 172.654 21.0041C172.504 20.7695 172.334 20.6521 172.142 20.6521C171.566 20.6521 171.107 20.9188 170.766 21.4521C170.424 21.9641 170.254 22.6041 170.254 23.3721Z" fill="#050038"/>
<path d="M160.738 17.5484C160.418 17.1857 160.258 16.7377 160.258 16.2044C160.258 15.6711 160.418 15.2231 160.738 14.8604C161.079 14.4977 161.495 14.3164 161.986 14.3164C162.476 14.3164 162.882 14.4977 163.202 14.8604C163.543 15.2231 163.714 15.6711 163.714 16.2044C163.714 16.7377 163.543 17.1857 163.202 17.5484C162.882 17.9111 162.476 18.0924 161.986 18.0924C161.495 18.0924 161.079 17.9111 160.738 17.5484ZM167.394 24.5244C167.607 24.3537 167.799 24.2684 167.97 24.2684C168.268 24.2684 168.418 24.4604 168.418 24.8444C168.418 25.3777 167.756 26.1777 166.434 27.2444C165.111 28.2897 163.97 28.8124 163.01 28.8124C162.05 28.8124 161.303 28.4711 160.77 27.7884C160.236 27.1057 159.97 26.2311 159.97 25.1644C159.97 24.0764 160.151 23.0311 160.514 22.0284C160.876 21.0257 161.239 20.5244 161.602 20.5244C161.772 20.5457 161.858 20.8124 161.858 21.3244C161.858 21.8151 161.932 22.3591 162.082 22.9564C162.231 23.5537 162.551 24.1297 163.042 24.6844C163.554 25.2177 164.204 25.4844 164.994 25.4844C165.804 25.4844 166.604 25.1644 167.394 24.5244Z" fill="#050038"/>
<path d="M146.039 24.7488C146.039 24.4075 146.37 23.8528 147.031 23.0848C147.692 22.2955 148.226 21.9008 148.631 21.9008C149.058 21.9008 149.367 22.0608 149.559 22.3808C149.772 22.7008 149.9 23.0528 149.943 23.4368C149.986 23.8208 150.103 24.1728 150.295 24.4928C150.508 24.8128 150.807 24.9728 151.191 24.9728C151.596 24.9728 151.948 24.8022 152.247 24.4608C152.567 24.0982 152.823 23.7035 153.015 23.2768C153.207 22.8288 153.463 22.4342 153.783 22.0928C154.103 21.7302 154.412 21.5488 154.711 21.5488C155.031 21.5488 155.255 21.6768 155.383 21.9328C156.706 24.7702 158.05 26.1888 159.415 26.1888C159.628 26.1888 159.82 26.1568 159.991 26.0928C160.162 26.0288 160.29 25.9968 160.375 25.9968C160.631 25.9968 160.759 26.1995 160.759 26.6048C160.759 27.3302 160.375 27.9808 159.607 28.5568C158.86 29.1328 158.092 29.4208 157.303 29.4208C156.514 29.4208 155.842 29.1648 155.287 28.6528C154.754 28.1408 154.38 27.6182 154.167 27.0848C153.975 26.5302 153.826 25.9968 153.719 25.4848C153.634 24.9728 153.538 24.7168 153.431 24.7168C153.26 24.7168 152.919 25.0582 152.407 25.7408C151.916 26.4022 151.351 27.0742 150.711 27.7568C150.092 28.4395 149.538 28.7808 149.047 28.7808C148.535 28.7168 148.13 28.4608 147.831 28.0128C147.532 27.5862 147.34 27.1382 147.255 26.6688C147.063 25.3888 146.658 24.7488 146.039 24.7488Z" fill="#050038"/>
<path d="M142.474 23.4045L142.346 24.3005C142.346 24.6845 142.506 25.0898 142.826 25.5165C143.167 25.9218 143.562 26.1245 144.01 26.1245C144.351 26.1245 144.629 26.0498 144.842 25.9005C145.311 25.5805 145.599 25.3671 145.706 25.2605C145.834 25.1325 146.026 25.0685 146.282 25.0685C146.559 25.0685 146.698 25.1645 146.698 25.3565C146.698 25.5698 146.197 26.2418 145.194 27.3725C144.874 27.7351 144.405 28.1191 143.786 28.5245C143.167 28.9298 142.613 29.1325 142.122 29.1325C141.653 29.1325 141.29 29.0471 141.034 28.8765C140.799 28.7271 140.629 28.4818 140.522 28.1405C140.394 27.6711 140.33 27.0951 140.33 26.4125C140.33 26.3271 140.277 26.2845 140.17 26.2845C140.063 26.2845 139.818 26.4978 139.434 26.9245C138.239 28.1618 137.269 28.7805 136.522 28.7805C135.797 28.7805 135.231 28.5885 134.826 28.2045C134.442 27.8205 134.25 27.3298 134.25 26.7325C134.25 25.6871 134.527 24.6951 135.082 23.7565C135.637 22.7965 136.298 22.0285 137.066 21.4525C138.773 20.1938 140.095 19.5645 141.034 19.5645C142.442 19.6071 143.146 20.1085 143.146 21.0685C143.146 21.4098 142.997 21.7511 142.698 22.0925C142.399 22.4125 142.122 22.5725 141.866 22.5725C141.61 22.5725 141.258 22.3485 140.81 21.9005C140.362 21.4525 139.871 21.2285 139.338 21.2285C138.805 21.2285 138.367 21.4525 138.026 21.9005C137.685 22.3271 137.514 22.8818 137.514 23.5645C137.514 24.6738 138.101 25.2285 139.274 25.2285C139.743 25.2285 140.127 25.1111 140.426 24.8765C140.746 24.6418 140.97 24.3858 141.098 24.1085C141.461 23.3831 141.791 23.0205 142.09 23.0205C142.346 23.0205 142.474 23.1485 142.474 23.4045Z" fill="#050038"/>
<path d="M130.851 30.6046C130.19 31.5859 129.763 32.4606 129.571 33.2286C129.379 33.9966 129.283 34.9139 129.283 35.9806C129.283 37.0473 129.571 37.6126 130.147 37.6766C130.638 37.6766 130.883 36.1619 130.883 33.1326C130.883 32.0873 130.873 31.2446 130.851 30.6046ZM130.851 29.4846C130.809 28.8019 130.787 27.7566 130.787 26.3486C130.745 26.3486 130.585 26.4873 130.307 26.7646C130.051 27.0206 129.753 27.2979 129.411 27.5966C129.091 27.9166 128.675 28.2046 128.163 28.4606C127.673 28.7379 127.097 28.8766 126.435 28.8766C125.774 28.8766 125.23 28.6739 124.803 28.2686C124.398 27.8633 124.195 27.3193 124.195 26.6366C124.195 25.1646 124.91 23.6499 126.339 22.0926C127.79 20.5139 129.369 19.7246 131.075 19.7246C131.609 19.7246 132.035 19.8526 132.355 20.1086C132.697 20.3433 132.867 20.6526 132.867 21.0366C132.867 21.3779 132.739 21.6979 132.483 21.9966C132.035 22.5086 131.47 22.7646 130.787 22.7646C130.531 22.7646 130.403 22.6899 130.403 22.5406C130.403 22.4553 130.425 22.3593 130.467 22.2526C130.531 22.1459 130.563 22.0073 130.563 21.8366C130.563 21.4099 130.361 21.1966 129.955 21.1966C129.294 21.1966 128.739 21.4846 128.291 22.0606C127.843 22.6366 127.619 23.2019 127.619 23.7566C127.619 24.3113 127.747 24.7273 128.003 25.0046C128.281 25.2606 128.59 25.3886 128.931 25.3886C129.273 25.3886 129.667 25.2286 130.115 24.9086C130.563 24.5886 130.851 24.2259 130.979 23.8206C131.129 23.2659 131.459 22.9886 131.971 22.9886C132.163 22.9886 132.259 23.1379 132.259 23.4366C132.259 23.7139 132.185 24.1086 132.035 24.6206C131.907 25.1113 131.811 25.5593 131.747 25.9646C131.705 26.3486 131.683 27.1806 131.683 28.4606C132.985 26.9246 134.169 25.6659 135.235 24.6846C135.47 24.4499 135.705 24.3326 135.939 24.3326C136.174 24.3326 136.291 24.4179 136.291 24.5886C136.291 24.7379 136.174 24.9193 135.939 25.1326C134.083 26.8179 132.675 28.2579 131.715 29.4526C131.758 30.9886 131.779 32.2366 131.779 33.1966C131.779 35.8206 131.577 37.9219 131.171 39.5006C130.787 41.1006 130.041 41.9006 128.931 41.9006C128.227 41.9006 127.683 41.5593 127.299 40.8766C126.915 40.2153 126.723 39.3086 126.723 38.1566C126.723 35.8313 128.099 32.9406 130.851 29.4846Z" fill="#050038"/>
<path d="M117.321 23.3074L116.457 23.3714C116.073 23.3714 115.881 23.2754 115.881 23.0834C115.881 22.7848 116.254 22.2194 117.001 21.3874C117.769 20.5341 118.452 20.1074 119.049 20.1074C119.305 20.1074 119.529 20.1821 119.721 20.3314C119.934 20.4808 120.052 20.6621 120.073 20.8754L120.233 22.3154C120.297 22.4008 120.361 22.4434 120.425 22.4434C120.489 22.4434 120.66 22.2728 120.937 21.9314C121.833 20.8861 122.633 20.3634 123.337 20.3634C123.614 20.3634 123.838 20.4061 124.009 20.4914C124.18 20.5768 124.372 20.7474 124.585 21.0034C124.82 21.2381 124.948 21.3661 124.969 21.3874C125.118 21.3234 125.268 21.2914 125.417 21.2914C125.652 21.2914 125.769 21.4408 125.769 21.7394C125.769 22.0168 125.353 22.5501 124.521 23.3394C123.689 24.1074 123.07 24.4914 122.665 24.4914C122.26 24.4914 121.918 24.3101 121.641 23.9474C121.364 23.5848 121.161 23.4034 121.033 23.4034C120.542 23.4034 120.297 23.6594 120.297 24.1714C120.297 24.5554 120.468 25.2061 120.809 26.1234C121.172 27.0408 121.353 27.5848 121.353 27.7554C121.353 28.1821 121.129 28.5128 120.681 28.7474C120.254 29.0034 119.774 29.1314 119.241 29.1314C118.729 29.1314 118.313 29.0461 117.993 28.8754C117.673 28.7048 117.513 28.4701 117.513 28.1714L118.409 24.2994C118.409 23.6381 118.046 23.3074 117.321 23.3074Z" fill="#050038"/>
<path d="M111.168 21.9951C109.696 21.9951 108.512 21.4191 107.616 20.2671C106.72 19.0938 106.272 17.8245 106.272 16.4591C106.272 15.0725 106.613 13.5258 107.296 11.8191C108 10.0911 109.013 8.53381 110.336 7.14714C111.659 5.73914 113.077 4.91781 114.592 4.68314C114.571 4.66181 114.56 4.60847 114.56 4.52314C114.56 3.98981 114.432 3.62714 114.176 3.43514C113.941 3.22181 113.525 3.11514 112.928 3.11514C111.541 3.11514 110.08 3.89381 108.544 5.45114C107.008 6.98714 105.728 8.86447 104.704 11.0831C103.701 13.3018 103.2 15.3498 103.2 17.2271C103.2 18.9125 103.563 20.5018 104.288 21.9951C104.651 22.7631 105.205 23.3818 105.952 23.8511C106.699 24.3205 107.584 24.5551 108.608 24.5551C110.443 24.5551 112.139 23.5205 113.696 21.4511C112.843 21.8138 112 21.9951 111.168 21.9951ZM113.344 19.0831C114.005 19.0831 114.677 18.9765 115.36 18.7631C116.683 16.0751 117.344 13.5791 117.344 11.2751C117.344 10.0165 117.056 8.92847 116.48 8.01114C115.925 7.09381 115.115 6.63514 114.048 6.63514C112.683 6.63514 111.456 7.40314 110.368 8.93914C109.28 10.4538 108.736 12.0751 108.736 13.8031C108.736 15.5098 109.237 16.8218 110.24 17.7391C111.264 18.6351 112.299 19.0831 113.344 19.0831ZM115.168 0.619141C115.595 0.619141 116 0.789807 116.384 1.13114C116.789 1.47247 116.992 1.86714 116.992 2.31514C116.992 2.74181 116.843 3.18981 116.544 3.65914C116.245 4.10714 115.893 4.42714 115.488 4.61914C116.576 4.61914 117.419 5.06714 118.016 5.96314C118.613 6.83781 118.912 7.88314 118.912 9.09914C118.912 11.8298 118.251 14.7845 116.928 17.9631C117.632 17.4511 118.283 16.8325 118.88 16.1071C119.072 15.8511 119.2 15.7231 119.264 15.7231C119.349 15.7231 119.435 15.7765 119.52 15.8831C119.605 15.9685 119.648 16.0645 119.648 16.1711C119.627 16.5125 119.243 17.1098 118.496 17.9631C117.749 18.8165 116.875 19.5951 115.872 20.2991C114.507 22.9231 112.907 25.0671 111.072 26.7311C109.237 28.3951 107.413 29.2271 105.6 29.2271C103.787 29.2271 102.4 28.5338 101.44 27.1471C100.48 25.7605 100 24.0111 100 21.8991C100 19.7871 100.341 17.6645 101.024 15.5311C101.728 13.3978 102.635 11.4671 103.744 9.73914C104.853 7.98981 106.069 6.42181 107.392 5.03514C108.736 3.62714 110.091 2.53914 111.456 1.77114C112.821 1.00314 114.059 0.619141 115.168 0.619141Z" fill="#050038"/>
<path d="M93.6436 24.3964C93.2169 25.1644 92.4063 26.0498 91.2116 27.0524C90.0383 28.0338 89.0036 28.5244 88.1076 28.5244C86.4222 28.5244 85.5369 27.4898 85.4516 25.4204C85.4516 25.2284 85.4089 25.1324 85.3236 25.1324C85.2809 25.1324 85.0569 25.3884 84.6516 25.9004C84.2676 26.4124 83.7236 26.9351 83.0196 27.4684C82.3369 27.9804 81.6223 28.2364 80.8756 28.2364C80.1503 28.2364 79.5636 28.0124 79.1156 27.5644C78.6889 27.1164 78.4756 26.5191 78.4756 25.7724C78.4756 25.0044 78.6996 24.0018 79.1476 22.7644C79.5956 21.5271 80.0329 20.9084 80.4596 20.9084C80.6729 20.9298 80.8436 21.0364 80.9716 21.2284C81.1209 21.4204 81.1956 21.6338 81.1956 21.8684C81.2169 22.1031 81.2702 22.3911 81.3556 22.7324C81.4409 23.0738 81.6756 23.4578 82.0596 23.8844C82.4436 24.2898 82.9449 24.4924 83.5636 24.4924C84.6302 24.4924 85.5049 23.5751 86.1876 21.7404C86.1876 21.7191 86.2089 21.6658 86.2516 21.5804C86.2943 21.4738 86.3263 21.3991 86.3476 21.3564C86.3689 21.2924 86.4009 21.2178 86.4436 21.1324C86.4862 21.0258 86.5289 20.9511 86.5716 20.9084C86.8703 20.6738 87.1156 20.6738 87.3076 20.9084C87.4356 21.0791 87.5103 21.3884 87.5316 21.8364C87.5316 22.5191 87.8196 23.1911 88.3956 23.8524C88.9929 24.4924 89.7609 24.8124 90.6996 24.8124C91.6383 24.8124 92.3849 24.5351 92.9396 23.9804C93.1529 23.7244 93.3662 23.5964 93.5796 23.5964C93.7289 23.5964 93.8036 23.6818 93.8036 23.8524C93.8036 24.0231 93.7503 24.2044 93.6436 24.3964Z" fill="#050038"/>
<path d="M71.8272 15.3723C71.8272 17.9963 72.0513 20.1403 72.4993 21.8043C73.0326 20.439 73.4699 18.9137 73.8112 17.2283C74.1739 15.5217 74.3552 14.3163 74.3552 13.6123C74.3552 11.351 74.0672 10.2203 73.4912 10.2203C73.0006 10.2203 72.5953 10.839 72.2753 12.0763C71.9766 13.2923 71.8272 14.391 71.8272 15.3723ZM76.5632 25.8683L77.7793 25.5483C78.0566 25.5483 78.1953 25.6657 78.1953 25.9003C78.1953 26.0923 78.0139 26.391 77.6513 26.7963C77.2886 27.1803 76.7659 27.5857 76.0833 28.0123C75.4006 28.439 74.7393 28.6523 74.0993 28.6523C72.6913 28.6523 71.6779 27.8843 71.0592 26.3483C69.8219 27.863 68.4139 28.6203 66.8353 28.6203C66.0246 28.6203 65.4379 28.3217 65.0752 27.7243C64.7126 27.1483 64.5312 26.423 64.5312 25.5483C64.5312 24.375 65.1712 23.1697 66.4512 21.9323C67.7526 20.695 68.7766 20.0763 69.5232 20.0763C69.7152 20.0763 69.8432 20.1937 69.9072 20.4283C69.9072 20.599 69.6299 20.8657 69.0752 21.2283C68.2432 21.7403 67.8272 22.4017 67.8272 23.2123C67.8272 24.1083 68.0726 24.6843 68.5632 24.9403C68.9259 25.1537 69.2566 25.2603 69.5553 25.2603C69.8753 25.2603 70.2166 25.111 70.5793 24.8123C70.3446 23.6603 70.2272 22.2737 70.2272 20.6523C70.2272 19.0097 70.3553 17.2817 70.6113 15.4683C70.8886 13.6337 71.3259 11.9697 71.9232 10.4763C72.5419 8.983 73.2353 8.23633 74.0033 8.23633C74.4939 8.23633 74.8566 8.57766 75.0912 9.26033C75.3259 9.943 75.4433 10.7857 75.4433 11.7883C75.4433 12.791 75.2299 14.455 74.8033 16.7803C74.3979 19.0843 73.7793 21.1963 72.9473 23.1163C73.7366 24.951 74.9419 25.8683 76.5632 25.8683Z" fill="#050038"/>
<path d="M61.2865 23.4045L61.1585 24.3005C61.1585 24.6845 61.3185 25.0898 61.6385 25.5165C61.9798 25.9218 62.3745 26.1245 62.8225 26.1245C63.1638 26.1245 63.4412 26.0498 63.6545 25.9005C64.1238 25.5805 64.4118 25.3671 64.5185 25.2605C64.6465 25.1325 64.8385 25.0685 65.0945 25.0685C65.3718 25.0685 65.5105 25.1645 65.5105 25.3565C65.5105 25.5698 65.0092 26.2418 64.0065 27.3725C63.6865 27.7351 63.2172 28.1191 62.5985 28.5245C61.9798 28.9298 61.4252 29.1325 60.9345 29.1325C60.4652 29.1325 60.1025 29.0471 59.8465 28.8765C59.6118 28.7271 59.4412 28.4818 59.3345 28.1405C59.2065 27.6711 59.1425 27.0951 59.1425 26.4125C59.1425 26.3271 59.0892 26.2845 58.9825 26.2845C58.8758 26.2845 58.6305 26.4978 58.2465 26.9245C57.0518 28.1618 56.0812 28.7805 55.3345 28.7805C54.6092 28.7805 54.0438 28.5885 53.6385 28.2045C53.2545 27.8205 53.0625 27.3298 53.0625 26.7325C53.0625 25.6871 53.3398 24.6951 53.8945 23.7565C54.4492 22.7965 55.1105 22.0285 55.8785 21.4525C57.5852 20.1938 58.9078 19.5645 59.8465 19.5645C61.2545 19.6071 61.9585 20.1085 61.9585 21.0685C61.9585 21.4098 61.8092 21.7511 61.5105 22.0925C61.2118 22.4125 60.9345 22.5725 60.6785 22.5725C60.4225 22.5725 60.0705 22.3485 59.6225 21.9005C59.1745 21.4525 58.6838 21.2285 58.1505 21.2285C57.6172 21.2285 57.1798 21.4525 56.8385 21.9005C56.4972 22.3271 56.3265 22.8818 56.3265 23.5645C56.3265 24.6738 56.9132 25.2285 58.0865 25.2285C58.5558 25.2285 58.9398 25.1111 59.2385 24.8765C59.5585 24.6418 59.7825 24.3858 59.9105 24.1085C60.2732 23.3831 60.6038 23.0205 60.9025 23.0205C61.1585 23.0205 61.2865 23.1485 61.2865 23.4045Z" fill="#050038"/>
<path d="M49.6638 30.6046C49.0025 31.5859 48.5758 32.4606 48.3838 33.2286C48.1918 33.9966 48.0958 34.9139 48.0958 35.9806C48.0958 37.0473 48.3838 37.6126 48.9598 37.6766C49.4505 37.6766 49.6958 36.1619 49.6958 33.1326C49.6958 32.0873 49.6851 31.2446 49.6638 30.6046ZM49.6638 29.4846C49.6211 28.8019 49.5998 27.7566 49.5998 26.3486C49.5571 26.3486 49.3971 26.4873 49.1198 26.7646C48.8638 27.0206 48.5651 27.2979 48.2238 27.5966C47.9038 27.9166 47.4878 28.2046 46.9758 28.4606C46.4851 28.7379 45.9091 28.8766 45.2478 28.8766C44.5865 28.8766 44.0425 28.6739 43.6158 28.2686C43.2105 27.8633 43.0078 27.3193 43.0078 26.6366C43.0078 25.1646 43.7225 23.6499 45.1518 22.0926C46.6025 20.5139 48.1811 19.7246 49.8878 19.7246C50.4211 19.7246 50.8478 19.8526 51.1678 20.1086C51.5091 20.3433 51.6798 20.6526 51.6798 21.0366C51.6798 21.3779 51.5518 21.6979 51.2958 21.9966C50.8478 22.5086 50.2825 22.7646 49.5998 22.7646C49.3438 22.7646 49.2158 22.6899 49.2158 22.5406C49.2158 22.4553 49.2371 22.3593 49.2798 22.2526C49.3438 22.1459 49.3758 22.0073 49.3758 21.8366C49.3758 21.4099 49.1731 21.1966 48.7678 21.1966C48.1065 21.1966 47.5518 21.4846 47.1038 22.0606C46.6558 22.6366 46.4318 23.2019 46.4318 23.7566C46.4318 24.3113 46.5598 24.7273 46.8158 25.0046C47.0931 25.2606 47.4025 25.3886 47.7438 25.3886C48.0851 25.3886 48.4798 25.2286 48.9278 24.9086C49.3758 24.5886 49.6638 24.2259 49.7918 23.8206C49.9411 23.2659 50.2718 22.9886 50.7838 22.9886C50.9758 22.9886 51.0718 23.1379 51.0718 23.4366C51.0718 23.7139 50.9971 24.1086 50.8478 24.6206C50.7198 25.1113 50.6238 25.5593 50.5598 25.9646C50.5171 26.3486 50.4958 27.1806 50.4958 28.4606C51.7971 26.9246 52.9811 25.6659 54.0478 24.6846C54.2825 24.4499 54.5171 24.3326 54.7518 24.3326C54.9865 24.3326 55.1038 24.4179 55.1038 24.5886C55.1038 24.7379 54.9865 24.9193 54.7518 25.1326C52.8958 26.8179 51.4878 28.2579 50.5278 29.4526C50.5705 30.9886 50.5918 32.2366 50.5918 33.1966C50.5918 35.8206 50.3891 37.9219 49.9838 39.5006C49.5998 41.1006 48.8531 41.9006 47.7438 41.9006C47.0398 41.9006 46.4958 41.5593 46.1118 40.8766C45.7278 40.2153 45.5358 39.3086 45.5358 38.1566C45.5358 35.8313 46.9118 32.9406 49.6638 29.4846Z" fill="#050038"/>
<path d="M28.7891 24.7488C28.7891 24.4075 29.1197 23.8528 29.7811 23.0848C30.4424 22.2955 30.9757 21.9008 31.3811 21.9008C31.8077 21.9008 32.1171 22.0608 32.3091 22.3808C32.5224 22.7008 32.6504 23.0528 32.6931 23.4368C32.7357 23.8208 32.8531 24.1728 33.0451 24.4928C33.2584 24.8128 33.5571 24.9728 33.9411 24.9728C34.3464 24.9728 34.6984 24.8022 34.9971 24.4608C35.3171 24.0982 35.5731 23.7035 35.7651 23.2768C35.9571 22.8288 36.2131 22.4342 36.5331 22.0928C36.8531 21.7302 37.1624 21.5488 37.4611 21.5488C37.7811 21.5488 38.0051 21.6768 38.1331 21.9328C39.4557 24.7702 40.7997 26.1888 42.1651 26.1888C42.3784 26.1888 42.5704 26.1568 42.7411 26.0928C42.9117 26.0288 43.0397 25.9968 43.1251 25.9968C43.3811 25.9968 43.5091 26.1995 43.5091 26.6048C43.5091 27.3302 43.1251 27.9808 42.3571 28.5568C41.6104 29.1328 40.8424 29.4208 40.0531 29.4208C39.2637 29.4208 38.5917 29.1648 38.0371 28.6528C37.5037 28.1408 37.1304 27.6182 36.9171 27.0848C36.7251 26.5302 36.5757 25.9968 36.4691 25.4848C36.3837 24.9728 36.2877 24.7168 36.1811 24.7168C36.0104 24.7168 35.6691 25.0582 35.1571 25.7408C34.6664 26.4022 34.1011 27.0742 33.4611 27.7568C32.8424 28.4395 32.2877 28.7808 31.7971 28.7808C31.2851 28.7168 30.8797 28.4608 30.5811 28.0128C30.2824 27.5862 30.0904 27.1382 30.0051 26.6688C29.8131 25.3888 29.4077 24.7488 28.7891 24.7488Z" fill="#050038"/>
<path d="M23.3739 23.8207C23.7366 23.6927 24.0992 23.2874 24.4619 22.6047C24.8459 21.9007 25.0379 21.3247 25.0379 20.8767C25.0379 20.4287 24.8672 20.194 24.5259 20.1727C24.0139 20.1727 23.6512 20.4074 23.4379 20.8767C23.2246 21.3247 23.1179 21.826 23.1179 22.3807C23.1179 22.914 23.2032 23.394 23.3739 23.8207ZM26.1259 25.9007C26.7232 25.9007 27.2139 25.7727 27.5979 25.5167C28.0032 25.2394 28.3766 24.8874 28.7179 24.4607C29.0806 24.034 29.3579 23.8207 29.5499 23.8207C29.7632 23.8207 29.8699 23.9167 29.8699 24.1087C29.8699 24.2367 29.8272 24.386 29.7419 24.5567C29.0379 25.6874 28.1632 26.6794 27.1179 27.5327C26.0726 28.4074 24.9632 28.8447 23.7899 28.8447C22.6166 28.8447 21.7632 28.5567 21.2299 27.9807C20.7179 27.426 20.4619 26.6794 20.4619 25.7407C20.4619 24.1194 21.0699 22.466 22.2859 20.7807C23.5019 19.074 24.7606 18.2207 26.0619 18.2207C26.7446 18.2207 27.0859 18.498 27.0859 19.0527C27.0859 19.7994 26.8512 20.578 26.3819 21.3887C25.9126 22.178 25.0486 23.2554 23.7899 24.6207C24.3659 25.474 25.1446 25.9007 26.1259 25.9007Z" fill="#050038"/>
<path d="M19.04 7.88487C18.8907 7.88487 18.7627 7.84221 18.656 7.75687C18.5707 7.65021 18.528 7.54354 18.528 7.43687C18.528 7.33021 18.5813 7.18087 18.688 6.98887C18.7947 6.79687 18.848 6.61554 18.848 6.44487C18.848 5.95421 18.592 5.60221 18.08 5.38887C17.5893 5.15421 17.0773 5.03687 16.544 5.03687C14.9653 5.03687 13.312 5.57021 11.584 6.63688C9.87733 7.70354 8.87467 8.98354 8.576 10.4769C8.68267 11.3729 9.12 12.2155 9.888 13.0049C10.6773 13.7729 11.584 14.4449 12.608 15.0209C13.632 15.5755 14.6453 16.1409 15.648 16.7169C16.6507 17.2929 17.4933 17.9755 18.176 18.7649C18.8587 19.5542 19.2 20.3649 19.2 21.1969C19.2 22.0075 18.9013 22.8075 18.304 23.5969C17.7067 24.3649 17.1093 25.0155 16.512 25.5489C15.936 26.0822 15.648 26.3702 15.648 26.4129C15.648 26.4342 15.68 26.4449 15.744 26.4449C17.0453 26.4449 18.8267 25.7302 21.088 24.3009L21.408 24.0769C21.5573 23.9915 21.664 23.9489 21.728 23.9489C21.8133 23.9489 21.8987 24.0129 21.984 24.1409C22.0693 24.2689 22.112 24.4075 22.112 24.5569C22.112 24.7062 21.9733 24.8555 21.696 25.0049C20.4587 26.1782 18.144 27.2982 14.752 28.3649C11.3813 29.4315 8.33067 29.9649 5.6 29.9649C1.86667 29.9649 0 28.8769 0 26.7009C0 26.3809 0.32 25.9222 0.96 25.3249C1.94133 24.4289 2.53867 23.9809 2.752 23.9809C2.96533 23.9809 3.50933 24.2475 4.384 24.7809C5.25867 25.3142 6.35733 25.8475 7.68 26.3809C9.00267 26.9142 10.3147 27.1809 11.616 27.1809C12.9173 27.1809 13.9093 26.7755 14.592 25.9649C15.296 25.1542 15.648 24.3222 15.648 23.4689C15.648 22.6155 15.2853 21.8475 14.56 21.1649C13.8347 20.4822 12.9493 19.8849 11.904 19.3729C10.88 18.8395 9.84533 18.2955 8.8 17.7409C7.75467 17.1862 6.86933 16.5142 6.144 15.7249C5.41867 14.9355 5.056 14.0715 5.056 13.1329C5.056 11.6182 5.89867 10.0289 7.584 8.36487C9.26933 6.70087 11.2 5.35687 13.376 4.33287C15.552 3.30887 17.408 2.79688 18.944 2.79688C20.864 2.79688 21.824 3.43687 21.824 4.71688C21.824 5.48487 21.472 6.21021 20.768 6.89287C20.0853 7.55421 19.5093 7.88487 19.04 7.88487Z" fill="#050038"/>
</svg>
