<svg width="119" height="25" viewBox="0 0 119 25" fill="none" xmlns="http://www.w3.org/2000/svg">
<path d="M113.31 4.16337C113.31 3.47537 113.518 2.92337 113.934 2.50737C114.366 2.07537 114.958 1.85938 115.71 1.85938C116.51 1.85938 117.102 2.06738 117.486 2.48337C117.886 2.89937 118.086 3.45138 118.086 4.13937C118.086 4.81137 117.886 5.35537 117.486 5.77137C117.102 6.17137 116.51 6.37137 115.71 6.37137C114.926 6.37137 114.326 6.17137 113.91 5.77137C113.51 5.35537 113.31 4.81937 113.31 4.16337ZM115.71 19.4994C114.958 19.4994 114.398 19.2914 114.03 18.8754C113.662 18.4594 113.478 17.9394 113.478 17.3154V9.10738C113.478 8.41938 113.662 7.87537 114.03 7.47537C114.398 7.07537 114.958 6.87537 115.71 6.87537C116.462 6.87537 117.022 7.07537 117.39 7.47537C117.774 7.87537 117.966 8.40338 117.966 9.05937V17.3154C117.966 17.9394 117.766 18.4594 117.366 18.8754C116.982 19.2914 116.43 19.4994 115.71 19.4994Z" fill="#050038"/>
<path d="M103.739 19.501C102.555 19.501 101.627 19.181 100.955 18.541C100.299 17.901 99.9707 17.005 99.9707 15.853C99.9707 14.701 100.355 13.869 101.123 13.357C101.891 12.829 102.875 12.565 104.075 12.565C104.779 12.565 105.419 12.613 105.995 12.709C106.571 12.805 107.091 12.941 107.555 13.117H107.627V12.757C107.627 12.389 107.491 12.101 107.219 11.893C106.947 11.669 106.603 11.565 106.187 11.581C105.787 11.581 105.443 11.605 105.155 11.653C104.883 11.701 104.539 11.781 104.123 11.893C103.355 12.085 102.691 12.069 102.131 11.845C101.571 11.621 101.187 11.181 100.979 10.525C100.787 9.83695 100.827 9.26095 101.099 8.79695C101.387 8.33295 101.819 7.97295 102.395 7.71695C102.891 7.47695 103.443 7.27695 104.051 7.11695C104.675 6.95695 105.347 6.87695 106.067 6.87695C108.163 6.87695 109.699 7.38895 110.675 8.41295C111.667 9.42095 112.163 11.117 112.163 13.501V17.221C112.163 17.877 111.963 18.421 111.563 18.853C111.163 19.285 110.611 19.501 109.907 19.501C109.139 19.501 108.563 19.285 108.179 18.853C107.811 18.421 107.627 17.893 107.627 17.269V16.717H107.147C107.147 17.133 107.067 17.557 106.907 17.989C106.763 18.421 106.451 18.781 105.971 19.069C105.507 19.357 104.763 19.501 103.739 19.501ZM103.979 14.245C103.979 14.517 104.075 14.709 104.267 14.821C104.475 14.933 104.915 14.989 105.587 14.989C106.195 14.989 106.619 14.933 106.859 14.821C107.099 14.709 107.219 14.517 107.219 14.245C107.219 13.989 107.099 13.813 106.859 13.717C106.619 13.605 106.195 13.549 105.587 13.549C104.915 13.549 104.475 13.605 104.267 13.717C104.075 13.813 103.979 13.989 103.979 14.245Z" fill="#050038"/>
<path d="M96.0137 19.9558C95.0697 19.9558 94.3337 19.7078 93.8057 19.2118C93.2777 18.6998 93.0137 18.0278 93.0137 17.1958C93.0137 16.3478 93.2857 15.6598 93.8297 15.1318C94.3737 14.6038 95.1017 14.3398 96.0137 14.3398C96.9097 14.3398 97.6217 14.6038 98.1497 15.1318C98.6937 15.6438 98.9657 16.3238 98.9657 17.1718C98.9657 18.0038 98.7097 18.6758 98.1977 19.1878C97.6857 19.6998 96.9577 19.9558 96.0137 19.9558Z" fill="#050038"/>
<path d="M78.942 19.4995C78.014 19.4995 77.254 19.1955 76.662 18.5875C76.086 17.9795 75.558 16.9795 75.078 15.5875L73.254 10.1635C73.046 9.55552 73.038 8.93952 73.23 8.31552C73.422 7.69152 73.862 7.26752 74.55 7.04352C75.19 6.81952 75.774 6.83552 76.302 7.09152C76.83 7.34752 77.198 7.78752 77.406 8.41152L79.374 14.2915C79.598 14.9795 79.83 15.4435 80.07 15.6835C80.31 15.9075 80.63 15.9555 81.03 15.8275C81.366 15.7155 81.574 15.4755 81.654 15.1075C81.75 14.7235 81.638 14.0675 81.318 13.1395L80.334 10.1635C80.126 9.53952 80.118 8.92352 80.31 8.31552C80.518 7.69152 80.966 7.26752 81.654 7.04352C82.294 6.81952 82.878 6.83552 83.406 7.09152C83.934 7.34752 84.302 7.78752 84.51 8.41152L86.526 14.5555C86.654 14.9235 86.854 15.2595 87.126 15.5635C87.398 15.8675 87.75 15.9555 88.182 15.8275C88.518 15.7155 88.734 15.4915 88.83 15.1555C88.942 14.8195 88.926 14.4275 88.782 13.9795C88.59 13.3715 88.374 12.8915 88.134 12.5395C87.91 12.1875 87.686 11.8835 87.462 11.6275C87.254 11.3715 87.078 11.0995 86.934 10.8115C86.806 10.5235 86.726 10.1315 86.694 9.63552C86.662 9.12352 86.766 8.67552 87.006 8.29152C87.262 7.89152 87.598 7.57952 88.014 7.35552C88.446 7.13152 88.918 7.01952 89.43 7.01952C90.214 7.01952 90.846 7.28352 91.326 7.81152C91.822 8.32352 92.07 8.93152 92.07 9.63552C92.07 9.89152 92.03 10.2275 91.95 10.6435C91.87 11.0595 91.766 11.4435 91.638 11.7955L90.63 14.4115C90.422 14.9875 90.182 15.5795 89.91 16.1875C89.654 16.7795 89.35 17.3235 88.998 17.8195C88.662 18.3155 88.27 18.7235 87.822 19.0435C87.374 19.3475 86.854 19.4995 86.262 19.4995C85.238 19.4995 84.414 19.2355 83.79 18.7075C83.182 18.1795 82.702 17.3075 82.35 16.0915H82.11C81.902 17.0835 81.558 17.8995 81.078 18.5395C80.598 19.1795 79.886 19.4995 78.942 19.4995Z" fill="#050038"/>
<path d="M66.9067 19.5476C65.0347 19.5476 63.5387 18.9956 62.4187 17.8916C61.3147 16.7716 60.7627 15.1956 60.7627 13.1636C60.7627 11.9156 61.0187 10.8196 61.5307 9.87556C62.0427 8.93156 62.7547 8.19556 63.6667 7.66756C64.5947 7.12356 65.6747 6.85156 66.9067 6.85156C68.2827 6.85156 69.4267 7.12356 70.3387 7.66756C71.2507 8.19556 71.9307 8.93156 72.3787 9.87556C72.8427 10.8196 73.0747 11.9156 73.0747 13.1636C73.0747 15.1956 72.5627 16.7716 71.5387 17.8916C70.5307 18.9956 68.9867 19.5476 66.9067 19.5476ZM63.6187 12.7556C63.6187 13.2516 63.8667 13.6036 64.3627 13.8116C64.8587 14.0036 65.7067 14.0996 66.9067 14.0996C68.1067 14.0996 68.9547 14.0036 69.4507 13.8116C69.9467 13.6036 70.1947 13.2516 70.1947 12.7556C70.1947 12.2756 69.9467 11.9396 69.4507 11.7476C68.9547 11.5556 68.1067 11.4596 66.9067 11.4596C65.7067 11.4596 64.8587 11.5556 64.3627 11.7476C63.8667 11.9396 63.6187 12.2756 63.6187 12.7556Z" fill="#050038"/>
<path d="M49.4905 19.5001C48.8185 19.5001 48.2665 19.2921 47.8345 18.8761C47.4185 18.4441 47.2105 17.9081 47.2105 17.2681V11.9161C46.7945 12.0121 46.4185 11.9561 46.0825 11.7481C45.7465 11.5241 45.4745 11.2041 45.2665 10.7881C45.0745 10.3561 44.9785 9.89213 44.9785 9.39613C44.9785 8.90013 45.0825 8.44413 45.2905 8.02813C45.4985 7.61213 45.7705 7.30013 46.1065 7.09212C46.4585 6.86812 46.8425 6.82013 47.2585 6.94813C47.3385 5.76413 47.5705 4.71613 47.9545 3.80412C48.3545 2.87613 48.9145 2.14813 49.6345 1.62012C50.3705 1.09212 51.2745 0.828125 52.3465 0.828125C53.0025 0.828125 53.5705 0.932125 54.0505 1.14013C54.5465 1.33213 54.9225 1.58012 55.1785 1.88412C55.7065 1.29212 56.4585 0.996125 57.4345 0.996125C58.1385 0.996125 58.6905 1.22813 59.0905 1.69213C59.4905 2.14013 59.6905 2.69213 59.6905 3.34813V17.3161C59.6905 17.9401 59.4905 18.4601 59.0905 18.8761C58.7065 19.2921 58.1625 19.5001 57.4585 19.5001C56.6745 19.5001 56.0825 19.2921 55.6825 18.8761C55.2985 18.4601 55.1065 17.9401 55.1065 17.3161V5.82012L55.0825 5.79613C54.9065 5.94013 54.7065 6.06012 54.4825 6.15612C54.2585 6.25212 54.0025 6.30013 53.7145 6.30013C53.2025 6.30013 52.7785 6.20413 52.4425 6.01213C52.1065 5.80412 51.8265 5.55612 51.6025 5.26812C51.3945 4.98013 51.2025 4.71613 51.0265 4.47612C50.4505 3.67612 49.8905 3.42012 49.3465 3.70812C49.1065 3.82012 48.9545 4.02013 48.8905 4.30813C48.8265 4.59613 48.8825 4.90013 49.0585 5.22013C49.4905 6.00413 49.9225 6.52413 50.3545 6.78012C50.7865 7.03613 51.2025 7.14813 51.6025 7.11613L52.3705 7.06813C53.1545 6.98813 53.7225 7.18013 54.0745 7.64412C54.4265 8.09212 54.6025 8.69213 54.6025 9.44413C54.6025 10.1961 54.4265 10.7961 54.0745 11.2441C53.7225 11.6921 53.1545 11.8841 52.3705 11.8201L51.7945 11.7961V17.2681C51.7945 17.9081 51.5865 18.4441 51.1705 18.8761C50.7545 19.2921 50.1945 19.5001 49.4905 19.5001Z" fill="#050038"/>
<path d="M39.9874 19.5001C39.1074 19.5001 38.3714 19.2281 37.7794 18.6841C37.2034 18.1401 36.8354 17.4361 36.6754 16.5721H36.2434V22.0921C36.2434 22.7481 36.0594 23.3001 35.6914 23.7481C35.3234 24.2121 34.7634 24.4441 34.0114 24.4441C33.2914 24.4441 32.7314 24.2121 32.3314 23.7481C31.9474 23.3001 31.7554 22.7321 31.7554 22.0441V13.0681C31.7554 12.2681 31.7234 11.5961 31.6594 11.0521C31.6114 10.4921 31.5634 9.98806 31.5154 9.54006C31.4514 8.86806 31.5874 8.30006 31.9234 7.83606C32.2594 7.35606 32.8034 7.06806 33.5554 6.97206C34.5314 6.84406 35.2194 7.02006 35.6194 7.50006C36.0354 7.96406 36.2434 8.69206 36.2434 9.68406V10.8361L36.3394 10.8601C36.4194 10.2361 36.6034 9.62806 36.8914 9.03606C37.1954 8.42806 37.6194 7.93206 38.1634 7.54806C38.7074 7.14806 39.3954 6.94806 40.2274 6.94806C41.6194 6.94806 42.6514 7.50806 43.3234 8.62806C44.0114 9.73206 44.3554 11.2121 44.3554 13.0681C44.3554 17.3561 42.8994 19.5001 39.9874 19.5001ZM36.1474 13.0201C36.1474 13.2761 36.1794 13.4761 36.2434 13.6201C36.3394 13.9241 36.5394 14.1481 36.8434 14.2921C37.1634 14.4201 37.6354 14.4841 38.2594 14.4841C39.0594 14.4841 39.6034 14.3641 39.8914 14.1241C40.1954 13.8841 40.3474 13.5161 40.3474 13.0201C40.3474 12.5081 40.2034 12.1401 39.9154 11.9161C39.6274 11.6761 39.0834 11.5561 38.2834 11.5561C37.6434 11.5561 37.1634 11.6281 36.8434 11.7721C36.5394 11.9001 36.3394 12.1161 36.2434 12.4201C36.1794 12.5641 36.1474 12.7641 36.1474 13.0201Z" fill="#050038"/>
<path d="M25.9249 19.5001C25.0449 19.5001 24.3089 19.2281 23.7169 18.6841C23.1409 18.1401 22.7729 17.4361 22.6129 16.5721H22.1809V22.0921C22.1809 22.7481 21.9969 23.3001 21.6289 23.7481C21.2609 24.2121 20.7009 24.4441 19.9489 24.4441C19.2289 24.4441 18.6689 24.2121 18.2689 23.7481C17.8849 23.3001 17.6929 22.7321 17.6929 22.0441V13.0681C17.6929 12.2681 17.6609 11.5961 17.5969 11.0521C17.5489 10.4921 17.5009 9.98806 17.4529 9.54006C17.3889 8.86806 17.5249 8.30006 17.8609 7.83606C18.1969 7.35606 18.7409 7.06806 19.4929 6.97206C20.4689 6.84406 21.1569 7.02006 21.5569 7.50006C21.9729 7.96406 22.1809 8.69206 22.1809 9.68406V10.8361L22.2769 10.8601C22.3569 10.2361 22.5409 9.62806 22.8289 9.03606C23.1329 8.42806 23.5569 7.93206 24.1009 7.54806C24.6449 7.14806 25.3329 6.94806 26.1649 6.94806C27.5569 6.94806 28.5889 7.50806 29.2609 8.62806C29.9489 9.73206 30.2929 11.2121 30.2929 13.0681C30.2929 17.3561 28.8369 19.5001 25.9249 19.5001ZM22.0849 13.0201C22.0849 13.2761 22.1169 13.4761 22.1809 13.6201C22.2769 13.9241 22.4769 14.1481 22.7809 14.2921C23.1009 14.4201 23.5729 14.4841 24.1969 14.4841C24.9969 14.4841 25.5409 14.3641 25.8289 14.1241C26.1329 13.8841 26.2849 13.5161 26.2849 13.0201C26.2849 12.5081 26.1409 12.1401 25.8529 11.9161C25.5649 11.6761 25.0209 11.5561 24.2209 11.5561C23.5809 11.5561 23.1009 11.6281 22.7809 11.7721C22.4769 11.9001 22.2769 12.1161 22.1809 12.4201C22.1169 12.5641 22.0849 12.7641 22.0849 13.0201Z" fill="#050038"/>
<path d="M2.71183 19.5002C1.63983 19.3402 0.943828 18.8522 0.623828 18.0362C0.303828 17.2042 0.367828 16.1562 0.815828 14.8922L3.98383 5.8922C4.27183 5.0602 4.59983 4.3482 4.96783 3.7562C5.35183 3.1642 5.82383 2.7082 6.38383 2.3882C6.95983 2.0682 7.67183 1.9082 8.51983 1.9082C9.79983 1.9082 10.7598 2.2602 11.3998 2.9642C12.0558 3.6682 12.5998 4.6442 13.0318 5.8922L16.1758 14.8922C16.6238 16.1562 16.7038 17.2042 16.4158 18.0362C16.1438 18.8522 15.4638 19.3402 14.3758 19.5002C13.4958 19.6122 12.7278 19.5082 12.0718 19.1882C11.4318 18.8682 11.0478 18.3482 10.9198 17.6282C10.8238 17.1482 10.8078 16.7482 10.8718 16.4282C10.9518 16.1082 11.0238 15.8522 11.0878 15.6602C11.1358 15.5002 11.1358 15.3482 11.0878 15.2042C11.0558 15.0442 10.9358 14.9642 10.7278 14.9642H6.26383C6.05583 14.9642 5.92783 15.0442 5.87983 15.2042C5.84783 15.3482 5.86383 15.5002 5.92783 15.6602C5.99183 15.8522 6.05583 16.1082 6.11983 16.4282C6.18383 16.7482 6.17583 17.1482 6.09583 17.6282C5.96783 18.3482 5.59183 18.8682 4.96783 19.1882C4.34383 19.5082 3.59183 19.6122 2.71183 19.5002ZM10.2718 11.6042L9.02383 7.6922C8.99183 7.5322 8.93583 7.4122 8.85583 7.3322C8.79183 7.2362 8.67983 7.1882 8.51983 7.1882C8.35983 7.1882 8.23983 7.2362 8.15983 7.3322C8.09583 7.4122 8.03983 7.5322 7.99183 7.6922L6.76783 11.6042H10.2718Z" fill="#050038"/>
</svg>
