<svg width="56" height="56" viewBox="0 0 56 56" fill="none" xmlns="http://www.w3.org/2000/svg">
<path d="M42.0003 7C42.6192 7 43.2127 7.24583 43.6502 7.68342C44.0878 8.121 44.3337 8.71449 44.3337 9.33333V11.6667H46.667C47.9047 11.6667 49.0917 12.1583 49.9668 13.0335C50.842 13.9087 51.3337 15.0957 51.3337 16.3333V44.3333C51.3337 45.571 50.842 46.758 49.9668 47.6332C49.0917 48.5083 47.9047 49 46.667 49H9.33366C8.09598 49 6.909 48.5083 6.03383 47.6332C5.15866 46.758 4.66699 45.571 4.66699 44.3333V16.3333C4.66699 15.0957 5.15866 13.9087 6.03383 13.0335C6.909 12.1583 8.09598 11.6667 9.33366 11.6667H11.667V9.33333C11.667 8.71449 11.9128 8.121 12.3504 7.68342C12.788 7.24583 13.3815 7 14.0003 7C14.6192 7 15.2127 7.24583 15.6502 7.68342C16.0878 8.121 16.3337 8.71449 16.3337 9.33333V11.6667H39.667V9.33333C39.667 8.71449 39.9128 8.121 40.3504 7.68342C40.788 7.24583 41.3815 7 42.0003 7ZM46.667 16.3333H9.33366V44.3333H46.667V16.3333ZM37.3337 23.3333C37.9052 23.3334 38.4568 23.5432 38.8839 23.923C39.3109 24.3028 39.5838 24.8261 39.6507 25.3937L39.667 25.6667V28H42.0003C42.595 28.0007 43.1671 28.2284 43.5995 28.6366C44.032 29.0449 44.2922 29.6029 44.3271 30.1966C44.3619 30.7903 44.1688 31.3749 43.787 31.8309C43.4053 32.287 42.8639 32.5801 42.2733 32.6503L42.0003 32.6667H39.667V35C39.6663 35.5947 39.4386 36.1667 39.0303 36.5992C38.6221 37.0316 38.0641 37.2919 37.4704 37.3267C36.8767 37.3616 36.2921 37.1684 35.8361 36.7867C35.38 36.405 35.0869 35.8636 35.0167 35.273L35.0003 35V32.6667H32.667C32.0723 32.666 31.5003 32.4383 31.0678 32.03C30.6353 31.6218 30.3751 31.0638 30.3403 30.4701C30.3054 29.8764 30.4986 29.2918 30.8803 28.8357C31.262 28.3797 31.8034 28.0866 32.394 28.0163L32.667 28H35.0003V25.6667C35.0003 25.0478 35.2462 24.4543 35.6837 24.0168C36.1213 23.5792 36.7148 23.3333 37.3337 23.3333ZM21.0003 28C21.595 28.0007 22.1671 28.2284 22.5995 28.6366C23.032 29.0449 23.2922 29.6029 23.3271 30.1966C23.3619 30.7903 23.1688 31.3749 22.787 31.8309C22.4053 32.287 21.8639 32.5801 21.2733 32.6503L21.0003 32.6667H14.0003C13.4056 32.666 12.8336 32.4383 12.4011 32.03C11.9687 31.6218 11.7084 31.0638 11.6736 30.4701C11.6387 29.8764 11.8319 29.2918 12.2136 28.8357C12.5953 28.3797 13.1368 28.0866 13.7273 28.0163L14.0003 28H21.0003Z" fill="#ECECEC"/>
</svg>
