<svg width="56" height="56" viewBox="0 0 56 56" fill="none" xmlns="http://www.w3.org/2000/svg">
<path d="M44.3333 14.0007H39.6667C39.6667 7.46732 34.5333 2.33398 28 2.33398C21.4667 2.33398 16.3333 7.46732 16.3333 14.0007H11.6667C9.1 14.0007 7 16.1007 7 18.6673V46.6673C7 49.234 9.1 51.334 11.6667 51.334H44.3333C46.9 51.334 49 49.234 49 46.6673V18.6673C49 16.1007 46.9 14.0007 44.3333 14.0007ZM28 7.00065C31.9667 7.00065 35 10.034 35 14.0007H21C21 10.034 24.0333 7.00065 28 7.00065ZM44.3333 46.6673H11.6667V18.6673H44.3333V46.6673ZM28 28.0007C24.0333 28.0007 21 24.9673 21 21.0007H16.3333C16.3333 27.534 21.4667 32.6673 28 32.6673C34.5333 32.6673 39.6667 27.534 39.6667 21.0007H35C35 24.9673 31.9667 28.0007 28 28.0007Z" fill="#ECECEC"/>
</svg>
