<svg width="56" height="56" viewBox="0 0 56 56" fill="none" xmlns="http://www.w3.org/2000/svg">
<path d="M27.9998 1.88281L55.6148 19.8331L51.3331 22.6168V37.3331H46.6664V25.6501L44.3331 27.1668V40.8331C44.3331 44.2631 41.9671 46.9348 39.0761 48.6241C36.1244 50.3438 32.2044 51.3308 27.9998 51.3308C23.7951 51.3308 19.8728 50.3438 16.9234 48.6241C14.0301 46.9348 11.6664 44.2608 11.6664 40.8308V27.1668L0.384766 19.8331L27.9998 1.88281ZM16.3331 30.2001V40.8331C16.3331 41.9135 17.1031 43.3228 19.2754 44.5898C21.3941 45.8265 24.4718 46.6665 27.9998 46.6665C31.5278 46.6665 34.6054 45.8265 36.7241 44.5898C38.8988 43.3228 39.6641 41.9135 39.6641 40.8331V30.2001L27.9974 37.7835L16.3331 30.2001ZM47.0514 19.8331L27.9998 7.45015L8.9481 19.8331L27.9998 32.2161L47.0514 19.8331Z" fill="#ECECEC"/>
</svg>
