<svg width="56" height="56" viewBox="0 0 56 56" fill="none" xmlns="http://www.w3.org/2000/svg">
<path d="M35 9.33268L28 13.9993L21 9.33268M35 9.33268C36.3697 10.5203 39.5033 12.3497 39.6573 14.34C39.7273 15.201 39.368 15.6723 38.6447 16.615C37.072 18.6707 35 19.8793 35 23.3327H21C21 19.8817 18.928 18.6707 17.3553 16.615C16.6343 15.6723 16.2727 15.2033 16.3403 14.34C16.4967 12.3497 19.6327 10.5227 21 9.33268M35 9.33268V4.66602M21 9.33268V4.66602M22.1667 23.3327H33.8333M42 44.3327C46.6667 44.3327 49 39.2624 49 39.2624C42.4083 34.9784 38.5 29.9454 36.3697 26.1444C35.56 24.6977 35.154 23.9744 34.608 23.6524C34.062 23.3327 33.3317 23.3327 31.871 23.3327H24.1267C22.666 23.3327 21.9357 23.3327 21.3897 23.6524C20.8437 23.972 20.4377 24.6954 19.628 26.1444C17.5 29.9454 13.5917 34.976 7 39.2624C7 39.2624 9.33333 44.3327 14 44.3327" stroke="#ECECEC" stroke-width="3" stroke-linecap="round" stroke-linejoin="round"/>
<path d="M31.981 32.666C32.7743 34.5233 36.216 38.8983 39.996 42.7227C41.389 44.1343 42.0866 44.839 41.991 46.036C41.8976 47.2307 41.3143 47.6297 40.1476 48.4277C37.497 50.236 33.451 51.3327 28.0003 51.3327C22.5496 51.3327 18.5036 50.2383 15.8506 48.4277C14.684 47.6297 14.1006 47.2307 14.0073 46.036C13.914 44.839 14.6116 44.1343 16.0046 42.7227C19.7846 38.8983 23.2286 34.5233 24.0196 32.666" stroke="#ECECEC" stroke-width="3" stroke-linecap="round" stroke-linejoin="round"/>
</svg>
