<svg width="56" height="56" viewBox="0 0 56 56" fill="none" xmlns="http://www.w3.org/2000/svg">
<path d="M27.4163 37.3327H29.108V35.466C30.1969 35.3105 31.1209 34.8632 31.88 34.1244C32.6391 33.3855 33.0179 32.4327 33.0163 31.266C33.0163 30.2549 32.6275 29.4087 31.8497 28.7274C31.0719 28.046 30.1775 27.4922 29.1663 27.066V22.7493C29.5552 22.866 29.8765 23.0605 30.13 23.3327C30.3836 23.6049 30.5679 23.9355 30.683 24.3244L32.783 23.4494C32.5108 22.6327 32.0441 21.9817 31.383 21.4964C30.7219 21.011 29.983 20.6898 29.1663 20.5327V18.666H27.4163V20.4743C26.3275 20.591 25.4042 20.99 24.6467 21.6713C23.8891 22.3527 23.5096 23.2565 23.508 24.3827C23.508 25.4327 23.907 26.3077 24.705 27.0077C25.503 27.7077 26.4068 28.2716 27.4163 28.6994V33.3077C26.7941 33.1132 26.2691 32.7827 25.8413 32.316C25.4136 31.8494 25.1219 31.3049 24.9663 30.6827L22.9247 31.5577C23.2358 32.6466 23.7802 33.541 24.558 34.241C25.3358 34.941 26.2886 35.3688 27.4163 35.5244V37.3327ZM29.1663 33.2494V29.3994C29.5941 29.5938 29.9737 29.8271 30.305 30.0993C30.6363 30.3716 30.8012 30.7799 30.7997 31.3244C30.7997 31.9466 30.6441 32.3845 30.333 32.638C30.0219 32.8916 29.633 33.0954 29.1663 33.2494ZM27.4163 26.3077C26.9886 26.1132 26.5997 25.8799 26.2497 25.6077C25.8997 25.3355 25.7247 24.9271 25.7247 24.3827C25.7247 23.8382 25.8997 23.4392 26.2497 23.1857C26.5997 22.9321 26.9886 22.7672 27.4163 22.691V26.3077ZM18.6663 44.3327C14.1163 44.3327 10.257 42.7483 7.08834 39.5797C3.91968 36.411 2.33456 32.5509 2.33301 27.9994C2.33145 23.4478 3.91656 19.5885 7.08834 16.4213C10.2601 13.2542 14.1195 11.6691 18.6663 11.666H37.333C41.883 11.666 45.7431 13.2511 48.9133 16.4213C52.0836 19.5916 53.6679 23.4509 53.6663 27.9994C53.6648 32.5478 52.0804 36.4079 48.9133 39.5797C45.7462 42.7515 41.8861 44.3358 37.333 44.3327H18.6663ZM18.6663 39.666H37.333C40.5608 39.666 43.3126 38.5281 45.5883 36.2523C47.8641 33.9766 49.0012 31.2256 48.9997 27.9994C48.9981 24.7731 47.8602 22.0221 45.586 19.7464C43.3118 17.4706 40.5608 16.3327 37.333 16.3327H18.6663C15.4386 16.3327 12.6876 17.4706 10.4133 19.7464C8.13912 22.0221 7.00123 24.7731 6.99968 27.9994C6.99812 31.2256 8.13601 33.9774 10.4133 36.2547C12.6907 38.532 15.4417 39.6691 18.6663 39.666Z" fill="#ECECEC"/>
</svg>
