<svg width="56" height="56" viewBox="0 0 56 56" fill="none" xmlns="http://www.w3.org/2000/svg">
<path d="M31.89 37.3327H24.1107V31.889H18.667V24.1097H24.1107V18.666H31.89V24.1097H37.3337V31.889H31.89V37.3327Z" stroke="#ECECEC" stroke-width="3.5" stroke-linecap="round" stroke-linejoin="round"/>
<path d="M11.667 41.9998L7.30363 11.4635C7.22061 10.8822 7.36069 10.2911 7.69573 9.80886C8.03076 9.32665 8.53591 8.98914 9.10963 8.86416L26.9876 4.8905C27.6546 4.74223 28.346 4.74223 29.013 4.8905L46.891 8.8665C48.081 9.13016 48.8696 10.2572 48.697 11.4658L44.3336 41.9998C44.1703 43.1548 43.167 50.1665 28.0003 50.1665C12.8336 50.1665 11.8303 43.1548 11.667 41.9998Z" stroke="#ECECEC" stroke-width="3.5" stroke-linecap="round" stroke-linejoin="round"/>
</svg>
