<svg width="56" height="56" viewBox="0 0 56 56" fill="none" xmlns="http://www.w3.org/2000/svg">
<g clip-path="url(#clip0_404_1737)">
<path fill-rule="evenodd" clip-rule="evenodd" d="M24.5 29.75C24.5005 28.3571 25.0542 27.0215 26.0394 26.037C26.5273 25.5495 27.1063 25.1628 27.7436 24.8991C28.3809 24.6354 29.0638 24.4998 29.7535 24.5C30.4432 24.5002 31.126 24.6363 31.7631 24.9004C32.4002 25.1646 32.979 25.5516 33.4665 26.0394C33.954 26.5273 34.3407 27.1063 34.6044 27.7436C34.8681 28.3809 35.0037 29.0638 35.0035 29.7535C35.003 31.1464 34.4493 32.482 33.4641 33.4665C32.4788 34.4511 31.1429 35.004 29.75 35.0035C28.3571 35.003 27.0215 34.4493 26.037 33.4641C25.0524 32.4788 24.4995 31.1429 24.5 29.75ZM29.75 28C29.2859 28 28.8408 28.1844 28.5126 28.5126C28.1844 28.8408 28 29.2859 28 29.75C28 30.2141 28.1844 30.6592 28.5126 30.9874C28.8408 31.3156 29.2859 31.5 29.75 31.5C30.2141 31.5 30.6592 31.3156 30.9874 30.9874C31.3156 30.6592 31.5 30.2141 31.5 29.75C31.5 29.2859 31.3156 28.8408 30.9874 28.5126C30.6592 28.1844 30.2141 28 29.75 28Z" fill="#ECECEC"/>
<path fill-rule="evenodd" clip-rule="evenodd" d="M17.5 47.25V35H8.75C6.42936 35 4.20376 34.0781 2.56282 32.4372C0.921872 30.7962 0 28.5706 0 26.25L0 8.75C0 6.42936 0.921872 4.20376 2.56282 2.56282C4.20376 0.921872 6.42936 0 8.75 0L33.25 0C34.3991 0 35.5369 0.226325 36.5985 0.666054C37.6601 1.10578 38.6247 1.7503 39.4372 2.56282C40.2497 3.37533 40.8942 4.33992 41.3339 5.40152C41.7737 6.46312 42 7.60093 42 8.75V17.5H47.25C49.5706 17.5 51.7962 18.4219 53.4372 20.0628C55.0781 21.7038 56 23.9294 56 26.25V47.25C56 49.5706 55.0781 51.7962 53.4372 53.4372C51.7962 55.0781 49.5706 56 47.25 56H26.25C23.9294 56 21.7038 55.0781 20.0628 53.4372C18.4219 51.7962 17.5 49.5706 17.5 47.25ZM3.5 8.75C3.5 7.35761 4.05312 6.02226 5.03769 5.03769C6.02226 4.05312 7.35761 3.5 8.75 3.5H10.5V10.5H3.5V8.75ZM3.5 14H10.5V21H3.5V14ZM3.5 24.5H10.5V31.5H8.75C7.35761 31.5 6.02226 30.9469 5.03769 29.9623C4.05312 28.9777 3.5 27.6424 3.5 26.25V24.5ZM14 31.5V3.5H28V17.5H26.25C23.9294 17.5 21.7038 18.4219 20.0628 20.0628C18.4219 21.7038 17.5 23.9294 17.5 26.25V31.5H14ZM38.5 17.5V14H31.5V17.5H38.5ZM38.5 8.75V10.5H31.5V3.5H33.25C34.6424 3.5 35.9777 4.05312 36.9623 5.03769C37.9469 6.02226 38.5 7.35761 38.5 8.75ZM26.25 21C24.8576 21 23.5223 21.5531 22.5377 22.5377C21.5531 23.5223 21 24.8576 21 26.25V47.25C21 48.9615 21.819 50.4805 23.086 51.45L42.511 32.025C42.8392 31.6969 43.2842 31.5126 43.7483 31.5126C44.2123 31.5126 44.6573 31.6969 44.9855 32.025L52.5105 39.55V26.285C52.5105 24.8926 51.9574 23.5573 50.9728 22.5727C49.9882 21.5881 48.6529 21.035 47.2605 21.035H26.2605L26.25 21ZM52.5 44.485L43.75 35.735L26.985 52.5H47.25C48.6424 52.5 49.9777 51.9469 50.9623 50.9623C51.9469 49.9777 52.5 48.6424 52.5 47.25V44.4745V44.485Z" fill="#ECECEC"/>
</g>
<defs>
<clipPath id="clip0_404_1737">
<rect width="56" height="56" fill="white"/>
</clipPath>
</defs>
</svg>
