<svg width="56" height="56" viewBox="0 0 56 56" fill="none" xmlns="http://www.w3.org/2000/svg">
<path d="M47.6364 43.5556H52V48H4V43.5556H8.36364V10.2222C8.36364 9.63285 8.59351 9.06762 9.00268 8.65087C9.41185 8.23413 9.9668 8 10.5455 8H32.3636C32.9423 8 33.4972 8.23413 33.9064 8.65087C34.3156 9.06762 34.5455 9.63285 34.5455 10.2222V43.5556H43.2727V25.7778H38.9091V21.3333H45.4545C46.0332 21.3333 46.5882 21.5675 46.9973 21.9842C47.4065 22.401 47.6364 22.9662 47.6364 23.5556V43.5556ZM12.7273 12.4444V43.5556H30.1818V12.4444H12.7273ZM17.0909 25.7778H25.8182V30.2222H17.0909V25.7778ZM17.0909 16.8889H25.8182V21.3333H17.0909V16.8889Z" fill="#ECECEC"/>
</svg>
