<svg width="56" height="56" viewBox="0 0 56 56" fill="none" xmlns="http://www.w3.org/2000/svg">
<path d="M23.3333 11.6667L28 7M18.6667 37.3333L37.3333 18.6667M28 49L32.6667 44.3333M38.5 44.3333C40.0471 44.3333 41.5308 43.7188 42.6248 42.6248C43.7188 41.5308 44.3333 40.0471 44.3333 38.5C44.3333 36.9529 43.7188 35.4692 42.6248 34.3752C41.5308 33.2812 40.0471 32.6667 38.5 32.6667C36.9529 32.6667 35.4692 33.2812 34.3752 34.3752C33.2812 35.4692 32.6667 36.9529 32.6667 38.5C32.6667 40.0471 33.2812 41.5308 34.3752 42.6248C35.4692 43.7188 36.9529 44.3333 38.5 44.3333ZM17.5 23.3333C19.0471 23.3333 20.5308 22.7188 21.6248 21.6248C22.7188 20.5308 23.3333 19.0471 23.3333 17.5C23.3333 15.9529 22.7188 14.4692 21.6248 13.3752C20.5308 12.2812 19.0471 11.6667 17.5 11.6667C15.9529 11.6667 14.4692 12.2812 13.3752 13.3752C12.2812 14.4692 11.6667 15.9529 11.6667 17.5C11.6667 19.0471 12.2812 20.5308 13.3752 21.6248C14.4692 22.7188 15.9529 23.3333 17.5 23.3333ZM12.8333 49C14.3804 49 15.8642 48.3854 16.9581 47.2915C18.0521 46.1975 18.6667 44.7138 18.6667 43.1667C18.6667 41.6196 18.0521 40.1358 16.9581 39.0419C15.8642 37.9479 14.3804 37.3333 12.8333 37.3333C11.2862 37.3333 9.80251 37.9479 8.70854 39.0419C7.61458 40.1358 7 41.6196 7 43.1667C7 44.7138 7.61458 46.1975 8.70854 47.2915C9.80251 48.3854 11.2862 49 12.8333 49ZM43.1667 18.6667C44.7138 18.6667 46.1975 18.0521 47.2915 16.9581C48.3854 15.8642 49 14.3804 49 12.8333C49 11.2862 48.3854 9.80251 47.2915 8.70854C46.1975 7.61458 44.7138 7 43.1667 7C41.6196 7 40.1358 7.61458 39.0419 8.70854C37.9479 9.80251 37.3333 11.2862 37.3333 12.8333C37.3333 14.3804 37.9479 15.8642 39.0419 16.9581C40.1358 18.0521 41.6196 18.6667 43.1667 18.6667Z" stroke="#ECECEC" stroke-width="3" stroke-linecap="round" stroke-linejoin="round"/>
</svg>
