<svg width="56" height="56" viewBox="0 0 56 56" fill="none" xmlns="http://www.w3.org/2000/svg">
<path d="M26.9824 24.2192L12.0398 17.8772C11.4051 17.6298 11.0333 17.1787 10.9244 16.5238C10.8155 15.8689 10.9952 15.3082 11.4634 14.8415L12.0374 14.2208C12.2599 13.9999 12.5126 13.849 12.7958 13.7682C13.0789 13.6873 13.3783 13.6709 13.6941 13.7192L34.0221 17.2285L41.3441 9.89016C41.999 9.23682 42.7908 8.91016 43.7194 8.91016C44.6481 8.91016 45.4406 9.23682 46.0971 9.89016C46.752 10.545 47.0794 11.3376 47.0794 12.2678C47.0794 13.198 46.752 13.9898 46.0971 14.6432L38.7728 21.9792L42.2704 42.2932C42.3171 42.6105 42.3023 42.913 42.2261 43.2008C42.1499 43.487 42.0013 43.7414 41.7804 43.9638L41.1621 44.5238C40.6923 44.9936 40.1284 45.1764 39.4704 45.0722C38.8109 44.9664 38.3574 44.5969 38.1101 43.9638L31.7774 28.9745L24.6164 36.1238L25.8531 43.4015C25.9029 43.641 25.899 43.8705 25.8414 44.0898C25.7854 44.3107 25.6656 44.5122 25.4821 44.6942L24.8498 45.2822C24.4842 45.6477 24.0673 45.7869 23.5991 45.6998C23.1324 45.6127 22.7785 45.3537 22.5374 44.9228L18.5498 37.4492L11.0784 33.4592C10.6475 33.2212 10.3885 32.868 10.3014 32.3998C10.2143 31.9316 10.3543 31.5147 10.7214 31.1492L11.3071 30.5168C11.4891 30.3333 11.6905 30.2057 11.9114 30.1342C12.1308 30.0626 12.3602 30.0509 12.5998 30.0992L19.8634 31.3685L26.9824 24.2192Z" fill="#ECECEC"/>
</svg>
