<svg width="50" height="50" viewBox="0 0 50 50" fill="none" xmlns="http://www.w3.org/2000/svg">
<path d="M42.75 23.2476V11.2128C42.75 10.168 42.3374 9.16598 41.6028 8.4272C40.8683 7.68842 39.8721 7.27338 38.8333 7.27338H30.6475C29.825 4.98853 27.6708 3.33398 25.125 3.33398C22.5792 3.33398 20.425 4.98853 19.6025 7.27338H11.4167C9.2625 7.27338 7.5 9.04611 7.5 11.2128V38.7885C7.5 39.8333 7.91265 40.8353 8.64716 41.5741C9.38168 42.3129 10.3779 42.7279 11.4167 42.7279H23.3821C25.8496 45.1703 29.2179 46.6673 32.9583 46.6673C40.5371 46.6673 46.6667 40.5022 46.6667 32.8794C46.6667 29.1173 45.1783 25.7294 42.75 23.2476ZM25.125 7.27338C26.2021 7.27338 27.0833 8.15974 27.0833 9.24308C27.0833 10.3264 26.2021 11.2128 25.125 11.2128C24.0479 11.2128 23.1667 10.3264 23.1667 9.24308C23.1667 8.15974 24.0479 7.27338 25.125 7.27338ZM11.4167 38.7885V11.2128H15.3333V15.1522H34.9167V11.2128H38.8333V20.431C37.0513 19.584 35.0733 19.0916 32.9583 19.0916H15.3333V23.031H23.3625C22.1875 24.1537 21.2867 25.4931 20.5817 26.9703H15.3333V30.9097H19.4067C19.3088 31.5597 19.25 32.2097 19.25 32.8794C19.25 35.0067 19.7396 36.9961 20.5817 38.7885H11.4167ZM32.9583 42.7279C27.5533 42.7279 23.1667 38.3158 23.1667 32.8794C23.1667 27.4431 27.5533 23.031 32.9583 23.031C38.3633 23.031 42.75 27.4431 42.75 32.8794C42.75 38.3158 38.3633 42.7279 32.9583 42.7279ZM33.9375 33.3719L39.5383 36.7007L38.0696 39.1037L31 34.8491V25.0007H33.9375V33.3719Z" fill="black"/>
</svg>
