<svg width="50" height="50" viewBox="0 0 50 50" fill="none" xmlns="http://www.w3.org/2000/svg">
<path d="M25 4.16602C13.5125 4.16602 4.16663 13.5118 4.16663 24.9993V33.6306C4.16663 35.7639 6.03538 37.4993 8.33329 37.4993H10.4166C10.9692 37.4993 11.4991 37.2799 11.8898 36.8892C12.2805 36.4985 12.5 35.9685 12.5 35.416V24.7014C12.5 24.1489 12.2805 23.619 11.8898 23.2283C11.4991 22.8376 10.9692 22.6181 10.4166 22.6181H8.52496C9.68329 14.5556 16.6208 8.33268 25 8.33268C33.3791 8.33268 40.3166 14.5556 41.475 22.6181H39.5833C39.0308 22.6181 38.5009 22.8376 38.1102 23.2283C37.7194 23.619 37.5 24.1489 37.5 24.7014V37.4993C37.5 39.7973 35.6312 41.666 33.3333 41.666H29.1666V39.5827H20.8333V45.8327H33.3333C37.9291 45.8327 41.6666 42.0952 41.6666 37.4993C43.9645 37.4993 45.8333 35.7639 45.8333 33.6306V24.9993C45.8333 13.5118 36.4875 4.16602 25 4.16602Z" fill="black"/>
</svg>
