<svg width="50" height="50" viewBox="0 0 50 50" fill="none" xmlns="http://www.w3.org/2000/svg">
<path d="M17.1211 34.7619V30.7937H21.4052C21.2411 31.455 21.1347 32.1164 21.0861 32.7778C21.0375 33.4392 21.0454 34.1005 21.1098 34.7619H17.1211ZM17.1211 44.6825C14.3964 44.6825 12.0741 43.7149 10.1543 41.7798C8.23451 39.8446 7.27396 37.5053 7.27265 34.7619V16.9048C6.18931 16.9048 5.26224 16.5165 4.49143 15.7401C3.72063 14.9636 3.33457 14.0291 3.33325 12.9365V8.96825C3.33325 7.87698 3.71931 6.94312 4.49143 6.16667C5.26355 5.39021 6.19063 5.00132 7.27265 5H26.9696C28.0529 5 28.9807 5.38889 29.7528 6.16667C30.5249 6.94444 30.9103 7.87831 30.909 8.96825V12.9365C30.909 14.0278 30.5236 14.9623 29.7528 15.7401C28.982 16.5179 28.0543 16.9061 26.9696 16.9048V22.9067C26.1817 23.4028 25.4595 23.9815 24.8029 24.6429C24.1464 25.3042 23.5719 26.0317 23.0795 26.8254H17.1211V22.8571H23.0302V16.9048H11.212V34.7619C11.212 36.4153 11.7865 37.8208 12.9355 38.9782C14.0845 40.1356 15.4797 40.7143 17.1211 40.7143C18.106 40.7143 19.0009 40.4993 19.8058 40.0694C20.6108 39.6395 21.2916 39.0443 21.8484 38.2837C22.111 38.9451 22.4065 39.5734 22.7348 40.1687C23.063 40.7639 23.457 41.3426 23.9166 41.9048C23.0302 42.7646 22.0125 43.4425 20.8636 43.9385C19.7146 44.4345 18.4671 44.6825 17.1211 44.6825ZM7.27265 12.9365H26.9696V8.96825H7.27265V12.9365ZM33.8636 38.7302C35.2423 38.7302 36.4077 38.2507 37.3598 37.2917C38.3118 36.3327 38.7878 35.1587 38.7878 33.7698C38.7878 32.381 38.3118 31.207 37.3598 30.248C36.4077 29.289 35.2423 28.8095 33.8636 28.8095C32.4848 28.8095 31.3194 29.289 30.3673 30.248C29.4153 31.207 28.9393 32.381 28.9393 33.7698C28.9393 35.1587 29.4153 36.3327 30.3673 37.2917C31.3194 38.2507 32.4848 38.7302 33.8636 38.7302ZM43.909 46.6667L38.5908 41.3095C37.8686 41.7725 37.1136 42.1197 36.3257 42.3512C35.5378 42.5827 34.7171 42.6984 33.8636 42.6984C31.4014 42.6984 29.309 41.8307 27.5861 40.0952C25.8633 38.3598 25.0012 36.2513 24.9999 33.7698C24.9986 31.2884 25.8607 29.1806 27.5861 27.4464C29.3116 25.7123 31.4041 24.8439 33.8636 24.8413C36.323 24.8386 38.4162 25.707 40.1429 27.4464C41.8697 29.1858 42.7311 31.2937 42.7272 33.7698C42.7272 34.6296 42.6123 35.4564 42.3825 36.25C42.1527 37.0437 41.808 37.8042 41.3484 38.5317L46.6666 43.8889L43.909 46.6667Z" fill="black"/>
</svg>
