<svg width="50" height="50" viewBox="0 0 50 50" fill="none" xmlns="http://www.w3.org/2000/svg">
<path d="M37.3497 26.3204C36.6808 31.6556 33.0323 33.7874 31.4566 35.335C29.8785 36.887 30.1611 37.1961 30.2671 39.4723C30.2848 39.7539 30.2421 40.036 30.1416 40.3012C30.0411 40.5664 29.885 40.8091 29.6829 41.0143C29.4807 41.2196 29.2369 41.383 28.9663 41.4945C28.6957 41.606 28.4042 41.6633 28.1096 41.6628H21.849C21.5546 41.6623 21.2634 41.6043 20.9932 41.4925C20.723 41.3807 20.4794 41.2173 20.2773 41.0123C20.0752 40.8073 19.9188 40.5651 19.8176 40.3003C19.7165 40.0355 19.6728 39.7538 19.6891 39.4723C19.6891 37.2389 19.9058 36.7201 18.502 35.335C16.7119 33.6205 12.5005 31.1999 12.5005 24.5427C12.4897 22.8891 12.8368 21.2514 13.5197 19.7326C14.2026 18.2139 15.2066 16.8471 16.4685 15.7184C17.7303 14.5898 19.2226 13.7237 20.8512 13.1748C22.4799 12.626 24.2096 12.4062 25.9313 12.5294C27.653 12.6525 29.3295 13.116 30.8549 13.8905C32.3803 14.665 33.7217 15.7337 34.7945 17.0294C35.8673 18.3251 36.6481 19.8196 37.0879 21.4186C37.5277 23.0177 37.6169 24.6867 37.3497 26.3204Z" stroke="black" stroke-width="4" stroke-linecap="round" stroke-linejoin="round"/>
<path fill-rule="evenodd" clip-rule="evenodd" d="M24.999 2.39258C25.977 2.39258 26.7699 3.18541 26.7699 4.16341V7.39469C26.7699 8.37269 25.977 9.16552 24.999 9.16552C24.021 9.16552 23.2282 8.37269 23.2282 7.39469V4.16341C23.2282 3.18541 24.021 2.39258 24.999 2.39258ZM8.3598 7.75494C9.0393 7.05153 10.1604 7.03214 10.8638 7.71164L13.8005 10.5485C14.5039 11.228 14.5233 12.3491 13.8438 13.0525C13.1643 13.7559 12.0432 13.7753 11.3398 13.0958L8.4031 10.2589C7.6997 9.5794 7.68031 8.45834 8.3598 7.75494ZM41.7044 7.76203C42.3811 8.46805 42.3574 9.58903 41.6514 10.2658L38.6942 13.1005C37.9882 13.7773 36.8672 13.7536 36.1904 13.0476C35.5137 12.3416 35.5374 11.2206 36.2434 10.5438L39.2006 7.70908C39.9066 7.03231 41.0276 7.05601 41.7044 7.76203ZM18.4225 18.0756C19.7084 16.8424 21.4373 16.1617 23.2253 16.1609C24.2033 16.1605 24.9965 16.953 24.9969 17.931C24.9973 18.909 24.2048 19.7021 23.2268 19.7026C22.3306 19.703 21.4856 20.0452 20.8739 20.6318C20.2647 21.216 19.9372 21.9918 19.9372 22.7841C19.9372 23.7621 19.1443 24.5549 18.1663 24.5549C17.1883 24.5549 16.3955 23.7621 16.3955 22.7841C16.3955 21.0033 17.134 19.3113 18.4225 18.0756ZM2.396 24.9216C2.396 23.9436 3.18883 23.1507 4.16683 23.1507H8.33327C9.31127 23.1507 10.1041 23.9436 10.1041 24.9216C10.1041 25.8996 9.31127 26.6924 8.33327 26.6924H4.16683C3.18883 26.6924 2.396 25.8996 2.396 24.9216ZM39.894 24.9216C39.894 23.9436 40.6868 23.1507 41.6648 23.1507H45.8335C46.8115 23.1507 47.6043 23.9436 47.6043 24.9216C47.6043 25.8996 46.8115 26.6924 45.8335 26.6924H41.6648C40.6868 26.6924 39.894 25.8996 39.894 24.9216ZM38.463 34.8002C39.1395 34.0939 40.2605 34.0698 40.9667 34.7463L43.9239 37.5788C44.6302 38.2553 44.6543 39.3763 43.9778 40.0826C43.3013 40.7889 42.1804 40.813 41.4741 40.1365L38.5169 37.304C37.8106 36.6275 37.7865 35.5065 38.463 34.8002ZM11.5717 34.7958C12.2507 35.4997 12.2304 36.6208 11.5265 37.2997L8.58977 40.1322C7.88584 40.8112 6.76479 40.7909 6.08584 40.087C5.40689 39.3831 5.42714 38.262 6.13106 37.5831L9.0678 34.7506C9.77173 34.0716 10.8928 34.0919 11.5717 34.7958ZM21.4986 39.8958C22.4766 39.8958 23.2694 40.6887 23.2694 41.6667V44.0592H26.7286V41.6667C26.7286 40.6887 27.5215 39.8958 28.4995 39.8958C29.4775 39.8958 30.2703 40.6887 30.2703 41.6667V44.1916C30.2703 44.9666 30.0486 45.7437 29.6023 46.3724C29.1588 46.9972 28.3818 47.6009 27.3311 47.6009H22.6646C21.615 47.6009 20.8391 46.9965 20.3968 46.3739C19.9506 45.7458 19.7277 44.9687 19.7277 44.1916V41.6667C19.7277 40.6887 20.5206 39.8958 21.4986 39.8958Z" fill="black"/>
</svg>
