<svg width="50" height="50" viewBox="0 0 50 50" fill="none" xmlns="http://www.w3.org/2000/svg">
<path d="M23.0556 7.5C23.5512 7.50055 24.0278 7.69032 24.3882 8.03054C24.7486 8.37076 24.9655 8.83574 24.9945 9.33049C25.0235 9.82524 24.8626 10.3124 24.5445 10.6925C24.2264 11.0725 23.7752 11.3167 23.2831 11.3753L23.0556 11.3889H11.3889V38.6111H38.6111V26.9444C38.6117 26.4488 38.8014 25.9722 39.1416 25.6118C39.4819 25.2514 39.9469 25.0345 40.4416 25.0055C40.9363 24.9765 41.4235 25.1374 41.8036 25.4555C42.1836 25.7736 42.4279 26.2248 42.4864 26.7169L42.5 26.9444V38.6111C42.5003 39.5922 42.1298 40.5372 41.4626 41.2566C40.7955 41.976 39.8811 42.4167 38.9028 42.4903L38.6111 42.5H11.3889C10.4078 42.5003 9.46279 42.1298 8.74338 41.4626C8.02397 40.7955 7.58331 39.8811 7.50972 38.9028L7.5 38.6111V11.3889C7.49969 10.4078 7.87023 9.46279 8.53736 8.74338C9.20448 8.02397 10.1189 7.58331 11.0972 7.50972L11.3889 7.5H23.0556ZM40.0694 7.5C41.4111 7.5 42.5 8.58889 42.5 9.93056V17.2222C42.5 17.7379 42.2951 18.2325 41.9305 18.5972C41.5658 18.9618 41.0713 19.1667 40.5556 19.1667C40.0399 19.1667 39.5453 18.9618 39.1806 18.5972C38.816 18.2325 38.6111 17.7379 38.6111 17.2222V14.1383L25.805 26.9444H28.8889C29.4046 26.9444 29.8992 27.1493 30.2638 27.514C30.6285 27.8786 30.8333 28.3732 30.8333 28.8889C30.8333 29.4046 30.6285 29.8992 30.2638 30.2638C29.8992 30.6285 29.4046 30.8333 28.8889 30.8333H21.5972C20.2556 30.8333 19.1667 29.7444 19.1667 28.4028V21.1111C19.1667 20.5954 19.3715 20.1008 19.7362 19.7362C20.1008 19.3715 20.5954 19.1667 21.1111 19.1667C21.6268 19.1667 22.1214 19.3715 22.486 19.7362C22.8507 20.1008 23.0556 20.5954 23.0556 21.1111V24.195L35.8617 11.3889H32.7778C32.2621 11.3889 31.7675 11.184 31.4028 10.8194C31.0382 10.4547 30.8333 9.96014 30.8333 9.44444C30.8333 8.92875 31.0382 8.43417 31.4028 8.06951C31.7675 7.70486 32.2621 7.5 32.7778 7.5H40.0694Z" fill="black"/>
</svg>
