<svg width="50" height="50" viewBox="0 0 50 50" fill="none" xmlns="http://www.w3.org/2000/svg">
<path fill-rule="evenodd" clip-rule="evenodd" d="M20.9393 3.51117C21.2186 2.66769 22.0107 2.08398 22.9167 2.08398H25.0001C25.9714 2.08398 26.8093 2.75429 27.0285 3.69224L40.4185 9.55032C41.1768 9.88208 41.6667 10.6313 41.6667 11.459V25.0007C41.6667 29.2339 39.6021 34.3483 36.4388 38.6118C33.2628 42.8925 28.7082 46.6811 23.3687 47.8677C23.071 47.9339 22.7625 47.9339 22.4648 47.8677C17.1253 46.6811 12.5707 42.8925 9.39467 38.6118C6.23142 34.3483 4.16675 29.2339 4.16675 25.0007V11.459C4.16675 10.5998 4.69421 9.82872 5.49498 9.51731L20.9393 3.51117ZM23.8504 6.84976L8.33341 12.8841V25.0007C8.33341 28.0591 9.91457 32.3197 12.7409 36.1291C15.4492 39.7794 19.0517 42.6792 22.9167 43.6909C26.7817 42.6792 30.3843 39.7794 33.0926 36.1291C35.9189 32.3197 37.5001 28.0591 37.5001 25.0007V12.8215L23.8504 6.84976Z" fill="black"/>
</svg>
