<svg width="197" height="48" viewBox="0 0 197 48" fill="none" xmlns="http://www.w3.org/2000/svg">
<path d="M77.8747 7.24023L72.4195 40.1613H65.7414L60.2861 7.24023H65.3656L69.1281 33.1068L72.8906 7.24023H77.876H77.8747Z" fill="#303030"/>
<path d="M82.2002 7.24023H96.3563V11.9432H87.1855V21.114H94.4753V25.817H87.1855V35.4583H96.3563V40.1613H82.2002V7.24023Z" fill="#303030"/>
<path d="M102.753 38.4691C101.311 37.0273 100.59 35.1464 100.59 32.8256V14.5782C100.59 12.2581 101.311 10.3772 102.753 8.93477C104.195 7.493 106.076 6.77148 108.397 6.77148C110.717 6.77148 112.598 7.493 114.04 8.93477C115.482 10.3772 116.203 12.2587 116.203 14.5782V18.4349H111.312V14.5782C111.312 13.6378 111.045 12.8849 110.513 12.3209C109.98 11.7562 109.29 11.4745 108.444 11.4745C107.597 11.4745 106.907 11.7568 106.374 12.3209C105.841 12.8855 105.575 13.6378 105.575 14.5782V32.8256C105.575 33.7661 105.841 34.519 106.374 35.083C106.907 35.6477 107.597 35.9294 108.444 35.9294C109.29 35.9294 109.98 35.647 110.513 35.083C111.045 34.5183 111.312 33.7661 111.312 32.8256V28.1226H116.203V32.8256C116.203 35.1464 115.482 37.0273 114.04 38.4691C112.598 39.9115 110.716 40.6324 108.397 40.6324C106.077 40.6324 104.195 39.9115 102.753 38.4691Z" fill="#303030"/>
<path d="M119.825 7.24023H135.721V11.9432H130.266V40.1613H125.28V11.9432H119.825V7.24023Z" fill="#303030"/>
<path d="M141.835 38.4471C140.361 36.989 139.625 35.0692 139.625 32.6857V14.72C139.625 12.3378 140.362 10.4167 141.835 8.95861C143.308 7.50052 145.237 6.77148 147.62 6.77148C150.003 6.77148 151.931 7.50052 153.405 8.95861C154.878 10.4167 155.615 12.3372 155.615 14.72V32.6857C155.615 35.0686 154.878 36.989 153.405 38.4471C151.93 39.9052 150.002 40.6342 147.62 40.6342C145.238 40.6342 143.308 39.9052 141.835 38.4471ZM149.831 35.0849C150.364 34.5202 150.63 33.7209 150.63 32.6863V14.7207C150.63 13.6861 150.364 12.8868 149.831 12.3221C149.298 11.7574 148.561 11.4757 147.621 11.4757C146.68 11.4757 145.943 11.7581 145.41 12.3221C144.877 12.8868 144.611 13.6861 144.611 14.7207V32.6863C144.611 33.7209 144.877 34.5202 145.41 35.0849C145.943 35.6495 146.68 35.9312 147.621 35.9312C148.561 35.9312 149.298 35.6489 149.831 35.0849Z" fill="#303030"/>
<path d="M172.31 40.1613L168.688 26.5699H166.102V40.1613H161.116V7.24023H168.923C171.305 7.24023 173.202 7.95359 174.614 9.3803C176.025 10.8076 176.73 12.7118 176.73 15.0947V18.716C176.73 20.2212 176.431 21.5538 175.836 22.7138C175.24 23.8739 174.394 24.783 173.297 25.4418L177.482 40.1619H172.308L172.31 40.1613ZM166.102 21.8669H168.688C169.66 21.8669 170.412 21.6008 170.946 21.0675C171.478 20.5349 171.745 19.7826 171.745 18.8102V15.0006C171.745 14.0293 171.478 13.2765 170.946 12.7432C170.412 12.2105 169.66 11.9439 168.688 11.9439H166.102V21.8675V21.8669Z" fill="#303030"/>
<path d="M184.774 39.599C183.551 38.9095 182.602 37.9527 181.928 36.7299C181.254 35.5071 180.917 34.1124 180.917 32.5445V31.3688L185.714 30.8512V32.074C185.714 33.266 185.996 34.2065 186.56 34.896C187.125 35.5862 187.908 35.9306 188.912 35.9306C189.916 35.9306 190.659 35.6483 191.24 35.0842C191.819 34.5196 192.11 33.7523 192.11 32.7798C192.11 31.7145 191.804 30.6949 191.193 29.7231C190.581 28.7519 189.366 27.403 187.548 25.6782C185.102 23.3581 183.433 21.4301 182.539 19.8936C181.646 18.3577 181.199 16.68 181.199 14.8612C181.199 12.3848 181.873 10.4167 183.221 8.95861C184.569 7.50052 186.419 6.77148 188.771 6.77148C191.122 6.77148 192.972 7.50868 194.32 8.98182C195.668 10.4562 196.342 12.4313 196.342 14.9076V15.754L191.545 16.2716V15.3311C191.545 14.0776 191.31 13.1208 190.84 12.4626C190.369 11.8039 189.695 11.4751 188.818 11.4751C187.941 11.4751 187.266 11.7418 186.796 12.2744C186.325 12.8077 186.091 13.5913 186.091 14.6259C186.091 15.6605 186.404 16.6562 187.031 17.6124C187.658 18.5691 188.865 19.94 190.652 21.7275C193.098 24.1731 194.768 26.1406 195.661 27.6295C196.554 29.1189 197.001 30.7571 197.001 32.5439C197.001 34.1124 196.664 35.5071 195.99 36.7293C195.315 37.9521 194.367 38.9089 193.144 39.5984C191.922 40.2879 190.526 40.633 188.959 40.633C187.392 40.633 185.996 40.2879 184.774 39.5984V39.599Z" fill="#303030"/>
<path fill-rule="evenodd" clip-rule="evenodd" d="M34.3959 35.5047L54.6741 0H13.7958L22.4304 15.1462L28.5442 11.5678L26.1746 7.00297L42.4581 7.00371L34.4762 21.171L34.1403 21.0693L31.8708 16.9377L25.6928 20.4601L34.3959 35.5047ZM27.3283 47.408L31.1845 40.7299L7.71159 0.0740675H0L27.3283 47.408Z" fill="#0F26A6"/>
</svg>
