<svg width="333" height="80" viewBox="0 0 333 80" fill="none" xmlns="http://www.w3.org/2000/svg">
<path d="M131.411 12.2227L122.205 67.7768H110.936L101.73 12.2227H110.302L116.651 55.8723L123.001 12.2227H131.413H131.411Z" fill="white"/>
<path d="M138.712 12.2227H162.6V20.159H147.125V35.6345H159.426V43.5708H147.125V59.8405H162.6V67.7768H138.712V12.2227Z" fill="white"/>
<path d="M173.392 64.9193C170.958 62.4863 169.741 59.3122 169.741 55.3959V24.6036C169.741 20.6884 170.958 17.5143 173.392 15.0802C175.825 12.6472 178.999 11.4297 182.915 11.4297C186.831 11.4297 190.004 12.6472 192.438 15.0802C194.871 17.5143 196.089 20.6894 196.089 24.6036V31.1116H187.835V24.6036C187.835 23.0165 187.385 21.746 186.486 20.7942C185.586 19.8414 184.423 19.366 182.994 19.366C181.566 19.366 180.402 19.8424 179.503 20.7942C178.603 21.7471 178.154 23.0165 178.154 24.6036V55.3959C178.154 56.983 178.603 58.2535 179.503 59.2053C180.402 60.1581 181.566 60.6335 182.994 60.6335C184.423 60.6335 185.586 60.1571 186.486 59.2053C187.385 58.2524 187.835 56.983 187.835 55.3959V47.4596H196.089V55.3959C196.089 59.3122 194.871 62.4863 192.438 64.9193C190.004 67.3533 186.829 68.5698 182.915 68.5698C179.001 68.5698 175.825 67.3533 173.392 64.9193Z" fill="white"/>
<path d="M202.204 12.2227H229.028V20.159H219.823V67.7768H211.41V20.159H202.204V12.2227Z" fill="white"/>
<path d="M239.344 64.8822C236.856 62.4217 235.614 59.182 235.614 55.1598V24.8428C235.614 20.8228 236.857 17.581 239.344 15.1204C241.83 12.6599 245.085 11.4297 249.106 11.4297C253.127 11.4297 256.38 12.6599 258.867 15.1204C261.353 17.581 262.597 20.8218 262.597 24.8428V55.1598C262.597 59.1809 261.353 62.4217 258.867 64.8822C256.379 67.3427 253.126 68.573 249.106 68.573C245.086 68.573 241.83 67.3427 239.344 64.8822ZM252.837 59.2084C253.736 58.2556 254.186 56.9067 254.186 55.1609V24.8439C254.186 23.098 253.736 21.7492 252.837 20.7963C251.937 19.8435 250.694 19.3681 249.107 19.3681C247.52 19.3681 246.276 19.8445 245.377 20.7963C244.477 21.7492 244.028 23.098 244.028 24.8439V55.1609C244.028 56.9067 244.477 58.2556 245.377 59.2084C246.276 60.1613 247.52 60.6367 249.107 60.6367C250.694 60.6367 251.937 60.1602 252.837 59.2084Z" fill="white"/>
<path d="M290.77 67.7768L284.659 44.8413H280.294V67.7768H271.881V12.2227H285.055C289.075 12.2227 292.276 13.4264 294.657 15.834C297.039 18.2426 298.229 21.4559 298.229 25.477V31.588C298.229 34.128 297.725 36.3767 296.721 38.3343C295.715 40.2919 294.287 41.826 292.435 42.9377L299.498 67.7778H290.768L290.77 67.7768ZM280.294 36.905H284.659C286.298 36.905 287.568 36.4561 288.468 35.5562C289.367 34.6573 289.817 33.3879 289.817 31.7468V25.3182C289.817 23.6793 289.367 22.4088 288.468 21.5088C287.568 20.61 286.298 20.16 284.659 20.16H280.294V36.9061V36.905Z" fill="white"/>
<path d="M311.802 66.8261C309.739 65.6625 308.138 64.0479 307.001 61.9844C305.862 59.921 305.294 57.5674 305.294 54.9216V52.9375L313.389 52.0641V54.1275C313.389 56.1392 313.865 57.7262 314.817 58.8898C315.77 60.0544 317.091 60.6356 318.785 60.6356C320.479 60.6356 321.734 60.1592 322.713 59.2074C323.692 58.2545 324.182 56.9597 324.182 55.3186C324.182 53.5209 323.666 51.8004 322.634 50.1605C321.603 48.5215 319.551 46.2452 316.484 43.3348C312.357 39.4196 309.539 36.166 308.032 33.5732C306.524 30.9814 305.77 28.1503 305.77 25.0811C305.77 20.9022 306.907 17.581 309.183 15.1204C311.457 12.6599 314.579 11.4297 318.547 11.4297C322.515 11.4297 325.637 12.6737 327.912 15.1596C330.186 17.6477 331.324 20.9806 331.324 25.1594V26.5876L323.229 27.4611V25.8741C323.229 23.7587 322.832 22.1441 322.039 21.0335C321.245 19.9218 320.107 19.367 318.627 19.367C317.147 19.367 316.007 19.817 315.214 20.7159C314.42 21.6158 314.024 22.9382 314.024 24.684C314.024 26.4299 314.553 28.1101 315.611 29.7236C316.669 31.3382 318.706 33.6515 321.722 36.6679C325.849 40.7949 328.667 44.1151 330.174 46.6274C331.682 49.1409 332.436 51.9053 332.436 54.9205C332.436 57.5674 331.866 59.921 330.729 61.9834C329.591 64.0469 327.991 65.6615 325.928 66.825C323.864 67.9886 321.51 68.5709 318.865 68.5709C316.22 68.5709 313.865 67.9886 311.802 66.825V66.8261Z" fill="white"/>
<path fill-rule="evenodd" clip-rule="evenodd" d="M58.043 59.9141L92.2624 0H23.2804L37.8512 25.5592L48.1683 19.5205L44.1695 11.8175L71.6479 11.8187L58.1785 35.7259L57.6116 35.5544L53.7819 28.5822L43.3566 34.5264L58.043 59.9141ZM46.1164 80.0005L52.6237 68.7312L13.0133 0.124605H0L46.1164 80.0005Z" fill="white"/>
</svg>
