<svg width="61" height="37" viewBox="0 0 61 37" fill="none" xmlns="http://www.w3.org/2000/svg">
<path d="M33.581 37C32.2738 37 31.318 35.7665 31.6443 34.5007L40.1516 1.50073C40.3793 0.617336 41.176 0 42.0883 0H58.9938C60.4226 0 61.3905 1.45493 60.8384 2.77277L47.0141 35.7728C46.7027 36.5162 45.9754 37 45.1694 37H33.581ZM2.58098 37C1.27379 37 0.317982 35.7665 0.644302 34.5007L9.15158 1.50073C9.37931 0.617336 10.176 0 11.0883 0H27.9938C29.4226 0 30.3905 1.45493 29.8384 2.77277L16.0141 35.7728C15.7027 36.5162 14.9754 37 14.1694 37H2.58098Z" fill="#95C5FD"/>
</svg>
