<svg width="180" height="36" viewBox="0 0 180 36" fill="none" xmlns="http://www.w3.org/2000/svg">
<path d="M16.0438 6.02106C16.6596 4.12579 19.3409 4.12579 19.9567 6.02106L21.5796 11.0159C21.855 11.8635 22.6449 12.4374 23.5361 12.4374H28.788C30.7808 12.4374 31.6094 14.9875 29.9972 16.1588L25.7483 19.2458C25.0273 19.7696 24.7256 20.6982 25.001 21.5458L26.6239 26.5406C27.2397 28.4359 25.0705 30.0119 23.4583 28.8406L19.2094 25.7536C18.4884 25.2298 17.5121 25.2298 16.7911 25.7536L12.5422 28.8406C10.93 30.0119 8.76075 28.4359 9.37656 26.5406L10.9995 21.5458C11.2749 20.6982 10.9732 19.7696 10.2522 19.2458L6.0033 16.1588C4.39108 14.9875 5.21965 12.4374 7.21245 12.4374H12.4644C13.3556 12.4374 14.1454 11.8635 14.4208 11.0159L16.0438 6.02106Z" fill="#FFA928"/>
<path d="M52.0438 6.02106C52.6596 4.12579 55.3409 4.12579 55.9567 6.02106L57.5796 11.0159C57.855 11.8635 58.6449 12.4374 59.5361 12.4374H64.788C66.7808 12.4374 67.6094 14.9875 65.9972 16.1588L61.7483 19.2458C61.0273 19.7696 60.7256 20.6982 61.001 21.5458L62.6239 26.5406C63.2397 28.4359 61.0705 30.0119 59.4583 28.8406L55.2094 25.7536C54.4884 25.2298 53.5121 25.2298 52.7911 25.7536L48.5422 28.8406C46.93 30.0119 44.7607 28.4359 45.3766 26.5406L46.9995 21.5458C47.2749 20.6982 46.9732 19.7696 46.2522 19.2458L42.0033 16.1588C40.3911 14.9875 41.2197 12.4374 43.2125 12.4374H48.4644C49.3556 12.4374 50.1454 11.8635 50.4208 11.0159L52.0438 6.02106Z" fill="#FFA928"/>
<path d="M88.0438 6.02106C88.6596 4.12579 91.3409 4.12579 91.9567 6.02106L93.5796 11.0159C93.855 11.8635 94.6449 12.4374 95.5361 12.4374H100.788C102.781 12.4374 103.609 14.9875 101.997 16.1588L97.7483 19.2458C97.0273 19.7696 96.7256 20.6982 97.001 21.5458L98.6239 26.5406C99.2397 28.4359 97.0705 30.0119 95.4583 28.8406L91.2094 25.7536C90.4884 25.2298 89.5121 25.2298 88.7911 25.7536L84.5422 28.8406C82.93 30.0119 80.7607 28.4359 81.3766 26.5406L82.9995 21.5458C83.2749 20.6982 82.9732 19.7696 82.2522 19.2458L78.0033 16.1588C76.3911 14.9875 77.2197 12.4374 79.2125 12.4374H84.4644C85.3556 12.4374 86.1454 11.8635 86.4208 11.0159L88.0438 6.02106Z" fill="#FFA928"/>
<path d="M124.044 6.02106C124.66 4.12579 127.341 4.12579 127.957 6.02106L129.58 11.0159C129.855 11.8635 130.645 12.4374 131.536 12.4374H136.788C138.781 12.4374 139.609 14.9875 137.997 16.1588L133.748 19.2458C133.027 19.7696 132.726 20.6982 133.001 21.5458L134.624 26.5406C135.24 28.4359 133.071 30.0119 131.458 28.8406L127.209 25.7536C126.488 25.2298 125.512 25.2298 124.791 25.7536L120.542 28.8406C118.93 30.0119 116.761 28.4359 117.377 26.5406L118.999 21.5458C119.275 20.6982 118.973 19.7696 118.252 19.2458L114.003 16.1588C112.391 14.9875 113.22 12.4374 115.212 12.4374H120.464C121.356 12.4374 122.145 11.8635 122.421 11.0159L124.044 6.02106Z" fill="#FFA928"/>
<path d="M160.044 6.02106C160.66 4.12579 163.341 4.12579 163.957 6.02106L165.58 11.0159C165.855 11.8635 166.645 12.4374 167.536 12.4374H172.788C174.781 12.4374 175.609 14.9875 173.997 16.1588L169.748 19.2458C169.027 19.7696 168.726 20.6982 169.001 21.5458L170.624 26.5406C171.24 28.4359 169.071 30.0119 167.458 28.8406L163.209 25.7536C162.488 25.2298 161.512 25.2298 160.791 25.7536L156.542 28.8406C154.93 30.0119 152.761 28.4359 153.377 26.5406L154.999 21.5458C155.275 20.6982 154.973 19.7696 154.252 19.2458L150.003 16.1588C148.391 14.9875 149.22 12.4374 151.212 12.4374H156.464C157.356 12.4374 158.145 11.8635 158.421 11.0159L160.044 6.02106Z" fill="#FFA928"/>
</svg>
